M48
;DRILL file {KiCad (5.0.2)-1} date 7/28/2019 5:57:31 PM
;FORMAT={-:-/ absolute / inch / decimal}
FMAT,2
INCH,TZ
T1C0.0157
T2C0.0236
T3C0.0256
T4C0.0315
T5C0.0335
T6C0.0354
T7C0.0394
T8C0.0472
T9C0.0591
T10C0.1181
%
G90
G05
T1
X10.9335Y-10.5673
X11.1024Y-10.7382
X11.2106Y-10.7087
X11.2323Y-10.5547
X11.25Y-10.7078
X11.2984Y-10.6295
X11.3224Y-11.7116
X11.3288Y-11.6728
X11.4075Y-9.9705
X11.4173Y-9.9016
X11.5945Y-10.0689
X11.7015Y-10.0023
X11.7559Y-10.3622
X11.7618Y-9.9016
X11.7815Y-10.7874
X11.788Y-10.0368
X11.8346Y-9.8425
X11.8799Y-10.7864
X11.939Y-10.7874
X11.9449Y-11.
X11.9783Y-10.7874
X12.0276Y-10.9843
X12.0472Y-10.7776
X12.1063Y-10.7776
X12.1329Y-9.9867
X12.1358Y-9.8917
X12.1358Y-10.0295
X12.1555Y-10.0689
X12.322Y-13.5935
X12.3425Y-9.7835
X12.3937Y-11.622
X12.4016Y-10.3307
X12.4488Y-10.8398
X12.4803Y-13.0079
X12.5182Y-9.969
X12.5276Y-10.5276
X12.5363Y-10.7927
X12.5512Y-10.3228
X12.5591Y-9.9685
X12.5689Y-10.2657
X12.5801Y-9.7587
X12.5886Y-10.2067
X12.655Y-10.7825
X12.6575Y-10.2067
X12.6614Y-10.3465
X12.6635Y-9.8425
X12.6673Y-10.0787
X12.7067Y-9.8819
X12.7067Y-9.9213
X12.7087Y-10.7539
X12.7264Y-10.187
X12.7331Y-9.8209
X12.7461Y-10.9744
X12.7746Y-10.8802
X12.8095Y-10.8027
X12.8445Y-10.1093
X12.8445Y-10.8268
X12.8579Y-9.7746
X12.8976Y-10.5276
X12.9331Y-11.4961
X12.9459Y-11.5512
X12.9528Y-11.4469
X12.9921Y-9.8228
X13.002Y-10.2461
X13.0118Y-10.187
X13.1102Y-10.0915
X13.1173Y-9.7549
X13.3957Y-10.7972
X13.4257Y-9.9798
X13.4409Y-10.1496
X13.4444Y-9.8912
X13.4449Y-9.9311
X13.4449Y-10.0689
X13.4547Y-10.0295
X13.4547Y-10.4528
X13.4646Y-11.3976
X13.5236Y-11.4262
X13.5728Y-10.3376
X13.5827Y-10.1575
X13.6103Y-10.3255
X13.6497Y-10.3262
X13.6948Y-11.7116
X13.7303Y-10.1575
X13.7303Y-11.6339
X13.9055Y-14.0709
X14.124Y-11.6831
X14.2913Y-10.1969
X14.5197Y-10.5197
X18.0217Y-9.9016
X19.124Y-10.2067
X19.8917Y-9.8917
X20.4626Y-10.8957
X20.6398Y-9.8917
X20.9449Y-11.1732
X21.6535Y-9.8228
X22.937Y-13.0787
X23.1575Y-13.8189
T3
X11.122Y-9.7638
X11.172Y-9.7638
X11.222Y-9.7638
T4
X11.7087Y-10.2362
X11.7087Y-10.4283
X11.8524Y-9.9173
X12.0445Y-9.9173
T5
X11.752Y-9.6639
X11.9488Y-9.6639
T6
X10.7346Y-9.8551
X10.8346Y-9.8551
X10.7343Y-10.2059
X10.8343Y-10.2059
X10.735Y-10.0264
X10.835Y-10.0264
T7
X13.1744Y-9.7835
X13.2744Y-9.7835
X13.3744Y-9.7835
X13.4744Y-9.7835
X13.5744Y-9.7835
T8
X22.9921Y-13.3992
X22.9921Y-13.7992
X17.6217Y-10.5217
X18.0217Y-10.5217
X25.8071Y-13.3953
X25.8071Y-13.7953
X10.7024Y-13.1299
X11.1024Y-13.1299
X17.9636Y-12.6482
X17.9636Y-13.0482
X26.5551Y-14.1472
X26.5551Y-14.5472
X16.8307Y-13.3992
X16.8307Y-13.7992
X18.7077Y-12.6502
X18.7077Y-13.0502
X16.4774Y-12.6472
X16.4774Y-13.0472
X20.5778Y-13.4002
X20.5778Y-13.8002
X20.9878Y-10.5118
X21.3878Y-10.5118
X13.4843Y-13.6748
X13.4843Y-14.0748
X14.7953Y-11.8996
X14.7953Y-12.2996
X13.9559Y-12.6476
X13.9559Y-13.0476
X13.8598Y-11.8996
X13.8598Y-12.2996
X23.2461Y-12.6531
X23.2461Y-13.0531
X19.6417Y-11.1522
X19.6417Y-11.5522
X25.8169Y-11.8894
X25.8169Y-12.2894
X10.7024Y-12.3819
X11.1024Y-12.3819
X19.4646Y-12.6463
X19.4646Y-13.0463
X12.1984Y-13.1299
X12.5984Y-13.1299
X15.6299Y-14.1453
X15.6299Y-14.5453
X18.1575Y-11.1522
X18.1575Y-11.5522
X17.5984Y-13.3795
X17.5984Y-13.7795
X20.0315Y-11.9051
X20.0315Y-12.3051
X21.1811Y-14.1374
X21.1811Y-14.5374
X25.0866Y-14.1433
X25.0866Y-14.5433
X23.0039Y-14.1413
X23.0039Y-14.5413
X12.1984Y-10.8858
X12.5984Y-10.8858
X20.2398Y-10.5217
X20.6398Y-10.5217
X26.037Y-11.6339
X26.437Y-11.6339
X10.7024Y-11.6339
X11.1024Y-11.6339
X17.2047Y-12.6512
X17.2047Y-13.0512
X19.2569Y-11.8982
X19.2569Y-12.2982
X12.1984Y-12.3622
X12.5984Y-12.3622
X17.0276Y-11.9031
X17.0276Y-12.3031
X18.7535Y-10.5315
X19.1535Y-10.5315
X16.8736Y-10.5413
X17.2736Y-10.5413
X21.5059Y-11.8933
X21.5059Y-12.2933
X22.0768Y-13.3992
X22.0768Y-13.7992
X13.4882Y-12.2772
X13.4882Y-12.6772
X13.7669Y-14.1429
X13.7669Y-14.5429
X22.6524Y-11.152
X22.6524Y-11.552
X25.0394Y-11.9031
X25.0394Y-12.3031
X23.376Y-11.1512
X23.376Y-11.5512
X11.4504Y-13.1299
X11.8504Y-13.1299
X17.4016Y-11.1551
X17.4016Y-11.5551
X23.6157Y-10.5217
X24.0157Y-10.5217
X10.7024Y-10.8858
X11.1024Y-10.8858
X16.6535Y-11.1551
X16.6535Y-11.5551
X18.3425Y-13.3963
X18.3425Y-13.7963
X26.785Y-10.5118
X27.185Y-10.5118
X15.3587Y-13.3953
X15.3587Y-13.7953
X17.7756Y-11.9031
X17.7756Y-12.3031
X14.685Y-14.1472
X14.685Y-14.5472
X20.7677Y-11.9031
X20.7677Y-12.3031
X20.3937Y-11.1354
X20.3937Y-11.5354
X21.7028Y-12.6315
X21.7028Y-13.0315
X14.4217Y-11.1516
X14.4217Y-11.5516
X22.1594Y-14.1433
X22.1594Y-14.5433
X23.0118Y-11.8618
X23.0118Y-12.2618
X11.4504Y-12.3819
X11.8504Y-12.3819
X19.4917Y-10.5118
X19.8917Y-10.5118
X25.0394Y-11.1551
X25.0394Y-11.5551
X26.5551Y-11.9031
X26.5551Y-12.3031
X15.7264Y-12.6472
X15.7264Y-13.0472
X19.0837Y-13.3933
X19.0837Y-13.7933
X11.4701Y-11.6339
X11.8701Y-11.6339
X15.1732Y-11.1512
X15.1732Y-11.5512
X16.0925Y-13.3953
X16.0925Y-13.7953
X20.1998Y-12.6492
X20.1998Y-13.0492
X22.2598Y-11.852
X22.2598Y-12.252
X12.1984Y-13.878
X12.5984Y-13.878
X21.1417Y-11.1551
X21.1417Y-11.5551
X13.776Y-13.3941
X13.776Y-13.7941
X24.3539Y-10.502
X24.7539Y-10.502
X24.0157Y-14.1472
X24.0157Y-14.5472
X11.4504Y-10.8858
X11.8504Y-10.8858
X19.2467Y-13.9783
X19.6467Y-13.9783
X26.0469Y-10.502
X26.4469Y-10.502
X25.8209Y-14.1394
X25.8209Y-14.5394
X15.5453Y-11.8992
X15.5453Y-12.2992
X18.5059Y-11.8992
X18.5059Y-12.2992
X12.1984Y-11.624
X12.5984Y-11.624
X15.9173Y-11.1512
X15.9173Y-11.5512
X16.2825Y-11.8963
X16.2825Y-12.2963
X22.4409Y-12.6591
X22.4409Y-13.0591
X21.8898Y-11.1453
X21.8898Y-11.5453
X22.1098Y-10.5217
X22.5098Y-10.5217
X14.9807Y-12.6492
X14.9807Y-13.0492
X25.289Y-10.502
X25.689Y-10.502
X23.8209Y-11.9012
X23.8209Y-12.3012
X11.0764Y-13.878
X11.4764Y-13.878
X19.8287Y-13.3943
X19.8287Y-13.7943
X26.5748Y-11.1551
X26.5748Y-11.5551
X16.1354Y-10.5197
X16.5354Y-10.5197
X18.8986Y-11.1541
X18.8986Y-11.5541
X15.3795Y-10.5197
X15.7795Y-10.5197
X21.3189Y-13.3992
X21.3189Y-13.7992
X22.8579Y-10.5315
X23.2579Y-10.5315
X20.9449Y-12.6512
X20.9449Y-13.0512
X13.8913Y-10.5276
X14.2913Y-10.5276
X12.9071Y-10.8858
X13.3071Y-10.8858
X13.6732Y-11.1512
X13.6732Y-11.5512
T9
X20.9902Y-10.0291
X21.2402Y-9.9291
X17.624Y-10.0291
X17.874Y-9.9291
X22.298Y-13.397
X22.548Y-13.297
X18.9331Y-12.6482
X19.1831Y-12.5482
X25.2913Y-14.1433
X25.5413Y-14.0433
X20.4287Y-12.6488
X20.6787Y-12.5488
X20.2406Y-11.9008
X20.4906Y-11.8008
X15.5679Y-13.3953
X15.8179Y-13.2953
X16.689Y-12.6472
X16.939Y-12.5472
X25.2913Y-11.8992
X25.5413Y-11.7992
X10.7047Y-13.3953
X10.9547Y-13.2953
X11.4528Y-12.6472
X11.7028Y-12.5472
X23.7024Y-13.3957
X23.9524Y-13.2957
X22.3929Y-14.1441
X22.6429Y-14.0441
X26.0394Y-14.1433
X26.2894Y-14.0433
X18.372Y-11.1512
X18.622Y-11.0512
X22.1126Y-11.1524
X22.3626Y-11.0524
X17.624Y-11.1512
X17.874Y-11.0512
X26.0394Y-10.0287
X26.2894Y-9.9287
X23.2346Y-11.8996
X23.4846Y-11.7996
X20.0555Y-13.3957
X20.3055Y-13.2957
X16.502Y-11.8992
X16.752Y-11.7992
X26.0394Y-11.8992
X26.2894Y-11.7992
X12.2008Y-11.1512
X12.4508Y-11.0512
X26.7874Y-11.8992
X27.0374Y-11.7992
X15.8474Y-14.1453
X16.0974Y-14.0453
X21.4577Y-14.1443
X21.7077Y-14.0443
X26.7874Y-11.1512
X27.0374Y-11.0512
X18.7461Y-10.0291
X18.9961Y-9.9291
X20.6146Y-11.1528
X20.8646Y-11.0528
X17.437Y-12.6472
X17.687Y-12.5472
X22.8602Y-10.0291
X23.1102Y-9.9291
X23.6083Y-10.0291
X23.8583Y-9.9291
X26.7874Y-14.1433
X27.0374Y-14.0433
X13.8839Y-10.0291
X14.1339Y-9.9291
X15.3789Y-11.1512
X15.6289Y-11.0512
X13.9764Y-14.1433
X14.2264Y-14.0433
X15.0055Y-11.901
X15.2555Y-11.801
X22.8594Y-11.152
X23.1094Y-11.052
X12.8976Y-13.7697
X12.9976Y-14.0197
X12.9488Y-11.1512
X13.1988Y-11.0512
X12.2008Y-13.3953
X12.4508Y-13.2953
X14.1644Y-12.6482
X14.4144Y-12.5482
X11.0787Y-14.1433
X11.3287Y-14.0433
X18.6526Y-14.1433
X18.9026Y-14.0433
X19.6819Y-12.6469
X19.9319Y-12.5469
X17.998Y-11.8992
X18.248Y-11.7992
X21.7366Y-11.9008
X21.9866Y-11.8008
X18.185Y-12.6482
X18.435Y-12.5482
X20.802Y-13.3961
X21.052Y-13.2961
X22.6724Y-12.6492
X22.9224Y-12.5492
X20.9886Y-11.9008
X21.2386Y-11.8008
X13.8839Y-11.1512
X14.1339Y-11.0512
X14.6319Y-11.1512
X14.8819Y-11.0512
X16.128Y-10.0291
X16.378Y-9.9291
X12.2008Y-12.6472
X12.4508Y-12.5472
X11.4528Y-13.3953
X11.7028Y-13.2953
X23.8886Y-12.6476
X24.1386Y-12.5476
X16.876Y-10.0291
X17.126Y-9.9291
X26.0394Y-13.3953
X26.2894Y-13.2953
X17.25Y-11.8992
X17.5Y-11.7992
X21.3642Y-11.1524
X21.6142Y-11.0524
X16.876Y-11.1512
X17.126Y-11.0512
X26.7878Y-10.0295
X27.0378Y-9.9295
X22.1112Y-10.0301
X22.3612Y-9.9301
X26.0394Y-11.1512
X26.2894Y-11.0512
X15.9409Y-12.6472
X16.1909Y-12.5472
X14.0709Y-11.9002
X14.3209Y-11.8002
X15.7549Y-11.8992
X16.0049Y-11.7992
X10.7047Y-11.8992
X10.9547Y-11.7992
X10.7047Y-12.6472
X10.9547Y-12.5472
X10.7047Y-11.1512
X10.9547Y-11.0512
X23.9827Y-11.1508
X24.2327Y-11.0508
X19.1205Y-11.1516
X19.3705Y-11.0516
X22.4854Y-11.9012
X22.7354Y-11.8012
X17.811Y-13.3953
X18.061Y-13.2953
X25.2913Y-11.1512
X25.5413Y-11.0512
X17.063Y-13.3953
X17.313Y-13.2953
X24.3567Y-10.0291
X24.6067Y-9.9291
X21.55Y-13.3961
X21.8Y-13.2961
X25.2917Y-10.0291
X25.5417Y-9.9291
X16.128Y-11.1512
X16.378Y-11.0512
X15.1929Y-12.6482
X15.4429Y-12.5482
X12.2008Y-14.1443
X12.4508Y-14.0443
X15.3799Y-10.0291
X15.6299Y-9.9291
X14.9124Y-14.1443
X15.1624Y-14.0443
X11.4528Y-11.8992
X11.7028Y-11.7992
X24.2638Y-14.1433
X24.5138Y-14.0433
X23.3291Y-14.1433
X23.5791Y-14.0433
X19.3081Y-13.3953
X19.5581Y-13.2953
X19.4953Y-11.8992
X19.7453Y-11.7992
X18.5591Y-13.3963
X18.8091Y-13.2963
X24.1701Y-11.8988
X24.4201Y-11.7988
X19.4941Y-10.0291
X19.7441Y-9.9291
X19.8675Y-11.1528
X20.1175Y-11.0528
X21.176Y-12.6484
X21.426Y-12.5484
X21.924Y-12.6484
X22.174Y-12.5484
X16.3159Y-13.3953
X16.5659Y-13.2953
X14.3524Y-13.3953
X14.6024Y-13.2953
X12.8976Y-12.2736
X12.9976Y-12.5236
X12.2008Y-11.8992
X12.4508Y-11.7992
X11.4528Y-11.1512
X11.7028Y-11.0512
X20.2421Y-10.0291
X20.4921Y-9.9291
X18.747Y-11.9002
X18.997Y-11.8002
T10
X25.1614Y-10.6713
X25.1673Y-13.4961
X13.7579Y-10.6713
X13.5955Y-14.2451
T2
X11.7126Y-9.5714G85X11.7126Y-9.5438
G05
X11.9882Y-9.5438G85X11.9882Y-9.5714
G05
T0
M30
