0
SECTION
2
HEADER
9
$INSUNITS
70
4
9
$ACADVER
1
AC1014
9
$HANDSEED
5
FFFF
0
ENDSEC
0
SECTION
2
TABLES
0
TABLE
2
VPORT
5
8
100
AcDbSymbolTable
0
ENDTAB
0
TABLE
2
LTYPE
5
5
100
AcDbSymbolTable
0
LTYPE
5
14
100
AcDbSymbolTableRecord
100
AcDbLinetypeTableRecord
2
BYBLOCK
70
0
0
LTYPE
5
15
100
AcDbSymbolTableRecord
100
AcDbLinetypeTableRecord
2
BYLAYER
70
0
0
ENDTAB
0
TABLE
2
LAYER
5
2
100
AcDbSymbolTable
70
2
0
LAYER
5
50
100
AcDbSymbolTableRecord
100
AcDbLayerTableRecord
2
0
70
0
6
CONTINUOUS
0
ENDTAB
0
TABLE
2
STYLE
5
3
100
AcDbSymbolTable
70
1
0
STYLE
5
11
100
AcDbSymbolTableRecord
100
AcDbTextStyleTableRecord
2
STANDARD
70
0
0
ENDTAB
0
TABLE
2
VIEW
5
6
100
AcDbSymbolTable
70
0
0
ENDTAB
0
TABLE
2
UCS
5
7
100
AcDbSymbolTable
70
0
0
ENDTAB
0
TABLE
2
APPID
5
9
100
AcDbSymbolTable
70
2
0
APPID
5
12
100
AcDbSymbolTableRecord
100
AcDbRegAppTableRecord
2
ACAD
70
0
0
ENDTAB
0
TABLE
2
DIMSTYLE
5
A
100
AcDbSymbolTable
70
1
0
ENDTAB
0
TABLE
2
BLOCK_RECORD
5
1
100
AcDbSymbolTable
70
1
0
BLOCK_RECORD
5
1F
100
AcDbSymbolTableRecord
100
AcDbBlockTableRecord
2
*MODEL_SPACE
0
BLOCK_RECORD
5
1B
100
AcDbSymbolTableRecord
100
AcDbBlockTableRecord
2
*PAPER_SPACE
0
ENDTAB
0
ENDSEC
0
SECTION
2
BLOCKS
0
BLOCK
5
20
100
AcDbEntity
100
AcDbBlockBegin
2
*MODEL_SPACE
0
ENDBLK
5
21
100
AcDbEntity
100
AcDbBlockEnd
0
BLOCK
5
1C
100
AcDbEntity
100
AcDbBlockBegin
2
*PAPER_SPACE
0
ENDBLK
5
1D
100
AcDbEntity
100
AcDbBlockEnd
0
ENDSEC
0
SECTION
2
ENTITIES
0
SPLINE
5
100
100
AcDbEntity
8
0
100
AcDbSpline
70
4
71
5
72
26
73
20
74
0
42
0.000000001
43
0.0000000001
44
0.0000000001
40
0
40
0
40
0
40
0
40
0
40
0
40
0.066666666666666666
40
0.13333333333333333
40
0.20000000000000001
40
0.26666666666666666
40
0.33333333333333331
40
0.39999999999999997
40
0.46666666666666662
40
0.53333333333333333
40
0.59999999999999998
40
0.66666666666666663
40
0.73333333333333328
40
0.79999999999999993
40
0.86666666666666659
40
0.93333333333333324
40
1
40
1
40
1
40
1
40
1
40
1
41
1
41
1
41
1
41
1
41
1
41
1
41
1
41
1
41
1
41
1
41
1
41
1
41
1
41
1
41
1
41
1
41
1
41
1
41
1
41
1
10
8.3329399676831155
20
17.888312901799022
30
0
10
8.265256855158043
20
17.840248218803268
30
0
10
8.1317320552785226
20
17.740706068112196
30
0
10
7.9369690036949914
20
17.581154373274135
30
0
10
7.6884146089253411
20
17.347793969105943
30
0
10
7.3972581608723429
20
17.021155954616173
30
0
10
7.1277803927675576
20
16.659493864379247
30
0
10
6.8835821161939794
20
16.263881237056136
30
0
10
6.6701033710907343
20
15.837535073575321
30
0
10
6.4946916193260549
20
15.386377939210947
30
0
10
6.3656035595580498
20
14.917710736162221
30
0
10
6.2910587374819382
20
14.439273729503036
30
0
10
6.2781994900183369
20
13.958281699067605
30
0
10
6.3317161757364495
20
13.480416186340662
30
0
10
6.4528477028808702
20
13.009084267314444
30
0
10
6.640954802749186
20
12.546127183044986
30
0
10
6.8437947619903259
20
12.183043909299368
30
0
10
7.0247098508499493
20
11.914874887113323
30
0
10
7.158020224887812
20
11.737923497085735
30
0
10
7.2278505337974108
20
11.649904807282951
30
0
0
SPLINE
5
101
100
AcDbEntity
8
0
100
AcDbSpline
70
4
71
5
72
21
73
15
74
0
42
0.000000001
43
0.0000000001
44
0.0000000001
40
0
40
0
40
0
40
0
40
0
40
0
40
0.10000000000000001
40
0.20000000000000001
40
0.30000000000000004
40
0.40000000000000002
40
0.5
40
0.59999999999999998
40
0.69999999999999996
40
0.79999999999999993
40
0.89999999999999991
40
1
40
1
40
1
40
1
40
1
40
1
41
1
41
1
41
1
41
1
41
1
41
1
41
1
41
1
41
1
41
1
41
1
41
1
41
1
41
1
41
1
10
8.3329399676831155
20
17.888312901799022
30
0
10
8.3172968837821415
20
17.80310995116843
30
0
10
8.2854286574572669
20
17.634193192258302
30
0
10
8.2358802457152986
20
17.385285216626801
30
0
10
8.1662652064461625
20
17.062491513454063
30
0
10
8.0729158593016415
20
16.675195500246403
30
0
10
7.9726281692323653
20
16.305650589173059
30
0
10
7.864766530130419
20
15.955482919072795
30
0
10
7.7488675967472194
20
15.625877915469875
30
0
10
7.6250754074767046
20
15.316467069586885
30
0
10
7.4939148597983163
20
15.02590748025986
30
0
10
7.3835391207453025
20
14.807396219229215
30
0
10
7.2978826785008
20
14.650867266081073
30
0
10
7.2395213959605353
20
14.549730516263825
30
0
10
7.2100265106702244
20
14.499966105320436
30
0
0
SPLINE
5
102
100
AcDbEntity
8
0
100
AcDbSpline
70
4
71
5
72
21
73
15
74
0
42
0.000000001
43
0.0000000001
44
0.0000000001
40
0
40
0
40
0
40
0
40
0
40
0
40
0.10000000000000001
40
0.20000000000000001
40
0.30000000000000004
40
0.40000000000000002
40
0.5
40
0.59999999999999998
40
0.69999999999999996
40
0.79999999999999993
40
0.89999999999999991
40
1
40
1
40
1
40
1
40
1
40
1
41
1
41
1
41
1
41
1
41
1
41
1
41
1
41
1
41
1
41
1
41
1
41
1
41
1
41
1
41
1
10
7.6701464631954783
20
15.434187194674374
30
0
10
7.7144980054142653
20
15.460346447357727
30
0
10
7.8029397736924713
20
15.510868469155382
30
0
10
7.9348185136748404
20
15.581262298932486
30
0
10
8.1090629033783497
20
15.66416286464686
30
0
10
8.3240292285693531
20
15.748270039969452
30
0
10
8.5358938370908284
20
15.811053685030767
30
0
10
8.7443895011871202
20
15.850676675509327
30
0
10
8.9493454540242912
20
15.865965031917588
30
0
10
9.1508683416955474
20
15.857651919611062
30
0
10
9.349203587935337
20
15.827424565695406
30
0
10
9.5055239056101684
20
15.787101596522463
30
0
10
9.6215263829947908
20
15.748350071666426
30
0
10
9.698320185230175
20
15.718795225457267
30
0
10
9.7365817889492323
20
15.703087666405679
30
0
0
SPLINE
5
103
100
AcDbEntity
8
0
100
AcDbSpline
70
4
71
5
72
21
73
15
74
0
42
0.000000001
43
0.0000000001
44
0.0000000001
40
0
40
0
40
0
40
0
40
0
40
0
40
0.10000000000000001
40
0.20000000000000001
40
0.30000000000000004
40
0.40000000000000002
40
0.5
40
0.59999999999999998
40
0.69999999999999996
40
0.79999999999999993
40
0.89999999999999991
40
1
40
1
40
1
40
1
40
1
40
1
41
1
41
1
41
1
41
1
41
1
41
1
41
1
41
1
41
1
41
1
41
1
41
1
41
1
41
1
41
1
10
9.5578141849536902
20
15.767953180069071
30
0
10
9.631770716350907
20
15.795808198988572
30
0
10
9.7799980531378559
20
15.848641780619705
30
0
10
10.003281864204956
20
15.919262931718063
30
0
10
10.302910384846138
20
15.995880818497367
30
0
10
10.680855329347361
20
16.060448927605556
30
0
10
11.062505831814063
20
16.091101168788484
30
0
10
11.448151219443881
20
16.085189416402812
30
0
10
11.837925229319579
20
16.041489614763837
30
0
10
12.231636761576247
20
15.961750843976292
30
0
10
12.628977024101658
20
15.848799386215305
30
0
10
12.949508219214509
20
15.734101321678565
30
0
10
13.191306361781937
20
15.63526631304277
30
0
10
13.353117052522665
20
15.563775503197226
30
0
10
13.434175386684542
20
15.52662983744651
30
0
0
SPLINE
5
104
100
AcDbEntity
8
0
100
AcDbSpline
70
4
71
5
72
21
73
15
74
0
42
0.000000001
43
0.0000000001
44
0.0000000001
40
0
40
0
40
0
40
0
40
0
40
0
40
0.10000000000000001
40
0.20000000000000001
40
0.30000000000000004
40
0.40000000000000002
40
0.5
40
0.59999999999999998
40
0.69999999999999996
40
0.79999999999999993
40
0.89999999999999991
40
1
40
1
40
1
40
1
40
1
40
1
41
1
41
1
41
1
41
1
41
1
41
1
41
1
41
1
41
1
41
1
41
1
41
1
41
1
41
1
41
1
10
9.7365817889492323
20
15.703087666405679
30
0
10
9.7787399625926845
20
15.681030546511456
30
0
10
9.861611491852841
20
15.636140081253609
30
0
10
9.9815845098026053
20
15.566475802663895
30
0
10
10.132735827251373
20
15.468855489711489
30
0
10
10.305981897420228
20
15.338399025845362
30
0
10
10.46210014836438
20
15.198740676842954
30
0
10
10.599641621899099
20
15.04910199294104
30
0
10
10.717723867955439
20
14.889008879679633
30
0
10
10.816997757479307
20
14.718811016114834
30
0
10
10.898833729988279
20
14.539244668016689
30
0
10
10.951471757033289
20
14.388698295353212
30
0
10
10.984188042582794
20
14.272155519352642
30
0
10
11.003042346394176
20
14.192871933302149
30
0
10
11.011730345892506
20
14.152833032188134
30
0
0
SPLINE
5
105
100
AcDbEntity
8
0
100
AcDbSpline
70
4
71
5
72
21
73
15
74
0
42
0.000000001
43
0.0000000001
44
0.0000000001
40
0
40
0
40
0
40
0
40
0
40
0
40
0.10000000000000001
40
0.20000000000000001
40
0.30000000000000004
40
0.40000000000000002
40
0.5
40
0.59999999999999998
40
0.69999999999999996
40
0.79999999999999993
40
0.89999999999999991
40
1
40
1
40
1
40
1
40
1
40
1
41
1
41
1
41
1
41
1
41
1
41
1
41
1
41
1
41
1
41
1
41
1
41
1
41
1
41
1
41
1
10
10.455547829780102
20
15.198132096789468
30
0
10
10.517137852658658
20
15.191047389300333
30
0
10
10.640141859974841
20
15.178069438579341
30
0
10
10.824119772534999
20
15.162176790828489
30
0
10
11.068349936505179
20
15.148253747138096
30
0
10
11.37172653039255
20
15.143784734060501
30
0
10
11.673020724097343
20
15.153409832295386
30
0
10
11.972061801120567
20
15.178284486090689
30
0
10
12.268755151883505
20
15.219049032456848
30
0
10
12.563191908569127
20
15.275086670088548
30
0
10
12.855541611203609
20
15.345249917325749
30
0
10
13.087888337675347
20
15.411756414520193
30
0
10
13.261340801200339
20
15.467102163372919
30
0
10
13.376622705193267
20
15.506388990841209
30
0
10
13.434175386684542
20
15.52662983744651
30
0
0
SPLINE
5
106
100
AcDbEntity
8
0
100
AcDbSpline
70
4
71
5
72
31
73
25
74
0
42
0.000000001
43
0.0000000001
44
0.0000000001
40
0
40
0
40
0
40
0
40
0
40
0
40
0.050000000000000003
40
0.10000000000000001
40
0.15000000000000002
40
0.20000000000000001
40
0.25
40
0.29999999999999999
40
0.34999999999999998
40
0.39999999999999997
40
0.44999999999999996
40
0.49999999999999994
40
0.54999999999999993
40
0.59999999999999998
40
0.65000000000000002
40
0.70000000000000007
40
0.75000000000000011
40
0.80000000000000016
40
0.8500000000000002
40
0.90000000000000024
40
0.95000000000000029
40
1
40
1
40
1
40
1
40
1
40
1
41
1
41
1
41
1
41
1
41
1
41
1
41
1
41
1
41
1
41
1
41
1
41
1
41
1
41
1
41
1
41
1
41
1
41
1
41
1
41
1
41
1
41
1
41
1
41
1
41
1
10
11.011730345892506
20
14.152833032188134
30
0
10
11.009521432920319
20
14.148517980058664
30
0
10
11.006293841610375
20
14.137334335318346
30
0
10
11.005023424379292
20
14.112894552569475
30
0
10
11.011007237059298
20
14.066761300727322
30
0
10
11.03390466429258
20
13.994004179752931
30
0
10
11.074671433991908
20
13.91180678118017
30
0
10
11.134240021914332
20
13.817249934150695
30
0
10
11.210320272627303
20
13.6976413748965
30
0
10
11.295425822617402
20
13.539113373301884
30
0
10
11.374428298198588
20
13.333672407481975
30
0
10
11.423154946458924
20
13.085633619312411
30
0
10
11.403152945550371
20
12.822493103038754
30
0
10
11.304219689112118
20
12.561588829491228
30
0
10
11.131983820420057
20
12.315469909818189
30
0
10
10.90464972214251
20
12.091669271945664
30
0
10
10.646470082290943
20
11.894456366683993
30
0
10
10.383074466523432
20
11.725637102764248
30
0
10
10.135461709213685
20
11.585753007577409
30
0
10
9.9165513626034176
20
11.474841843674636
30
0
10
9.7337384700021126
20
11.392598624034223
30
0
10
9.6189404442522033
20
11.349399711503953
30
0
10
9.5508736241785641
20
11.329541306935049
30
0
10
9.5134759539576557
20
11.321853451158168
30
0
10
9.4967722462631237
20
11.319397290526997
30
0
0
SPLINE
5
107
100
AcDbEntity
8
0
100
AcDbSpline
70
4
71
5
72
31
73
25
74
0
42
0.000000001
43
0.0000000001
44
0.0000000001
40
0
40
0
40
0
40
0
40
0
40
0
40
0.050000000000000003
40
0.10000000000000001
40
0.15000000000000002
40
0.20000000000000001
40
0.25
40
0.29999999999999999
40
0.34999999999999998
40
0.39999999999999997
40
0.44999999999999996
40
0.49999999999999994
40
0.54999999999999993
40
0.59999999999999998
40
0.65000000000000002
40
0.70000000000000007
40
0.75000000000000011
40
0.80000000000000016
40
0.8500000000000002
40
0.90000000000000024
40
0.95000000000000029
40
1
40
1
40
1
40
1
40
1
40
1
41
1
41
1
41
1
41
1
41
1
41
1
41
1
41
1
41
1
41
1
41
1
41
1
41
1
41
1
41
1
41
1
41
1
41
1
41
1
41
1
41
1
41
1
41
1
41
1
41
1
10
7.2278505337974108
20
11.649904807282951
30
0
10
7.2290291867389964
20
11.634192760823371
30
0
10
7.2318601341356228
20
11.602233072487882
30
0
10
7.2375275014709741
20
11.552686690193688
30
0
10
7.2479372944708906
20
11.483398578471824
30
0
10
7.2656825226575616
20
11.391531283027408
30
0
10
7.2879687670792439
20
11.294914847970336
30
0
10
7.3143218392692342
20
11.194659705033235
30
0
10
7.3438397299569678
20
11.092774603865422
30
0
10
7.3751123072653861
20
10.992275987047556
30
0
10
7.4064984577991364
20
10.896331871613212
30
0
10
7.436359550129974
20
10.807500772314466
30
0
10
7.4632931397601832
20
10.726986661086425
30
0
10
7.4864060119278104
20
10.653710780639216
30
0
10
7.5054698516070477
20
10.583885333027204
30
0
10
7.5206845051419169
20
10.512228164920456
30
0
10
7.532513646106322
20
10.43290955330246
30
0
10
7.5415124406828742
20
10.340505333010004
30
0
10
7.5481375706192386
20
10.23116920797901
30
0
10
7.5527020720764995
20
10.102699611184221
30
0
10
7.5554151788286621
20
9.9539883066658881
30
0
10
7.5561998609417644
20
9.8185573092969438
30
0
10
7.5560332519768627
20
9.7077495584489313
30
0
10
7.5555879055812571
20
9.629790451198657
30
0
10
7.5552816655650057
20
9.5897890636573209
30
0
0
SPLINE
5
108
100
AcDbEntity
8
0
100
AcDbSpline
70
4
71
5
72
46
73
40
74
0
42
0.000000001
43
0.0000000001
44
0.0000000001
40
0
40
0
40
0
40
0
40
0
40
0
40
0.028571428571428571
40
0.057142857142857141
40
0.085714285714285715
40
0.11428571428571428
40
0.14285714285714285
40
0.17142857142857143
40
0.20000000000000001
40
0.22857142857142859
40
0.25714285714285717
40
0.28571428571428575
40
0.31428571428571433
40
0.34285714285714292
40
0.3714285714285715
40
0.40000000000000008
40
0.42857142857142866
40
0.45714285714285724
40
0.48571428571428582
40
0.51428571428571435
40
0.54285714285714293
40
0.57142857142857151
40
0.60000000000000009
40
0.62857142857142867
40
0.65714285714285725
40
0.68571428571428583
40
0.71428571428571441
40
0.74285714285714299
40
0.77142857142857157
40
0.80000000000000016
40
0.82857142857142874
40
0.85714285714285732
40
0.8857142857142859
40
0.91428571428571448
40
0.94285714285714306
40
0.97142857142857164
40
1
40
1
40
1
40
1
40
1
40
1
41
1
41
1
41
1
41
1
41
1
41
1
41
1
41
1
41
1
41
1
41
1
41
1
41
1
41
1
41
1
41
1
41
1
41
1
41
1
41
1
41
1
41
1
41
1
41
1
41
1
41
1
41
1
41
1
41
1
41
1
41
1
41
1
41
1
41
1
41
1
41
1
41
1
41
1
41
1
41
1
10
7.5552816655650057
20
9.5897890636573209
30
0
10
7.5427813785758886
20
9.552741257745831
30
0
10
7.5203492740469553
20
9.47974098096139
30
0
10
7.4944068209174457
20
9.3735266028296724
30
0
10
7.4752462300356184
20
9.2384879693231703
30
0
10
7.4767116891485781
20
9.0806852068964332
30
0
10
7.5024386407112056
20
8.9338682760159589
30
0
10
7.5500395303397037
20
8.7979595459475721
30
0
10
7.6151897209765131
20
8.6727468701268133
30
0
10
7.6919452026907056
20
8.5579290032124771
30
0
10
7.7750013871523098
20
8.4533754643601906
30
0
10
7.8614430463173672
20
8.3593282063616172
30
0
10
7.9528809719460503
20
8.2766496283890909
30
0
10
8.0569544317921586
20
8.2069888941097826
30
0
10
8.1839049576807295
20
8.1523009201181331
30
0
10
8.343462091001582
20
8.1144080313140972
30
0
10
8.5418336126669416
20
8.0945676250296099
30
0
10
8.7780618104871024
20
8.0929717128066461
30
0
10
9.0451229661976367
20
8.1087473744848193
30
0
10
9.3321444424339735
20
8.1400681757610496
30
0
10
9.626183797622561
20
8.1842268237363847
30
0
10
9.9142351259179868
20
8.2377024545432462
30
0
10
10.184991541979239
20
8.2962578780410539
30
0
10
10.431064467774274
20
8.3549353618908917
30
0
10
10.64979190048181
20
8.408388287369073
30
0
10
10.842009669508901
20
8.451705553745283
30
0
10
11.01133318395776
20
8.4811226996849172
30
0
10
11.163253533680532
20
8.4947770610985547
30
0
10
11.304326110989901
20
8.4934738507182974
30
0
10
11.441335176982088
20
8.4814123185078749
30
0
10
11.580917322741611
20
8.4649194580856406
30
0
10
11.729146197032774
20
8.4511938703690745
30
0
10
11.891171447097115
20
8.4471499707258317
30
0
10
12.070726374134091
20
8.4579820033741608
30
0
10
12.270175253692852
20
8.4869781717279729
30
0
10
12.490873466839883
20
8.5360682653756967
30
0
10
12.684914086467334
20
8.5921233672612054
30
0
10
12.84034295136513
20
8.6437142829499489
30
0
10
12.948355522397668
20
8.6823465823816175
30
0
10
13.003460146640942
20
8.7027223364833546
30
0
0
SPLINE
5
109
100
AcDbEntity
8
0
100
AcDbSpline
70
4
71
5
72
26
73
20
74
0
42
0.000000001
43
0.0000000001
44
0.0000000001
40
0
40
0
40
0
40
0
40
0
40
0
40
0.066666666666666666
40
0.13333333333333333
40
0.20000000000000001
40
0.26666666666666666
40
0.33333333333333331
40
0.39999999999999997
40
0.46666666666666662
40
0.53333333333333333
40
0.59999999999999998
40
0.66666666666666663
40
0.73333333333333328
40
0.79999999999999993
40
0.86666666666666659
40
0.93333333333333324
40
1
40
1
40
1
40
1
40
1
40
1
41
1
41
1
41
1
41
1
41
1
41
1
41
1
41
1
41
1
41
1
41
1
41
1
41
1
41
1
41
1
41
1
41
1
41
1
41
1
41
1
10
7.5552816655650057
20
9.5897890636573209
30
0
10
7.5582953134026596
20
9.6000170763918682
30
0
10
7.5647290656881392
20
9.6201030396685656
30
0
10
7.5755990601636451
20
9.6491218021206073
30
0
10
7.5925488783264132
20
9.6855769453494585
30
0
10
7.6179321562970621
20
9.7273180796517877
30
0
10
7.6476297777713667
20
9.7651009201058407
30
0
10
7.681727189921097
20
9.7988018784515845
30
0
10
7.720212382282428
20
9.8283541705378514
30
0
10
7.7629088914072941
20
9.8538013371997284
30
0
10
7.8095447791613299
20
9.8752527242734498
30
0
10
7.859800268397068
20
9.8928573772931081
30
0
10
7.9133479111003542
20
9.9067854950340291
30
0
10
7.969882397862734
20
9.9172225351603203
30
0
10
8.0291427686114165
20
9.924367707076394
30
0
10
8.090923292728526
20
9.9284026087265325
30
0
10
8.1422481035078302
20
9.9292573674538982
30
0
10
8.1817733847166068
20
9.9286046685816114
30
0
10
8.2085787738068134
20
9.9275986957924278
30
0
10
8.2220952694191158
20
9.9269529982648503
30
0
0
SPLINE
5
110
100
AcDbEntity
8
0
100
AcDbSpline
70
4
71
5
72
31
73
25
74
0
42
0.000000001
43
0.0000000001
44
0.0000000001
40
0
40
0
40
0
40
0
40
0
40
0
40
0.050000000000000003
40
0.10000000000000001
40
0.15000000000000002
40
0.20000000000000001
40
0.25
40
0.29999999999999999
40
0.34999999999999998
40
0.39999999999999997
40
0.44999999999999996
40
0.49999999999999994
40
0.54999999999999993
40
0.59999999999999998
40
0.65000000000000002
40
0.70000000000000007
40
0.75000000000000011
40
0.80000000000000016
40
0.8500000000000002
40
0.90000000000000024
40
0.95000000000000029
40
1
40
1
40
1
40
1
40
1
40
1
41
1
41
1
41
1
41
1
41
1
41
1
41
1
41
1
41
1
41
1
41
1
41
1
41
1
41
1
41
1
41
1
41
1
41
1
41
1
41
1
41
1
41
1
41
1
41
1
41
1
10
7.7494255577621916
20
9.8448704644896345
30
0
10
7.737031668218969
20
9.8382569263359034
30
0
10
7.7138458113988602
20
9.8231797806590055
30
0
10
7.6838728394764555
20
9.7950137636677521
30
0
10
7.6535593226368528
20
9.7463139575337205
30
0
10
7.631839414243716
20
9.6668895303066531
30
0
10
7.6261407671423456
20
9.5694781366159791
30
0
10
7.6358549826936803
20
9.4555538427353856
30
0
10
7.6596194443723462
20
9.3280090694668196
30
0
10
7.6951768922035164
20
9.1913702781789599
30
0
10
7.739785668671618
20
9.0510028454108067
30
0
10
7.7905110680492538
20
8.9125252094518004
30
0
10
7.8445619032848359
20
8.7811217220725428
30
0
10
7.8995691197783202
20
8.6609672989177415
30
0
10
7.9539690016867652
20
8.5544026570607858
30
0
10
8.0070205040199713
20
8.4619401918300916
30
0
10
8.0585354652723815
20
8.3829223233788124
30
0
10
8.1086957900573111
20
8.3159728379665498
30
0
10
8.1578559521231302
20
8.259474070924405
30
0
10
8.2063276342241256
20
8.2120847466363607
30
0
10
8.2542863145118375
20
8.1729561934532509
30
0
10
8.2923198524471928
20
8.1478546438307617
30
0
10
8.3206724032816268
20
8.1324143912076092
30
0
10
8.3394978091924408
20
8.1236193556094669
30
0
10
8.3488914323361136
20
8.1195964699220333
30
0
0
SPLINE
5
111
100
AcDbEntity
8
0
100
AcDbSpline
70
4
71
5
72
31
73
25
74
0
42
0.000000001
43
0.0000000001
44
0.0000000001
40
0
40
0
40
0
40
0
40
0
40
0
40
0.050000000000000003
40
0.10000000000000001
40
0.15000000000000002
40
0.20000000000000001
40
0.25
40
0.29999999999999999
40
0.34999999999999998
40
0.39999999999999997
40
0.44999999999999996
40
0.49999999999999994
40
0.54999999999999993
40
0.59999999999999998
40
0.65000000000000002
40
0.70000000000000007
40
0.75000000000000011
40
0.80000000000000016
40
0.8500000000000002
40
0.90000000000000024
40
0.95000000000000029
40
1
40
1
40
1
40
1
40
1
40
1
41
1
41
1
41
1
41
1
41
1
41
1
41
1
41
1
41
1
41
1
41
1
41
1
41
1
41
1
41
1
41
1
41
1
41
1
41
1
41
1
41
1
41
1
41
1
41
1
41
1
10
7.7494255577621916
20
9.8448704644896345
30
0
10
7.7619109923107752
20
9.8459047447456225
30
0
10
7.7864658353027849
20
9.8477044385077335
30
0
10
7.822050421209009
20
9.8495968120411561
30
0
10
7.8677014432876291
20
9.8494265670522037
30
0
10
7.9255680744522072
20
9.8387819466742279
30
0
10
7.9885568771046236
20
9.8107587706405681
30
0
10
8.0601661176539974
20
9.759404792654534
30
0
10
8.1413146593975689
20
9.6823531669153144
30
0
10
8.2303903874806377
20
9.5808515202466484
30
0
10
8.3241837564304149
20
9.4585396052731667
30
0
10
8.4185151161177991
20
9.3206787510193738
30
0
10
8.508944374947145
20
9.173267837373384
30
0
10
8.5914797691944891
20
9.0222010198493621
30
0
10
8.6631607460772067
20
8.872552211005436
30
0
10
8.7218186343406927
20
8.7286693728445393
30
0
10
8.7659624992449068
20
8.594156723766238
30
0
10
8.7946434357649732
20
8.4718750752533509
30
0
10
8.8073497771211944
20
8.3639312205792642
30
0
10
8.8039240091963151
20
8.2715996394474747
30
0
10
8.7844536799275339
20
8.1954365318511897
30
0
10
8.7561995348064272
20
8.1475391533890331
30
0
10
8.7279664377367592
20
8.1189032507374357
30
0
10
8.7060270915907534
20
8.1030383287476155
30
0
10
8.6942780985042862
20
8.0959122809050417
30
0
0
SPLINE
5
112
100
AcDbEntity
8
0
100
AcDbSpline
70
4
71
5
72
21
73
15
74
0
42
0.000000001
43
0.0000000001
44
0.0000000001
40
0
40
0
40
0
40
0
40
0
40
0
40
0.10000000000000001
40
0.20000000000000001
40
0.30000000000000004
40
0.40000000000000002
40
0.5
40
0.59999999999999998
40
0.69999999999999996
40
0.79999999999999993
40
0.89999999999999991
40
1
40
1
40
1
40
1
40
1
40
1
41
1
41
1
41
1
41
1
41
1
41
1
41
1
41
1
41
1
41
1
41
1
41
1
41
1
41
1
41
1
10
7.762739699507879
20
12.306293566854711
30
0
10
7.7821010804709045
20
12.30512181923862
30
0
10
7.8204808042332896
20
12.303607881824929
30
0
10
7.8770213030088403
20
12.303825582360275
30
0
10
7.9503163613909038
20
12.309175524941875
30
0
10
8.0382120725202899
20
12.324866431114554
30
0
10
8.1220545727866504
20
12.350359082731385
30
0
10
8.2015172011341182
20
12.386443433388179
30
0
10
8.2764291594789459
20
12.43353251842322
30
0
10
8.3469795331856709
20
12.491169078964804
30
0
10
8.4135011716038051
20
12.55854819646353
30
0
10
8.4637618013745133
20
12.619601533991688
30
0
10
8.499900121435898
20
12.66915714682662
30
0
10
8.5233115680513034
20
12.703840497727388
30
0
10
8.534847093827695
20
12.721593756223704
30
0
0
SPLINE
5
113
100
AcDbEntity
8
0
100
AcDbSpline
70
4
71
5
72
21
73
15
74
0
42
0.000000001
43
0.0000000001
44
0.0000000001
40
0
40
0
40
0
40
0
40
0
40
0
40
0.10000000000000001
40
0.20000000000000001
40
0.30000000000000004
40
0.40000000000000002
40
0.5
40
0.59999999999999998
40
0.69999999999999996
40
0.79999999999999993
40
0.89999999999999991
40
1
40
1
40
1
40
1
40
1
40
1
41
1
41
1
41
1
41
1
41
1
41
1
41
1
41
1
41
1
41
1
41
1
41
1
41
1
41
1
41
1
10
10.041718791355079
20
13.253712624493595
30
0
10
10.062119749284584
20
13.253531214601818
30
0
10
10.10246964843876
20
13.253843312977139
30
0
10
10.161638494430802
20
13.256336144279599
30
0
10
10.23777325636628
20
13.263776518199588
30
0
10
10.328033760467504
20
13.280405173705569
30
0
10
10.412943674977051
20
13.305022936765042
30
0
10
10.492060017975067
20
13.338291235454076
30
0
10
10.565129502701714
20
13.380588258963543
30
0
10
10.632376966911325
20
13.431578296064002
30
0
10
10.694235764665549
20
13.490614294285628
30
0
10
10.739762516617192
20
13.543756301533483
30
0
10
10.771821055508056
20
13.586728253017199
30
0
10
10.79228118145531
20
13.616738300480977
30
0
10
10.802283180129816
20
13.632083853080022
30
0
0
SPLINE
5
114
100
AcDbEntity
8
0
100
AcDbSpline
70
6
71
5
72
51
73
45
74
0
42
0.000000001
43
0.0000000001
44
0.0000000001
40
0
40
0
40
0
40
0
40
0
40
0
40
0.025000000000000001
40
0.050000000000000003
40
0.075000000000000011
40
0.10000000000000001
40
0.125
40
0.14999999999999999
40
0.17499999999999999
40
0.19999999999999998
40
0.22499999999999998
40
0.24999999999999997
40
0.27499999999999997
40
0.29999999999999999
40
0.32500000000000001
40
0.35000000000000003
40
0.37500000000000006
40
0.40000000000000008
40
0.4250000000000001
40
0.45000000000000012
40
0.47500000000000014
40
0.50000000000000011
40
0.52500000000000013
40
0.55000000000000016
40
0.57500000000000018
40
0.6000000000000002
40
0.62500000000000022
40
0.65000000000000024
40
0.67500000000000027
40
0.70000000000000029
40
0.72500000000000031
40
0.75000000000000033
40
0.77500000000000036
40
0.80000000000000038
40
0.8250000000000004
40
0.85000000000000042
40
0.87500000000000044
40
0.90000000000000047
40
0.92500000000000049
40
0.95000000000000051
40
0.97500000000000053
40
1
40
1
40
1
40
1
40
1
40
1
41
1
41
1
41
1
41
1
41
1
41
1
41
1
41
1
41
1
41
1
41
1
41
1
41
1
41
1
41
1
41
1
41
1
41
1
41
1
41
1
41
1
41
1
41
1
41
1
41
1
41
1
41
1
41
1
41
1
41
1
41
1
41
1
41
1
41
1
41
1
41
1
41
1
41
1
41
1
41
1
41
1
41
1
41
1
41
1
41
1
10
7.2278505337974108
20
11.649904807282951
30
0
10
7.219529652745531
20
11.661376508483928
30
0
10
7.2047682315669554
20
11.683708029607313
30
0
10
7.1883728065184762
20
11.715228648481977
30
0
10
7.177630710073398
20
11.753116305790275
30
0
10
7.1792480022299854
20
11.794363494103411
30
0
10
7.1913722620381222
20
11.830884139103556
30
0
10
7.2097521426715367
20
11.864068809955977
30
0
10
7.2321373166831648
20
11.894574699123627
30
0
10
7.2586740538965513
20
11.922095461732567
30
0
10
7.2907159940875141
20
11.945739761061052
30
0
10
7.3300571134697767
20
11.96424926955817
30
0
10
7.377975131016262
20
11.976283916160833
30
0
10
7.4344117815100619
20
11.980667949799615
30
0
10
7.4983070259043139
20
11.976440149013413
30
0
10
7.5678844091459574
20
11.962910388836367
30
0
10
7.6409499370145237
20
11.939715512710308
30
0
10
7.7151834343037562
20
11.90687792588513
30
0
10
7.7884294971754278
20
11.864864103826507
30
0
10
7.8586359362474898
20
11.814569513656064
30
0
10
7.9238019758945448
20
11.757302859207968
30
0
10
7.981913231452312
20
11.694779123049134
30
0
10
8.0309053231016811
20
11.629097027883963
30
0
10
8.0685607991520687
20
11.562759346125485
30
0
10
8.0926126389113957
20
11.498565802694822
30
0
10
8.1012704472660921
20
11.439240675748001
30
0
10
8.0936995798337623
20
11.387094299892642
30
0
10
8.070445454771022
20
11.343711837254185
30
0
10
8.0340741192380705
20
11.309525995279371
30
0
10
7.9891124118225418
20
11.283769948799208
30
0
10
7.940601105505757
20
11.265189308547541
30
0
10
7.8928676161820768
20
11.2526271287706
30
0
10
7.8483742045053226
20
11.245581323914971
30
0
10
7.8061150519119913
20
11.244969920948311
30
0
10
7.7623877003975288
20
11.252777651668236
30
0
10
7.7126741867018467
20
11.271177796358653
30
0
10
7.6531793111507636
20
11.301814831439961
30
0
10
7.5824785929740068
20
11.345034657422906
30
0
10
7.5032212616215102
20
11.399087026182285
30
0
10
7.420865332139563
20
11.460753088193252
30
0
10
7.3422869320242015
20
11.526032597979079
30
0
10
7.2880120112506033
20
11.577850272015253
30
0
10
7.2546935178782279
20
11.614877822401457
30
0
10
7.2361714148492871
20
11.638433106081973
30
0
10
7.2278505337974108
20
11.649904807282951
30
0
0
SPLINE
5
115
100
AcDbEntity
8
0
100
AcDbSpline
70
4
71
5
72
41
73
35
74
0
42
0.000000001
43
0.0000000001
44
0.0000000001
40
0
40
0
40
0
40
0
40
0
40
0
40
0.033333333333333333
40
0.066666666666666666
40
0.10000000000000001
40
0.13333333333333333
40
0.16666666666666666
40
0.19999999999999998
40
0.23333333333333331
40
0.26666666666666666
40
0.29999999999999999
40
0.33333333333333331
40
0.36666666666666664
40
0.39999999999999997
40
0.43333333333333329
40
0.46666666666666662
40
0.49999999999999994
40
0.53333333333333333
40
0.56666666666666665
40
0.59999999999999998
40
0.6333333333333333
40
0.66666666666666663
40
0.69999999999999996
40
0.73333333333333328
40
0.76666666666666661
40
0.79999999999999993
40
0.83333333333333326
40
0.86666666666666659
40
0.89999999999999991
40
0.93333333333333324
40
0.96666666666666656
40
1
40
1
40
1
40
1
40
1
40
1
41
1
41
1
41
1
41
1
41
1
41
1
41
1
41
1
41
1
41
1
41
1
41
1
41
1
41
1
41
1
41
1
41
1
41
1
41
1
41
1
41
1
41
1
41
1
41
1
41
1
41
1
41
1
41
1
41
1
41
1
41
1
41
1
41
1
41
1
41
1
10
11.34089121383348
20
13.407381545925947
30
0
10
11.332147463525704
20
13.406891548658296
30
0
10
11.314546934679262
20
13.40548427782295
30
0
10
11.287807052701655
20
13.4020915466897
30
0
10
11.251474504417116
20
13.394999579840096
30
0
10
11.205018740470313
20
13.381762447211894
30
0
10
11.157813169698429
20
13.363924352485173
30
0
10
11.110448300374362
20
13.341063720515098
30
0
10
11.063923141395493
20
13.31250651240806
30
0
10
11.01974370616837
20
13.277276246093724
30
0
10
10.97962256343939
20
13.234398826607137
30
0
10
10.945197910252112
20
13.183190153927198
30
0
10
10.917731703300531
20
13.123567982078232
30
0
10
10.897842847458321
20
13.056325593126035
30
0
10
10.885142598859245
20
12.983517434052814
30
0
10
10.878521603381749
20
12.908102177710925
30
0
10
10.876571064971422
20
12.833431261897365
30
0
10
10.877966904417633
20
12.762782616433601
30
0
10
10.881838316570176
20
12.69890363665559
30
0
10
10.888216012141674
20
12.643480382540025
30
0
10
10.898231777400266
20
12.596834901068668
30
0
10
10.913463346019842
20
12.558427678844735
30
0
10
10.935396518926051
20
12.527233597343033
30
0
10
10.964892580511043
20
12.50213560644732
30
0
10
11.001524507932647
20
12.482369012724773
30
0
10
11.043380341221148
20
12.467735379790476
30
0
10
11.087731705809237
20
12.458378670887395
30
0
10
11.131523813629254
20
12.454655027118214
30
0
10
11.171888111757564
20
12.45697762638757
30
0
10
11.206755381901045
20
12.465642451724255
30
0
10
11.234967793083033
20
12.480783981906304
30
0
10
11.251763629508311
20
12.498113829372938
30
0
10
11.261043288644643
20
12.514040659498683
30
0
10
11.26575774282356
20
12.525958257048018
30
0
10
11.267746992771368
20
12.532241978393818
30
0
0
SPLINE
5
116
100
AcDbEntity
8
0
100
AcDbSpline
70
6
71
5
72
46
73
40
74
0
42
0.000000001
43
0.0000000001
44
0.0000000001
40
0
40
0
40
0
40
0
40
0
40
0
40
0.028571428571428571
40
0.057142857142857141
40
0.085714285714285715
40
0.11428571428571428
40
0.14285714285714285
40
0.17142857142857143
40
0.20000000000000001
40
0.22857142857142859
40
0.25714285714285717
40
0.28571428571428575
40
0.31428571428571433
40
0.34285714285714292
40
0.3714285714285715
40
0.40000000000000008
40
0.42857142857142866
40
0.45714285714285724
40
0.48571428571428582
40
0.51428571428571435
40
0.54285714285714293
40
0.57142857142857151
40
0.60000000000000009
40
0.62857142857142867
40
0.65714285714285725
40
0.68571428571428583
40
0.71428571428571441
40
0.74285714285714299
40
0.77142857142857157
40
0.80000000000000016
40
0.82857142857142874
40
0.85714285714285732
40
0.8857142857142859
40
0.91428571428571448
40
0.94285714285714306
40
0.97142857142857164
40
1
40
1
40
1
40
1
40
1
40
1
41
1
41
1
41
1
41
1
41
1
41
1
41
1
41
1
41
1
41
1
41
1
41
1
41
1
41
1
41
1
41
1
41
1
41
1
41
1
41
1
41
1
41
1
41
1
41
1
41
1
41
1
41
1
41
1
41
1
41
1
41
1
41
1
41
1
41
1
41
1
41
1
41
1
41
1
41
1
41
1
10
9.5290038952918543
20
12.537617036871865
30
0
10
9.5311416894632188
20
12.536489701012499
30
0
10
9.5352651646818885
20
12.534244190217624
30
0
10
9.5409584373581069
20
12.531079046654355
30
0
10
9.5477329619796159
20
12.527951090676698
30
0
10
9.5562257178367052
20
12.527281110170359
30
0
10
9.5665016736686326
20
12.530754095876741
30
0
10
9.5801307425929902
20
12.538554510857793
30
0
10
9.5978615626605368
20
12.549889786621602
30
0
10
9.6191879755008287
20
12.562884726900398
30
0
10
9.6427788420521274
20
12.575150087862221
30
0
10
9.6667788603371356
20
12.584248526399408
30
0
10
9.6891583438171693
20
12.588206353631948
30
0
10
9.7080350526228028
20
12.585992141544811
30
0
10
9.722023040064137
20
12.578057234430929
30
0
10
9.7302393027673268
20
12.565869231250788
30
0
10
9.7322952887493202
20
12.551388947457037
30
0
10
9.7282955702970444
20
12.536577504973037
30
0
10
9.7188405555753725
20
12.522878661034632
30
0
10
9.7050209198127195
20
12.510747156406758
30
0
10
9.6881787134449091
20
12.500027897392274
30
0
10
9.6696823766147428
20
12.490291939048657
30
0
10
9.6506942911353892
20
12.481190755157263
30
0
10
9.6319480699326867
20
12.472792752346781
30
0
10
9.6135005628259549
20
12.465955378064667
30
0
10
9.5950249586463361
20
12.461947528486384
30
0
10
9.5761200956028496
20
12.462047560936098
30
0
10
9.5566254811991449
20
12.467136422779376
30
0
10
9.5369062733558092
20
12.4773230653801
30
0
10
9.518228496229332
20
12.491467006484555
30
0
10
9.5023843802053634
20
12.507554905670801
30
0
10
9.4912040976533092
20
12.523211382955953
30
0
10
9.4860834904194196
20
12.536176538146757
30
0
10
9.487558046267571
20
12.544759770394618
30
0
10
9.494710434169809
20
12.548402969359891
30
0
10
9.5055704248682993
20
12.547570476892409
30
0
10
9.515376108859666
20
12.544255797250184
30
0
10
9.5224383996537085
20
12.541008205373833
30
0
10
9.5268661011204934
20
12.538744372731232
30
0
10
9.5290038952918543
20
12.537617036871865
30
0
0
SPLINE
5
117
100
AcDbEntity
8
0
100
AcDbSpline
70
6
71
5
72
36
73
30
74
0
42
0.000000001
43
0.0000000001
44
0.0000000001
40
0
40
0
40
0
40
0
40
0
40
0
40
0.040000000000000001
40
0.080000000000000002
40
0.12
40
0.16
40
0.20000000000000001
40
0.24000000000000002
40
0.28000000000000003
40
0.32000000000000001
40
0.35999999999999999
40
0.39999999999999997
40
0.43999999999999995
40
0.47999999999999993
40
0.51999999999999991
40
0.55999999999999994
40
0.59999999999999998
40
0.64000000000000001
40
0.68000000000000005
40
0.72000000000000008
40
0.76000000000000012
40
0.80000000000000016
40
0.84000000000000019
40
0.88000000000000023
40
0.92000000000000026
40
0.9600000000000003
40
1
40
1
40
1
40
1
40
1
40
1
41
1
41
1
41
1
41
1
41
1
41
1
41
1
41
1
41
1
41
1
41
1
41
1
41
1
41
1
41
1
41
1
41
1
41
1
41
1
41
1
41
1
41
1
41
1
41
1
41
1
41
1
41
1
41
1
41
1
41
1
10
9.6640543426042242
20
11.983230898091206
30
0
10
9.6648116518112825
20
11.984787276854085
30
0
10
9.66680429411171
20
11.987689919236635
30
0
10
9.6712594779915975
20
11.991349552317461
30
0
10
9.6800278173422321
20
11.99456254115195
30
0
10
9.694585642858943
20
11.995137106435863
30
0
10
9.7110709547943515
20
11.991777302049735
30
0
10
9.7275561713715621
20
11.984305974964728
30
0
10
9.7421489077717922
20
11.973007547909935
30
0
10
9.7532870993272844
20
11.958783712493187
30
0
10
9.7598250480336102
20
11.942936062942451
30
0
10
9.7611184704313185
20
11.926949858103292
30
0
10
9.7571223215957552
20
11.912277649873991
30
0
10
9.7484793428110343
20
11.900130819382749
30
0
10
9.7366556480406192
20
11.891245950568397
30
0
10
9.723567994435145
20
11.885951783853839
30
0
10
9.7111712962043573
20
11.884260813293865
30
0
10
9.7010536618707341
20
11.885947371931529
30
0
10
9.6940461597371037
20
11.890625874307146
30
0
10
9.6897629327269605
20
11.89782811627952
30
0
10
9.6870417315058468
20
11.907034386435098
30
0
10
9.6844585748848591
20
11.917698861478613
30
0
10
9.6808134075080421
20
11.929275958733783
30
0
10
9.6756224698208833
20
11.941245103276099
30
0
10
9.669631279128625
20
11.953136860487383
30
0
10
9.6643458203521639
20
11.964501383604304
30
0
10
9.6621074699650187
20
11.972800977288056
30
0
10
9.6622604388693496
20
11.978351646659341
30
0
10
9.6632970333971642
20
11.981674519328323
30
0
10
9.6640543426042242
20
11.983230898091206
30
0
0
SPLINE
5
118
100
AcDbEntity
8
0
100
AcDbSpline
70
4
71
5
72
26
73
20
74
0
42
0.000000001
43
0.0000000001
44
0.0000000001
40
0
40
0
40
0
40
0
40
0
40
0
40
0.066666666666666666
40
0.13333333333333333
40
0.20000000000000001
40
0.26666666666666666
40
0.33333333333333331
40
0.39999999999999997
40
0.46666666666666662
40
0.53333333333333333
40
0.59999999999999998
40
0.66666666666666663
40
0.73333333333333328
40
0.79999999999999993
40
0.86666666666666659
40
0.93333333333333324
40
1
40
1
40
1
40
1
40
1
40
1
41
1
41
1
41
1
41
1
41
1
41
1
41
1
41
1
41
1
41
1
41
1
41
1
41
1
41
1
41
1
41
1
41
1
41
1
41
1
41
1
10
7.4006126299814587
20
17.009855623429257
30
0
10
7.4072772704941716
20
17.014472283398881
30
0
10
7.4209524600357586
20
17.02307964089983
30
0
10
7.4425029903609738
20
17.034112790727075
30
0
10
7.4733274365564606
20
17.045040577448663
30
0
10
7.5153662491700155
20
17.052213562266108
30
0
10
7.5608215579989295
20
17.052643545647381
30
0
10
7.6093839370758065
20
17.046047986339456
30
0
10
7.660383089308703
20
17.032193731639222
30
0
10
7.7127122648772852
20
17.010958096166235
30
0
10
7.7650460967860555
20
16.982282437228672
30
0
10
7.8160077189954427
20
16.946167146420528
30
0
10
7.8643414736670705
20
16.902673456433075
30
0
10
7.9091124200101168
20
16.851960586848381
30
0
10
7.9498373555000761
20
16.794305238670184
30
0
10
7.9863168469591237
20
16.730006489524062
30
0
10
8.0120901774129027
20
16.673464779478191
30
0
10
8.0295277371980873
20
16.628270060101805
30
0
10
8.0403178408193607
20
16.596909939973109
30
0
10
8.0455041541331553
20
16.580922299905577
30
0
0
SPLINE
5
119
100
AcDbEntity
8
0
100
AcDbSpline
70
4
71
5
72
26
73
20
74
0
42
0.000000001
43
0.0000000001
44
0.0000000001
40
0
40
0
40
0
40
0
40
0
40
0
40
0.066666666666666666
40
0.13333333333333333
40
0.20000000000000001
40
0.26666666666666666
40
0.33333333333333331
40
0.39999999999999997
40
0.46666666666666662
40
0.53333333333333333
40
0.59999999999999998
40
0.66666666666666663
40
0.73333333333333328
40
0.79999999999999993
40
0.86666666666666659
40
0.93333333333333324
40
1
40
1
40
1
40
1
40
1
40
1
41
1
41
1
41
1
41
1
41
1
41
1
41
1
41
1
41
1
41
1
41
1
41
1
41
1
41
1
41
1
41
1
41
1
41
1
41
1
41
1
10
12.576178245743641
20
15.858120260509192
30
0
10
12.582834095836194
20
15.854740492329679
30
0
10
12.595583523149894
20
15.84736331948988
30
0
10
12.613020873645485
20
15.834444602112924
30
0
10
12.632872333230642
20
15.813487207824064
30
0
10
12.651786771215507
20
15.780991256954858
30
0
10
12.664346618425755
20
15.742255592950125
30
0
10
12.669852214634922
20
15.69761837720964
30
0
10
12.667324017754618
20
15.64792301405868
30
0
10
12.655539445810378
20
15.594563884215082
30
0
10
12.633182203087813
20
15.539190662923222
30
0
10
12.599004320226241
20
15.483498523089445
30
0
10
12.551990237557655
20
15.429016480220209
30
0
10
12.491635995175674
20
15.376845765713771
30
0
10
12.417972156048673
20
15.327597217096852
30
0
10
12.331278809506989
20
15.281569109636274
30
0
10
12.251800171444414
20
15.247388996609857
30
0
10
12.186636160563896
20
15.223230640389131
30
0
10
12.140742568700663
20
15.207776562329144
30
0
10
12.117183033514433
20
15.200212401896426
30
0
0
SPLINE
5
120
100
AcDbEntity
8
0
100
AcDbSpline
70
4
71
5
72
26
73
20
74
0
42
0.000000001
43
0.0000000001
44
0.0000000001
40
0
40
0
40
0
40
0
40
0
40
0
40
0.066666666666666666
40
0.13333333333333333
40
0.20000000000000001
40
0.26666666666666666
40
0.33333333333333331
40
0.39999999999999997
40
0.46666666666666662
40
0.53333333333333333
40
0.59999999999999998
40
0.66666666666666663
40
0.73333333333333328
40
0.79999999999999993
40
0.86666666666666659
40
0.93333333333333324
40
1
40
1
40
1
40
1
40
1
40
1
41
1
41
1
41
1
41
1
41
1
41
1
41
1
41
1
41
1
41
1
41
1
41
1
41
1
41
1
41
1
41
1
41
1
41
1
41
1
41
1
10
7.6687497440283892
20
10.708256372884469
30
0
10
7.6730039116545896
20
10.694541110102367
30
0
10
7.6827826489995203
20
10.666681654955347
30
0
10
7.701261954813555
20
10.623605665485803
30
0
10
7.7335788869291076
20
10.563578846599357
30
0
10
7.7871702023295795
20
10.484135033291551
30
0
10
7.8545685194645296
20
10.400212398500326
30
0
10
7.9365314343100133
20
10.311828277465597
30
0
10
8.0338448024464455
20
10.219192480142922
30
0
10
8.1472774421658283
20
10.122668091164131
30
0
10
8.2775398786246495
20
10.022690047213764
30
0
10
8.4251799260800446
20
9.9197127189230088
30
0
10
8.5904605804953249
20
9.8141603053116651
30
0
10
8.7731293644449764
20
9.7063831997990153
30
0
10
8.9726104629658394
20
9.5966520957567276
30
0
10
9.188230926682273
20
9.4851625971726587
30
0
10
9.3731452656591987
20
9.3946650576589548
30
0
10
9.518620903710719
20
9.3260868577069296
30
0
10
9.6186004989827438
20
9.2800569703684008
30
0
10
9.6693392623341428
20
9.2569642545436857
30
0
0
SPLINE
5
121
100
AcDbEntity
8
0
100
AcDbSpline
70
4
71
5
72
21
73
15
74
0
42
0.000000001
43
0.0000000001
44
0.0000000001
40
0
40
0
40
0
40
0
40
0
40
0
40
0.10000000000000001
40
0.20000000000000001
40
0.30000000000000004
40
0.40000000000000002
40
0.5
40
0.59999999999999998
40
0.69999999999999996
40
0.79999999999999993
40
0.89999999999999991
40
1
40
1
40
1
40
1
40
1
40
1
41
1
41
1
41
1
41
1
41
1
41
1
41
1
41
1
41
1
41
1
41
1
41
1
41
1
41
1
41
1
10
9.6693392623341428
20
9.2569642545436857
30
0
10
9.6723148265868435
20
9.2567944257749346
30
0
10
9.6784454263269346
20
9.2562165078852452
30
0
10
9.6881797306813091
20
9.2546348618889134
30
0
10
9.7022534055305059
20
9.2510728409594574
30
0
10
9.7217923914334197
20
9.2440356819134681
30
0
10
9.7434473052576926
20
9.234189483677282
30
0
10
9.76738312915945
20
9.2213152211424347
30
0
10
9.7936756772566618
20
9.2053122458756693
30
0
10
9.8222154019876573
20
9.1863259897640717
30
0
10
9.8528258723098112
20
9.1645906770945551
30
0
10
9.8788315073462449
20
9.1451881620401974
30
0
10
9.8991344357221998
20
9.1295759440236353
30
0
10
9.9130188905295888
20
9.1187042526262339
30
0
10
9.9200484139967511
20
9.1131525154257957
30
0
0
LINE
5
122
100
AcDbEntity
8
0
100
AcDbLine
10
9.9200484139967511
20
9.1131525154257957
30
0
11
9.9678397225887139
21
9.3108347464198271
31
0
0
LINE
5
123
100
AcDbEntity
8
0
100
AcDbLine
10
9.9678397225887139
20
9.3108347464198271
30
0
11
10.13155624452661
21
9.2712549279293466
31
0
0
LINE
5
124
100
AcDbEntity
8
0
100
AcDbLine
10
10.13155624452661
20
9.2712549279293466
30
0
11
10.13155624452661
21
9.4411746789433639
31
0
0
LINE
5
125
100
AcDbEntity
8
0
100
AcDbLine
10
10.13155624452661
20
9.4411746789433639
30
0
11
10.321273432103464
21
9.3953089852434637
31
0
0
SPLINE
5
126
100
AcDbEntity
8
0
100
AcDbSpline
70
4
71
5
72
26
73
20
74
0
42
0.000000001
43
0.0000000001
44
0.0000000001
40
0
40
0
40
0
40
0
40
0
40
0
40
0.066666666666666666
40
0.13333333333333333
40
0.20000000000000001
40
0.26666666666666666
40
0.33333333333333331
40
0.39999999999999997
40
0.46666666666666662
40
0.53333333333333333
40
0.59999999999999998
40
0.66666666666666663
40
0.73333333333333328
40
0.79999999999999993
40
0.86666666666666659
40
0.93333333333333324
40
1
40
1
40
1
40
1
40
1
40
1
41
1
41
1
41
1
41
1
41
1
41
1
41
1
41
1
41
1
41
1
41
1
41
1
41
1
41
1
41
1
41
1
41
1
41
1
41
1
41
1
10
10.321273432103464
20
9.3953089852434637
30
0
10
10.314886128476946
20
9.4216600439032216
30
0
10
10.301916716081156
20
9.4737943008160901
30
0
10
10.281878182697925
20
9.5502921225584476
30
0
10
10.253982810664077
20
9.6488571702502597
30
0
10
10.217048293208229
20
9.7662214478675917
30
0
10
10.177827965776043
20
9.8776378379935998
30
0
10
10.135949584788918
20
9.9831106427587706
30
0
10
10.090860358667237
20
10.082857814627882
30
0
10
10.041792753664305
20
10.17745350266058
30
0
10
9.9878553127659089
20
10.267699073504119
30
0
10
9.9281413427824159
20
10.35448741548247
30
0
10
9.8618441075533294
20
10.438689339248619
30
0
10
9.7883937870024198
20
10.521042665896561
30
0
10
9.7076046880528217
20
10.602051193098713
30
0
10
9.6195211459780374
20
10.682031453025179
30
0
10
9.543341192480618
20
10.745329998846184
30
0
10
9.4830632776437795
20
10.792449170030698
30
0
10
9.4414912619444848
20
10.82370542595757
30
0
10
9.4203585666175211
20
10.839294422709012
30
0
0
SPLINE
5
127
100
AcDbEntity
8
0
100
AcDbSpline
70
4
71
5
72
36
73
30
74
0
42
0.000000001
43
0.0000000001
44
0.0000000001
40
0
40
0
40
0
40
0
40
0
40
0
40
0.040000000000000001
40
0.080000000000000002
40
0.12
40
0.16
40
0.20000000000000001
40
0.24000000000000002
40
0.28000000000000003
40
0.32000000000000001
40
0.35999999999999999
40
0.39999999999999997
40
0.43999999999999995
40
0.47999999999999993
40
0.51999999999999991
40
0.55999999999999994
40
0.59999999999999998
40
0.64000000000000001
40
0.68000000000000005
40
0.72000000000000008
40
0.76000000000000012
40
0.80000000000000016
40
0.84000000000000019
40
0.88000000000000023
40
0.92000000000000026
40
0.9600000000000003
40
1
40
1
40
1
40
1
40
1
40
1
41
1
41
1
41
1
41
1
41
1
41
1
41
1
41
1
41
1
41
1
41
1
41
1
41
1
41
1
41
1
41
1
41
1
41
1
41
1
41
1
41
1
41
1
41
1
41
1
41
1
41
1
41
1
41
1
41
1
41
1
10
10.278624411525172
20
11.668820741713199
30
0
10
10.271427712584378
20
11.656302527425307
30
0
10
10.257551743983303
20
11.630162675840163
30
0
10
10.238290069724876
20
11.587642614864473
30
0
10
10.215720572287223
20
11.524311485076311
30
0
10
10.192786909112868
20
11.434102494139628
30
0
10
10.175321511227448
20
11.333081431517638
30
0
10
10.163639390020386
20
11.221848321578642
30
0
10
10.158213373306403
20
11.101546457958111
30
0
10
10.159682547597424
20
10.973995205055228
30
0
10
10.168658994034461
20
10.84141818426623
30
0
10
10.185557662006651
20
10.706221064253805
30
0
10
10.210399161220678
20
10.570744895519525
30
0
10
10.242647345353999
20
10.4370556273237
30
0
10
10.280947020740626
20
10.3066563414062
30
0
10
10.323204189271518
20
10.180473046563275
30
0
10
10.366968271693658
20
10.059079367258112
30
0
10
10.40972288473707
20
9.9428483948181761
30
0
10
10.449213055589698
20
9.8321304554041973
30
0
10
10.483755033103524
20
9.7274147029195888
30
0
10
10.512570331464365
20
9.6295015030460291
30
0
10
10.535557952188315
20
9.5393730969934563
30
0
10
10.553060182653496
20
9.4580558777534716
30
0
10
10.565641683412007
20
9.3864864296941626
30
0
10
10.573861550131907
20
9.3253642199450297
30
0
10
10.578071905876245
20
9.275024594072022
30
0
10
10.578393170423908
20
9.2434609026231893
30
0
10
10.576958704715079
20
9.2246753438780189
30
0
10
10.575259752598354
20
9.2143181203421314
30
0
10
10.574224613249804
20
9.2096811267591434
30
0
0
LINE
5
128
100
AcDbEntity
8
0
100
AcDbLine
10
10.574224613249804
20
9.2096811267591434
30
0
11
10.702357457713845
21
9.3559483091002296
31
0
0
LINE
5
129
100
AcDbEntity
8
0
100
AcDbLine
10
10.702357457713845
20
9.3559483091002296
30
0
11
10.78840770276571
21
9.2096811267591434
31
0
0
LINE
5
130
100
AcDbEntity
8
0
100
AcDbLine
10
10.78840770276571
20
9.2096811267591434
30
0
11
10.893164522828849
21
9.4045854041295449
31
0
0
LINE
5
131
100
AcDbEntity
8
0
100
AcDbLine
10
10.893164522828849
20
9.4045854041295449
30
0
11
11.032169125721216
21
9.2828147179296856
31
0
0
SPLINE
5
132
100
AcDbEntity
8
0
100
AcDbSpline
70
4
71
5
72
26
73
20
74
0
42
0.000000001
43
0.0000000001
44
0.0000000001
40
0
40
0
40
0
40
0
40
0
40
0
40
0.066666666666666666
40
0.13333333333333333
40
0.20000000000000001
40
0.26666666666666666
40
0.33333333333333331
40
0.39999999999999997
40
0.46666666666666662
40
0.53333333333333333
40
0.59999999999999998
40
0.66666666666666663
40
0.73333333333333328
40
0.79999999999999993
40
0.86666666666666659
40
0.93333333333333324
40
1
40
1
40
1
40
1
40
1
40
1
41
1
41
1
41
1
41
1
41
1
41
1
41
1
41
1
41
1
41
1
41
1
41
1
41
1
41
1
41
1
41
1
41
1
41
1
41
1
41
1
10
11.032169125721216
20
9.2828147179296856
30
0
10
11.060780142784116
20
9.34411209942059
30
0
10
11.116428901542967
20
9.4648080571447739
30
0
10
11.195182269564814
20
9.6401557084179643
30
0
10
11.290678122824882
20
9.862476050903803
30
0
10
11.393734228038554
20
10.120912264516814
30
0
10
11.479795112592173
20
10.359733553769633
30
0
10
11.54809028006494
20
10.579385344311342
30
0
10
11.59789853674063
20
10.78128079826474
30
0
10
11.628799758832592
20
10.968481690086239
30
0
10
11.64072839200772
20
11.145579570894043
30
0
10
11.633821103700912
20
11.317754351184524
30
0
10
11.608389674858511
20
11.490093597894273
30
0
10
11.564905270528655
20
11.666867723000195
30
0
10
11.504071608490589
20
11.850713373686046
30
0
10
11.426654264720293
20
12.042972314496987
30
0
10
11.351986551596491
20
12.203913844761258
30
0
10
11.289028696552014
20
12.328645447159287
30
0
10
11.243987121819181
20
12.413576137697444
30
0
10
11.220698913846991
20
12.456485548525837
30
0
0
SPLINE
5
133
100
AcDbEntity
8
0
100
AcDbSpline
70
4
71
5
72
41
73
35
74
0
42
0.000000001
43
0.0000000001
44
0.0000000001
40
0
40
0
40
0
40
0
40
0
40
0
40
0.033333333333333333
40
0.066666666666666666
40
0.10000000000000001
40
0.13333333333333333
40
0.16666666666666666
40
0.19999999999999998
40
0.23333333333333331
40
0.26666666666666666
40
0.29999999999999999
40
0.33333333333333331
40
0.36666666666666664
40
0.39999999999999997
40
0.43333333333333329
40
0.46666666666666662
40
0.49999999999999994
40
0.53333333333333333
40
0.56666666666666665
40
0.59999999999999998
40
0.6333333333333333
40
0.66666666666666663
40
0.69999999999999996
40
0.73333333333333328
40
0.76666666666666661
40
0.79999999999999993
40
0.83333333333333326
40
0.86666666666666659
40
0.89999999999999991
40
0.93333333333333324
40
0.96666666666666656
40
1
40
1
40
1
40
1
40
1
40
1
41
1
41
1
41
1
41
1
41
1
41
1
41
1
41
1
41
1
41
1
41
1
41
1
41
1
41
1
41
1
41
1
41
1
41
1
41
1
41
1
41
1
41
1
41
1
41
1
41
1
41
1
41
1
41
1
41
1
41
1
41
1
41
1
41
1
41
1
41
1
10
13.069563930722099
20
9.2364903597404524
30
0
10
13.06274709237449
20
9.2122388115625515
30
0
10
13.049885851616327
20
9.1646092763325839
30
0
10
13.032911302007763
20
9.0957856364877419
30
0
10
13.014921551377181
20
9.009271773258094
30
0
10
13.00023918904934
20
8.9101056850892579
30
0
10
12.993475555251905
20
8.82049751100711
30
0
10
12.994794894639185
20
8.7415341464154253
30
0
10
13.004408730931447
20
8.6749775513525034
30
0
10
13.022590426872275
20
8.6233791043791026
30
0
10
13.049765016174526
20
8.5901498568866064
30
0
10
13.086543942121892
20
8.579555864970418
30
0
10
13.133868684849332
20
8.5969408343266682
30
0
10
13.192767883641112
20
8.6480980068454745
30
0
10
13.263717919929833
20
8.7377581956466042
30
0
10
13.346112199393632
20
8.8683190529110014
30
0
10
13.437661010166956
20
9.0384216774480119
30
0
10
13.533849793870495
20
9.2416446746360901
30
0
10
13.628740482809338
20
9.4679028432897177
30
0
10
13.715720592849028
20
9.704733706551913
30
0
10
13.788266709262984
20
9.9386020658780936
30
0
10
13.840698539486011
20
10.156177754860874
30
0
10
13.868952837007329
20
10.345634398575188
30
0
10
13.871343870996496
20
10.497924150392837
30
0
10
13.849406093738397
20
10.608159284569004
30
0
10
13.806888066734489
20
10.674637899252772
30
0
10
13.748641393323906
20
10.697760420138964
30
0
10
13.679642067532749
20
10.679073237334684
30
0
10
13.603770683012771
20
10.62013238921895
30
0
10
13.523535055720259
20
10.522099533937954
30
0
10
13.440472051295062
20
10.385864475349297
30
0
10
13.372369833113897
20
10.246788555877192
30
0
10
13.320483125044369
20
10.125708866109166
30
0
10
13.285532384584315
20
10.037547825787691
30
0
10
13.267967127270401
20
9.9916070033198139
30
0
0
SPLINE
5
134
100
AcDbEntity
8
0
100
AcDbSpline
70
4
71
5
72
21
73
15
74
0
42
0.000000001
43
0.0000000001
44
0.0000000001
40
0
40
0
40
0
40
0
40
0
40
0
40
0.10000000000000001
40
0.20000000000000001
40
0.30000000000000004
40
0.40000000000000002
40
0.5
40
0.59999999999999998
40
0.69999999999999996
40
0.79999999999999993
40
0.89999999999999991
40
1
40
1
40
1
40
1
40
1
40
1
41
1
41
1
41
1
41
1
41
1
41
1
41
1
41
1
41
1
41
1
41
1
41
1
41
1
41
1
41
1
10
12.122303918708257
20
10.601942846321226
30
0
10
12.154043578621303
20
10.630427749359637
30
0
10
12.217118252413012
20
10.684634508821201
30
0
10
12.310516365080662
20
10.757655781867918
30
0
10
12.432579097548738
20
10.838164645606199
30
0
10
12.580764358276834
20
10.908802923204936
30
0
10
12.724161875383331
20
10.946749026242513
30
0
10
12.862377826925078
20
10.94931381832234
30
0
10
12.995191581742752
20
10.914990762571829
30
0
10
13.122809851657918
20
10.845191350402787
30
0
10
13.245621749099604
20
10.742572560236447
30
0
10
13.34034014418614
20
10.636365943592494
30
0
10
13.409518703614667
20
10.544008715972673
30
0
10
13.454824450676149
20
10.476883821122993
30
0
10
13.477273995329513
20
10.441932982074889
30
0
0
SPLINE
5
135
100
AcDbEntity
8
0
100
AcDbSpline
70
4
71
5
72
21
73
15
74
0
42
0.000000001
43
0.0000000001
44
0.0000000001
40
0
40
0
40
0
40
0
40
0
40
0
40
0.10000000000000001
40
0.20000000000000001
40
0.30000000000000004
40
0.40000000000000002
40
0.5
40
0.59999999999999998
40
0.69999999999999996
40
0.79999999999999993
40
0.89999999999999991
40
1
40
1
40
1
40
1
40
1
40
1
41
1
41
1
41
1
41
1
41
1
41
1
41
1
41
1
41
1
41
1
41
1
41
1
41
1
41
1
41
1
10
11.607742863820825
20
11.470964024649806
30
0
10
11.62023371520997
20
11.460602233736832
30
0
10
11.645310985104143
20
11.439496594131885
30
0
10
11.683213586939392
20
11.406691978792621
30
0
10
11.734333254355406
20
11.360622316763722
30
0
10
11.799269472075807
20
11.298890990750504
30
0
10
11.865332058978622
20
11.232656671152348
30
0
10
11.932608425406432
20
11.161569909293721
30
0
10
12.001137925525235
20
11.08547337526346
30
0
10
12.070861474575313
20
11.004603277841142
30
0
10
12.141684961293326
20
10.919335854603847
30
0
10
12.199149508835083
20
10.847900659668214
30
0
10
12.242672052205011
20
10.79262866762711
30
0
10
12.271872498662892
20
10.755039411513838
30
0
10
12.28651907832546
20
10.736059459917033
30
0
0
SPLINE
5
136
100
AcDbEntity
8
0
100
AcDbSpline
70
4
71
5
72
21
73
15
74
0
42
0.000000001
43
0.0000000001
44
0.0000000001
40
0
40
0
40
0
40
0
40
0
40
0
40
0.10000000000000001
40
0.20000000000000001
40
0.30000000000000004
40
0.40000000000000002
40
0.5
40
0.59999999999999998
40
0.69999999999999996
40
0.79999999999999993
40
0.89999999999999991
40
1
40
1
40
1
40
1
40
1
40
1
41
1
41
1
41
1
41
1
41
1
41
1
41
1
41
1
41
1
41
1
41
1
41
1
41
1
41
1
41
1
10
11.745761577206874
20
11.349190007053114
30
0
10
11.749352496158906
20
11.36003431924957
30
0
10
11.756216667549387
20
11.382215888072942
30
0
10
11.765559932570252
20
11.416967062998557
30
0
10
11.776080213814499
20
11.466308364849702
30
0
10
11.785785991701465
20
11.533330168098166
30
0
10
11.791753505046284
20
11.60615288709857
30
0
10
11.793699581350168
20
11.685215939600404
30
0
10
11.791510432187152
20
11.770695898729777
30
0
10
11.785394515546701
20
11.862269286243363
30
0
10
11.775667294468249
20
11.959446576987299
30
0
10
11.765242955518154
20
12.041289050351425
30
0
10
11.756034168477463
20
12.104828688394862
30
0
10
11.749287093277376
20
12.148131741201018
30
0
10
11.745761577206874
20
12.170019102786373
30
0
0
LINE
5
137
100
AcDbEntity
8
0
100
AcDbLine
10
11.745761577206874
20
12.170019102786373
30
0
11
12.015416949226916
21
11.937455779479913
31
0
0
LINE
5
138
100
AcDbEntity
8
0
100
AcDbLine
10
12.015416949226916
20
11.937455779479913
30
0
11
12.208811712818603
21
11.686815999162544
31
0
0
LINE
5
139
100
AcDbEntity
8
0
100
AcDbLine
10
12.208811712818603
20
11.686815999162544
30
0
11
12.405492149447328
21
11.431917983756987
31
0
0
SPLINE
5
140
100
AcDbEntity
8
0
100
AcDbSpline
70
4
71
5
72
21
73
15
74
0
42
0.000000001
43
0.0000000001
44
0.0000000001
40
0
40
0
40
0
40
0
40
0
40
0
40
0.10000000000000001
40
0.20000000000000001
40
0.30000000000000004
40
0.40000000000000002
40
0.5
40
0.59999999999999998
40
0.69999999999999996
40
0.79999999999999993
40
0.89999999999999991
40
1
40
1
40
1
40
1
40
1
40
1
41
1
41
1
41
1
41
1
41
1
41
1
41
1
41
1
41
1
41
1
41
1
41
1
41
1
41
1
41
1
10
12.405492149447328
20
11.431917983756987
30
0
10
12.433736949385445
20
11.464723749976502
30
0
10
12.489982845451502
20
11.530729232332906
30
0
10
12.573620595625441
20
11.630919277321986
30
0
10
12.68365120099835
20
11.766908777781671
30
0
10
12.818544836677628
20
11.941170712651894
30
0
10
12.950560772747878
20
12.120084480919861
30
0
10
13.079469262480842
20
12.304021470724996
30
0
10
13.205154251868624
20
12.493169284659778
30
0
10
13.327754370123976
20
12.687303827058948
30
0
10
13.447507007204321
20
12.886041354415186
30
0
10
13.541220345181051
20
13.048407898938004
30
0
10
13.610405433266202
20
13.171960832788002
30
0
10
13.656047961989506
20
13.255106776274557
30
0
10
13.678749006074433
20
13.296874085430552
30
0
0
SPLINE
5
141
100
AcDbEntity
8
0
100
AcDbSpline
70
4
71
5
72
26
73
20
74
0
42
0.000000001
43
0.0000000001
44
0.0000000001
40
0
40
0
40
0
40
0
40
0
40
0
40
0.066666666666666666
40
0.13333333333333333
40
0.20000000000000001
40
0.26666666666666666
40
0.33333333333333331
40
0.39999999999999997
40
0.46666666666666662
40
0.53333333333333333
40
0.59999999999999998
40
0.66666666666666663
40
0.73333333333333328
40
0.79999999999999993
40
0.86666666666666659
40
0.93333333333333324
40
1
40
1
40
1
40
1
40
1
40
1
41
1
41
1
41
1
41
1
41
1
41
1
41
1
41
1
41
1
41
1
41
1
41
1
41
1
41
1
41
1
41
1
41
1
41
1
41
1
41
1
10
13.678749006074433
20
13.296874085430552
30
0
10
13.710920503834744
20
13.279903489878723
30
0
10
13.777539773318495
20
13.241985484750957
30
0
10
13.884297788618913
20
13.173177686051073
30
0
10
14.040396836913498
20
13.057401915818499
30
0
10
14.258554638493466
20
12.872102754435135
30
0
10
14.49896467369639
20
12.646550302928343
30
0
10
14.759275707328229
20
12.382796446352877
30
0
10
15.034438190444346
20
12.086089485056048
30
0
10
15.316784536047416
20
11.764830600587397
30
0
10
15.597367855928246
20
11.428960410574721
30
0
10
15.866876852267772
20
11.088916615056334
30
0
10
16.116733471315499
20
10.754412730870902
30
0
10
16.340080677674933
20
10.433379518754609
30
0
10
16.533115322578599
20
10.130593834957811
30
0
10
16.694327390596989
20
9.8483735230894993
30
0
10
16.797701325775837
20
9.6396609363273917
30
0
10
16.861027927047775
20
9.492690164740651
30
0
10
16.896978262463769
20
9.3989296703372069
30
0
10
16.913386588719611
20
9.3531044173593134
30
0
0
SPLINE
5
142
100
AcDbEntity
8
0
100
AcDbSpline
70
4
71
5
72
16
73
10
74
0
42
0.000000001
43
0.0000000001
44
0.0000000001
40
0
40
0
40
0
40
0
40
0
40
0
40
0.20000000000000001
40
0.40000000000000002
40
0.60000000000000009
40
0.80000000000000004
40
1
40
1
40
1
40
1
40
1
40
1
41
1
41
1
41
1
41
1
41
1
41
1
41
1
41
1
41
1
41
1
10
16.913386588719611
20
9.3531044173593134
30
0
10
16.806492706685404
20
9.3223218377959842
30
0
10
16.592704942617416
20
9.2607566786697539
30
0
10
16.272023296516767
20
9.1684089399817719
30
0
10
15.84444776838488
20
9.0452786217335088
30
0
10
15.309978358222729
20
8.891365723925734
30
0
10
14.882402830094371
20
8.7682354056805103
30
0
10
14.561721183998683
20
8.675887666996795
30
0
10
14.347933419935121
20
8.6143225078743715
30
0
10
14.241039537903395
20
8.5835399283131721
30
0
0
SPLINE
5
143
100
AcDbEntity
8
0
100
AcDbSpline
70
4
71
5
72
26
73
20
74
0
42
0.000000001
43
0.0000000001
44
0.0000000001
40
0
40
0
40
0
40
0
40
0
40
0
40
0.066666666666666666
40
0.13333333333333333
40
0.20000000000000001
40
0.26666666666666666
40
0.33333333333333331
40
0.39999999999999997
40
0.46666666666666662
40
0.53333333333333333
40
0.59999999999999998
40
0.66666666666666663
40
0.73333333333333328
40
0.79999999999999993
40
0.86666666666666659
40
0.93333333333333324
40
1
40
1
40
1
40
1
40
1
40
1
41
1
41
1
41
1
41
1
41
1
41
1
41
1
41
1
41
1
41
1
41
1
41
1
41
1
41
1
41
1
41
1
41
1
41
1
41
1
41
1
10
14.241039537903395
20
8.5835399283131721
30
0
10
14.244722389780634
20
8.5917814714847864
30
0
10
14.251311599747558
20
8.6095554731381405
30
0
10
14.258865902451793
20
8.6400893180596636
30
0
10
14.26424568040882
20
8.6886022748767342
30
0
10
14.262989364728591
20
8.7623948901952957
30
0
10
14.253636593879778
20
8.8491714715514611
30
0
10
14.236236825128533
20
8.9481366329304599
30
0
10
14.211196624970974
20
9.0573815973974927
30
0
10
14.179346856328133
20
9.17375104614141
30
0
10
14.141729185526335
20
9.2934780101334802
30
0
10
14.099468717397546
20
9.412617720302439
30
0
10
14.053638032071605
20
9.527530381248571
30
0
10
14.005139150655841
20
9.635362498294759
30
0
10
13.954595870938125
20
9.7345121302637025
30
0
10
13.902408558285902
20
9.8242358881272516
30
0
10
13.859521462950983
20
9.8883245416306664
30
0
10
13.826758778715757
20
9.9321023535504711
30
0
10
13.804653406119719
20
9.959395344328005
30
0
10
13.793534824223901
20
9.9725687794481512
30
0
0
ENDSEC
0
SECTION
2
OBJECTS
0
DICTIONARY
5
C
100
AcDbDictionary
3
ACAD_GROUP
350
D
3
ACAD_MLINESTYLE
350
17
0
DICTIONARY
5
D
100
AcDbDictionary
0
DICTIONARY
5
1A
330
C
100
AcDbDictionary
0
DICTIONARY
5
17
100
AcDbDictionary
0
ENDSEC
0
EOF
