0
SECTION
2
HEADER
9
$INSUNITS
70
4
9
$ACADVER
1
AC1014
9
$HANDSEED
5
FFFF
0
ENDSEC
0
SECTION
2
TABLES
0
TABLE
2
VPORT
5
8
100
AcDbSymbolTable
0
ENDTAB
0
TABLE
2
LTYPE
5
5
100
AcDbSymbolTable
0
LTYPE
5
14
100
AcDbSymbolTableRecord
100
AcDbLinetypeTableRecord
2
BYBLOCK
70
0
0
LTYPE
5
15
100
AcDbSymbolTableRecord
100
AcDbLinetypeTableRecord
2
BYLAYER
70
0
0
ENDTAB
0
TABLE
2
LAYER
5
2
100
AcDbSymbolTable
70
2
0
LAYER
5
50
100
AcDbSymbolTableRecord
100
AcDbLayerTableRecord
2
0
70
0
6
CONTINUOUS
0
ENDTAB
0
TABLE
2
STYLE
5
3
100
AcDbSymbolTable
70
1
0
STYLE
5
11
100
AcDbSymbolTableRecord
100
AcDbTextStyleTableRecord
2
STANDARD
70
0
0
ENDTAB
0
TABLE
2
VIEW
5
6
100
AcDbSymbolTable
70
0
0
ENDTAB
0
TABLE
2
UCS
5
7
100
AcDbSymbolTable
70
0
0
ENDTAB
0
TABLE
2
APPID
5
9
100
AcDbSymbolTable
70
2
0
APPID
5
12
100
AcDbSymbolTableRecord
100
AcDbRegAppTableRecord
2
ACAD
70
0
0
ENDTAB
0
TABLE
2
DIMSTYLE
5
A
100
AcDbSymbolTable
70
1
0
ENDTAB
0
TABLE
2
BLOCK_RECORD
5
1
100
AcDbSymbolTable
70
1
0
BLOCK_RECORD
5
1F
100
AcDbSymbolTableRecord
100
AcDbBlockTableRecord
2
*MODEL_SPACE
0
BLOCK_RECORD
5
1B
100
AcDbSymbolTableRecord
100
AcDbBlockTableRecord
2
*PAPER_SPACE
0
ENDTAB
0
ENDSEC
0
SECTION
2
BLOCKS
0
BLOCK
5
20
100
AcDbEntity
100
AcDbBlockBegin
2
*MODEL_SPACE
0
ENDBLK
5
21
100
AcDbEntity
100
AcDbBlockEnd
0
BLOCK
5
1C
100
AcDbEntity
100
AcDbBlockBegin
2
*PAPER_SPACE
0
ENDBLK
5
1D
100
AcDbEntity
100
AcDbBlockEnd
0
ENDSEC
0
SECTION
2
ENTITIES
0
LWPOLYLINE
5
100
100
AcDbEntity
8
0
100
AcDbPolyline
90
4
70
1
43
0.0
10
336.10205867099762
20
42.871197264736367
10
336.10205867099762
20
28.871197264736441
10
322.10205867099774
20
28.871197264736445
10
322.10205867099774
20
42.871197264736367
0
LWPOLYLINE
5
101
100
AcDbEntity
8
0
100
AcDbPolyline
90
4
70
1
43
0.0
10
316.87900926250063
20
80.805604189406608
10
316.87900926250063
20
66.805604189406836
10
302.87900926250069
20
66.80560418940685
10
302.87900926250069
20
80.805604189406608
0
LWPOLYLINE
5
102
100
AcDbEntity
8
0
100
AcDbPolyline
90
4
70
1
43
0.0
10
286.0397299444445
20
80.805604189407759
10
286.0397299444445
20
66.805604189407802
10
272.0397299444445
20
66.805604189407802
10
272.0397299444445
20
80.805604189407759
0
LWPOLYLINE
5
103
100
AcDbEntity
8
0
100
AcDbPolyline
90
4
70
1
43
0.0
10
262.28972994444456
20
80.805604189407759
10
262.28972994444456
20
66.805604189407802
10
248.28972994444453
20
66.805604189407802
10
248.28972994444453
20
80.805604189407759
0
LWPOLYLINE
5
104
100
AcDbEntity
8
0
100
AcDbPolyline
90
4
70
1
43
0.0
10
243.28972994444453
20
80.805604189407759
10
243.28972994444453
20
66.805604189407802
10
229.28972994444462
20
66.805604189407802
10
229.28972994444462
20
80.805604189407759
0
LWPOLYLINE
5
105
100
AcDbEntity
8
0
100
AcDbPolyline
90
4
70
1
43
0.0
10
224.28972994444462
20
66.805604189407802
10
210.28972994444476
20
66.805604189407802
10
210.28972994444476
20
80.805604189407759
10
224.28972994444462
20
80.805604189407759
0
LWPOLYLINE
5
106
100
AcDbEntity
8
0
100
AcDbPolyline
90
4
70
1
43
0.0
10
205.28972994444476
20
66.805604189407802
10
191.2897299444447
20
66.805604189407802
10
191.2897299444447
20
80.805604189407759
10
205.28972994444476
20
80.805604189407759
0
LWPOLYLINE
5
107
100
AcDbEntity
8
0
100
AcDbPolyline
90
4
70
1
43
0.0
10
186.2897299444447
20
80.805604189407759
10
186.2897299444447
20
66.805604189407802
10
172.28972994444484
20
66.805604189407802
10
172.28972994444484
20
80.805604189407759
0
LWPOLYLINE
5
108
100
AcDbEntity
8
0
100
AcDbPolyline
90
4
70
1
43
0.0
10
167.28972994444484
20
80.805604189407759
10
167.28972994444484
20
66.805604189407802
10
153.28972994444482
20
66.805604189407802
10
153.28972994444482
20
80.805604189407759
0
LWPOLYLINE
5
109
100
AcDbEntity
8
0
100
AcDbPolyline
90
4
70
1
43
0.0
10
148.28972994444482
20
80.805604189407759
10
148.28972994444482
20
66.805604189407802
10
134.28972994444482
20
66.805604189407802
10
134.28972994444482
20
80.805604189407759
0
LWPOLYLINE
5
110
100
AcDbEntity
8
0
100
AcDbPolyline
90
4
70
1
43
0.0
10
129.28972994444482
20
66.805604189407802
10
115.28972994444487
20
66.805604189407802
10
115.28972994444487
20
80.805604189407759
10
129.28972994444482
20
80.805604189407759
0
LWPOLYLINE
5
111
100
AcDbEntity
8
0
100
AcDbPolyline
90
4
70
1
43
0.0
10
110.28972994444487
20
80.805604189407759
10
110.28972994444487
20
66.805604189407802
10
96.289729944444886
20
66.805604189407802
10
96.289729944444886
20
80.805604189407759
0
LWPOLYLINE
5
112
100
AcDbEntity
8
0
100
AcDbPolyline
90
4
70
1
43
0.0
10
91.289729944444886
20
66.805604189407802
10
77.289729944444915
20
66.805604189407802
10
77.289729944444915
20
80.805604189407759
10
91.289729944444886
20
80.805604189407759
0
LWPOLYLINE
5
113
100
AcDbEntity
8
0
100
AcDbPolyline
90
4
70
1
43
0.0
10
72.289729944444929
20
80.805604189407759
10
72.289729944444929
20
66.805604189407802
10
58.28972994444495
20
66.805604189407802
10
58.28972994444495
20
80.805604189407759
0
LWPOLYLINE
5
114
100
AcDbEntity
8
0
100
AcDbPolyline
90
4
70
1
43
0.0
10
53.289729944444971
20
80.805604189407759
10
53.289729944444971
20
66.805604189407802
10
39.289729944444986
20
66.805604189407802
10
39.289729944444986
20
80.805604189407759
0
LWPOLYLINE
5
115
100
AcDbEntity
8
0
100
AcDbPolyline
90
4
70
1
43
0.0
10
29.539729944445003
20
66.805604189407802
10
15.539729944445035
20
66.805604189407802
10
15.539729944445035
20
80.805604189407759
10
29.539729944445003
20
80.805604189407759
0
LWPOLYLINE
5
116
100
AcDbEntity
8
0
100
AcDbPolyline
90
4
70
1
43
0.0
10
336.10205867099762
20
61.871197264736239
10
336.10205867099762
20
47.871197264736324
10
322.10205867099774
20
47.871197264736324
10
322.10205867099785
20
61.871197264736239
0
LWPOLYLINE
5
117
100
AcDbEntity
8
0
100
AcDbPolyline
90
36
70
1
43
0.0
10
263.88972994444453
20
86.035604189407763
10
263.88972994444453
20
84.835604189407761
10
260.88972994444458
20
84.835604189407761
10
260.88972994444458
20
86.035604189407763
10
259.06472994444465
20
86.035604189407763
10
259.06472994444465
20
92.305604189407745
10
258.18972994444459
20
92.305604189407745
10
258.18972994444459
20
95.105604189407728
10
259.06472994444465
20
95.105604189407728
10
259.06472994444465
20
98.335604189407746
10
265.71472994444457
20
98.335604189407746
10
265.71472994444457
20
95.105604189407728
10
267.28972994444456
20
95.105604189407728
10
267.28972994444456
20
99.805604189407717
10
281.2897299444445
20
99.805604189407717
10
281.2897299444445
20
95.105604189407728
10
282.86472994444455
20
95.105604189407728
10
282.86472994444455
20
98.335604189407746
10
289.51472994444447
20
98.335604189407746
10
289.51472994444447
20
95.105604189407728
10
290.38972994444453
20
95.105604189407728
10
290.38972994444453
20
92.305604189407745
10
289.51472994444447
20
92.305604189407745
10
289.51472994444447
20
86.035604189407763
10
287.68972994444442
20
86.035604189407763
10
287.68972994444442
20
84.835604189407761
10
284.68972994444448
20
84.835604189407761
10
284.68972994444448
20
86.035604189407763
10
282.86472994444455
20
86.035604189407763
10
282.86472994444455
20
92.305604189407745
10
281.2897299444445
20
92.305604189407745
10
281.2897299444445
20
85.805604189407759
10
267.28972994444456
20
85.805604189407759
10
267.28972994444456
20
92.305604189407745
10
265.71472994444457
20
92.305604189407745
10
265.71472994444457
20
86.035604189407763
0
LWPOLYLINE
5
118
100
AcDbEntity
8
0
100
AcDbPolyline
90
4
70
1
43
0.0
10
252.7897299444447
20
85.805604189407759
10
238.78972994444462
20
85.805604189407759
10
238.78972994444462
20
99.805604189407717
10
252.7897299444447
20
99.805604189407717
0
LWPOLYLINE
5
119
100
AcDbEntity
8
0
100
AcDbPolyline
90
4
70
1
43
0.0
10
233.78972994444462
20
85.805604189407759
10
219.78972994444473
20
85.805604189407759
10
219.78972994444473
20
99.805604189407717
10
233.78972994444462
20
99.805604189407717
0
LWPOLYLINE
5
120
100
AcDbEntity
8
0
100
AcDbPolyline
90
4
70
1
43
0.0
10
214.78972994444473
20
85.805604189407759
10
200.78972994444467
20
85.805604189407759
10
200.78972994444467
20
99.805604189407717
10
214.78972994444473
20
99.805604189407717
0
LWPOLYLINE
5
121
100
AcDbEntity
8
0
100
AcDbPolyline
90
4
70
1
43
0.0
10
195.78972994444467
20
85.805604189407759
10
181.78972994444467
20
85.805604189407759
10
181.78972994444467
20
99.805604189407717
10
195.78972994444467
20
99.805604189407717
0
LWPOLYLINE
5
122
100
AcDbEntity
8
0
100
AcDbPolyline
90
4
70
1
43
0.0
10
176.78972994444467
20
85.805604189407759
10
162.78972994444476
20
85.805604189407759
10
162.78972994444476
20
99.805604189407717
10
176.78972994444467
20
99.805604189407717
0
LWPOLYLINE
5
123
100
AcDbEntity
8
0
100
AcDbPolyline
90
4
70
1
43
0.0
10
157.78972994444476
20
85.805604189407759
10
143.78972994444479
20
85.805604189407759
10
143.78972994444479
20
99.805604189407717
10
157.78972994444476
20
99.805604189407717
0
LWPOLYLINE
5
124
100
AcDbEntity
8
0
100
AcDbPolyline
90
4
70
1
43
0.0
10
138.78972994444479
20
85.805604189407759
10
124.78972994444483
20
85.805604189407759
10
124.78972994444483
20
99.805604189407717
10
138.78972994444479
20
99.805604189407717
0
LWPOLYLINE
5
125
100
AcDbEntity
8
0
100
AcDbPolyline
90
4
70
1
43
0.0
10
119.78972994444483
20
85.805604189407759
10
105.78972994444484
20
85.805604189407759
10
105.78972994444484
20
99.805604189407717
10
119.78972994444483
20
99.805604189407717
0
LWPOLYLINE
5
126
100
AcDbEntity
8
0
100
AcDbPolyline
90
4
70
1
43
0.0
10
100.78972994444484
20
85.805604189407759
10
86.7897299444449
20
85.805604189407759
10
86.7897299444449
20
99.805604189407717
10
100.78972994444484
20
99.805604189407717
0
LWPOLYLINE
5
127
100
AcDbEntity
8
0
100
AcDbPolyline
90
4
70
1
43
0.0
10
81.7897299444449
20
85.805604189407759
10
67.789729944444929
20
85.805604189407759
10
67.789729944444929
20
99.805604189407717
10
81.7897299444449
20
99.805604189407717
0
LWPOLYLINE
5
128
100
AcDbEntity
8
0
100
AcDbPolyline
90
4
70
1
43
0.0
10
62.789729944444943
20
85.805604189407759
10
48.789729944444957
20
85.805604189407759
10
48.789729944444957
20
99.805604189407717
10
62.789729944444943
20
99.805604189407717
0
LWPOLYLINE
5
129
100
AcDbEntity
8
0
100
AcDbPolyline
90
4
70
1
43
0.0
10
43.789729944444971
20
85.805604189407759
10
29.789729944445007
20
85.805604189407759
10
29.789729944445007
20
99.805604189407717
10
43.789729944444971
20
99.805604189407717
0
LWPOLYLINE
5
130
100
AcDbEntity
8
0
100
AcDbPolyline
90
4
70
1
43
0.0
10
317.10205867099785
20
47.805604189407177
10
303.10205867099808
20
47.805604189407198
10
303.10205867099813
20
61.805604189406935
10
317.10205867099791
20
61.805604189406921
0
LWPOLYLINE
5
131
100
AcDbEntity
8
0
100
AcDbPolyline
90
4
70
1
43
0.0
10
24.789729944445025
20
100.03579579008674
10
24.789729944445025
20
86.03579579008678
10
10.789729944445074
20
86.03579579008678
10
10.789729944445074
20
100.03579579008674
0
LWPOLYLINE
5
132
100
AcDbEntity
8
0
100
AcDbPolyline
90
4
70
1
43
0.0
10
17.914729944445043
20
61.805604189407816
10
31.914729944444993
20
61.805604189407816
10
31.914729944444993
20
47.805604189407838
10
17.914729944445043
20
47.805604189407838
0
LWPOLYLINE
5
133
100
AcDbEntity
8
0
100
AcDbPolyline
90
4
70
1
43
0.0
10
44.039729944444979
20
61.805604189407816
10
58.039729944444943
20
61.805604189407816
10
58.039729944444943
20
47.805604189407838
10
44.039729944444979
20
47.805604189407838
0
LWPOLYLINE
5
134
100
AcDbEntity
8
0
100
AcDbPolyline
90
4
70
1
43
0.0
10
63.039729944444943
20
61.805604189407816
10
77.039729944444915
20
61.805604189407816
10
77.039729944444915
20
47.805604189407838
10
63.039729944444943
20
47.805604189407838
0
LWPOLYLINE
5
135
100
AcDbEntity
8
0
100
AcDbPolyline
90
4
70
1
43
0.0
10
82.039729944444872
20
61.805604189407816
10
96.0397299444449
20
61.805604189407816
10
96.0397299444449
20
47.805604189407838
10
82.039729944444872
20
47.805604189407838
0
LWPOLYLINE
5
136
100
AcDbEntity
8
0
100
AcDbPolyline
90
4
70
1
43
0.0
10
101.03972994444487
20
61.805604189407816
10
115.03972994444484
20
61.805604189407816
10
115.03972994444484
20
47.805604189407838
10
101.03972994444487
20
47.805604189407838
0
LWPOLYLINE
5
137
100
AcDbEntity
8
0
100
AcDbPolyline
90
4
70
1
43
0.0
10
120.03972994444482
20
61.805604189407816
10
134.03972994444484
20
61.805604189407816
10
134.03972994444484
20
47.805604189407838
10
120.03972994444482
20
47.805604189407838
0
LWPOLYLINE
5
138
100
AcDbEntity
8
0
100
AcDbPolyline
90
4
70
1
43
0.0
10
139.03972994444479
20
61.805604189407816
10
153.03972994444479
20
61.805604189407816
10
153.03972994444479
20
47.805604189407838
10
139.03972994444479
20
47.805604189407838
0
LWPOLYLINE
5
139
100
AcDbEntity
8
0
100
AcDbPolyline
90
4
70
1
43
0.0
10
158.03972994444476
20
61.805604189407816
10
172.03972994444479
20
61.805604189407816
10
172.03972994444479
20
47.805604189407838
10
158.03972994444476
20
47.805604189407838
0
LWPOLYLINE
5
140
100
AcDbEntity
8
0
100
AcDbPolyline
90
4
70
1
43
0.0
10
177.0397299444447
20
61.805604189407816
10
191.03972994444479
20
61.805604189407816
10
191.03972994444479
20
47.805604189407838
10
177.0397299444447
20
47.805604189407838
0
LWPOLYLINE
5
141
100
AcDbEntity
8
0
100
AcDbPolyline
90
4
70
1
43
0.0
10
196.03972994444476
20
61.805604189407816
10
210.03972994444467
20
61.805604189407816
10
210.03972994444467
20
47.805604189407838
10
196.03972994444476
20
47.805604189407838
0
LWPOLYLINE
5
142
100
AcDbEntity
8
0
100
AcDbPolyline
90
4
70
1
43
0.0
10
215.03972994444464
20
61.805604189407816
10
229.03972994444473
20
61.805604189407816
10
229.03972994444473
20
47.805604189407838
10
215.03972994444464
20
47.805604189407838
0
LWPOLYLINE
5
143
100
AcDbEntity
8
0
100
AcDbPolyline
90
4
70
1
43
0.0
10
234.0397299444447
20
61.805604189407816
10
248.03972994444453
20
61.805604189407816
10
248.03972994444453
20
47.805604189407838
10
234.0397299444447
20
47.805604189407838
0
LWPOLYLINE
5
144
100
AcDbEntity
8
0
100
AcDbPolyline
90
36
70
1
43
0.0
10
263.33972994444463
20
48.035604189407834
10
261.51472994444458
20
48.035604189407834
10
261.51472994444458
20
46.835604189407832
10
258.51472994444458
20
46.835604189407832
10
258.51472994444458
20
48.035604189407834
10
256.68972994444465
20
48.035604189407834
10
256.68972994444465
20
54.305604189407823
10
255.81472994444465
20
54.305604189407823
10
255.81472994444465
20
57.105604189407828
10
256.68972994444465
20
57.105604189407828
10
256.68972994444465
20
60.335604189407817
10
263.33972994444463
20
60.335604189407817
10
263.33972994444463
20
57.105604189407828
10
264.91472994444456
20
57.105604189407828
10
264.91472994444456
20
61.805604189407816
10
278.91472994444445
20
61.805604189407816
10
278.91472994444445
20
57.105604189407828
10
280.48972994444449
20
57.105604189407828
10
280.48972994444449
20
60.335604189407817
10
287.13972994444453
20
60.335604189407817
10
287.13972994444453
20
57.105604189407828
10
288.01472994444447
20
57.105604189407828
10
288.01472994444447
20
54.305604189407823
10
287.13972994444453
20
54.305604189407823
10
287.13972994444453
20
48.035604189407834
10
285.31472994444448
20
48.035604189407834
10
285.31472994444448
20
46.835604189407832
10
282.31472994444448
20
46.835604189407832
10
282.31472994444448
20
48.035604189407834
10
280.48972994444449
20
48.035604189407834
10
280.48972994444449
20
54.305604189407823
10
278.91472994444445
20
54.305604189407823
10
278.91472994444445
20
47.805604189407838
10
264.91472994444456
20
47.805604189407838
10
264.91472994444456
20
54.305604189407823
10
263.33972994444463
20
54.305604189407823
0
LWPOLYLINE
5
145
100
AcDbEntity
8
0
100
AcDbPolyline
90
36
70
1
43
0.0
10
21.089729944445033
20
29.035604189407866
10
19.264729944445005
20
29.035604189407866
10
19.264729944445005
20
27.835604189407874
10
16.264729944445033
20
27.835604189407874
10
16.264729944445033
20
29.035604189407866
10
14.439729944445041
20
29.035604189407866
10
14.439729944445041
20
35.305604189407859
10
13.564729944445038
20
35.305604189407859
10
13.564729944445038
20
38.105604189407849
10
14.439729944445041
20
38.105604189407849
10
14.439729944445041
20
41.335604189407846
10
21.089729944445033
20
41.335604189407846
10
21.089729944445033
20
38.105604189407849
10
22.664729944445021
20
38.105604189407849
10
22.664729944445021
20
42.805604189407845
10
36.664729944445007
20
42.805604189407845
10
36.664729944445007
20
38.105604189407849
10
38.239729944444974
20
38.105604189407849
10
38.239729944444974
20
41.335604189407846
10
44.889729944444966
20
41.335604189407846
10
44.889729944444966
20
38.105604189407849
10
45.764729944445008
20
38.105604189407849
10
45.764729944445008
20
35.305604189407859
10
44.889729944444966
20
35.305604189407859
10
44.889729944444966
20
29.035604189407866
10
43.064729944444991
20
29.035604189407866
10
43.064729944444991
20
27.835604189407874
10
40.064729944444991
20
27.835604189407874
10
40.064729944444991
20
29.035604189407866
10
38.239729944444974
20
29.035604189407866
10
38.239729944444974
20
35.305604189407859
10
36.664729944445007
20
35.305604189407859
10
36.664729944445007
20
28.80560418940787
10
22.664729944445021
20
28.80560418940787
10
22.664729944445021
20
35.305604189407859
10
21.089729944445033
20
35.305604189407859
0
LWPOLYLINE
5
146
100
AcDbEntity
8
0
100
AcDbPolyline
90
4
70
1
43
0.0
10
53.539729944444971
20
42.805604189407845
10
67.539729944444929
20
42.805604189407845
10
67.539729944444929
20
28.80560418940787
10
53.539729944444971
20
28.80560418940787
0
LWPOLYLINE
5
147
100
AcDbEntity
8
0
100
AcDbPolyline
90
4
70
1
43
0.0
10
72.539729944444929
20
42.805604189407845
10
86.5397299444449
20
42.805604189407845
10
86.5397299444449
20
28.80560418940787
10
72.539729944444929
20
28.80560418940787
0
LWPOLYLINE
5
148
100
AcDbEntity
8
0
100
AcDbPolyline
90
4
70
1
43
0.0
10
91.5397299444449
20
42.805604189407845
10
105.53972994444486
20
42.805604189407845
10
105.53972994444486
20
28.80560418940787
10
91.5397299444449
20
28.80560418940787
0
LWPOLYLINE
5
149
100
AcDbEntity
8
0
100
AcDbPolyline
90
4
70
1
43
0.0
10
110.53972994444486
20
42.805604189407845
10
124.53972994444484
20
42.805604189407845
10
124.53972994444484
20
28.80560418940787
10
110.53972994444486
20
28.80560418940787
0
LWPOLYLINE
5
150
100
AcDbEntity
8
0
100
AcDbPolyline
90
4
70
1
43
0.0
10
129.53972994444484
20
42.805604189407845
10
143.53972994444479
20
42.805604189407845
10
143.53972994444479
20
28.80560418940787
10
129.53972994444484
20
28.80560418940787
0
LWPOLYLINE
5
151
100
AcDbEntity
8
0
100
AcDbPolyline
90
4
70
1
43
0.0
10
148.53972994444479
20
42.805604189407845
10
162.53972994444473
20
42.805604189407845
10
162.53972994444473
20
28.80560418940787
10
148.53972994444479
20
28.80560418940787
0
LWPOLYLINE
5
152
100
AcDbEntity
8
0
100
AcDbPolyline
90
4
70
1
43
0.0
10
167.53972994444473
20
42.805604189407845
10
181.5397299444447
20
42.805604189407845
10
181.5397299444447
20
28.80560418940787
10
167.53972994444473
20
28.80560418940787
0
LWPOLYLINE
5
153
100
AcDbEntity
8
0
100
AcDbPolyline
90
4
70
1
43
0.0
10
186.5397299444447
20
42.805604189407845
10
200.53972994444464
20
42.805604189407845
10
200.53972994444464
20
28.80560418940787
10
186.5397299444447
20
28.80560418940787
0
LWPOLYLINE
5
154
100
AcDbEntity
8
0
100
AcDbPolyline
90
4
70
1
43
0.0
10
205.53972994444464
20
42.805604189407845
10
219.53972994444462
20
42.805604189407845
10
219.53972994444462
20
28.80560418940787
10
205.53972994444464
20
28.80560418940787
0
LWPOLYLINE
5
155
100
AcDbEntity
8
0
100
AcDbPolyline
90
4
70
1
43
0.0
10
224.53972994444462
20
42.805604189407845
10
238.53972994444467
20
42.805604189407845
10
238.53972994444467
20
28.80560418940787
10
224.53972994444462
20
28.80560418940787
0
LWPOLYLINE
5
156
100
AcDbEntity
8
0
100
AcDbPolyline
90
4
70
1
43
0.0
10
13.164729944445028
20
23.80560418940788
10
27.164729944445014
20
23.80560418940788
10
27.164729944445014
20
9.8056041894078998
10
13.164729944445028
20
9.8056041894079016
0
LWPOLYLINE
5
157
100
AcDbEntity
8
0
100
AcDbPolyline
90
4
70
1
43
0.0
10
36.914729944444993
20
23.80560418940788
10
50.914729944444957
20
23.80560418940788
10
50.914729944444957
20
9.8056041894078998
10
36.914729944444993
20
9.8056041894079016
0
LWPOLYLINE
5
158
100
AcDbEntity
8
0
100
AcDbPolyline
90
4
70
1
43
0.0
10
60.664729944444943
20
23.80560418940788
10
74.664729944444929
20
23.80560418940788
10
74.664729944444929
20
9.8056041894078998
10
60.664729944444943
20
9.8056041894079016
0
LWPOLYLINE
5
159
100
AcDbEntity
8
0
100
AcDbPolyline
90
36
70
1
43
0.0
10
92.239729944444917
20
10.0356041894079
10
90.4147299444449
20
10.0356041894079
10
90.4147299444449
20
8.8356041894079027
10
87.4147299444449
20
8.8356041894079027
10
87.4147299444449
20
10.0356041894079
10
85.589729944444912
20
10.0356041894079
10
85.589729944444912
20
16.305604189407891
10
84.689729944444878
20
16.305604189407891
10
84.689729944444878
20
19.105604189407885
10
85.589729944444912
20
19.105604189407885
10
85.589729944444912
20
22.335604189407885
10
92.239729944444917
20
22.335604189407885
10
92.239729944444917
20
19.105604189407885
10
131.91472994444482
20
19.105604189407885
10
131.91472994444482
20
23.80560418940788
10
145.91472994444479
20
23.80560418940788
10
145.91472994444479
20
19.105604189407885
10
185.58972994444477
20
19.105604189407885
10
185.58972994444477
20
22.335604189407885
10
192.23972994444472
20
22.335604189407885
10
192.23972994444472
20
19.105604189407885
10
193.1397299444447
20
19.105604189407885
10
193.1397299444447
20
16.305604189407891
10
192.23972994444472
20
16.305604189407891
10
192.23972994444472
20
10.0356041894079
10
190.41472994444479
20
10.0356041894079
10
190.41472994444479
20
8.8356041894079027
10
187.41472994444467
20
8.8356041894079027
10
187.41472994444467
20
10.0356041894079
10
185.58972994444477
20
10.0356041894079
10
185.58972994444477
20
14.505604189407892
10
145.91472994444479
20
14.505604189407892
10
145.91472994444479
20
9.8056041894078998
10
131.91472994444482
20
9.8056041894078998
10
131.91472994444482
20
14.505604189407892
10
92.239729944444917
20
14.505604189407892
0
LWPOLYLINE
5
160
100
AcDbEntity
8
0
100
AcDbPolyline
90
4
70
1
43
0.0
10
203.16472994444467
20
23.80560418940788
10
217.16472994444473
20
23.80560418940788
10
217.16472994444473
20
9.8056041894078998
10
203.16472994444467
20
9.8056041894079016
0
LWPOLYLINE
5
161
100
AcDbEntity
8
0
100
AcDbPolyline
90
4
70
1
43
0.0
10
226.91472994444464
20
23.80560418940788
10
240.9147299444447
20
23.80560418940788
10
240.9147299444447
20
9.8056041894078998
10
226.91472994444464
20
9.8056041894079016
0
LWPOLYLINE
5
162
100
AcDbEntity
8
0
100
AcDbPolyline
90
4
70
1
43
0.0
10
250.66472994444456
20
23.80560418940788
10
264.66472994444456
20
23.80560418940788
10
264.66472994444456
20
9.8056041894078998
10
250.66472994444456
20
9.8056041894079016
0
LWPOLYLINE
5
163
100
AcDbEntity
8
0
100
AcDbPolyline
90
4
70
1
43
0.0
10
274.4147299444445
20
23.805604189407848
10
288.41472994444439
20
23.805604189407848
10
288.41472994444439
20
9.805604189407898
10
274.41472994444456
20
9.8056041894079016
0
LWPOLYLINE
5
164
100
AcDbEntity
8
0
100
AcDbPolyline
90
4
70
1
43
0.0
10
303.10205867099791
20
42.805604189407227
10
317.10205867099779
20
42.805604189407219
10
317.10205867099779
20
28.805604189407497
10
303.10205867099791
20
28.8056041894075
0
LWPOLYLINE
5
165
100
AcDbEntity
8
0
100
AcDbPolyline
90
4
70
1
43
0.0
10
303.10205867099791
20
23.805604189407532
10
317.10205867099779
20
23.805604189407536
10
317.10205867099779
20
9.8056041894078927
10
303.10205867099802
20
9.805604189407898
0
LWPOLYLINE
5
166
100
AcDbEntity
8
0
100
AcDbPolyline
90
4
70
1
43
0.0
10
322.73967968811974
20
23.871197264736491
10
336.73967968811951
20
23.871197264736487
10
336.73967968811951
20
9.8711972647368551
10
322.73967968811974
20
9.8711972647368604
0
LWPOLYLINE
5
167
100
AcDbEntity
8
0
100
AcDbPolyline
90
4
70
1
43
0.0
10
264.6647299444449
20
28.80560418940788
10
250.66472994444464
20
28.80560418940787
10
250.66472994444507
20
42.805604189407774
10
264.6647299444449
20
42.805604189407774
0
LWPOLYLINE
5
168
100
AcDbEntity
8
0
100
AcDbPolyline
90
4
70
1
43
0.0
10
290.78972994444479
20
28.805604189407873
10
276.7897299444449
20
28.805604189407873
10
276.7897299444449
20
42.805604189407845
10
290.78972994444479
20
42.805604189407845
0
ENDSEC
0
SECTION
2
OBJECTS
0
DICTIONARY
5
C
100
AcDbDictionary
3
ACAD_GROUP
350
D
3
ACAD_MLINESTYLE
350
17
0
DICTIONARY
5
D
100
AcDbDictionary
0
DICTIONARY
5
1A
330
C
100
AcDbDictionary
0
DICTIONARY
5
17
100
AcDbDictionary
0
ENDSEC
0
EOF
