0
SECTION
2
HEADER
9
$INSUNITS
70
4
9
$ACADVER
1
AC1014
9
$HANDSEED
5
FFFF
0
ENDSEC
0
SECTION
2
TABLES
0
TABLE
2
VPORT
5
8
100
AcDbSymbolTable
0
ENDTAB
0
TABLE
2
LTYPE
5
5
100
AcDbSymbolTable
0
LTYPE
5
14
100
AcDbSymbolTableRecord
100
AcDbLinetypeTableRecord
2
BYBLOCK
70
0
0
LTYPE
5
15
100
AcDbSymbolTableRecord
100
AcDbLinetypeTableRecord
2
BYLAYER
70
0
0
ENDTAB
0
TABLE
2
LAYER
5
2
100
AcDbSymbolTable
70
2
0
LAYER
5
50
100
AcDbSymbolTableRecord
100
AcDbLayerTableRecord
2
0
70
0
6
CONTINUOUS
0
ENDTAB
0
TABLE
2
STYLE
5
3
100
AcDbSymbolTable
70
1
0
STYLE
5
11
100
AcDbSymbolTableRecord
100
AcDbTextStyleTableRecord
2
STANDARD
70
0
0
ENDTAB
0
TABLE
2
VIEW
5
6
100
AcDbSymbolTable
70
0
0
ENDTAB
0
TABLE
2
UCS
5
7
100
AcDbSymbolTable
70
0
0
ENDTAB
0
TABLE
2
APPID
5
9
100
AcDbSymbolTable
70
2
0
APPID
5
12
100
AcDbSymbolTableRecord
100
AcDbRegAppTableRecord
2
ACAD
70
0
0
ENDTAB
0
TABLE
2
DIMSTYLE
5
A
100
AcDbSymbolTable
70
1
0
ENDTAB
0
TABLE
2
BLOCK_RECORD
5
1
100
AcDbSymbolTable
70
1
0
BLOCK_RECORD
5
1F
100
AcDbSymbolTableRecord
100
AcDbBlockTableRecord
2
*MODEL_SPACE
0
BLOCK_RECORD
5
1B
100
AcDbSymbolTableRecord
100
AcDbBlockTableRecord
2
*PAPER_SPACE
0
ENDTAB
0
ENDSEC
0
SECTION
2
BLOCKS
0
BLOCK
5
20
100
AcDbEntity
100
AcDbBlockBegin
2
*MODEL_SPACE
0
ENDBLK
5
21
100
AcDbEntity
100
AcDbBlockEnd
0
BLOCK
5
1C
100
AcDbEntity
100
AcDbBlockBegin
2
*PAPER_SPACE
0
ENDBLK
5
1D
100
AcDbEntity
100
AcDbBlockEnd
0
ENDSEC
0
SECTION
2
ENTITIES
0
LWPOLYLINE
5
100
100
AcDbEntity
8
0
100
AcDbPolyline
90
4
70
1
43
0.0
10
138.03972994444169
20
61.805580237828224
10
138.03972994444169
20
47.805580237828224
10
124.03972994444169
20
47.805580237828224
10
124.03972994444169
20
61.805580237828224
0
LWPOLYLINE
5
101
100
AcDbEntity
8
0
100
AcDbPolyline
90
4
70
1
43
0.0
10
143.03972994444169
20
61.805580237828224
10
157.03972994444169
20
61.805580237828224
10
157.03972994444169
20
47.805580237828224
10
143.03972994444169
20
47.805580237828224
0
LWPOLYLINE
5
102
100
AcDbEntity
8
0
100
AcDbPolyline
90
4
70
1
43
0.0
10
111.91472994444169
20
47.805580237828224
10
97.914729944441703
20
47.805580237828224
10
97.914729944441703
20
61.805580237828224
10
111.91472994444169
20
61.805580237828224
0
LWPOLYLINE
5
103
100
AcDbEntity
8
0
100
AcDbPolyline
90
36
70
1
43
0.0
10
67.269729944441764
20
74.705580237828215
10
66.069729944441718
20
74.705580237828215
10
66.069729944441718
20
77.705580237828229
10
67.269729944441764
20
77.705580237828229
10
67.269729944441764
20
79.530580237828204
10
73.539729944441746
20
79.530580237828204
10
73.539729944441746
20
80.405580237828204
10
76.339729944441757
20
80.405580237828204
10
76.339729944441757
20
79.530580237828204
10
79.569729944441775
20
79.530580237828204
10
79.569729944441775
20
72.880580237828227
10
76.339729944441757
20
72.880580237828227
10
76.339729944441757
20
71.305580237828224
10
81.03972994444176
20
71.305580237828224
10
81.03972994444176
20
57.305580237828224
10
76.339729944441757
20
57.305580237828224
10
76.339729944441757
20
55.730580237828221
10
79.569729944441775
20
55.730580237828221
10
79.569729944441775
20
49.080580237828222
10
76.339729944441757
20
49.080580237828222
10
76.339729944441757
20
48.205580237828222
10
73.539729944441746
20
48.205580237828222
10
73.539729944441746
20
49.080580237828222
10
67.269729944441764
20
49.080580237828222
10
67.269729944441764
20
50.905580237828225
10
66.069729944441718
20
50.905580237828225
10
66.069729944441718
20
53.905580237828225
10
67.269729944441764
20
53.905580237828225
10
67.269729944441764
20
55.730580237828221
10
73.539729944441746
20
55.730580237828221
10
73.539729944441746
20
57.305580237828224
10
67.039729944441746
20
57.305580237828224
10
67.039729944441746
20
71.305580237828224
10
73.539729944441746
20
71.305580237828224
10
73.539729944441746
20
72.880580237828227
10
67.269729944441764
20
72.880580237828227
0
LWPOLYLINE
5
104
100
AcDbEntity
8
0
100
AcDbPolyline
90
4
70
1
43
0.0
10
62.039729944441753
20
80.80558023782821
10
62.039729944441753
20
66.80558023782821
10
48.039729944441746
20
66.80558023782821
10
48.039729944441746
20
80.80558023782821
0
LWPOLYLINE
5
105
100
AcDbEntity
8
0
100
AcDbPolyline
90
4
70
1
43
0.0
10
43.039729944441746
20
80.80558023782821
10
43.039729944441746
20
66.80558023782821
10
29.039729944441802
20
66.80558023782821
10
29.039729944441802
20
80.80558023782821
0
LWPOLYLINE
5
106
100
AcDbEntity
8
0
100
AcDbPolyline
90
4
70
1
43
0.0
10
24.039729944441802
20
80.80558023782821
10
24.039729944441802
20
66.80558023782821
10
10.039729944441746
20
66.80558023782821
10
10.039729944441746
20
80.80558023782821
0
LWPOLYLINE
5
107
100
AcDbEntity
8
0
100
AcDbPolyline
90
4
70
1
43
0.0
10
432.53972994444183
20
66.80558023782821
10
418.53972994444172
20
66.80558023782821
10
418.53972994444172
20
80.80558023782821
10
432.53972994444183
20
80.80558023782821
0
LWPOLYLINE
5
108
100
AcDbEntity
8
0
100
AcDbPolyline
90
4
70
1
43
0.0
10
413.53972994444172
20
66.80558023782821
10
399.53972994444172
20
66.80558023782821
10
399.53972994444172
20
80.80558023782821
10
413.53972994444172
20
80.80558023782821
0
LWPOLYLINE
5
109
100
AcDbEntity
8
0
100
AcDbPolyline
90
4
70
1
43
0.0
10
394.53972994444172
20
66.80558023782821
10
380.53972994444166
20
66.80558023782821
10
380.53972994444166
20
80.80558023782821
10
394.53972994444172
20
80.80558023782821
0
LWPOLYLINE
5
110
100
AcDbEntity
8
0
100
AcDbPolyline
90
4
70
1
43
0.0
10
366.03972994444172
20
66.80558023782821
10
352.03972994444166
20
66.80558023782821
10
352.03972994444166
20
80.80558023782821
10
366.03972994444172
20
80.80558023782821
0
LWPOLYLINE
5
111
100
AcDbEntity
8
0
100
AcDbPolyline
90
4
70
1
43
0.0
10
342.28972994444172
20
66.80558023782821
10
328.28972994444166
20
66.80558023782821
10
328.28972994444166
20
80.80558023782821
10
342.28972994444172
20
80.80558023782821
0
LWPOLYLINE
5
112
100
AcDbEntity
8
0
100
AcDbPolyline
90
4
70
1
43
0.0
10
323.28972994444166
20
66.80558023782821
10
309.28972994444166
20
66.80558023782821
10
309.28972994444166
20
80.80558023782821
10
323.28972994444166
20
80.80558023782821
0
LWPOLYLINE
5
113
100
AcDbEntity
8
0
100
AcDbPolyline
90
4
70
1
43
0.0
10
304.28972994444166
20
66.80558023782821
10
290.28972994444177
20
66.80558023782821
10
290.28972994444177
20
80.80558023782821
10
304.28972994444166
20
80.80558023782821
0
LWPOLYLINE
5
114
100
AcDbEntity
8
0
100
AcDbPolyline
90
4
70
1
43
0.0
10
285.28972994444177
20
66.80558023782821
10
271.28972994444166
20
66.80558023782821
10
271.28972994444166
20
80.80558023782821
10
285.28972994444177
20
80.80558023782821
0
LWPOLYLINE
5
115
100
AcDbEntity
8
0
100
AcDbPolyline
90
4
70
1
43
0.0
10
266.28972994444166
20
66.80558023782821
10
252.28972994444177
20
66.80558023782821
10
252.28972994444177
20
80.80558023782821
10
266.28972994444166
20
80.80558023782821
0
LWPOLYLINE
5
116
100
AcDbEntity
8
0
100
AcDbPolyline
90
4
70
1
43
0.0
10
247.28972994444177
20
66.80558023782821
10
233.28972994444172
20
66.80558023782821
10
233.28972994444172
20
80.80558023782821
10
247.28972994444177
20
80.80558023782821
0
LWPOLYLINE
5
117
100
AcDbEntity
8
0
100
AcDbPolyline
90
4
70
1
43
0.0
10
228.28972994444172
20
66.80558023782821
10
214.28972994444169
20
66.80558023782821
10
214.28972994444169
20
80.80558023782821
10
228.28972994444172
20
80.80558023782821
0
LWPOLYLINE
5
118
100
AcDbEntity
8
0
100
AcDbPolyline
90
4
70
1
43
0.0
10
209.28972994444169
20
80.80558023782821
10
209.28972994444169
20
66.80558023782821
10
195.28972994444172
20
66.80558023782821
10
195.28972994444172
20
80.80558023782821
0
LWPOLYLINE
5
119
100
AcDbEntity
8
0
100
AcDbPolyline
90
4
70
1
43
0.0
10
190.28972994444172
20
80.80558023782821
10
190.28972994444172
20
66.80558023782821
10
176.28972994444169
20
66.80558023782821
10
176.28972994444169
20
80.80558023782821
0
LWPOLYLINE
5
120
100
AcDbEntity
8
0
100
AcDbPolyline
90
4
70
1
43
0.0
10
171.28972994444169
20
80.80558023782821
10
171.28972994444169
20
66.80558023782821
10
157.28972994444172
20
66.80558023782821
10
157.28972994444172
20
80.80558023782821
0
LWPOLYLINE
5
121
100
AcDbEntity
8
0
100
AcDbPolyline
90
4
70
1
43
0.0
10
152.28972994444172
20
80.80558023782821
10
152.28972994444172
20
66.80558023782821
10
138.28972994444169
20
66.80558023782821
10
138.28972994444169
20
80.80558023782821
0
LWPOLYLINE
5
122
100
AcDbEntity
8
0
100
AcDbPolyline
90
4
70
1
43
0.0
10
133.28972994444169
20
80.80558023782821
10
133.28972994444169
20
66.80558023782821
10
119.28972994444169
20
66.80558023782821
10
119.28972994444169
20
80.80558023782821
0
LWPOLYLINE
5
123
100
AcDbEntity
8
0
100
AcDbPolyline
90
4
70
1
43
0.0
10
109.5397299444417
20
80.80558023782821
10
109.5397299444417
20
66.80558023782821
10
95.539729944441689
20
66.80558023782821
10
95.539729944441689
20
80.80558023782821
0
LWPOLYLINE
5
124
100
AcDbEntity
8
0
100
AcDbPolyline
90
4
70
1
43
0.0
10
81.03972994444176
20
99.80558023782821
10
81.03972994444176
20
85.80558023782821
10
67.039729944441746
20
85.80558023782821
10
67.039729944441746
20
99.80558023782821
0
LWPOLYLINE
5
125
100
AcDbEntity
8
0
100
AcDbPolyline
90
4
70
1
43
0.0
10
62.039729944441753
20
99.80558023782821
10
62.039729944441753
20
85.80558023782821
10
48.039729944441746
20
85.80558023782821
10
48.039729944441746
20
99.80558023782821
0
LWPOLYLINE
5
126
100
AcDbEntity
8
0
100
AcDbPolyline
90
4
70
1
43
0.0
10
43.039729944441746
20
99.80558023782821
10
43.039729944441746
20
85.80558023782821
10
29.039729944441802
20
85.80558023782821
10
29.039729944441802
20
99.80558023782821
0
LWPOLYLINE
5
127
100
AcDbEntity
8
0
100
AcDbPolyline
90
4
70
1
43
0.0
10
24.039729944441802
20
99.80558023782821
10
24.039729944441802
20
85.80558023782821
10
10.039729944441746
20
85.80558023782821
10
10.039729944441746
20
99.80558023782821
0
LWPOLYLINE
5
128
100
AcDbEntity
8
0
100
AcDbPolyline
90
4
70
1
43
0.0
10
432.53972994444183
20
85.80558023782821
10
418.53972994444172
20
85.80558023782821
10
418.53972994444172
20
99.80558023782821
10
432.53972994444183
20
99.80558023782821
0
LWPOLYLINE
5
129
100
AcDbEntity
8
0
100
AcDbPolyline
90
4
70
1
43
0.0
10
413.53972994444172
20
85.80558023782821
10
399.53972994444172
20
85.80558023782821
10
399.53972994444172
20
99.80558023782821
10
413.53972994444172
20
99.80558023782821
0
LWPOLYLINE
5
130
100
AcDbEntity
8
0
100
AcDbPolyline
90
4
70
1
43
0.0
10
394.53972994444172
20
85.80558023782821
10
380.53972994444166
20
85.80558023782821
10
380.53972994444166
20
99.80558023782821
10
394.53972994444172
20
99.80558023782821
0
LWPOLYLINE
5
131
100
AcDbEntity
8
0
100
AcDbPolyline
90
36
70
1
43
0.0
10
343.88972994444168
20
86.035580237828228
10
343.88972994444168
20
84.835580237828211
10
340.88972994444168
20
84.835580237828211
10
340.88972994444168
20
86.035580237828228
10
339.06472994444181
20
86.035580237828228
10
339.06472994444181
20
92.30558023782821
10
338.18972994444175
20
92.30558023782821
10
338.18972994444175
20
95.105580237828207
10
339.06472994444181
20
95.105580237828207
10
339.06472994444181
20
98.335580237828211
10
345.71472994444173
20
98.335580237828211
10
345.71472994444173
20
95.105580237828207
10
347.28972994444172
20
95.105580237828207
10
347.28972994444172
20
99.80558023782821
10
361.28972994444166
20
99.80558023782821
10
361.28972994444166
20
95.105580237828207
10
362.86472994444176
20
95.105580237828207
10
362.86472994444176
20
98.335580237828211
10
369.51472994444168
20
98.335580237828211
10
369.51472994444168
20
95.105580237828207
10
370.38972994444174
20
95.105580237828207
10
370.38972994444174
20
92.30558023782821
10
369.51472994444168
20
92.30558023782821
10
369.51472994444168
20
86.035580237828228
10
367.68972994444164
20
86.035580237828228
10
367.68972994444164
20
84.835580237828211
10
364.68972994444164
20
84.835580237828211
10
364.68972994444164
20
86.035580237828228
10
362.86472994444176
20
86.035580237828228
10
362.86472994444176
20
92.30558023782821
10
361.28972994444166
20
92.30558023782821
10
361.28972994444166
20
85.80558023782821
10
347.28972994444172
20
85.80558023782821
10
347.28972994444172
20
92.30558023782821
10
345.71472994444173
20
92.30558023782821
10
345.71472994444173
20
86.035580237828228
0
LWPOLYLINE
5
132
100
AcDbEntity
8
0
100
AcDbPolyline
90
4
70
1
43
0.0
10
332.78972994444183
20
99.80558023782821
10
332.78972994444183
20
85.80558023782821
10
318.78972994444166
20
85.80558023782821
10
318.78972994444166
20
99.80558023782821
0
LWPOLYLINE
5
133
100
AcDbEntity
8
0
100
AcDbPolyline
90
4
70
1
43
0.0
10
313.78972994444166
20
85.80558023782821
10
299.78972994444177
20
85.80558023782821
10
299.78972994444177
20
99.80558023782821
10
313.78972994444166
20
99.80558023782821
0
LWPOLYLINE
5
134
100
AcDbEntity
8
0
100
AcDbPolyline
90
4
70
1
43
0.0
10
294.78972994444177
20
99.80558023782821
10
294.78972994444177
20
85.80558023782821
10
280.78972994444166
20
85.80558023782821
10
280.78972994444166
20
99.80558023782821
0
LWPOLYLINE
5
135
100
AcDbEntity
8
0
100
AcDbPolyline
90
4
70
1
43
0.0
10
275.78972994444166
20
85.80558023782821
10
261.78972994444166
20
85.80558023782821
10
261.78972994444166
20
99.80558023782821
10
275.78972994444166
20
99.80558023782821
0
LWPOLYLINE
5
136
100
AcDbEntity
8
0
100
AcDbPolyline
90
4
70
1
43
0.0
10
256.78972994444166
20
99.80558023782821
10
256.78972994444166
20
85.80558023782821
10
242.78972994444172
20
85.80558023782821
10
242.78972994444172
20
99.80558023782821
0
LWPOLYLINE
5
137
100
AcDbEntity
8
0
100
AcDbPolyline
90
4
70
1
43
0.0
10
237.78972994444172
20
85.80558023782821
10
223.78972994444169
20
85.80558023782821
10
223.78972994444169
20
99.80558023782821
10
237.78972994444172
20
99.80558023782821
0
LWPOLYLINE
5
138
100
AcDbEntity
8
0
100
AcDbPolyline
90
4
70
1
43
0.0
10
218.78972994444169
20
85.80558023782821
10
204.78972994444172
20
85.80558023782821
10
204.78972994444172
20
99.80558023782821
10
218.78972994444169
20
99.80558023782821
0
LWPOLYLINE
5
139
100
AcDbEntity
8
0
100
AcDbPolyline
90
4
70
1
43
0.0
10
199.78972994444172
20
99.80558023782821
10
199.78972994444172
20
85.80558023782821
10
185.78972994444169
20
85.80558023782821
10
185.78972994444169
20
99.80558023782821
0
LWPOLYLINE
5
140
100
AcDbEntity
8
0
100
AcDbPolyline
90
4
70
1
43
0.0
10
180.78972994444169
20
85.80558023782821
10
166.78972994444169
20
85.80558023782821
10
166.78972994444169
20
99.80558023782821
10
180.78972994444169
20
99.80558023782821
0
LWPOLYLINE
5
141
100
AcDbEntity
8
0
100
AcDbPolyline
90
4
70
1
43
0.0
10
161.78972994444169
20
85.80558023782821
10
147.78972994444169
20
85.80558023782821
10
147.78972994444169
20
99.80558023782821
10
161.78972994444169
20
99.80558023782821
0
LWPOLYLINE
5
142
100
AcDbEntity
8
0
100
AcDbPolyline
90
4
70
1
43
0.0
10
142.78972994444169
20
99.80558023782821
10
142.78972994444169
20
85.80558023782821
10
128.78972994444169
20
85.80558023782821
10
128.78972994444169
20
99.80558023782821
0
LWPOLYLINE
5
143
100
AcDbEntity
8
0
100
AcDbPolyline
90
4
70
1
43
0.0
10
123.78972994444169
20
99.80558023782821
10
123.78972994444169
20
85.80558023782821
10
109.7897299444417
20
85.80558023782821
10
109.7897299444417
20
99.80558023782821
0
LWPOLYLINE
5
144
100
AcDbEntity
8
0
100
AcDbPolyline
90
4
70
1
43
0.0
10
104.7897299444417
20
99.80558023782821
10
104.7897299444417
20
85.80558023782821
10
90.789729944441703
20
85.80558023782821
10
90.789729944441703
20
99.80558023782821
0
LWPOLYLINE
5
145
100
AcDbEntity
8
0
100
AcDbPolyline
90
4
70
1
43
0.0
10
432.53972994444183
20
128.30558023782822
10
432.53972994444183
20
114.30558023782822
10
418.53972994444172
20
114.30558023782822
10
418.53972994444172
20
128.30558023782822
0
LWPOLYLINE
5
146
100
AcDbEntity
8
0
100
AcDbPolyline
90
4
70
1
43
0.0
10
413.53972994444172
20
128.30558023782822
10
413.53972994444172
20
114.30558023782822
10
399.53972994444172
20
114.30558023782822
10
399.53972994444172
20
128.30558023782822
0
LWPOLYLINE
5
147
100
AcDbEntity
8
0
100
AcDbPolyline
90
4
70
1
43
0.0
10
394.53972994444172
20
128.30558023782822
10
394.53972994444172
20
114.30558023782822
10
380.53972994444166
20
114.30558023782822
10
380.53972994444166
20
128.30558023782822
0
LWPOLYLINE
5
148
100
AcDbEntity
8
0
100
AcDbPolyline
90
4
70
1
43
0.0
10
370.78972994444166
20
128.30558023782822
10
370.78972994444166
20
114.30558023782822
10
356.78972994444166
20
114.30558023782822
10
356.78972994444166
20
128.30558023782822
0
LWPOLYLINE
5
149
100
AcDbEntity
8
0
100
AcDbPolyline
90
4
70
1
43
0.0
10
351.78972994444166
20
128.30558023782822
10
351.78972994444166
20
114.30558023782822
10
337.78972994444183
20
114.30558023782822
10
337.78972994444183
20
128.30558023782822
0
LWPOLYLINE
5
150
100
AcDbEntity
8
0
100
AcDbPolyline
90
4
70
1
43
0.0
10
332.78972994444183
20
128.30558023782822
10
332.78972994444183
20
114.30558023782822
10
318.78972994444166
20
114.30558023782822
10
318.78972994444166
20
128.30558023782822
0
LWPOLYLINE
5
151
100
AcDbEntity
8
0
100
AcDbPolyline
90
4
70
1
43
0.0
10
313.78972994444166
20
128.30558023782822
10
313.78972994444166
20
114.30558023782822
10
299.78972994444177
20
114.30558023782822
10
299.78972994444177
20
128.30558023782822
0
LWPOLYLINE
5
152
100
AcDbEntity
8
0
100
AcDbPolyline
90
4
70
1
43
0.0
10
285.28972994444177
20
128.30558023782822
10
285.28972994444177
20
114.30558023782822
10
271.28972994444166
20
114.30558023782822
10
271.28972994444166
20
128.30558023782822
0
LWPOLYLINE
5
153
100
AcDbEntity
8
0
100
AcDbPolyline
90
4
70
1
43
0.0
10
266.28972994444166
20
114.30558023782822
10
252.28972994444177
20
114.30558023782822
10
252.28972994444177
20
128.30558023782822
10
266.28972994444166
20
128.30558023782822
0
LWPOLYLINE
5
154
100
AcDbEntity
8
0
100
AcDbPolyline
90
4
70
1
43
0.0
10
247.28972994444177
20
128.30558023782822
10
247.28972994444177
20
114.30558023782822
10
233.28972994444172
20
114.30558023782822
10
233.28972994444172
20
128.30558023782822
0
LWPOLYLINE
5
155
100
AcDbEntity
8
0
100
AcDbPolyline
90
4
70
1
43
0.0
10
228.28972994444172
20
128.30558023782822
10
228.28972994444172
20
114.30558023782822
10
214.28972994444169
20
114.30558023782822
10
214.28972994444169
20
128.30558023782822
0
LWPOLYLINE
5
156
100
AcDbEntity
8
0
100
AcDbPolyline
90
4
70
1
43
0.0
10
199.78972994444172
20
128.30558023782822
10
199.78972994444172
20
114.30558023782822
10
185.78972994444169
20
114.30558023782822
10
185.78972994444169
20
128.30558023782822
0
LWPOLYLINE
5
157
100
AcDbEntity
8
0
100
AcDbPolyline
90
4
70
1
43
0.0
10
180.78972994444169
20
128.30558023782822
10
180.78972994444169
20
114.30558023782822
10
166.78972994444169
20
114.30558023782822
10
166.78972994444169
20
128.30558023782822
0
LWPOLYLINE
5
158
100
AcDbEntity
8
0
100
AcDbPolyline
90
4
70
1
43
0.0
10
161.78972994444169
20
128.30558023782822
10
161.78972994444169
20
114.30558023782822
10
147.78972994444169
20
114.30558023782822
10
147.78972994444169
20
128.30558023782822
0
LWPOLYLINE
5
159
100
AcDbEntity
8
0
100
AcDbPolyline
90
4
70
1
43
0.0
10
142.78972994444169
20
128.30558023782822
10
142.78972994444169
20
114.30558023782822
10
128.78972994444169
20
114.30558023782822
10
128.78972994444169
20
128.30558023782822
0
LWPOLYLINE
5
160
100
AcDbEntity
8
0
100
AcDbPolyline
90
4
70
1
43
0.0
10
104.7897299444417
20
114.30558023782822
10
90.789729944441703
20
114.30558023782822
10
90.789729944441703
20
128.30558023782822
10
104.7897299444417
20
128.30558023782822
0
LWPOLYLINE
5
161
100
AcDbEntity
8
0
100
AcDbPolyline
90
36
70
1
43
0.0
10
365.31472994444164
20
46.835580237828218
10
362.31472994444169
20
46.835580237828218
10
362.31472994444169
20
48.035580237828214
10
360.48972994444171
20
48.035580237828214
10
360.48972994444171
20
54.305580237828224
10
358.91472994444166
20
54.305580237828224
10
358.91472994444166
20
47.805580237828224
10
344.91472994444166
20
47.805580237828224
10
344.91472994444166
20
54.305580237828224
10
343.33972994444173
20
54.305580237828224
10
343.33972994444173
20
48.035580237828214
10
341.51472994444168
20
48.035580237828214
10
341.51472994444168
20
46.835580237828218
10
338.51472994444174
20
46.835580237828218
10
338.51472994444174
20
48.035580237828214
10
336.68972994444175
20
48.035580237828214
10
336.68972994444175
20
54.305580237828224
10
335.81472994444175
20
54.305580237828224
10
335.81472994444175
20
57.105580237828228
10
336.68972994444175
20
57.105580237828228
10
336.68972994444175
20
60.335580237828232
10
343.33972994444173
20
60.335580237828232
10
343.33972994444173
20
57.105580237828228
10
344.91472994444166
20
57.105580237828228
10
344.91472994444166
20
61.805580237828224
10
358.91472994444166
20
61.805580237828224
10
358.91472994444166
20
57.105580237828228
10
360.48972994444171
20
57.105580237828228
10
360.48972994444171
20
60.335580237828232
10
367.13972994444168
20
60.335580237828232
10
367.13972994444168
20
57.105580237828228
10
368.01472994444168
20
57.105580237828228
10
368.01472994444168
20
54.305580237828224
10
367.13972994444168
20
54.305580237828224
10
367.13972994444168
20
48.035580237828214
10
365.31472994444164
20
48.035580237828214
0
LWPOLYLINE
5
162
100
AcDbEntity
8
0
100
AcDbPolyline
90
4
70
1
43
0.0
10
328.03972994444166
20
61.805580237828224
10
328.03972994444166
20
47.805580237828224
10
314.03972994444177
20
47.805580237828224
10
314.03972994444177
20
61.805580237828224
0
LWPOLYLINE
5
163
100
AcDbEntity
8
0
100
AcDbPolyline
90
4
70
1
43
0.0
10
309.03972994444177
20
61.805580237828224
10
309.03972994444177
20
47.805580237828224
10
295.03972994444166
20
47.805580237828224
10
295.03972994444166
20
61.805580237828224
0
LWPOLYLINE
5
164
100
AcDbEntity
8
0
100
AcDbPolyline
90
4
70
1
43
0.0
10
290.03972994444166
20
61.805580237828224
10
290.03972994444166
20
47.805580237828224
10
276.03972994444177
20
47.805580237828224
10
276.03972994444177
20
61.805580237828224
0
LWPOLYLINE
5
165
100
AcDbEntity
8
0
100
AcDbPolyline
90
4
70
1
43
0.0
10
271.03972994444177
20
61.805580237828224
10
271.03972994444177
20
47.805580237828224
10
257.03972994444166
20
47.805580237828224
10
257.03972994444166
20
61.805580237828224
0
LWPOLYLINE
5
166
100
AcDbEntity
8
0
100
AcDbPolyline
90
4
70
1
43
0.0
10
252.03972994444172
20
61.805580237828224
10
252.03972994444172
20
47.805580237828224
10
238.03972994444169
20
47.805580237828224
10
238.03972994444169
20
61.805580237828224
0
LWPOLYLINE
5
167
100
AcDbEntity
8
0
100
AcDbPolyline
90
4
70
1
43
0.0
10
233.03972994444169
20
61.805580237828224
10
233.03972994444169
20
47.805580237828224
10
219.03972994444172
20
47.805580237828224
10
219.03972994444172
20
61.805580237828224
0
LWPOLYLINE
5
168
100
AcDbEntity
8
0
100
AcDbPolyline
90
4
70
1
43
0.0
10
214.03972994444172
20
61.805580237828224
10
214.03972994444172
20
47.805580237828224
10
200.03972994444169
20
47.805580237828224
10
200.03972994444169
20
61.805580237828224
0
LWPOLYLINE
5
169
100
AcDbEntity
8
0
100
AcDbPolyline
90
4
70
1
43
0.0
10
195.03972994444169
20
61.805580237828224
10
195.03972994444169
20
47.805580237828224
10
181.03972994444172
20
47.805580237828224
10
181.03972994444172
20
61.805580237828224
0
LWPOLYLINE
5
170
100
AcDbEntity
8
0
100
AcDbPolyline
90
4
70
1
43
0.0
10
176.03972994444172
20
61.805580237828224
10
176.03972994444172
20
47.805580237828224
10
162.03972994444169
20
47.805580237828224
10
162.03972994444169
20
61.805580237828224
0
LWPOLYLINE
5
171
100
AcDbEntity
8
0
100
AcDbPolyline
90
4
70
1
43
0.0
10
62.039729944441753
20
23.805580237828217
10
62.039729944441753
20
9.8055802378282149
10
48.039729944441746
20
9.8055802378282149
10
48.039729944441746
20
23.805580237828217
0
LWPOLYLINE
5
172
100
AcDbEntity
8
0
100
AcDbPolyline
90
36
70
1
43
0.0
10
16.139729944441768
20
10.035580237828217
10
16.139729944441768
20
8.8355802378282142
10
13.139729944441768
20
8.8355802378282142
10
13.139729944441768
20
10.035580237828217
10
11.314729944441723
20
10.035580237828217
10
11.314729944441723
20
16.305580237828217
10
10.439729944441723
20
16.305580237828217
10
10.439729944441723
20
19.105580237828214
10
11.314729944441723
20
19.105580237828214
10
11.314729944441723
20
22.335580237828218
10
17.964729944441757
20
22.335580237828218
10
17.964729944441757
20
19.105580237828214
10
19.539729944441746
20
19.105580237828214
10
19.539729944441746
20
23.805580237828217
10
33.539729944441746
20
23.805580237828217
10
33.539729944441746
20
19.105580237828214
10
35.114729944441734
20
19.105580237828214
10
35.114729944441734
20
22.335580237828218
10
41.764729944441768
20
22.335580237828218
10
41.764729944441768
20
19.105580237828214
10
42.639729944441768
20
19.105580237828214
10
42.639729944441768
20
16.305580237828217
10
41.764729944441768
20
16.305580237828217
10
41.764729944441768
20
10.035580237828217
10
39.939729944441723
20
10.035580237828217
10
39.939729944441723
20
8.8355802378282142
10
36.939729944441723
20
8.8355802378282142
10
36.939729944441723
20
10.035580237828217
10
35.114729944441734
20
10.035580237828217
10
35.114729944441734
20
16.305580237828217
10
33.539729944441746
20
16.305580237828217
10
33.539729944441746
20
9.8055802378282149
10
19.539729944441746
20
9.8055802378282149
10
19.539729944441746
20
16.305580237828217
10
17.964729944441757
20
16.305580237828217
10
17.964729944441757
20
10.035580237828217
0
LWPOLYLINE
5
173
100
AcDbEntity
8
0
100
AcDbPolyline
90
4
70
1
43
0.0
10
432.53972994444183
20
23.805580237828217
10
432.53972994444183
20
9.8055802378282149
10
418.53972994444172
20
9.8055802378282149
10
418.53972994444172
20
23.805580237828217
0
LWPOLYLINE
5
174
100
AcDbEntity
8
0
100
AcDbPolyline
90
4
70
1
43
0.0
10
413.53972994444172
20
23.805580237828217
10
413.53972994444172
20
9.8055802378282149
10
399.53972994444172
20
9.8055802378282149
10
399.53972994444172
20
23.805580237828217
0
LWPOLYLINE
5
175
100
AcDbEntity
8
0
100
AcDbPolyline
90
4
70
1
43
0.0
10
394.53972994444172
20
23.805580237828217
10
394.53972994444172
20
9.8055802378282149
10
380.53972994444166
20
9.8055802378282149
10
380.53972994444166
20
23.805580237828217
0
LWPOLYLINE
5
176
100
AcDbEntity
8
0
100
AcDbPolyline
90
4
70
1
43
0.0
10
368.41472994444166
20
23.805580237828217
10
368.41472994444166
20
9.8055802378282149
10
354.41472994444166
20
9.8055802378282149
10
354.41472994444166
20
23.805580237828217
0
LWPOLYLINE
5
177
100
AcDbEntity
8
0
100
AcDbPolyline
90
4
70
1
43
0.0
10
344.66472994444166
20
23.805580237828217
10
344.66472994444166
20
9.8055802378282149
10
330.66472994444166
20
9.8055802378282149
10
330.66472994444166
20
23.805580237828217
0
LWPOLYLINE
5
178
100
AcDbEntity
8
0
100
AcDbPolyline
90
4
70
1
43
0.0
10
320.91472994444183
20
23.805580237828217
10
320.91472994444183
20
9.8055802378282149
10
306.91472994444166
20
9.8055802378282149
10
306.91472994444166
20
23.805580237828217
0
LWPOLYLINE
5
179
100
AcDbEntity
8
0
100
AcDbPolyline
90
4
70
1
43
0.0
10
297.16472994444177
20
23.805580237828217
10
297.16472994444177
20
9.8055802378282149
10
283.16472994444166
20
9.8055802378282149
10
283.16472994444166
20
23.805580237828217
0
LWPOLYLINE
5
180
100
AcDbEntity
8
0
100
AcDbPolyline
90
36
70
1
43
0.0
10
170.41472994444172
20
10.035580237828217
10
170.41472994444172
20
8.8355802378282142
10
167.41472994444169
20
8.8355802378282142
10
167.41472994444169
20
10.035580237828217
10
165.58972994444173
20
10.035580237828217
10
165.58972994444173
20
16.305580237828217
10
164.68972994444169
20
16.305580237828217
10
164.68972994444169
20
19.105580237828214
10
165.58972994444173
20
19.105580237828214
10
165.58972994444173
20
22.335580237828218
10
172.23972994444171
20
22.335580237828218
10
172.23972994444171
20
19.105580237828214
10
211.91472994444169
20
19.105580237828214
10
211.91472994444169
20
23.805580237828217
10
225.91472994444172
20
23.805580237828217
10
225.91472994444172
20
19.105580237828214
10
265.58972994444173
20
19.105580237828214
10
265.58972994444173
20
22.335580237828218
10
272.23972994444171
20
22.335580237828218
10
272.23972994444171
20
19.105580237828214
10
273.13972994444168
20
19.105580237828214
10
273.13972994444168
20
16.305580237828217
10
272.23972994444171
20
16.305580237828217
10
272.23972994444171
20
10.035580237828217
10
270.41472994444177
20
10.035580237828217
10
270.41472994444177
20
8.8355802378282142
10
267.41472994444166
20
8.8355802378282142
10
267.41472994444166
20
10.035580237828217
10
265.58972994444173
20
10.035580237828217
10
265.58972994444173
20
14.505580237828216
10
225.91472994444172
20
14.505580237828216
10
225.91472994444172
20
9.8055802378282149
10
211.91472994444169
20
9.8055802378282149
10
211.91472994444169
20
14.505580237828216
10
172.23972994444171
20
14.505580237828216
10
172.23972994444171
20
10.035580237828217
0
LWPOLYLINE
5
181
100
AcDbEntity
8
0
100
AcDbPolyline
90
4
70
1
43
0.0
10
154.66472994444169
20
23.805580237828217
10
154.66472994444169
20
9.8055802378282149
10
140.66472994444169
20
9.8055802378282149
10
140.66472994444169
20
23.805580237828217
0
LWPOLYLINE
5
182
100
AcDbEntity
8
0
100
AcDbPolyline
90
4
70
1
43
0.0
10
130.91472994444169
20
23.805580237828217
10
130.91472994444169
20
9.8055802378282149
10
116.91472994444169
20
9.8055802378282149
10
116.91472994444169
20
23.805580237828217
0
LWPOLYLINE
5
183
100
AcDbEntity
8
0
100
AcDbPolyline
90
4
70
1
43
0.0
10
107.16472994444169
20
23.805580237828217
10
107.16472994444169
20
9.8055802378282149
10
93.164729944441689
20
9.8055802378282149
10
93.164729944441689
20
23.805580237828217
0
LWPOLYLINE
5
184
100
AcDbEntity
8
0
100
AcDbPolyline
90
36
70
1
43
0.0
10
67.269729944441764
20
36.705580237828215
10
66.069729944441718
20
36.705580237828215
10
66.069729944441718
20
39.705580237828222
10
67.269729944441764
20
39.705580237828222
10
67.269729944441764
20
41.530580237828218
10
73.539729944441746
20
41.530580237828218
10
73.539729944441746
20
42.405580237828218
10
76.339729944441757
20
42.405580237828218
10
76.339729944441757
20
41.530580237828218
10
79.569729944441775
20
41.530580237828218
10
79.569729944441775
20
34.880580237828219
10
76.339729944441757
20
34.880580237828219
10
76.339729944441757
20
33.305580237828217
10
81.03972994444176
20
33.305580237828217
10
81.03972994444176
20
19.305580237828217
10
76.339729944441757
20
19.305580237828217
10
76.339729944441757
20
17.730580237828214
10
79.569729944441775
20
17.730580237828214
10
79.569729944441775
20
11.080580237828215
10
76.339729944441757
20
11.080580237828215
10
76.339729944441757
20
10.205580237828213
10
73.539729944441746
20
10.205580237828213
10
73.539729944441746
20
11.080580237828215
10
67.269729944441764
20
11.080580237828215
10
67.269729944441764
20
12.905580237828218
10
66.069729944441718
20
12.905580237828218
10
66.069729944441718
20
15.905580237828216
10
67.269729944441764
20
15.905580237828216
10
67.269729944441764
20
17.730580237828214
10
73.539729944441746
20
17.730580237828214
10
73.539729944441746
20
19.305580237828217
10
67.039729944441746
20
19.305580237828217
10
67.039729944441746
20
33.305580237828217
10
73.539729944441746
20
33.305580237828217
10
73.539729944441746
20
34.880580237828219
10
67.269729944441764
20
34.880580237828219
0
LWPOLYLINE
5
185
100
AcDbEntity
8
0
100
AcDbPolyline
90
4
70
1
43
0.0
10
62.039729944441753
20
42.805580237828224
10
62.039729944441753
20
28.805580237828217
10
48.039729944441746
20
28.805580237828217
10
48.039729944441746
20
42.805580237828224
0
LWPOLYLINE
5
186
100
AcDbEntity
8
0
100
AcDbPolyline
90
4
70
1
43
0.0
10
43.039729944441746
20
42.805580237828224
10
43.039729944441746
20
28.805580237828217
10
29.039729944441802
20
28.805580237828217
10
29.039729944441802
20
42.805580237828224
0
LWPOLYLINE
5
187
100
AcDbEntity
8
0
100
AcDbPolyline
90
4
70
1
43
0.0
10
24.039729944441802
20
42.805580237828224
10
24.039729944441802
20
28.805580237828217
10
10.039729944441746
20
28.805580237828217
10
10.039729944441746
20
42.805580237828224
0
LWPOLYLINE
5
188
100
AcDbEntity
8
0
100
AcDbPolyline
90
4
70
1
43
0.0
10
413.53972994444172
20
42.805580237828224
10
413.53972994444172
20
28.805580237828217
10
399.53972994444172
20
28.805580237828217
10
399.53972994444172
20
42.805580237828224
0
LWPOLYLINE
5
189
100
AcDbEntity
8
0
100
AcDbPolyline
90
36
70
1
43
0.0
10
336.76472994444168
20
29.035580237828214
10
336.76472994444168
20
27.835580237828221
10
333.76472994444168
20
27.835580237828221
10
333.76472994444168
20
29.035580237828214
10
331.93972994444175
20
29.035580237828214
10
331.93972994444175
20
35.305580237828224
10
331.06472994444175
20
35.305580237828224
10
331.06472994444175
20
38.105580237828214
10
331.93972994444175
20
38.105580237828214
10
331.93972994444175
20
41.335580237828218
10
338.58972994444173
20
41.335580237828218
10
338.58972994444173
20
38.105580237828214
10
340.16472994444166
20
38.105580237828214
10
340.16472994444166
20
42.805580237828224
10
354.16472994444172
20
42.805580237828224
10
354.16472994444172
20
38.105580237828214
10
355.73972994444171
20
38.105580237828214
10
355.73972994444171
20
41.335580237828218
10
362.38972994444168
20
41.335580237828218
10
362.38972994444168
20
38.105580237828214
10
363.26472994444168
20
38.105580237828214
10
363.26472994444168
20
35.305580237828224
10
362.38972994444168
20
35.305580237828224
10
362.38972994444168
20
29.035580237828214
10
360.56472994444164
20
29.035580237828214
10
360.56472994444164
20
27.835580237828221
10
357.56472994444164
20
27.835580237828221
10
357.56472994444164
20
29.035580237828214
10
355.73972994444171
20
29.035580237828214
10
355.73972994444171
20
35.305580237828224
10
354.16472994444172
20
35.305580237828224
10
354.16472994444172
20
28.805580237828217
10
340.16472994444166
20
28.805580237828217
10
340.16472994444166
20
35.305580237828224
10
338.58972994444173
20
35.305580237828224
10
338.58972994444173
20
29.035580237828214
0
LWPOLYLINE
5
190
100
AcDbEntity
8
0
100
AcDbPolyline
90
4
70
1
43
0.0
10
318.53972994444177
20
42.805580237828224
10
318.53972994444177
20
28.805580237828217
10
304.53972994444166
20
28.805580237828217
10
304.53972994444166
20
42.805580237828224
0
LWPOLYLINE
5
191
100
AcDbEntity
8
0
100
AcDbPolyline
90
4
70
1
43
0.0
10
299.53972994444166
20
28.805580237828217
10
285.53972994444166
20
28.805580237828217
10
285.53972994444166
20
42.805580237828224
10
299.53972994444166
20
42.805580237828224
0
LWPOLYLINE
5
192
100
AcDbEntity
8
0
100
AcDbPolyline
90
4
70
1
43
0.0
10
280.53972994444166
20
28.805580237828217
10
266.53972994444166
20
28.805580237828217
10
266.53972994444166
20
42.805580237828224
10
280.53972994444166
20
42.805580237828224
0
LWPOLYLINE
5
193
100
AcDbEntity
8
0
100
AcDbPolyline
90
4
70
1
43
0.0
10
261.53972994444166
20
28.805580237828217
10
247.53972994444169
20
28.805580237828217
10
247.53972994444169
20
42.805580237828224
10
261.53972994444166
20
42.805580237828224
0
LWPOLYLINE
5
194
100
AcDbEntity
8
0
100
AcDbPolyline
90
4
70
1
43
0.0
10
242.53972994444169
20
42.805580237828224
10
242.53972994444169
20
28.805580237828217
10
228.53972994444172
20
28.805580237828217
10
228.53972994444172
20
42.805580237828224
0
LWPOLYLINE
5
195
100
AcDbEntity
8
0
100
AcDbPolyline
90
4
70
1
43
0.0
10
223.53972994444172
20
42.805580237828224
10
223.53972994444172
20
28.805580237828217
10
209.53972994444172
20
28.805580237828217
10
209.53972994444172
20
42.805580237828224
0
LWPOLYLINE
5
196
100
AcDbEntity
8
0
100
AcDbPolyline
90
4
70
1
43
0.0
10
204.53972994444172
20
42.805580237828224
10
204.53972994444172
20
28.805580237828217
10
190.53972994444169
20
28.805580237828217
10
190.53972994444169
20
42.805580237828224
0
LWPOLYLINE
5
197
100
AcDbEntity
8
0
100
AcDbPolyline
90
4
70
1
43
0.0
10
185.53972994444169
20
42.805580237828224
10
185.53972994444169
20
28.805580237828217
10
171.53972994444172
20
28.805580237828217
10
171.53972994444172
20
42.805580237828224
0
LWPOLYLINE
5
198
100
AcDbEntity
8
0
100
AcDbPolyline
90
4
70
1
43
0.0
10
166.53972994444172
20
28.805580237828217
10
152.53972994444169
20
28.805580237828217
10
152.53972994444169
20
42.805580237828224
10
166.53972994444172
20
42.805580237828224
0
LWPOLYLINE
5
199
100
AcDbEntity
8
0
100
AcDbPolyline
90
4
70
1
43
0.0
10
147.53972994444169
20
42.805580237828224
10
147.53972994444169
20
28.805580237828217
10
133.53972994444172
20
28.805580237828217
10
133.53972994444172
20
42.805580237828224
0
LWPOLYLINE
5
200
100
AcDbEntity
8
0
100
AcDbPolyline
90
36
70
1
43
0.0
10
99.264729944441683
20
29.035580237828214
10
99.264729944441683
20
27.835580237828221
10
96.264729944441697
20
27.835580237828221
10
96.264729944441697
20
29.035580237828214
10
94.439729944441694
20
29.035580237828214
10
94.439729944441694
20
35.305580237828224
10
93.564729944441694
20
35.305580237828224
10
93.564729944441694
20
38.105580237828214
10
94.439729944441694
20
38.105580237828214
10
94.439729944441694
20
41.335580237828218
10
101.08972994444171
20
41.335580237828218
10
101.08972994444171
20
38.105580237828214
10
102.6647299444417
20
38.105580237828214
10
102.6647299444417
20
42.805580237828224
10
116.6647299444417
20
42.805580237828224
10
116.6647299444417
20
38.105580237828214
10
118.23972994444169
20
38.105580237828214
10
118.23972994444169
20
41.335580237828218
10
124.88972994444168
20
41.335580237828218
10
124.88972994444168
20
38.105580237828214
10
125.76472994444173
20
38.105580237828214
10
125.76472994444173
20
35.305580237828224
10
124.88972994444168
20
35.305580237828224
10
124.88972994444168
20
29.035580237828214
10
123.06472994444171
20
29.035580237828214
10
123.06472994444171
20
27.835580237828221
10
120.06472994444169
20
27.835580237828221
10
120.06472994444169
20
29.035580237828214
10
118.23972994444169
20
29.035580237828214
10
118.23972994444169
20
35.305580237828224
10
116.6647299444417
20
35.305580237828224
10
116.6647299444417
20
28.805580237828217
10
102.6647299444417
20
28.805580237828217
10
102.6647299444417
20
35.305580237828224
10
101.08972994444171
20
35.305580237828224
10
101.08972994444171
20
29.035580237828214
0
LWPOLYLINE
5
201
100
AcDbEntity
8
0
100
AcDbPolyline
90
4
70
1
43
0.0
10
62.039729944441753
20
47.805580237828224
10
48.039729944441746
20
47.805580237828224
10
48.039729944441746
20
61.805580237828224
10
62.039729944441753
20
61.805580237828224
0
LWPOLYLINE
5
202
100
AcDbEntity
8
0
100
AcDbPolyline
90
4
70
1
43
0.0
10
43.039729944441746
20
61.805580237828224
10
43.039729944441746
20
47.805580237828224
10
29.039729944441802
20
47.805580237828224
10
29.039729944441802
20
61.805580237828224
0
LWPOLYLINE
5
203
100
AcDbEntity
8
0
100
AcDbPolyline
90
4
70
1
43
0.0
10
24.039729944441802
20
61.805580237828224
10
24.039729944441802
20
47.805580237828224
10
10.039729944441746
20
47.805580237828224
10
10.039729944441746
20
61.805580237828224
0
ENDSEC
0
SECTION
2
OBJECTS
0
DICTIONARY
5
C
100
AcDbDictionary
3
ACAD_GROUP
350
D
3
ACAD_MLINESTYLE
350
17
0
DICTIONARY
5
D
100
AcDbDictionary
0
DICTIONARY
5
1A
330
C
100
AcDbDictionary
0
DICTIONARY
5
17
100
AcDbDictionary
0
ENDSEC
0
EOF
