%TF.GenerationSoftware,KiCad,Pcbnew,(5.1.7)-1*%
%TF.CreationDate,2020-10-05T00:16:44-07:00*%
%TF.ProjectId,r65,7236352e-6b69-4636-9164-5f7063625858,rev?*%
%TF.SameCoordinates,Original*%
%TF.FileFunction,Legend,Top*%
%TF.FilePolarity,Positive*%
%FSLAX46Y46*%
G04 Gerber Fmt 4.6, Leading zero omitted, Abs format (unit mm)*
G04 Created by KiCad (PCBNEW (5.1.7)-1) date 2020-10-05 00:16:44*
%MOMM*%
%LPD*%
G01*
G04 APERTURE LIST*
%ADD10C,0.200000*%
%ADD11C,0.150000*%
%ADD12C,0.120000*%
G04 APERTURE END LIST*
D10*
X485840388Y-86276576D02*
X485837725Y-86282246D01*
X485607755Y-86268969D02*
X485613564Y-86268725D01*
X485699535Y-86353831D02*
X485688098Y-86352970D01*
X485787626Y-86230975D02*
X485800407Y-86229583D01*
X485601900Y-86288187D02*
X485599841Y-86281168D01*
X485649292Y-86337953D02*
X485638044Y-86330188D01*
X485819430Y-86302871D02*
X485813342Y-86307451D01*
X485699737Y-86272879D02*
X485710874Y-86265958D01*
X485799884Y-86315984D02*
X485789113Y-86321997D01*
X485755000Y-86241896D02*
X485769205Y-86236098D01*
X485660878Y-86344576D02*
X485649292Y-86337953D01*
X485836125Y-86285034D02*
X485829872Y-86292993D01*
X485710874Y-86265958D02*
X485723049Y-86258565D01*
X485842570Y-86256345D02*
X485842906Y-86264957D01*
X485688098Y-86352970D02*
X485676509Y-86350651D01*
X485710783Y-86352915D02*
X485703297Y-86353660D01*
X485747862Y-86341566D02*
X485740418Y-86344578D01*
X485800407Y-86229583D02*
X485812162Y-86229968D01*
X485773890Y-86234568D02*
X485783101Y-86232007D01*
X485727405Y-86256042D02*
X485736335Y-86251071D01*
X485825232Y-86233963D02*
X485832705Y-86239260D01*
X485622665Y-86270623D02*
X485629793Y-86273253D01*
X485634480Y-86327295D02*
X485627636Y-86321322D01*
X485672605Y-86349377D02*
X485664790Y-86346339D01*
X485815670Y-86230689D02*
X485822205Y-86232687D01*
X485600251Y-86273947D02*
X485601928Y-86271503D01*
X485774183Y-86329541D02*
X485762870Y-86334885D01*
X485785409Y-86323918D02*
X485777944Y-86327690D01*
X485606446Y-86296544D02*
X485603218Y-86290886D01*
X485725613Y-86349596D02*
X485714506Y-86352340D01*
X485762870Y-86334885D02*
X485751595Y-86339979D01*
X485832705Y-86239260D02*
X485838470Y-86245809D01*
X485813429Y-86822865D02*
X485823192Y-86825505D01*
X485804112Y-86821818D02*
X485810260Y-86822386D01*
X485599841Y-86281168D02*
X485599687Y-86275407D01*
X485829872Y-86292993D02*
X485822322Y-86300512D01*
X485793043Y-86822555D02*
X485801131Y-86821728D01*
X485786006Y-86824406D02*
X485793043Y-86822555D01*
X485780650Y-86827476D02*
X485784068Y-86825337D01*
X485842906Y-86264957D02*
X485841450Y-86273693D01*
X485776175Y-86833028D02*
X485779169Y-86828684D01*
X485810148Y-86309672D02*
X485799884Y-86315984D01*
X485740909Y-86248622D02*
X485755000Y-86241896D01*
X485603042Y-86270520D02*
X485607755Y-86268969D01*
X485736709Y-86346002D02*
X485725613Y-86349596D01*
X485839799Y-86248328D02*
X485841849Y-86253596D01*
X485624356Y-86318241D02*
X485615667Y-86308810D01*
X485629793Y-86273253D02*
X485636773Y-86276382D01*
X485615767Y-86269038D02*
X485620318Y-86269986D01*
X485615667Y-86308810D02*
X485608356Y-86299504D01*
X487259378Y-86360060D02*
X487282642Y-86357697D01*
X487114944Y-86332603D02*
X487139099Y-86342147D01*
X487269897Y-85453592D02*
X487241565Y-85466598D01*
X483662222Y-87448627D02*
X483614579Y-87415275D01*
X483799971Y-87531591D02*
X483762532Y-87511315D01*
X487004759Y-86190577D02*
X487011655Y-86217368D01*
X486990194Y-86038376D02*
X486991234Y-86065208D01*
X483833333Y-87546953D02*
X483811405Y-87537112D01*
X487141280Y-85533067D02*
X487124476Y-85548716D01*
X483614579Y-87415275D02*
X483566077Y-87379677D01*
X487047048Y-85657732D02*
X487031738Y-85694585D01*
X483402500Y-87238961D02*
X483378792Y-87213966D01*
X486991885Y-86078294D02*
X486994595Y-86115252D01*
X487116276Y-85556921D02*
X487093164Y-85583937D01*
X483549909Y-87367230D02*
X483517953Y-87341976D01*
X483762532Y-87511315D02*
X483721935Y-87487370D01*
X487234420Y-86359959D02*
X487251169Y-86360227D01*
X487199714Y-86356471D02*
X487225880Y-86359523D01*
X487232151Y-85471466D02*
X487213415Y-85481777D01*
X487049397Y-86287498D02*
X487065942Y-86303525D01*
X486994595Y-86115252D02*
X486998112Y-86149742D01*
X486998780Y-85833390D02*
X486993805Y-85878028D01*
X487298202Y-85442105D02*
X487269897Y-85453592D01*
X487093164Y-85583937D02*
X487071742Y-85613423D01*
X483502164Y-87329170D02*
X483457080Y-87290348D01*
X487390734Y-85416371D02*
X487363337Y-85422353D01*
X487147549Y-86344807D02*
X487164695Y-86349597D01*
X487092316Y-86321503D02*
X487114944Y-86332603D01*
X487023518Y-86249050D02*
X487030990Y-86263006D01*
X483707412Y-87478214D02*
X483677555Y-87458842D01*
X487011655Y-86217368D02*
X487020112Y-86241712D01*
X487015026Y-85747354D02*
X487008483Y-85775280D01*
X487031738Y-85694585D02*
X487018651Y-85733661D01*
X487453012Y-85408877D02*
X487426611Y-85410988D01*
X483367737Y-87201663D02*
X483339971Y-87166354D01*
X487035056Y-86269624D02*
X487049397Y-86287498D01*
X487005565Y-85789514D02*
X486998780Y-85833390D01*
X487326313Y-85432535D02*
X487307595Y-85438761D01*
X487417698Y-85412119D02*
X487399759Y-85414811D01*
X485690128Y-86278721D02*
X485696404Y-86274938D01*
X485679454Y-86284431D02*
X485687185Y-86280444D01*
X486990285Y-85937841D02*
X486989532Y-85981826D01*
X487204093Y-85487220D02*
X487176632Y-85505420D01*
X487310923Y-86351380D02*
X487323511Y-86346616D01*
X485672687Y-86287168D02*
X485679454Y-86284431D01*
X485641124Y-86278641D02*
X485647304Y-86281980D01*
X487372796Y-86301893D02*
X487379867Y-86284017D01*
X487329477Y-86343910D02*
X487345287Y-86333845D01*
X485659863Y-86287502D02*
X485665069Y-86288325D01*
X487072191Y-86308291D02*
X487085378Y-86317280D01*
X486999588Y-86160382D02*
X487002912Y-86180800D01*
X486989532Y-85981826D02*
X486989806Y-86024631D01*
X487065226Y-85624087D02*
X487052879Y-85646242D01*
X487176632Y-85505420D02*
X487149885Y-85525622D01*
X483457080Y-87290348D02*
X483415154Y-87251652D01*
X486992690Y-85893017D02*
X486990930Y-85922924D01*
X487363337Y-85422353D02*
X487335637Y-85429654D01*
X485654683Y-86285732D02*
X485659863Y-86287502D01*
X485666886Y-86288237D02*
X485670695Y-86287658D01*
X487345287Y-86333845D02*
X487358953Y-86321826D01*
X485649208Y-86283007D02*
X485652898Y-86284883D01*
X487362781Y-86317168D02*
X487369702Y-86307202D01*
X487173389Y-86351726D02*
X487199714Y-86356471D01*
X487282642Y-86357697D02*
X487304302Y-86353439D01*
X486675796Y-85433500D02*
X486717045Y-85404250D01*
X483318835Y-86959239D02*
X483326953Y-86946495D01*
X486632811Y-85460157D02*
X486675796Y-85433500D01*
X486153839Y-85562546D02*
X486214364Y-85562078D01*
X484081078Y-87109483D02*
X484102427Y-87135048D01*
X483292697Y-87030877D02*
X483295299Y-87015277D01*
X486234085Y-85561244D02*
X486273065Y-85558885D01*
X486523617Y-85509075D02*
X486571938Y-85490384D01*
X486348666Y-85550648D02*
X486403530Y-85541728D01*
X484052901Y-87549559D02*
X484024323Y-87558038D01*
X483572777Y-86838166D02*
X483611845Y-86842141D01*
X483536381Y-86837743D02*
X483560401Y-86837739D01*
X483404657Y-86871803D02*
X483427256Y-86860016D01*
X483331232Y-86940265D02*
X483345306Y-86922435D01*
X486292323Y-85557361D02*
X486348666Y-85550648D01*
X483384222Y-86885135D02*
X483404657Y-86871803D01*
X484144051Y-87504629D02*
X484118695Y-87521427D01*
X483299545Y-87092222D02*
X483293504Y-87064665D01*
X483666649Y-86852086D02*
X483695103Y-86859436D01*
X486805118Y-85323795D02*
X486840027Y-85285080D01*
X483462201Y-86847882D02*
X483492217Y-86841885D01*
X484185206Y-87462498D02*
X484173400Y-87478017D01*
X484208758Y-87397106D02*
X484201916Y-87426983D01*
X484188882Y-87278871D02*
X484200893Y-87316479D01*
X483955992Y-86992698D02*
X483983000Y-87014160D01*
X486851182Y-85271456D02*
X486873025Y-85243511D01*
X484109609Y-87526240D02*
X484091070Y-87535148D01*
X484166857Y-87485327D02*
X484144051Y-87504629D01*
X486473568Y-85525185D02*
X486523617Y-85509075D01*
X484209239Y-87364114D02*
X484209452Y-87386344D01*
X486730232Y-85393661D02*
X486756068Y-85371677D01*
X483435575Y-86856660D02*
X483453047Y-86850593D01*
X484140191Y-87187323D02*
X484164334Y-87226843D01*
X484112645Y-87147985D02*
X484140191Y-87187323D01*
X483366290Y-86900234D02*
X483378059Y-86890037D01*
X483709503Y-86863592D02*
X483753364Y-86878950D01*
X486421307Y-85537992D02*
X486456326Y-85529720D01*
X484171147Y-87239957D02*
X484183421Y-87265971D01*
X483812345Y-86904197D02*
X483841771Y-86919145D01*
X483345306Y-86922435D02*
X483360685Y-86905529D01*
X483339971Y-87166354D02*
X483317847Y-87132880D01*
X483305073Y-86986214D02*
X483314996Y-86965753D01*
X483492217Y-86841885D02*
X483524739Y-86838173D01*
X486768717Y-85360283D02*
X486805118Y-85323795D01*
X483873018Y-87560837D02*
X483843828Y-87551272D01*
X483900447Y-87567251D02*
X483873018Y-87560837D01*
X484014980Y-87560283D02*
X483996559Y-87564198D01*
X486883713Y-85229190D02*
X486914404Y-85184175D01*
X483926529Y-87569937D02*
X483909195Y-87568428D01*
X483753364Y-86878950D02*
X483797584Y-86897179D01*
X483961031Y-87569060D02*
X483935116Y-87570268D01*
X483856435Y-86927074D02*
X483899791Y-86953461D01*
X483611845Y-86842141D02*
X483652596Y-86848891D01*
X483293504Y-87064665D02*
X483291924Y-87038913D01*
X483899791Y-86953461D02*
X483942237Y-86982312D01*
X483987481Y-87565867D02*
X483961031Y-87569060D01*
X484200893Y-87316479D02*
X484208333Y-87352647D01*
X484081618Y-87539242D02*
X484052901Y-87549559D01*
X484201916Y-87426983D02*
X484190470Y-87454288D01*
X484034158Y-87060267D02*
X484069946Y-87096856D01*
X483297127Y-87007713D02*
X483305073Y-86986214D01*
X486587454Y-85483273D02*
X486617891Y-85468159D01*
X483312366Y-87122381D02*
X483303215Y-87102052D01*
X483996252Y-87025236D02*
X484034158Y-87060267D01*
X484065757Y-90258340D02*
X484097773Y-90315967D01*
X483951275Y-86512160D02*
X483988615Y-86511158D01*
X484865969Y-90666289D02*
X484848717Y-90687002D01*
X484325457Y-89218289D02*
X484361908Y-89262903D01*
X484915439Y-90448430D02*
X484915807Y-90506128D01*
X484159380Y-89050398D02*
X484189920Y-89076098D01*
X484337584Y-90619016D02*
X484366302Y-90641362D01*
X484026812Y-88977839D02*
X484051113Y-88985787D01*
X484210628Y-90485301D02*
X484230503Y-90510040D01*
X484063513Y-88990622D02*
X484102811Y-89011303D01*
X484611850Y-86146690D02*
X484646968Y-86094665D01*
X484436437Y-89361600D02*
X484492661Y-89441590D01*
X484511258Y-89469540D02*
X484548070Y-89526396D01*
X484575359Y-86195392D02*
X484599803Y-86163205D01*
X484380361Y-89286237D02*
X484436437Y-89361600D01*
X484524697Y-86255474D02*
X484562963Y-86211065D01*
X484485317Y-86297190D02*
X484524697Y-86255474D01*
X483956928Y-90032340D02*
X483989678Y-90105948D01*
X484619100Y-89643911D02*
X484669599Y-89733658D01*
X484007109Y-86510233D02*
X484061505Y-86504830D01*
X484444380Y-86335142D02*
X484471806Y-86310166D01*
X484297065Y-86435388D02*
X484327941Y-86418754D01*
X484387460Y-86380092D02*
X484430466Y-86347143D01*
X484874221Y-90219050D02*
X484893711Y-90294107D01*
X483910269Y-88968103D02*
X483933785Y-88967434D01*
X483825948Y-89681221D02*
X483853437Y-89764787D01*
X484343154Y-86409894D02*
X484387460Y-86380092D01*
X484132151Y-86493073D02*
X484166488Y-86484810D01*
X484366302Y-90641362D02*
X484394893Y-90661368D01*
X484170319Y-90430321D02*
X484200640Y-90472407D01*
X484233081Y-86463255D02*
X484281403Y-86443162D01*
X484183453Y-86480189D02*
X484233081Y-86463255D01*
X483874860Y-86509965D02*
X483932430Y-86512236D01*
X484685514Y-89763716D02*
X484716272Y-89823702D01*
X484000623Y-90129261D02*
X484022466Y-90174557D01*
X484139599Y-90384627D02*
X484170319Y-90430321D01*
X484240391Y-90521885D02*
X484269803Y-90554503D01*
X484892612Y-90616751D02*
X484873812Y-90655122D01*
X484772031Y-89942271D02*
X484809074Y-90029219D01*
X484108303Y-90333798D02*
X484129217Y-90368128D01*
X483893032Y-89875063D02*
X483913901Y-89928883D01*
X484255404Y-89139998D02*
X484307459Y-89197009D01*
X484839308Y-90696549D02*
X484806399Y-90720346D01*
X484914322Y-90523777D02*
X484909747Y-90557464D01*
X484308674Y-90593443D02*
X484327965Y-90610769D01*
X484269803Y-90554503D02*
X484299002Y-90584364D01*
X484906658Y-90573503D02*
X484892612Y-90616751D01*
X483853437Y-89764787D02*
X483882767Y-89847808D01*
X484850114Y-90140362D02*
X484874221Y-90219050D01*
X484731115Y-89853630D02*
X484772031Y-89942271D01*
X484820055Y-90057467D02*
X484840575Y-90113038D01*
X484566284Y-89555303D02*
X484619100Y-89643911D01*
X484102811Y-89011303D02*
X484144566Y-89038803D01*
X484432774Y-90683469D02*
X484461012Y-90696662D01*
X483861546Y-88971388D02*
X483898378Y-88968689D01*
X484061505Y-86504830D02*
X484114780Y-86496715D01*
X484910244Y-90386085D02*
X484915439Y-90448430D01*
X484898640Y-90317812D02*
X484906906Y-90363800D01*
X484205646Y-89090203D02*
X484255404Y-89139998D01*
X483980027Y-88969448D02*
X484014910Y-88974725D01*
X484033364Y-90196541D02*
X484065757Y-90258340D01*
X484404382Y-90667271D02*
X484423323Y-90678322D01*
X483924505Y-89955448D02*
X483956928Y-90032340D01*
X483945411Y-88967351D02*
X483980027Y-88969448D01*
X486755308Y-90410395D02*
X486874833Y-90383144D01*
X483742108Y-89250897D02*
X483745540Y-89316593D01*
X483922570Y-88941967D02*
X483952159Y-88930816D01*
X484191046Y-88889110D02*
X484216230Y-88888086D01*
X488264661Y-90344797D02*
X488387602Y-90324266D01*
X483774684Y-89490516D02*
X483794071Y-89570784D01*
X483750710Y-89136192D02*
X483745213Y-89171525D01*
X483867086Y-88968148D02*
X483884942Y-88958764D01*
X487243254Y-90326469D02*
X487302074Y-90323916D01*
X485162216Y-90703632D02*
X485330590Y-90687345D01*
X483758811Y-89412934D02*
X483774684Y-89490516D01*
X483790026Y-89035276D02*
X483769721Y-89074577D01*
X488702204Y-90250057D02*
X488851042Y-90204818D01*
X483742366Y-89074227D02*
X483760849Y-89052178D01*
X483861546Y-88971388D02*
X483826767Y-88994004D01*
X485388129Y-90680484D02*
X485503909Y-90665492D01*
X484267773Y-88887507D02*
X484307297Y-88888157D01*
X483692370Y-89158399D02*
X483705719Y-89131639D01*
X484228941Y-88887722D02*
X484267773Y-88887507D01*
X483680677Y-89186668D02*
X483688335Y-89167698D01*
X484141894Y-88892669D02*
X484178574Y-88889771D01*
X484105973Y-88896501D02*
X484141894Y-88892669D01*
X487813605Y-90360982D02*
X487875803Y-90364335D01*
X485562149Y-90657360D02*
X485736821Y-90629708D01*
X484026215Y-88910346D02*
X484059670Y-88903547D01*
X487695192Y-90350650D02*
X487783183Y-90358837D01*
X483760849Y-89052178D02*
X483780648Y-89031350D01*
X483833385Y-88988930D02*
X483858354Y-88973039D01*
X487119112Y-90339054D02*
X487213303Y-90328466D01*
X483993659Y-88918191D02*
X484026215Y-88910346D01*
X483667402Y-89226469D02*
X483677053Y-89196340D01*
X488007663Y-90365405D02*
X488112935Y-90360903D01*
X487609748Y-90341647D02*
X487695192Y-90350650D01*
X486489913Y-90473753D02*
X486582843Y-90451498D01*
X487019753Y-90354238D02*
X487119112Y-90339054D01*
X487330944Y-90323359D02*
X487415430Y-90325456D01*
X483809675Y-89006049D02*
X483833385Y-88988930D01*
X483725621Y-89097880D02*
X483736641Y-89081980D01*
X486912192Y-90375239D02*
X486984652Y-90360786D01*
X488851042Y-90204818D02*
X489006470Y-90153228D01*
X486290981Y-90519973D02*
X486442110Y-90485138D01*
X488562122Y-90286876D02*
X488654784Y-90263026D01*
X488149881Y-90357773D02*
X488225743Y-90349720D01*
X487526329Y-90333204D02*
X487581859Y-90338689D01*
X487415430Y-90325456D02*
X487498688Y-90330676D01*
X486132682Y-90554791D02*
X486290981Y-90519973D01*
X485966340Y-90588419D02*
X486077790Y-90566166D01*
X488387602Y-90324266D02*
X488516880Y-90297758D01*
X487907581Y-90365541D02*
X488007663Y-90365405D01*
X483769721Y-89074577D02*
X483754255Y-89119417D01*
X483787687Y-89024818D02*
X483802200Y-89012168D01*
X484999728Y-90715300D02*
X485162216Y-90703632D01*
X485736821Y-90629708D02*
X485909782Y-90599297D01*
X484071109Y-88901620D02*
X484094260Y-88898098D01*
X483705719Y-89131639D02*
X483720327Y-89106028D01*
X483801589Y-89598209D02*
X483817528Y-89653427D01*
X483816778Y-89003394D02*
X483798407Y-89024031D01*
X483743262Y-89190083D02*
X483742108Y-89250897D01*
X486627969Y-90440628D02*
X486755308Y-90410395D01*
X483894067Y-88954271D02*
X483922570Y-88941967D01*
X483748163Y-89340011D02*
X483754798Y-89388181D01*
X483962369Y-88927476D02*
X483983119Y-88921164D01*
X483438519Y-87662415D02*
X483456397Y-87723136D01*
X483339971Y-87166354D02*
X483344217Y-87214293D01*
X486757248Y-86914714D02*
X486601432Y-87020218D01*
X486549892Y-87052526D02*
X486448255Y-87114257D01*
X483637217Y-88336705D02*
X483643926Y-88386607D01*
X483593300Y-88147312D02*
X483601735Y-88176083D01*
X486398159Y-87143680D02*
X486254712Y-87223265D01*
X485737059Y-87462672D02*
X485687682Y-87478707D01*
X483518240Y-87918160D02*
X483536290Y-87972434D01*
X484068182Y-90536352D02*
X484129392Y-90579973D01*
X483689777Y-90067324D02*
X483730217Y-90140912D01*
X484847679Y-90720347D02*
X484948038Y-90717556D01*
X483656056Y-88521254D02*
X483659742Y-88589864D01*
X484663368Y-90717139D02*
X484799008Y-90720882D01*
X484010893Y-90488810D02*
X484068182Y-90536352D01*
X483668070Y-89109531D02*
X483667402Y-89226469D01*
X485664989Y-87485329D02*
X485608893Y-87496861D01*
X484538781Y-90707975D02*
X484663368Y-90717139D01*
X483387156Y-87463812D02*
X483401102Y-87522246D01*
X484429390Y-90691585D02*
X484501063Y-90703107D01*
X484304148Y-90659764D02*
X484395434Y-90684930D01*
X484222467Y-90629587D02*
X484304148Y-90659764D01*
X484151521Y-90593124D02*
X484198059Y-90617931D01*
X483888006Y-90360251D02*
X483939433Y-90418203D01*
X483837821Y-90299116D02*
X483888006Y-90360251D01*
X483789748Y-90233824D02*
X483821573Y-90277697D01*
X483592198Y-89702365D02*
X483597577Y-89763290D01*
X483625107Y-89371374D02*
X483610380Y-89441086D01*
X483605754Y-88190309D02*
X483616630Y-88232836D01*
X483499744Y-87861819D02*
X483518240Y-87918160D01*
X483665727Y-88775079D02*
X483667102Y-88867411D01*
X485959264Y-87371461D02*
X485855667Y-87416598D01*
X483667102Y-88867411D02*
X483667955Y-88965897D01*
X483374938Y-87407075D02*
X483382934Y-87444744D01*
X483659742Y-88589864D02*
X483662805Y-88664158D01*
X483481023Y-87803252D02*
X483493500Y-87842446D01*
X483542092Y-87989764D02*
X483553413Y-88023631D01*
X483456397Y-87723136D02*
X483474790Y-87783433D01*
X483346107Y-87230809D02*
X483350361Y-87264376D01*
X483401102Y-87522246D02*
X483416248Y-87581727D01*
X487057206Y-86675912D02*
X486960935Y-86760014D01*
X485855667Y-87416598D02*
X485763742Y-87453260D01*
X486254712Y-87223265D02*
X486119599Y-87294175D01*
X483651470Y-88459748D02*
X483654607Y-88500197D01*
X483574464Y-88087485D02*
X483588884Y-88132766D01*
X483558931Y-88040168D02*
X483574464Y-88087485D01*
X483629247Y-88290751D02*
X483634672Y-88321134D01*
X483730217Y-90140912D02*
X483774170Y-90211372D01*
X483643926Y-88386607D02*
X483649781Y-88440356D01*
X483956998Y-90436430D02*
X483992728Y-90471733D01*
X483655344Y-89989509D02*
X483677723Y-90041742D01*
X483663628Y-88690883D02*
X483665089Y-88746343D01*
X486077745Y-87314929D02*
X485997578Y-87353572D01*
X483620011Y-89879664D02*
X483645019Y-89962859D01*
X483601470Y-89793204D02*
X483620011Y-89879664D01*
X483604299Y-89475394D02*
X483593714Y-89575022D01*
X483361240Y-87334171D02*
X483371165Y-87388472D01*
X483352725Y-87281428D02*
X483361240Y-87334171D01*
X483593714Y-89575022D02*
X483590711Y-89671353D01*
X483421661Y-87601826D02*
X483432797Y-87642170D01*
X486911268Y-86800755D02*
X486757248Y-86914714D01*
X483616630Y-88232836D02*
X483626365Y-88275939D01*
X483667402Y-89226469D02*
X483633754Y-89335970D01*
X483668068Y-89000780D02*
X483668126Y-89072597D01*
X488265564Y-82843589D02*
X488423765Y-82882033D01*
X487478861Y-85493042D02*
X487510194Y-85633836D01*
X487951029Y-82783770D02*
X488149754Y-82818725D01*
X488149754Y-82818725D02*
X488186646Y-82826028D01*
X486569581Y-83620010D02*
X486654829Y-83708331D01*
X488792049Y-83511732D02*
X488967183Y-83467763D01*
X488024024Y-83640576D02*
X488143170Y-83627448D01*
X486240929Y-83349513D02*
X486347139Y-83426571D01*
X486415884Y-82828185D02*
X486613817Y-82789821D01*
X486613817Y-82789821D02*
X486642159Y-82784938D01*
X487483760Y-82735535D02*
X487638843Y-82745448D01*
X487520062Y-85836813D02*
X487495673Y-85993246D01*
X487120007Y-84716905D02*
X487126981Y-84753285D01*
X487118608Y-84688274D02*
X487119107Y-84706626D01*
X486960156Y-84170186D02*
X487006941Y-84279170D01*
X487123851Y-84663425D02*
X487119010Y-84680202D01*
X486681350Y-83738789D02*
X486732471Y-83800737D01*
X486906625Y-84064825D02*
X486942893Y-84134753D01*
X486717938Y-82773765D02*
X486869867Y-82754811D01*
X487144085Y-84809213D02*
X487156874Y-84840158D01*
X489373373Y-83348559D02*
X489546296Y-83289629D01*
X489062099Y-83086460D02*
X489222982Y-83149459D01*
X487061321Y-84428780D02*
X487084658Y-84505656D01*
X487495673Y-85993246D02*
X487448396Y-86149248D01*
X487389862Y-85252343D02*
X487422028Y-85325198D01*
X487236962Y-84983643D02*
X487263929Y-85026919D01*
X487164150Y-84856175D02*
X487191466Y-84907623D01*
X489303580Y-83182392D02*
X489493123Y-83265453D01*
X489493123Y-83265453D02*
X489546296Y-83289629D01*
X488967183Y-83467763D02*
X489141739Y-83419887D01*
X487784579Y-83659041D02*
X487964334Y-83646356D01*
X487175624Y-82734286D02*
X487377506Y-82732069D01*
X487377506Y-82732069D02*
X487406422Y-82732442D01*
X487006941Y-84279170D02*
X487048896Y-84390749D01*
X488503046Y-82902916D02*
X488697061Y-82960836D01*
X488697061Y-82960836D02*
X488741929Y-82975071D01*
X485966705Y-82945526D02*
X486115885Y-82901414D01*
X488202628Y-83620100D02*
X488380312Y-83593396D01*
X486813500Y-83642886D02*
X486935970Y-83652251D01*
X486825148Y-83929773D02*
X486887619Y-84030330D01*
X487604151Y-83667176D02*
X487784579Y-83659041D01*
X487422862Y-83669485D02*
X487543791Y-83668415D01*
X487095569Y-84544500D02*
X487123851Y-84663425D01*
X486757071Y-83832228D02*
X486825148Y-83929773D01*
X486478789Y-83534669D02*
X486569581Y-83620010D01*
X486012995Y-83203731D02*
X486091485Y-83250975D01*
X486946016Y-82747029D02*
X487146858Y-82735286D01*
X487146858Y-82735286D02*
X487175624Y-82734286D01*
X486190636Y-82880831D02*
X486387672Y-82834256D01*
X486387672Y-82834256D02*
X486415884Y-82828185D01*
X488741929Y-82975071D02*
X488936760Y-83040459D01*
X488936760Y-83040459D02*
X488981814Y-83056395D01*
X488616109Y-83550241D02*
X488733472Y-83525040D01*
X488380312Y-83593396D02*
X488557323Y-83562136D01*
X487230380Y-86495236D02*
X487103811Y-86632553D01*
X485848702Y-83113171D02*
X485973010Y-83180507D01*
X487340722Y-86351388D02*
X487230380Y-86495236D01*
X487191466Y-84907623D02*
X487224261Y-84963268D01*
X487425038Y-86200480D02*
X487371201Y-86301550D01*
X487278194Y-85049819D02*
X487324633Y-85128298D01*
X485669935Y-83048305D02*
X485864431Y-82978489D01*
X485864431Y-82978489D02*
X485892276Y-82969055D01*
X487126981Y-84753285D02*
X487138571Y-84794284D01*
X487324633Y-85128298D02*
X487373398Y-85218159D01*
X487515862Y-85683741D02*
X487520796Y-85785229D01*
X487437731Y-85363869D02*
X487478861Y-85493042D01*
X489199738Y-83402666D02*
X489315555Y-83367003D01*
X486997115Y-83656324D02*
X487179992Y-83664768D01*
X486567668Y-83618126D02*
X486752174Y-83637593D01*
X486380908Y-83453136D02*
X486446733Y-83507184D01*
X487716588Y-82752270D02*
X487921659Y-82779239D01*
X487921659Y-82779239D02*
X487951029Y-82783770D01*
X486129991Y-83274995D02*
X486240929Y-83349513D01*
X487179992Y-83664768D02*
X487362294Y-83669315D01*
X483997261Y-82787677D02*
X483952504Y-82923618D01*
X482406885Y-84857214D02*
X482420875Y-85063563D01*
X482420875Y-85063563D02*
X482429150Y-85144156D01*
X484179856Y-81130449D02*
X484051888Y-81240270D01*
X482860990Y-86450759D02*
X482964887Y-86628864D01*
X482964887Y-86628864D02*
X483022623Y-86721685D01*
X484090228Y-83216139D02*
X484220473Y-83156980D01*
X484144206Y-82287052D02*
X484088703Y-82485506D01*
X484088703Y-82485506D02*
X484082857Y-82505767D01*
X482427222Y-84281801D02*
X482409938Y-84473472D01*
X483782267Y-83382071D02*
X483914930Y-83306288D01*
X483604332Y-83785993D02*
X483522601Y-83952564D01*
X484082857Y-82505767D02*
X484025304Y-82698980D01*
X484025304Y-82698980D02*
X484019243Y-82718692D01*
X484445060Y-80927946D02*
X484407863Y-81126276D01*
X484407863Y-81126276D02*
X484397258Y-81181321D01*
X482913628Y-82725792D02*
X482824901Y-82911262D01*
X482824901Y-82911262D02*
X482791748Y-82984915D01*
X482404360Y-84569448D02*
X482404192Y-84776343D01*
X482404192Y-84776343D02*
X482406885Y-84857214D01*
X483570826Y-81735027D02*
X483458795Y-81872671D01*
X485733512Y-83068839D02*
X485848702Y-83113171D01*
X485460590Y-82993882D02*
X485578283Y-83021009D01*
X485060609Y-82956186D02*
X485182053Y-82957529D01*
X484938142Y-82961876D02*
X485060609Y-82956186D01*
X484814283Y-82977137D02*
X484896972Y-82966162D01*
X484520576Y-83045069D02*
X484647173Y-83010989D01*
X483805429Y-81477195D02*
X483666250Y-81625324D01*
X483666250Y-81625324D02*
X483627938Y-81667947D01*
X484220473Y-83156980D02*
X484349862Y-83103704D01*
X483958888Y-83282831D02*
X484046537Y-83237757D01*
X483760840Y-83435059D02*
X483709868Y-83555100D01*
X483929729Y-82990574D02*
X483861263Y-83179344D01*
X483861263Y-83179344D02*
X483859018Y-83185340D01*
X484276801Y-81749714D02*
X484230440Y-81948075D01*
X484230440Y-81948075D02*
X484221703Y-81984421D01*
X482560083Y-83618840D02*
X482509066Y-83821307D01*
X482509066Y-83821307D02*
X482491351Y-83900995D01*
X482725296Y-86176187D02*
X482813577Y-86359535D01*
X483246236Y-82165234D02*
X483133019Y-82338360D01*
X483133019Y-82338360D02*
X483096273Y-82397313D01*
X484202676Y-82060967D02*
X484163927Y-82212282D01*
X482443255Y-85239346D02*
X482478195Y-85429098D01*
X484445060Y-80927946D02*
X484281906Y-81048482D01*
X484281906Y-81048482D02*
X484244773Y-81077259D01*
X484380740Y-81264284D02*
X484347106Y-81428685D01*
X482491351Y-83900995D02*
X482451979Y-84105662D01*
X482451979Y-84105662D02*
X482438928Y-84186106D01*
X482791748Y-82984915D02*
X482711183Y-83175752D01*
X482711183Y-83175752D02*
X482681334Y-83251412D01*
X483049060Y-82477918D02*
X482957737Y-82642158D01*
X485342013Y-82972831D02*
X485460590Y-82993882D01*
X483022623Y-86721685D02*
X483133415Y-86889616D01*
X483133415Y-86889616D02*
X483203486Y-86989859D01*
X485617229Y-83032014D02*
X485694843Y-83055929D01*
X483494694Y-84006393D02*
X483438239Y-84112404D01*
X484329991Y-81510123D02*
X484285236Y-81712596D01*
X484285236Y-81712596D02*
X484276801Y-81749714D01*
X482648705Y-83342397D02*
X482588080Y-83526112D01*
X484392696Y-83087978D02*
X484478053Y-83058661D01*
X483859018Y-83185340D02*
X483785958Y-83374097D01*
X482581705Y-85805090D02*
X482650180Y-85997154D01*
X482650180Y-85997154D02*
X482684428Y-86084062D01*
X483403875Y-81943234D02*
X483284943Y-82108781D01*
X483284943Y-82108781D02*
X483246236Y-82165234D01*
X482499029Y-85523660D02*
X482553710Y-85717400D01*
X482553710Y-85717400D02*
X482581705Y-85805090D01*
X483684013Y-83614178D02*
X483604332Y-83785993D01*
X485222202Y-82960259D02*
X485302182Y-82967910D01*
X484647173Y-83010989D02*
X484772763Y-82983825D01*
X483409689Y-84164587D02*
X483322147Y-84316292D01*
X483988839Y-81296900D02*
X483845049Y-81436863D01*
X483845049Y-81436863D02*
X483805429Y-81477195D01*
X487612045Y-86963449D02*
X487568128Y-86849315D01*
X489128994Y-89804740D02*
X489119021Y-89865550D01*
X489110452Y-89941004D02*
X489107617Y-89993094D01*
X487705295Y-88038639D02*
X487726665Y-87923821D01*
X488234424Y-88214316D02*
X488329036Y-88133005D01*
X489484216Y-88575066D02*
X489449809Y-88652052D01*
X489972381Y-88278502D02*
X489956391Y-88219021D01*
X489495617Y-89876158D02*
X489550930Y-89769587D01*
X489552072Y-88439799D02*
X489501327Y-88538439D01*
X489602173Y-88352453D02*
X489552072Y-88439799D01*
X487441573Y-86569874D02*
X487378628Y-86445148D01*
X487748141Y-87671910D02*
X487746842Y-87567527D01*
X489760810Y-88164748D02*
X489714792Y-88205901D01*
X489925072Y-88161426D02*
X489905083Y-88143474D01*
X489116482Y-89884896D02*
X489112198Y-89922623D01*
X489248878Y-90210883D02*
X489282518Y-90184931D01*
X489146500Y-90204192D02*
X489164289Y-90220441D01*
X489218683Y-90226758D02*
X489248878Y-90210883D01*
X489181684Y-89579768D02*
X489162393Y-89651212D01*
X489378685Y-90068306D02*
X489426267Y-89996164D01*
X487643791Y-88283491D02*
X487667392Y-88199106D01*
X489550930Y-89769587D02*
X489607563Y-89653263D01*
X487499864Y-86691923D02*
X487441573Y-86569874D01*
X487743799Y-87777775D02*
X487748141Y-87671910D01*
X487715999Y-87325070D02*
X487692661Y-87219481D01*
X489118672Y-90137534D02*
X489128323Y-90170517D01*
X489141310Y-89741219D02*
X489128994Y-89804740D01*
X487733932Y-87429410D02*
X487715999Y-87325070D01*
X488452732Y-88041348D02*
X488543600Y-87985600D01*
X487683109Y-87183729D02*
X487662269Y-87111539D01*
X488360167Y-88108677D02*
X488422015Y-88062848D01*
X489855227Y-89018718D02*
X489895372Y-88881717D01*
X489804467Y-88139512D02*
X489775599Y-88154992D01*
X489961647Y-88587412D02*
X489974634Y-88479881D01*
X489683576Y-89482222D02*
X489738884Y-89345721D01*
X489979311Y-88355019D02*
X489975490Y-88302624D01*
X489738884Y-89345721D02*
X489791823Y-89206102D01*
X489974634Y-88479881D02*
X489980024Y-88383293D01*
X489107617Y-89993094D02*
X489107210Y-90041957D01*
X487551860Y-86810409D02*
X487517728Y-86731713D01*
X487744539Y-87532999D02*
X487738085Y-87463940D01*
X489132416Y-90179861D02*
X489141505Y-90196699D01*
X489714792Y-88205901D02*
X489667416Y-88258796D01*
X487678271Y-88157789D02*
X487705295Y-88038639D01*
X489432514Y-88692410D02*
X489380088Y-88824651D01*
X489651253Y-88280298D02*
X489618632Y-88327126D01*
X489443165Y-89968098D02*
X489477840Y-89908095D01*
X489858065Y-88128950D02*
X489818546Y-88133788D01*
X489894303Y-88136656D02*
X489858065Y-88128950D01*
X489808389Y-89159110D02*
X489840091Y-89065418D01*
X489895372Y-88881717D02*
X489929564Y-88749529D01*
X489294908Y-90172695D02*
X489320876Y-90144413D01*
X489956391Y-88219021D02*
X489934281Y-88172561D01*
X489938774Y-88707617D02*
X489954815Y-88626558D01*
X489626637Y-89611635D02*
X489664644Y-89526115D01*
X489334453Y-90128366D02*
X489378685Y-90068306D01*
X489192875Y-90230476D02*
X489209728Y-90228932D01*
X489164289Y-90220441D02*
X489184976Y-90229845D01*
X487650983Y-87075101D02*
X487612045Y-86963449D01*
X489111599Y-90100021D02*
X489118672Y-90137534D01*
X489156735Y-89674153D02*
X489146194Y-89719156D01*
X487731895Y-87886809D02*
X487740462Y-87813786D01*
X489107892Y-90057100D02*
X489110087Y-90086132D01*
X485634670Y-88055301D02*
X485574398Y-88008181D01*
X486674582Y-89413903D02*
X486678758Y-89440424D01*
X486308391Y-88164187D02*
X486324365Y-88245072D01*
X486623238Y-89184810D02*
X486637923Y-89239987D01*
X486013066Y-88428324D02*
X485972180Y-88378033D01*
X486098533Y-88549424D02*
X486063516Y-88496774D01*
X486288889Y-87485726D02*
X486281043Y-87550862D01*
X486363511Y-87200822D02*
X486351190Y-87230275D01*
X486282757Y-87975496D02*
X486291712Y-88056065D01*
X487587475Y-88461309D02*
X487631068Y-88326557D01*
X487538554Y-88601764D02*
X487587475Y-88461309D01*
X487482706Y-88749973D02*
X487520505Y-88650517D01*
X486900528Y-89606577D02*
X487005285Y-89411673D01*
X486279027Y-87573543D02*
X486275624Y-87619801D01*
X486588121Y-89066894D02*
X486600778Y-89107390D01*
X486512840Y-88849343D02*
X486529224Y-88894719D01*
X485748185Y-88150355D02*
X485711528Y-88118530D01*
X487398718Y-88958647D02*
X487462955Y-88800677D01*
X485817902Y-88214466D02*
X485766156Y-88166311D01*
X486394054Y-88508551D02*
X486418654Y-88584852D01*
X486814478Y-89460310D02*
X486900528Y-89606577D01*
X486345290Y-87245554D02*
X486329161Y-87294706D01*
X486051231Y-88479531D02*
X486026005Y-88445306D01*
X486427140Y-88609840D02*
X486444262Y-88659340D01*
X485914107Y-88311897D02*
X485883256Y-88279211D01*
X486274236Y-87643377D02*
X486272057Y-87716521D01*
X486276158Y-87895716D02*
X486282757Y-87975496D01*
X487329576Y-89122447D02*
X487398718Y-88958647D01*
X486349249Y-88351997D02*
X486363301Y-88404774D01*
X487254011Y-89293954D02*
X487304918Y-89178978D01*
X487144290Y-89533444D02*
X487227763Y-89352400D01*
X487005285Y-89411673D02*
X487144290Y-89533444D01*
X486689975Y-89555928D02*
X486689663Y-89577974D01*
X486688776Y-89529535D02*
X486689703Y-89547492D01*
X486680626Y-89453165D02*
X486684978Y-89488201D01*
X486663950Y-89355768D02*
X486672275Y-89400123D01*
X486329161Y-87294706D02*
X486314621Y-87347161D01*
X486452897Y-88683852D02*
X486478839Y-88755889D01*
X486298479Y-87423626D02*
X486288889Y-87485726D01*
X486272625Y-87817544D02*
X486274731Y-87869492D01*
X486642252Y-89257555D02*
X486650366Y-89291812D01*
X486370623Y-88431003D02*
X486394054Y-88508551D01*
X486606826Y-89127296D02*
X486623238Y-89184810D01*
X486684978Y-89488201D02*
X486688121Y-89520013D01*
X486201985Y-88734687D02*
X486173083Y-88677105D01*
X486390745Y-87147438D02*
X486369931Y-87186648D01*
X486654150Y-89308500D02*
X486663950Y-89355768D01*
X486537257Y-88917130D02*
X486560104Y-88982625D01*
X486310311Y-87365740D02*
X486302240Y-87403972D01*
X486272057Y-87716521D02*
X486271946Y-87791819D01*
X485692843Y-88102661D02*
X485634670Y-88055301D01*
X486131821Y-88603112D02*
X486098533Y-88549424D01*
X486163011Y-88658390D02*
X486142380Y-88621394D01*
X486686345Y-89606577D02*
X486814478Y-89460310D01*
X486689663Y-89577974D02*
X486688230Y-89596762D01*
X486560104Y-88982625D02*
X486581512Y-89046304D01*
X486478839Y-88755889D02*
X486504490Y-88826378D01*
X486295490Y-88083079D02*
X486303829Y-88137140D01*
X485867466Y-88262936D02*
X485817902Y-88214466D01*
X486229688Y-88793802D02*
X486201985Y-88734687D01*
X485972180Y-88378033D02*
X485929167Y-88328308D01*
X486324365Y-88245072D02*
X486342519Y-88325448D01*
X484394002Y-88794319D02*
X484480000Y-88855626D01*
X484313204Y-88733912D02*
X484394002Y-88794319D01*
X483849000Y-88253782D02*
X483879214Y-88300792D01*
X485965421Y-89652298D02*
X485984632Y-89666461D01*
X485781460Y-89559294D02*
X485790656Y-89560161D01*
X486032169Y-89703106D02*
X486079960Y-89505424D01*
X485890253Y-89601652D02*
X485906357Y-89611691D01*
X484149995Y-88598038D02*
X484215684Y-88655341D01*
X483801700Y-88164151D02*
X483815309Y-88193302D01*
X485804005Y-89562762D02*
X485814861Y-89565832D01*
X485088766Y-89220047D02*
X485215676Y-89286668D01*
X488777130Y-83169249D02*
X488771360Y-83200607D01*
X483890633Y-88316905D02*
X483914854Y-88349580D01*
X488458833Y-83524990D02*
X488421637Y-83542739D01*
X485793901Y-89560689D02*
X485800576Y-89561990D01*
X488742349Y-83277149D02*
X488723546Y-83310413D01*
X488768453Y-83211352D02*
X488761582Y-83233043D01*
X485842792Y-89576450D02*
X485856137Y-89582825D01*
X488613830Y-83428550D02*
X488587032Y-83448819D01*
X484706925Y-89002655D02*
X484813883Y-89066969D01*
X488660780Y-83386668D02*
X488626566Y-83418273D01*
X486255973Y-88855105D02*
X486238558Y-88814048D01*
X486289282Y-88940105D02*
X486264519Y-88875917D01*
X486079960Y-89505424D02*
X486243677Y-89545004D01*
X484851248Y-89088617D02*
X484927657Y-89132111D01*
X484089138Y-88541898D02*
X484149995Y-88598038D01*
X483927656Y-88366140D02*
X483970330Y-88417160D01*
X488402405Y-83551450D02*
X488340963Y-83576594D01*
X483780870Y-88108002D02*
X483795538Y-88149791D01*
X486313240Y-89006065D02*
X486289282Y-88940105D01*
X484510414Y-88876344D02*
X484572998Y-88918037D01*
X486407260Y-89317250D02*
X486393703Y-89266826D01*
X486243677Y-89375084D02*
X486433394Y-89420950D01*
X485394346Y-89376506D02*
X485535269Y-89444610D01*
X485991220Y-89671426D02*
X486004575Y-89681595D01*
X485946781Y-89638894D02*
X485965421Y-89652298D01*
X485906357Y-89611691D02*
X485923133Y-89622621D01*
X485875069Y-89592836D02*
X485885114Y-89598611D01*
X484034549Y-88487395D02*
X484070430Y-88523589D01*
X488757618Y-83243989D02*
X488742349Y-83277149D01*
X485856137Y-89582825D02*
X485870162Y-89590103D01*
X484605168Y-88939013D02*
X484706925Y-89002655D01*
X488526836Y-83487858D02*
X488476799Y-83515951D01*
X486336217Y-89074400D02*
X486320976Y-89028646D01*
X486365586Y-89168862D02*
X486343721Y-89097574D01*
X485535269Y-89444610D02*
X485680731Y-89513187D01*
X485259566Y-89309045D02*
X485348901Y-89353964D01*
X486243677Y-89545004D02*
X486243677Y-89375084D01*
X486011342Y-89686798D02*
X486032169Y-89703106D01*
X485928942Y-89626552D02*
X485940766Y-89634688D01*
X484966701Y-89153957D02*
X485088766Y-89220047D01*
X483970330Y-88417160D02*
X484017376Y-88469509D01*
X488340963Y-83576594D02*
X488275810Y-83600755D01*
X486386825Y-89241901D02*
X486365586Y-89168862D01*
X488572969Y-83458810D02*
X488526836Y-83487858D01*
X486433394Y-89420950D02*
X486413940Y-89342748D01*
X485830320Y-89571233D02*
X485838564Y-89574617D01*
X484239224Y-88674811D02*
X484287984Y-88714096D01*
X488691019Y-83354395D02*
X488660780Y-83386668D01*
X483822755Y-88208095D02*
X483849000Y-88253782D01*
X485814861Y-89565832D02*
X485826303Y-89569681D01*
X488716052Y-83321466D02*
X488699788Y-83343457D01*
X485872188Y-86885939D02*
X485871657Y-86892026D01*
X485794999Y-86893855D02*
X485792558Y-86886884D01*
X485796956Y-86900547D02*
X485795683Y-86896116D01*
X485830852Y-86930630D02*
X485823855Y-86931155D01*
X485810669Y-86928156D02*
X485806841Y-86925002D01*
X485845272Y-86836825D02*
X485853409Y-86843979D01*
X485861827Y-86913221D02*
X485857790Y-86917410D01*
X488779683Y-83110485D02*
X488780242Y-83129315D01*
X488774701Y-83075474D02*
X488779000Y-83101319D01*
X488768272Y-83051374D02*
X488774701Y-83075474D01*
X484011680Y-81955201D02*
X484028768Y-81976865D01*
X483876825Y-81835835D02*
X483907523Y-81856385D01*
X488688299Y-82958138D02*
X488707423Y-82969204D01*
X484090502Y-82074353D02*
X484104242Y-82101341D01*
X484037112Y-81988044D02*
X484060898Y-82023614D01*
X485871133Y-86895006D02*
X485868088Y-86903353D01*
X488759179Y-83029705D02*
X488765454Y-83043945D01*
X483586324Y-81772840D02*
X483611016Y-81767580D01*
X485781931Y-86863254D02*
X485778770Y-86856387D01*
X485799199Y-86908860D02*
X485797546Y-86902716D01*
X485800904Y-86914566D02*
X485799199Y-86908860D01*
X484060898Y-82023614D02*
X484083420Y-82061179D01*
X483947168Y-81888221D02*
X483975575Y-81915389D01*
X483917563Y-81863976D02*
X483937385Y-81879894D01*
X483845721Y-81817515D02*
X483876825Y-81835835D01*
X483814390Y-81802168D02*
X483835277Y-81812152D01*
X483712169Y-81769976D02*
X483732051Y-81774072D01*
X485853409Y-86843979D02*
X485860530Y-86851991D01*
X483673716Y-81765371D02*
X483702346Y-81768290D01*
X483646000Y-81764557D02*
X483673716Y-81765371D01*
X483619593Y-81766487D02*
X483637085Y-81764975D01*
X485806841Y-86925002D02*
X485803792Y-86921094D01*
X483540430Y-81789815D02*
X483555146Y-81783095D01*
X483512733Y-81806403D02*
X483533246Y-81793492D01*
X485774680Y-86841758D02*
X485774899Y-86836245D01*
X485775649Y-86847723D02*
X485774680Y-86841758D01*
X485838377Y-86928708D02*
X485833339Y-86930108D01*
X485777867Y-86854171D02*
X485776306Y-86849839D01*
X485792558Y-86886884D02*
X485789714Y-86879793D01*
X485823855Y-86931155D02*
X485817505Y-86930674D01*
X485855616Y-86919344D02*
X485848460Y-86924118D01*
X485868088Y-86903353D02*
X485863690Y-86910967D01*
X485836127Y-86831037D02*
X485842285Y-86834771D01*
X485823192Y-86825505D02*
X485832956Y-86829356D01*
X485867541Y-86863927D02*
X485870639Y-86873357D01*
X485788649Y-86877411D02*
X485786450Y-86872654D01*
X488780117Y-83138978D02*
X488777130Y-83169249D01*
X488743516Y-83004345D02*
X488755721Y-83022895D01*
X485870639Y-86873357D02*
X485872194Y-86882831D01*
X488713234Y-82973511D02*
X488724288Y-82982748D01*
X485815650Y-86930193D02*
X485812233Y-86928934D01*
X485848460Y-86924118D02*
X485840927Y-86927829D01*
X488729530Y-82987678D02*
X488743516Y-83004345D01*
X484129603Y-82158479D02*
X484147043Y-82203668D01*
X483975575Y-81915389D02*
X484002936Y-81944716D01*
X484110900Y-82115155D02*
X484129603Y-82158479D01*
X483562679Y-81780050D02*
X483586324Y-81772840D01*
X485785317Y-86870279D02*
X485781931Y-86863254D01*
X483742111Y-81776482D02*
X483772834Y-81785910D01*
X485862509Y-86854895D02*
X485866014Y-86860863D01*
X485802994Y-86919562D02*
X485801550Y-86916298D01*
X483772834Y-81785910D02*
X483803946Y-81797548D01*
X492854950Y-89070111D02*
X492927774Y-89223464D01*
X489722406Y-85644103D02*
X489790870Y-85519384D01*
X490365561Y-90195877D02*
X490369811Y-90174216D01*
X493025507Y-89463154D02*
X492825080Y-89520871D01*
X492825080Y-89520871D02*
X492704825Y-89555502D01*
X489960588Y-88914294D02*
X489927827Y-88870510D01*
X489558974Y-85929161D02*
X489629663Y-85808038D01*
X490096851Y-89142129D02*
X490066304Y-89084098D01*
X490350684Y-89886341D02*
X490342217Y-89844783D01*
X492277250Y-89678632D02*
X492076823Y-89736349D01*
X492076823Y-89736349D02*
X491956568Y-89770980D01*
X490370561Y-90017881D02*
X490363748Y-89964049D01*
X490374149Y-90066672D02*
X490372026Y-90034574D01*
X491372320Y-86989533D02*
X491484602Y-87120620D01*
X490353160Y-90232719D02*
X490363044Y-90206058D01*
X491148344Y-86736294D02*
X491284514Y-86888874D01*
X491284514Y-86888874D02*
X491316088Y-86924717D01*
X489652971Y-85767253D02*
X489699343Y-85685286D01*
X491706726Y-87388348D02*
X491834230Y-87546684D01*
X491834230Y-87546684D02*
X491869514Y-87591094D01*
X490330394Y-85913139D02*
X490422056Y-85995270D01*
X490363748Y-89964049D02*
X490354540Y-89906616D01*
X491540652Y-87186889D02*
X491670647Y-87344133D01*
X491670647Y-87344133D02*
X491706726Y-87388348D01*
X490024750Y-89011406D02*
X490003596Y-88977441D01*
X490066304Y-89084098D02*
X490035254Y-89028867D01*
X490126642Y-89203738D02*
X490106851Y-89162381D01*
X490275881Y-89594412D02*
X490252689Y-89522925D01*
X490374371Y-90124371D02*
X490374807Y-90082077D01*
X492403048Y-88316015D02*
X492486236Y-88440660D01*
X490371544Y-90162736D02*
X490374371Y-90124371D01*
X490982691Y-86555160D02*
X491122301Y-86707487D01*
X491122301Y-86707487D02*
X491148344Y-86736294D01*
X490821646Y-86385742D02*
X490928529Y-86497606D01*
X489414924Y-86167085D02*
X489463402Y-86088523D01*
X491528993Y-89894110D02*
X491334047Y-89950249D01*
X491334047Y-89950249D02*
X491315205Y-89955675D01*
X490158268Y-85768994D02*
X490285663Y-85874072D01*
X490219488Y-89428042D02*
X490201903Y-89381340D01*
X492927774Y-89223464D02*
X492991124Y-89370449D01*
X492769409Y-88908254D02*
X492827499Y-89016865D01*
X490887629Y-90078806D02*
X490687203Y-90136522D01*
X490687203Y-90136522D02*
X490566948Y-90171153D01*
X489790870Y-85519384D02*
X489890798Y-85576261D01*
X492637291Y-88680536D02*
X492738769Y-88852889D01*
X490468986Y-86038334D02*
X490616038Y-86179232D01*
X489241546Y-86436064D02*
X489316504Y-86321844D01*
X489487499Y-86049012D02*
X489558974Y-85929161D01*
X490321616Y-89757101D02*
X490303596Y-89688594D01*
X492076746Y-87860325D02*
X492195547Y-88021622D01*
X492195547Y-88021622D02*
X492222252Y-88058504D01*
X490165089Y-89290488D02*
X490136434Y-89224844D01*
X491208311Y-89986458D02*
X491007884Y-90044175D01*
X491007884Y-90044175D02*
X490887629Y-90078806D01*
X491956568Y-89770980D02*
X491756142Y-89828697D01*
X491756142Y-89828697D02*
X491635887Y-89863328D01*
X489316504Y-86321844D02*
X489390542Y-86206135D01*
X490192930Y-89358194D02*
X490165089Y-89290488D01*
X490252689Y-89522925D02*
X490228101Y-89451598D01*
X490337605Y-89823501D02*
X490321616Y-89757101D01*
X492597932Y-89586284D02*
X492402986Y-89642423D01*
X492402986Y-89642423D02*
X492384144Y-89647850D01*
X490616038Y-86179232D02*
X490759205Y-86321594D01*
X490759205Y-86321594D02*
X490768925Y-86331431D01*
X492526333Y-88502091D02*
X492633966Y-88675050D01*
X492633966Y-88675050D02*
X492637291Y-88680536D01*
X491922291Y-87658664D02*
X492025907Y-87793279D01*
X490037739Y-85676048D02*
X490158268Y-85768994D01*
X489926388Y-85599205D02*
X489999859Y-85649098D01*
X490296955Y-89665215D02*
X490283097Y-89618124D01*
X492222252Y-88058504D02*
X492338977Y-88222723D01*
X492338977Y-88222723D02*
X492359958Y-88252800D01*
X489992946Y-88960937D02*
X489960588Y-88914294D01*
X487904812Y-87145896D02*
X487904765Y-87112989D01*
X487902870Y-87208548D02*
X487904632Y-87162032D01*
X487871291Y-87422210D02*
X487877192Y-87398534D01*
X488834988Y-87878345D02*
X488918679Y-87871609D01*
X487904538Y-87096220D02*
X487902650Y-87044041D01*
X487719863Y-87345294D02*
X487757479Y-87376953D01*
X487898191Y-86971455D02*
X487895033Y-86933721D01*
X488354839Y-88023815D02*
X488398640Y-88080199D01*
X488113557Y-87731977D02*
X488155206Y-87779759D01*
X487937931Y-87544323D02*
X487977756Y-87584813D01*
X489208679Y-87962074D02*
X489258778Y-87996469D01*
X488254057Y-87897930D02*
X488297000Y-87950884D01*
X489106015Y-87910126D02*
X489183389Y-87946518D01*
X488169204Y-87796147D02*
X488197310Y-87829362D01*
X489165326Y-86548246D02*
X489216246Y-86473630D01*
X489356638Y-88081227D02*
X489428358Y-88156227D01*
X489061905Y-86694920D02*
X489139708Y-86585297D01*
X489283588Y-88015307D02*
X489356638Y-88081227D01*
X488983176Y-86803045D02*
X489061905Y-86694920D01*
X488903259Y-86909249D02*
X488956633Y-86838601D01*
X488795110Y-87048280D02*
X488876428Y-86944340D01*
X488517613Y-87384341D02*
X488601981Y-87285332D01*
X488311412Y-87968927D02*
X488340332Y-88005393D01*
X488712995Y-87150932D02*
X488795110Y-87048280D01*
X487857882Y-87467068D02*
X487868178Y-87433796D01*
X487770114Y-87387889D02*
X487795481Y-87410153D01*
X489027090Y-87884316D02*
X489106015Y-87910126D01*
X488946048Y-87872966D02*
X489000254Y-87879319D01*
X488749752Y-87895636D02*
X488834988Y-87878345D01*
X488629860Y-87251934D02*
X488685367Y-87184734D01*
X487886961Y-86855529D02*
X487879653Y-86794940D01*
X487902650Y-87044041D02*
X487899590Y-86990042D01*
X487895409Y-87295470D02*
X487898535Y-87267486D01*
X487887339Y-87348613D02*
X487893660Y-87309172D01*
X488031461Y-87641220D02*
X488058622Y-87670655D01*
X487898570Y-87505691D02*
X487924773Y-87531296D01*
X488211418Y-87846190D02*
X488254057Y-87897930D01*
X488662536Y-87926442D02*
X488720840Y-87904815D01*
X487977756Y-87584813D02*
X488017942Y-87626750D01*
X489521436Y-88273638D02*
X489589394Y-88374326D01*
X488320932Y-87129443D02*
X488517613Y-87384341D01*
X487893273Y-86914574D02*
X487886961Y-86855529D01*
X487879980Y-87386444D02*
X487887339Y-87348613D01*
X488127537Y-86878803D02*
X488320932Y-87129443D01*
X487857882Y-86646239D02*
X488127537Y-86878803D01*
X488072264Y-87685620D02*
X488113557Y-87731977D01*
X489451836Y-88184159D02*
X489498375Y-88242864D01*
X487808213Y-87421481D02*
X487846713Y-87456673D01*
X487899910Y-87253205D02*
X487902870Y-87208548D01*
X487868003Y-86711194D02*
X487857882Y-86646239D01*
X487876896Y-86774245D02*
X487871071Y-86732372D01*
X487846713Y-87456673D02*
X487885525Y-87493113D01*
X488543600Y-87985600D02*
X488633145Y-87938890D01*
D11*
X315318285Y-53284380D02*
X315318285Y-52284380D01*
X315699238Y-52284380D01*
X315794476Y-52332000D01*
X315842095Y-52379619D01*
X315889714Y-52474857D01*
X315889714Y-52617714D01*
X315842095Y-52712952D01*
X315794476Y-52760571D01*
X315699238Y-52808190D01*
X315318285Y-52808190D01*
X316318285Y-52760571D02*
X316651619Y-52760571D01*
X316794476Y-53284380D02*
X316318285Y-53284380D01*
X316318285Y-52284380D01*
X316794476Y-52284380D01*
X317080190Y-52284380D02*
X317651619Y-52284380D01*
X317365904Y-53284380D02*
X317365904Y-52284380D01*
X317984952Y-52760571D02*
X318318285Y-52760571D01*
X318461142Y-53284380D02*
X317984952Y-53284380D01*
X317984952Y-52284380D01*
X318461142Y-52284380D01*
X319461142Y-53284380D02*
X319127809Y-52808190D01*
X318889714Y-53284380D02*
X318889714Y-52284380D01*
X319270666Y-52284380D01*
X319365904Y-52332000D01*
X319413523Y-52379619D01*
X319461142Y-52474857D01*
X319461142Y-52617714D01*
X319413523Y-52712952D01*
X319365904Y-52760571D01*
X319270666Y-52808190D01*
X318889714Y-52808190D01*
X319889714Y-53284380D02*
X319889714Y-52284380D01*
X320365904Y-53284380D02*
X320365904Y-52284380D01*
X320937333Y-53284380D01*
X320937333Y-52284380D01*
X321604000Y-52284380D02*
X321794476Y-52284380D01*
X321889714Y-52332000D01*
X321984952Y-52427238D01*
X322032571Y-52617714D01*
X322032571Y-52951047D01*
X321984952Y-53141523D01*
X321889714Y-53236761D01*
X321794476Y-53284380D01*
X321604000Y-53284380D01*
X321508761Y-53236761D01*
X321413523Y-53141523D01*
X321365904Y-52951047D01*
X321365904Y-52617714D01*
X321413523Y-52427238D01*
X321508761Y-52332000D01*
X321604000Y-52284380D01*
X322461142Y-52903428D02*
X323223047Y-52903428D01*
X324127809Y-52284380D02*
X323937333Y-52284380D01*
X323842095Y-52332000D01*
X323794476Y-52379619D01*
X323699238Y-52522476D01*
X323651619Y-52712952D01*
X323651619Y-53093904D01*
X323699238Y-53189142D01*
X323746857Y-53236761D01*
X323842095Y-53284380D01*
X324032571Y-53284380D01*
X324127809Y-53236761D01*
X324175428Y-53189142D01*
X324223047Y-53093904D01*
X324223047Y-52855809D01*
X324175428Y-52760571D01*
X324127809Y-52712952D01*
X324032571Y-52665333D01*
X323842095Y-52665333D01*
X323746857Y-52712952D01*
X323699238Y-52760571D01*
X323651619Y-52855809D01*
X324699238Y-53284380D02*
X324889714Y-53284380D01*
X324984952Y-53236761D01*
X325032571Y-53189142D01*
X325127809Y-53046285D01*
X325175428Y-52855809D01*
X325175428Y-52474857D01*
X325127809Y-52379619D01*
X325080190Y-52332000D01*
X324984952Y-52284380D01*
X324794476Y-52284380D01*
X324699238Y-52332000D01*
X324651619Y-52379619D01*
X324604000Y-52474857D01*
X324604000Y-52712952D01*
X324651619Y-52808190D01*
X324699238Y-52855809D01*
X324794476Y-52903428D01*
X324984952Y-52903428D01*
X325080190Y-52855809D01*
X325127809Y-52808190D01*
X325175428Y-52712952D01*
X326365904Y-52903428D02*
X327127809Y-52903428D01*
X327604000Y-52903428D02*
X328365904Y-52903428D01*
X329604000Y-52617714D02*
X329604000Y-53617714D01*
X329604000Y-52665333D02*
X329699238Y-52617714D01*
X329889714Y-52617714D01*
X329984952Y-52665333D01*
X330032571Y-52712952D01*
X330080190Y-52808190D01*
X330080190Y-53093904D01*
X330032571Y-53189142D01*
X329984952Y-53236761D01*
X329889714Y-53284380D01*
X329699238Y-53284380D01*
X329604000Y-53236761D01*
X330651619Y-53284380D02*
X330556380Y-53236761D01*
X330508761Y-53141523D01*
X330508761Y-52284380D01*
X331461142Y-53284380D02*
X331461142Y-52760571D01*
X331413523Y-52665333D01*
X331318285Y-52617714D01*
X331127809Y-52617714D01*
X331032571Y-52665333D01*
X331461142Y-53236761D02*
X331365904Y-53284380D01*
X331127809Y-53284380D01*
X331032571Y-53236761D01*
X330984952Y-53141523D01*
X330984952Y-53046285D01*
X331032571Y-52951047D01*
X331127809Y-52903428D01*
X331365904Y-52903428D01*
X331461142Y-52855809D01*
X331794476Y-52617714D02*
X332175428Y-52617714D01*
X331937333Y-52284380D02*
X331937333Y-53141523D01*
X331984952Y-53236761D01*
X332080190Y-53284380D01*
X332175428Y-53284380D01*
X332889714Y-53236761D02*
X332794476Y-53284380D01*
X332604000Y-53284380D01*
X332508761Y-53236761D01*
X332461142Y-53141523D01*
X332461142Y-52760571D01*
X332508761Y-52665333D01*
X332604000Y-52617714D01*
X332794476Y-52617714D01*
X332889714Y-52665333D01*
X332937333Y-52760571D01*
X332937333Y-52855809D01*
X332461142Y-52951047D01*
X487299047Y-94559428D02*
X488060952Y-94559428D01*
X485267047Y-78811428D02*
X486028952Y-78811428D01*
X485648000Y-79192380D02*
X485648000Y-78430476D01*
D10*
X211269718Y-56383082D02*
X211245283Y-56383082D01*
X211535890Y-56301468D02*
X211508939Y-56317273D01*
X210933540Y-56268821D02*
X210909799Y-56249182D01*
X211481091Y-56331471D02*
X211452450Y-56344028D01*
X210750334Y-55975725D02*
X210741703Y-55930528D01*
X210741703Y-55930528D02*
X210736807Y-55884810D01*
X211561840Y-56284090D02*
X211535890Y-56301468D01*
X211245283Y-56383082D02*
X211210426Y-56380487D01*
X211393198Y-56364091D02*
X211362795Y-56371530D01*
X210797979Y-56104814D02*
X210778538Y-56063205D01*
X211423117Y-56354912D02*
X211393198Y-56364091D01*
X211362795Y-56371530D02*
X211332011Y-56377197D01*
X211130241Y-56366102D02*
X211053157Y-56340120D01*
X211452450Y-56344028D02*
X211423117Y-56354912D01*
X211332011Y-56377197D02*
X211300951Y-56381059D01*
X210778538Y-56063205D02*
X210762634Y-56020063D01*
X210762634Y-56020063D02*
X210750334Y-55975725D01*
X210829289Y-56157326D02*
X210812872Y-56131535D01*
X211508939Y-56317273D02*
X211481091Y-56331471D01*
X210909799Y-56249182D02*
X210887484Y-56228114D01*
X211053157Y-56340120D02*
X210990952Y-56308677D01*
X210866614Y-56205715D02*
X210847209Y-56182086D01*
X210990952Y-56308677D02*
X210933540Y-56268821D01*
X211210426Y-56380487D02*
X211130241Y-56366102D01*
X210847209Y-56182086D02*
X210829289Y-56157326D01*
X210887484Y-56228114D02*
X210866614Y-56205715D01*
X210812872Y-56131535D02*
X210797979Y-56104814D01*
X211300951Y-56381059D02*
X211269718Y-56383082D01*
X210182728Y-54010270D02*
X210179488Y-53986397D01*
X210229981Y-53557785D02*
X210246547Y-53512433D01*
X210462039Y-53170761D02*
X210484679Y-53147335D01*
X210173966Y-53914359D02*
X210173482Y-53890257D01*
X210203020Y-54104647D02*
X210196821Y-54081250D01*
X211586686Y-56265170D02*
X211561840Y-56284090D01*
X210736807Y-55884810D02*
X211779179Y-55884890D01*
X210581917Y-53060669D02*
X210607782Y-53040861D01*
X210191382Y-54057711D02*
X210186688Y-54034046D01*
X211738150Y-56060871D02*
X211702655Y-56131623D01*
X210729795Y-55499543D02*
X211785373Y-55499449D01*
X210174474Y-53842010D02*
X210177994Y-53793810D01*
X210217742Y-54150955D02*
X210209989Y-54127887D01*
X210308438Y-53380444D02*
X210324753Y-53352252D01*
X210179488Y-53986397D02*
X210176956Y-53962445D01*
X211610324Y-56244742D02*
X211586686Y-56265170D01*
X211632652Y-56222840D02*
X211610324Y-56244742D01*
X210894520Y-52889066D02*
X210925509Y-52878948D01*
X211653565Y-56199495D02*
X211632652Y-56222840D01*
X211663459Y-56187293D02*
X211653565Y-56199495D01*
X210863885Y-52900163D02*
X210894520Y-52889066D01*
X210607782Y-53040861D02*
X210634226Y-53021835D01*
X210716799Y-52969651D02*
X210745330Y-52953952D01*
X210246547Y-53512433D02*
X210264933Y-53467986D01*
X210202714Y-53650709D02*
X210215336Y-53603917D01*
X210173656Y-53866136D02*
X210174474Y-53842010D01*
X210175120Y-53938427D02*
X210173966Y-53914359D01*
X211702655Y-56131623D02*
X211663459Y-56187293D01*
X210508010Y-53124593D02*
X210532008Y-53102555D01*
X210833626Y-52912220D02*
X210863885Y-52900163D01*
X210803766Y-52925217D02*
X210833626Y-52912220D01*
X210532008Y-53102555D02*
X210556651Y-53081240D01*
X210774326Y-52939134D02*
X210803766Y-52925217D01*
X210183942Y-53745777D02*
X210192216Y-53698036D01*
X211779179Y-55884890D02*
X211765524Y-55974531D01*
X210176956Y-53962445D02*
X210175120Y-53938427D01*
X210186688Y-54034046D02*
X210182728Y-54010270D01*
X210688757Y-52986211D02*
X210716799Y-52969651D01*
X210341937Y-53324586D02*
X210359968Y-53297467D01*
X210177994Y-53793810D02*
X210183942Y-53745777D01*
X210215336Y-53603917D02*
X210229981Y-53557785D01*
X211765524Y-55974531D02*
X211738150Y-56060871D01*
X210729850Y-55771944D02*
X210729795Y-55499543D01*
X211785421Y-55771876D02*
X210729850Y-55771944D01*
X211785373Y-55499449D02*
X211785421Y-55771876D01*
X210925509Y-52878948D02*
X210956828Y-52869829D01*
X210196821Y-54081250D02*
X210191382Y-54057711D01*
X210359968Y-53297467D02*
X210378823Y-53270915D01*
X210440110Y-53194851D02*
X210462039Y-53170761D01*
X210293015Y-53409144D02*
X210308438Y-53380444D01*
X210745330Y-52953952D02*
X210774326Y-52939134D01*
X210661225Y-53003612D02*
X210688757Y-52986211D01*
X210634226Y-53021835D02*
X210661225Y-53003612D01*
X210264933Y-53467986D02*
X210278505Y-53438331D01*
X210398480Y-53244948D02*
X210418917Y-53219587D01*
X210556651Y-53081240D02*
X210581917Y-53060669D01*
X210418917Y-53219587D02*
X210440110Y-53194851D01*
X210324753Y-53352252D02*
X210341937Y-53324586D01*
X210484679Y-53147335D02*
X210508010Y-53124593D01*
X210378823Y-53270915D02*
X210398480Y-53244948D01*
X210278505Y-53438331D02*
X210293015Y-53409144D01*
X210192216Y-53698036D02*
X210202714Y-53650709D01*
X210173482Y-53890257D02*
X210173656Y-53866136D01*
X210209989Y-54127887D02*
X210203020Y-54104647D01*
X210728109Y-54192291D02*
X210731886Y-54231253D01*
X210809376Y-54492808D02*
X210818224Y-54510263D01*
X210809780Y-55284932D02*
X210780485Y-55263948D01*
X210726215Y-54153199D02*
X210728109Y-54192291D01*
X211124140Y-53412106D02*
X211104445Y-53425771D01*
X210732030Y-54036052D02*
X210728156Y-54074990D01*
X211085148Y-53439990D02*
X211066263Y-53454752D01*
X211227975Y-53352478D02*
X211206550Y-53363208D01*
X211144215Y-53399007D02*
X211124140Y-53412106D01*
X210255330Y-54241808D02*
X210217742Y-54150955D01*
X211185436Y-53374547D02*
X211164653Y-53386483D01*
X210737527Y-54269996D02*
X210745010Y-54308430D01*
X210308324Y-54347177D02*
X210255330Y-54241808D01*
X211055929Y-54798280D02*
X211117109Y-54847038D01*
X210369493Y-54448030D02*
X210308324Y-54347177D01*
X210789283Y-53837903D02*
X210745687Y-53958961D01*
X210438380Y-54543804D02*
X210369493Y-54448030D01*
X210514528Y-54633940D02*
X210438380Y-54543804D01*
X210627122Y-54793238D02*
X210587974Y-54725369D01*
X210710722Y-55164494D02*
X210700269Y-55119701D01*
X210754704Y-55238775D02*
X210738092Y-55217426D01*
X210818224Y-54510263D02*
X210849056Y-54564920D01*
X210947072Y-53572380D02*
X210932104Y-53591095D01*
X210778319Y-54420976D02*
X210792976Y-54457272D01*
X210731886Y-54231253D02*
X210737527Y-54269996D01*
X210737867Y-53997346D02*
X210732030Y-54036052D01*
X210932104Y-53591095D02*
X210866627Y-53684868D01*
X210962588Y-53554121D02*
X210947072Y-53572380D01*
X210995200Y-53519014D02*
X210978637Y-53536329D01*
X211029803Y-53485862D02*
X211012261Y-53502188D01*
X211104445Y-53425771D02*
X211085148Y-53439990D01*
X210738092Y-55217426D02*
X210724143Y-55194175D01*
X210540948Y-54662829D02*
X210514528Y-54633940D01*
X210754316Y-54346465D02*
X210765426Y-54384010D01*
X210662634Y-54877525D02*
X210627122Y-54793238D01*
X210726224Y-54114069D02*
X210726215Y-54153199D01*
X211241969Y-55272307D02*
X211262612Y-55319158D01*
X210978637Y-53536329D02*
X210962588Y-53554121D01*
X210745687Y-53958961D02*
X210737867Y-53997346D01*
X210745010Y-54308430D02*
X210754316Y-54346465D01*
X210792976Y-54457272D02*
X210809376Y-54492808D01*
X210587974Y-54725369D02*
X210540948Y-54662829D01*
X211047809Y-53470046D02*
X211029803Y-53485862D01*
X211066263Y-53454752D02*
X211047809Y-53470046D01*
X210686975Y-54965464D02*
X210662634Y-54877525D01*
X210841891Y-55301269D02*
X210809780Y-55284932D01*
X211262612Y-55319158D02*
X210929923Y-55318748D01*
X210866627Y-53684868D02*
X210789283Y-53837903D01*
X210728156Y-54074990D02*
X210726224Y-54114069D01*
X210953712Y-54701169D02*
X211055929Y-54798280D01*
X211164653Y-53386483D02*
X211144215Y-53399007D01*
X210700269Y-55119701D02*
X210686975Y-54965464D01*
X210720135Y-55186035D02*
X210710722Y-55164494D01*
X210849056Y-54564920D02*
X210893333Y-54629347D01*
X210902769Y-55317286D02*
X210876123Y-55312496D01*
X210876123Y-55312496D02*
X210841891Y-55301269D01*
X211012261Y-53502188D02*
X210995200Y-53519014D01*
X211117109Y-54847038D02*
X211241969Y-55272307D01*
X210724143Y-55194175D02*
X210720135Y-55186035D01*
X211206550Y-53363208D02*
X211185436Y-53374547D01*
X210780485Y-55263948D02*
X210754704Y-55238775D01*
X210765426Y-54384010D02*
X210778319Y-54420976D01*
X210929923Y-55318748D02*
X210902769Y-55317286D01*
X210893333Y-54629347D02*
X210953712Y-54701169D01*
X211625035Y-54397579D02*
X211628290Y-54376572D01*
X211467497Y-53588222D02*
X211469172Y-53550522D01*
X211570205Y-54562768D02*
X211578718Y-54545380D01*
X211249696Y-53342368D02*
X211227975Y-53352478D01*
X211483291Y-54690772D02*
X211507950Y-54660786D01*
X211432084Y-53285106D02*
X211408605Y-53289866D01*
X211632754Y-54229675D02*
X211628658Y-54187962D01*
X211586660Y-54527722D02*
X211594016Y-54509808D01*
X211490736Y-53774294D02*
X211485730Y-53756023D01*
X211271696Y-53332888D02*
X211249696Y-53342368D01*
X211487869Y-53419164D02*
X211516106Y-53309134D01*
X211485730Y-53756023D02*
X211481370Y-53737653D01*
X211470017Y-53663361D02*
X211467728Y-53625860D01*
X211551523Y-54596690D02*
X211570205Y-54562768D01*
X211628290Y-54376572D02*
X211630857Y-54355557D01*
X211368244Y-54794764D02*
X211399234Y-54771348D01*
X211530732Y-54629394D02*
X211551523Y-54596690D01*
X211606913Y-54473254D02*
X211612425Y-54454639D01*
X211530623Y-53866824D02*
X211502764Y-53810498D01*
X211293958Y-53324050D02*
X211271696Y-53332888D01*
X211456875Y-54719257D02*
X211483291Y-54690772D01*
X211600772Y-54491648D02*
X211606913Y-54473254D01*
X211285547Y-54804920D02*
X211302509Y-54835868D01*
X211339200Y-53308342D02*
X211316465Y-53315865D01*
X211474514Y-53700651D02*
X211470017Y-53663361D01*
X211428817Y-54746147D02*
X211456875Y-54719257D01*
X211455706Y-53281065D02*
X211432084Y-53285106D01*
X211481370Y-53737653D02*
X211474514Y-53700651D01*
X211189726Y-53783532D02*
X211215358Y-54510195D01*
X211302509Y-54835868D02*
X211335963Y-54816302D01*
X211263185Y-54751069D02*
X211285547Y-54804920D01*
X211612425Y-54454639D02*
X211617292Y-54435813D01*
X211632751Y-54334540D02*
X211633992Y-54313528D01*
X211503315Y-53275180D02*
X211479456Y-53277752D01*
X211516106Y-53309134D02*
X211527268Y-53273358D01*
X211467728Y-53625860D02*
X211467497Y-53588222D01*
X211594016Y-54509808D02*
X211600772Y-54491648D01*
X211215358Y-54510195D02*
X211263185Y-54751069D01*
X211399234Y-54771348D02*
X211428817Y-54746147D01*
X211617292Y-54435813D02*
X211621500Y-54416789D01*
X211408605Y-53289866D02*
X211385287Y-53295332D01*
X211502764Y-53810498D02*
X211496408Y-53792455D01*
X211479456Y-53277752D02*
X211455706Y-53281065D01*
X211496408Y-53792455D02*
X211490736Y-53774294D01*
X211585798Y-54003763D02*
X211564078Y-53944228D01*
X211578718Y-54545380D02*
X211586660Y-54527722D01*
X211507950Y-54660786D02*
X211530732Y-54629394D01*
X211335963Y-54816302D02*
X211368244Y-54794764D01*
X211628658Y-54187962D02*
X211622427Y-54146467D01*
X211469172Y-53550522D02*
X211474929Y-53494019D01*
X211633992Y-54313528D02*
X211634578Y-54271549D01*
X211614199Y-54105247D02*
X211604112Y-54064356D01*
X211634578Y-54271549D02*
X211632754Y-54229675D01*
X211630857Y-54355557D02*
X211632751Y-54334540D01*
X211362146Y-53301495D02*
X211339200Y-53308342D01*
X211385287Y-53295332D02*
X211362146Y-53301495D01*
X211175657Y-53885400D02*
X211189726Y-53783532D01*
X211604112Y-54064356D02*
X211585798Y-54003763D01*
X211622427Y-54146467D02*
X211614199Y-54105247D01*
X211564078Y-53944228D02*
X211530623Y-53866824D01*
X211316465Y-53315865D02*
X211293958Y-53324050D01*
X211621500Y-54416789D02*
X211625035Y-54397579D01*
X211527268Y-53273358D02*
X211503315Y-53275180D01*
X211474929Y-53494019D02*
X211487869Y-53419164D01*
X211284755Y-55157829D02*
X211245687Y-55045344D01*
X211361854Y-55318884D02*
X211324597Y-55248643D01*
X211596014Y-55316783D02*
X211361854Y-55318884D01*
X211607505Y-55315438D02*
X211596014Y-55316783D01*
X212326135Y-53872456D02*
X212325759Y-53914194D01*
X211801838Y-55092564D02*
X211801484Y-55104127D01*
X211798846Y-55126960D02*
X211793759Y-55149266D01*
X211801768Y-55074378D02*
X211801838Y-55092564D01*
X211803324Y-55038119D02*
X211801768Y-55074378D01*
X211908037Y-54732662D02*
X211889175Y-54763675D01*
X211973788Y-54646160D02*
X211950413Y-54673816D01*
X212323365Y-53955828D02*
X212318880Y-53997271D01*
X212285664Y-54139592D02*
X212250068Y-54229904D01*
X211618850Y-55313453D02*
X211607505Y-55315438D01*
X211662397Y-55299536D02*
X211641027Y-55307650D01*
X211630030Y-55310851D02*
X211618850Y-55313453D01*
X211682810Y-55289273D02*
X211662397Y-55299536D01*
X211702116Y-55277023D02*
X211682810Y-55289273D01*
X211786373Y-55170882D02*
X211776836Y-55191647D01*
X211950413Y-54673816D02*
X211928473Y-54702680D01*
X211800481Y-55115600D02*
X211798846Y-55126960D01*
X211830866Y-54896234D02*
X211820922Y-54931054D01*
X212060655Y-54545244D02*
X211998528Y-54619803D01*
X212250068Y-54229904D02*
X212199030Y-54334518D01*
X212199030Y-54334518D02*
X212139606Y-54434645D01*
X211807081Y-55002086D02*
X211803324Y-55038119D01*
X212292151Y-54119606D02*
X212285664Y-54139592D01*
X212325759Y-53914194D02*
X212323365Y-53955828D01*
X211856454Y-54828431D02*
X211842733Y-54861996D01*
X211641027Y-55307650D02*
X211630030Y-55310851D01*
X211751907Y-55229974D02*
X211736814Y-55247211D01*
X211820922Y-54931054D02*
X211812970Y-54966368D01*
X211889175Y-54763675D02*
X211871958Y-54795627D01*
X212321126Y-53789004D02*
X212324566Y-53830697D01*
X211736814Y-55247211D02*
X211720167Y-55262948D01*
X211324597Y-55248643D02*
X211284755Y-55157829D01*
X212303347Y-54079245D02*
X212292151Y-54119606D01*
X211842733Y-54861996D02*
X211830866Y-54896234D01*
X211161160Y-54021871D02*
X211175657Y-53885400D01*
X211151856Y-54158843D02*
X211161160Y-54021871D01*
X211148095Y-54296054D02*
X211151856Y-54158843D01*
X212312232Y-54038439D02*
X212303347Y-54079245D01*
X211928473Y-54702680D02*
X211908037Y-54732662D01*
X211149121Y-54398963D02*
X211148095Y-54296054D01*
X211793759Y-55149266D02*
X211786373Y-55170882D01*
X211998528Y-54619803D02*
X211973788Y-54646160D01*
X212139606Y-54434645D02*
X212060655Y-54545244D01*
X211153610Y-54501751D02*
X211149121Y-54398963D01*
X211720167Y-55262948D02*
X211702116Y-55277023D01*
X211161708Y-54604308D02*
X211153610Y-54501751D01*
X211183625Y-54774423D02*
X211173562Y-54706523D01*
X211173562Y-54706523D02*
X211161708Y-54604308D01*
X211765298Y-55211398D02*
X211751907Y-55229974D01*
X211801484Y-55104127D02*
X211800481Y-55115600D01*
X211194135Y-54832959D02*
X211183625Y-54774423D01*
X211245687Y-55045344D02*
X211194135Y-54832959D01*
X211871958Y-54795627D02*
X211856454Y-54828431D01*
X212318880Y-53997271D02*
X212312232Y-54038439D01*
X211812970Y-54966368D02*
X211807081Y-55002086D01*
X212312618Y-53726772D02*
X212321126Y-53789004D01*
X211776836Y-55191647D02*
X211765298Y-55211398D01*
X212300309Y-53665167D02*
X212312618Y-53726772D01*
X212324566Y-53830697D02*
X212326135Y-53872456D01*
X212284449Y-53604476D02*
X212300309Y-53665167D01*
X211301259Y-52830377D02*
X211328000Y-52832000D01*
X211194156Y-52830487D02*
X211220920Y-52829466D01*
X212233045Y-53463774D02*
X212244560Y-53490521D01*
X212220780Y-53437373D02*
X212233045Y-53463774D01*
X211538847Y-52868447D02*
X211564571Y-52875910D01*
X212207780Y-53411331D02*
X212220780Y-53437373D01*
X212148734Y-53311070D02*
X212164523Y-53335519D01*
X212132285Y-53287057D02*
X212148734Y-53311070D01*
X211934789Y-53074295D02*
X211957015Y-53093103D01*
X211740396Y-52946877D02*
X211766168Y-52960421D01*
X211381323Y-52837210D02*
X211407873Y-52840796D01*
X211615419Y-52892753D02*
X211640509Y-52902130D01*
X211008708Y-52856362D02*
X211034882Y-52850646D01*
X211247703Y-52829109D02*
X211274488Y-52829413D01*
X211486878Y-52855449D02*
X211512943Y-52861626D01*
X212194061Y-53385665D02*
X212207780Y-53411331D01*
X211841078Y-53005261D02*
X211865197Y-53021559D01*
X211512943Y-52861626D02*
X211538847Y-52868447D01*
X212179637Y-53360389D02*
X212194061Y-53385665D01*
X211816524Y-52989628D02*
X211841078Y-53005261D01*
X211354693Y-52834278D02*
X211381323Y-52837210D01*
X211791549Y-52974677D02*
X211816524Y-52989628D01*
X211766168Y-52960421D02*
X211791549Y-52974677D01*
X211640509Y-52902130D02*
X211665355Y-52912141D01*
X211434326Y-52845032D02*
X211460667Y-52849917D01*
X211034882Y-52850646D02*
X211061189Y-52845606D01*
X211167426Y-52832173D02*
X211194156Y-52830487D01*
X211061189Y-52845606D02*
X211087613Y-52841241D01*
X212164523Y-53335519D02*
X212179637Y-53360389D01*
X212115192Y-53263496D02*
X212132285Y-53287057D01*
X212097468Y-53240402D02*
X212115192Y-53263496D01*
X211714248Y-52934060D02*
X211740396Y-52946877D01*
X211220920Y-52829466D02*
X211247703Y-52829109D01*
X210982685Y-52862755D02*
X211008708Y-52856362D01*
X212079129Y-53217791D02*
X212097468Y-53240402D01*
X211999921Y-53132472D02*
X212020571Y-53153002D01*
X211978731Y-53112500D02*
X211999921Y-53132472D01*
X211865197Y-53021559D02*
X211888865Y-53038508D01*
X211460667Y-52849917D02*
X211486878Y-52855449D01*
X211689940Y-52922785D02*
X211714248Y-52934060D01*
X210956828Y-52869829D02*
X210982685Y-52862755D01*
X211957015Y-53093103D02*
X211978731Y-53112500D01*
X211114139Y-52837549D02*
X211140748Y-52834527D01*
X211087613Y-52841241D02*
X211114139Y-52837549D01*
X211912067Y-53056092D02*
X211934789Y-53074295D01*
X212060190Y-53195676D02*
X212079129Y-53217791D01*
X212040665Y-53174075D02*
X212060190Y-53195676D01*
X211665355Y-52912141D02*
X211689940Y-52922785D01*
X211274488Y-52829413D02*
X211301259Y-52830377D01*
X211140748Y-52834527D02*
X211167426Y-52832173D01*
X211407873Y-52840796D02*
X211434326Y-52845032D01*
X212020571Y-53153002D02*
X212040665Y-53174075D01*
X211564571Y-52875910D02*
X211590101Y-52884012D01*
X212265282Y-53544986D02*
X212284449Y-53604476D01*
X212255311Y-53517596D02*
X212265282Y-53544986D01*
X212244560Y-53490521D02*
X212255311Y-53517596D01*
X211888865Y-53038508D02*
X211912067Y-53056092D01*
X211590101Y-52884012D02*
X211615419Y-52892753D01*
X211328000Y-52832000D02*
X211354693Y-52834278D01*
D11*
X502101695Y-52354171D02*
X501768361Y-52354171D01*
X501768361Y-52877980D02*
X501768361Y-51877980D01*
X502244552Y-51877980D01*
X502768361Y-52877980D02*
X502673123Y-52830361D01*
X502625504Y-52782742D01*
X502577885Y-52687504D01*
X502577885Y-52401790D01*
X502625504Y-52306552D01*
X502673123Y-52258933D01*
X502768361Y-52211314D01*
X502911219Y-52211314D01*
X503006457Y-52258933D01*
X503054076Y-52306552D01*
X503101695Y-52401790D01*
X503101695Y-52687504D01*
X503054076Y-52782742D01*
X503006457Y-52830361D01*
X502911219Y-52877980D01*
X502768361Y-52877980D01*
X503530266Y-52877980D02*
X503530266Y-52211314D01*
X503530266Y-52401790D02*
X503577885Y-52306552D01*
X503625504Y-52258933D01*
X503720742Y-52211314D01*
X503815980Y-52211314D01*
X504911219Y-52877980D02*
X504911219Y-52211314D01*
X504911219Y-52401790D02*
X504958838Y-52306552D01*
X505006457Y-52258933D01*
X505101695Y-52211314D01*
X505196933Y-52211314D01*
X505911219Y-52830361D02*
X505815980Y-52877980D01*
X505625504Y-52877980D01*
X505530266Y-52830361D01*
X505482647Y-52735123D01*
X505482647Y-52354171D01*
X505530266Y-52258933D01*
X505625504Y-52211314D01*
X505815980Y-52211314D01*
X505911219Y-52258933D01*
X505958838Y-52354171D01*
X505958838Y-52449409D01*
X505482647Y-52544647D01*
X506815980Y-52830361D02*
X506720742Y-52877980D01*
X506530266Y-52877980D01*
X506435028Y-52830361D01*
X506387409Y-52782742D01*
X506339790Y-52687504D01*
X506339790Y-52401790D01*
X506387409Y-52306552D01*
X506435028Y-52258933D01*
X506530266Y-52211314D01*
X506720742Y-52211314D01*
X506815980Y-52258933D01*
X507101695Y-52211314D02*
X507482647Y-52211314D01*
X507244552Y-51877980D02*
X507244552Y-52735123D01*
X507292171Y-52830361D01*
X507387409Y-52877980D01*
X507482647Y-52877980D01*
X508244552Y-52877980D02*
X508244552Y-52354171D01*
X508196933Y-52258933D01*
X508101695Y-52211314D01*
X507911219Y-52211314D01*
X507815980Y-52258933D01*
X508244552Y-52830361D02*
X508149314Y-52877980D01*
X507911219Y-52877980D01*
X507815980Y-52830361D01*
X507768361Y-52735123D01*
X507768361Y-52639885D01*
X507815980Y-52544647D01*
X507911219Y-52497028D01*
X508149314Y-52497028D01*
X508244552Y-52449409D01*
X508863600Y-52877980D02*
X508768361Y-52830361D01*
X508720742Y-52735123D01*
X508720742Y-51877980D01*
X510435028Y-52211314D02*
X510435028Y-52877980D01*
X510006457Y-52211314D02*
X510006457Y-52735123D01*
X510054076Y-52830361D01*
X510149314Y-52877980D01*
X510292171Y-52877980D01*
X510387409Y-52830361D01*
X510435028Y-52782742D01*
X510863600Y-52830361D02*
X510958838Y-52877980D01*
X511149314Y-52877980D01*
X511244552Y-52830361D01*
X511292171Y-52735123D01*
X511292171Y-52687504D01*
X511244552Y-52592266D01*
X511149314Y-52544647D01*
X511006457Y-52544647D01*
X510911219Y-52497028D01*
X510863600Y-52401790D01*
X510863600Y-52354171D01*
X510911219Y-52258933D01*
X511006457Y-52211314D01*
X511149314Y-52211314D01*
X511244552Y-52258933D01*
X512101695Y-52830361D02*
X512006457Y-52877980D01*
X511815980Y-52877980D01*
X511720742Y-52830361D01*
X511673123Y-52735123D01*
X511673123Y-52354171D01*
X511720742Y-52258933D01*
X511815980Y-52211314D01*
X512006457Y-52211314D01*
X512101695Y-52258933D01*
X512149314Y-52354171D01*
X512149314Y-52449409D01*
X511673123Y-52544647D01*
X513482647Y-52877980D02*
X513387409Y-52830361D01*
X513339790Y-52782742D01*
X513292171Y-52687504D01*
X513292171Y-52401790D01*
X513339790Y-52306552D01*
X513387409Y-52258933D01*
X513482647Y-52211314D01*
X513625504Y-52211314D01*
X513720742Y-52258933D01*
X513768361Y-52306552D01*
X513815980Y-52401790D01*
X513815980Y-52687504D01*
X513768361Y-52782742D01*
X513720742Y-52830361D01*
X513625504Y-52877980D01*
X513482647Y-52877980D01*
X514244552Y-52211314D02*
X514244552Y-52877980D01*
X514244552Y-52306552D02*
X514292171Y-52258933D01*
X514387409Y-52211314D01*
X514530266Y-52211314D01*
X514625504Y-52258933D01*
X514673123Y-52354171D01*
X514673123Y-52877980D01*
X515292171Y-52877980D02*
X515196933Y-52830361D01*
X515149314Y-52735123D01*
X515149314Y-51877980D01*
X515577885Y-52211314D02*
X515815980Y-52877980D01*
X516054076Y-52211314D02*
X515815980Y-52877980D01*
X515720742Y-53116076D01*
X515673123Y-53163695D01*
X515577885Y-53211314D01*
D12*
%TO.C,REF\u002A\u002A*%
X462170160Y-82161840D02*
X462170160Y-92061840D01*
X457330160Y-82161840D02*
X457330160Y-92061840D01*
X462170160Y-82161840D02*
X460550160Y-82161840D01*
X458950160Y-82161840D02*
X457330160Y-82161840D01*
X462170160Y-92061840D02*
X460550160Y-92061840D01*
X458950160Y-92061840D02*
X457330160Y-92061840D01*
X462410160Y-81921840D02*
X462410160Y-83305840D01*
X462410160Y-81921840D02*
X461027160Y-81921840D01*
X460385160Y-85081840D02*
X459115160Y-85081840D01*
X459115160Y-85081840D02*
X459115160Y-89141840D01*
X459115160Y-89141840D02*
X460385160Y-89141840D01*
X460385160Y-89141840D02*
X460385160Y-85081840D01*
X460265160Y-85081840D02*
X460265160Y-86435173D01*
X460145160Y-85081840D02*
X460145160Y-86435173D01*
X460025160Y-85081840D02*
X460025160Y-86435173D01*
X459905160Y-85081840D02*
X459905160Y-86435173D01*
X459785160Y-85081840D02*
X459785160Y-86435173D01*
X459665160Y-85081840D02*
X459665160Y-86435173D01*
X459545160Y-85081840D02*
X459545160Y-86435173D01*
X459425160Y-85081840D02*
X459425160Y-86435173D01*
X459305160Y-85081840D02*
X459305160Y-86435173D01*
X459185160Y-85081840D02*
X459185160Y-86435173D01*
X460385160Y-86435173D02*
X459115160Y-86435173D01*
D11*
X463622540Y-88445173D02*
X463146350Y-88778506D01*
X463622540Y-89016601D02*
X462622540Y-89016601D01*
X462622540Y-88635649D01*
X462670160Y-88540411D01*
X462717779Y-88492792D01*
X462813017Y-88445173D01*
X462955874Y-88445173D01*
X463051112Y-88492792D01*
X463098731Y-88540411D01*
X463146350Y-88635649D01*
X463146350Y-89016601D01*
X463098731Y-88016601D02*
X463098731Y-87683268D01*
X463622540Y-87540411D02*
X463622540Y-88016601D01*
X462622540Y-88016601D01*
X462622540Y-87540411D01*
X463098731Y-86778506D02*
X463098731Y-87111840D01*
X463622540Y-87111840D02*
X462622540Y-87111840D01*
X462622540Y-86635649D01*
X462622540Y-86111840D02*
X462860636Y-86111840D01*
X462765398Y-86349935D02*
X462860636Y-86111840D01*
X462765398Y-85873744D01*
X463051112Y-86254697D02*
X462860636Y-86111840D01*
X463051112Y-85968982D01*
X462622540Y-85349935D02*
X462860636Y-85349935D01*
X462765398Y-85588030D02*
X462860636Y-85349935D01*
X462765398Y-85111840D01*
X463051112Y-85492792D02*
X462860636Y-85349935D01*
X463051112Y-85207078D01*
X198534186Y-54601260D02*
X198200853Y-54125070D01*
X197962758Y-54601260D02*
X197962758Y-53601260D01*
X198343710Y-53601260D01*
X198438948Y-53648880D01*
X198486567Y-53696499D01*
X198534186Y-53791737D01*
X198534186Y-53934594D01*
X198486567Y-54029832D01*
X198438948Y-54077451D01*
X198343710Y-54125070D01*
X197962758Y-54125070D01*
X198962758Y-54077451D02*
X199296091Y-54077451D01*
X199438948Y-54601260D02*
X198962758Y-54601260D01*
X198962758Y-53601260D01*
X199438948Y-53601260D01*
X200200853Y-54077451D02*
X199867520Y-54077451D01*
X199867520Y-54601260D02*
X199867520Y-53601260D01*
X200343710Y-53601260D01*
X200867520Y-53601260D02*
X200867520Y-53839356D01*
X200629424Y-53744118D02*
X200867520Y-53839356D01*
X201105615Y-53744118D01*
X200724662Y-54029832D02*
X200867520Y-53839356D01*
X201010377Y-54029832D01*
X201629424Y-53601260D02*
X201629424Y-53839356D01*
X201391329Y-53744118D02*
X201629424Y-53839356D01*
X201867520Y-53744118D01*
X201486567Y-54029832D02*
X201629424Y-53839356D01*
X201772281Y-54029832D01*
X198534186Y-152365860D02*
X198200853Y-151889670D01*
X197962758Y-152365860D02*
X197962758Y-151365860D01*
X198343710Y-151365860D01*
X198438948Y-151413480D01*
X198486567Y-151461099D01*
X198534186Y-151556337D01*
X198534186Y-151699194D01*
X198486567Y-151794432D01*
X198438948Y-151842051D01*
X198343710Y-151889670D01*
X197962758Y-151889670D01*
X198962758Y-151842051D02*
X199296091Y-151842051D01*
X199438948Y-152365860D02*
X198962758Y-152365860D01*
X198962758Y-151365860D01*
X199438948Y-151365860D01*
X200200853Y-151842051D02*
X199867520Y-151842051D01*
X199867520Y-152365860D02*
X199867520Y-151365860D01*
X200343710Y-151365860D01*
X200867520Y-151365860D02*
X200867520Y-151603956D01*
X200629424Y-151508718D02*
X200867520Y-151603956D01*
X201105615Y-151508718D01*
X200724662Y-151794432D02*
X200867520Y-151603956D01*
X201010377Y-151794432D01*
X201629424Y-151365860D02*
X201629424Y-151603956D01*
X201391329Y-151508718D02*
X201629424Y-151603956D01*
X201867520Y-151508718D01*
X201486567Y-151794432D02*
X201629424Y-151603956D01*
X201772281Y-151794432D01*
X327434106Y-112604700D02*
X327100773Y-112128510D01*
X326862678Y-112604700D02*
X326862678Y-111604700D01*
X327243630Y-111604700D01*
X327338868Y-111652320D01*
X327386487Y-111699939D01*
X327434106Y-111795177D01*
X327434106Y-111938034D01*
X327386487Y-112033272D01*
X327338868Y-112080891D01*
X327243630Y-112128510D01*
X326862678Y-112128510D01*
X327862678Y-112080891D02*
X328196011Y-112080891D01*
X328338868Y-112604700D02*
X327862678Y-112604700D01*
X327862678Y-111604700D01*
X328338868Y-111604700D01*
X329100773Y-112080891D02*
X328767440Y-112080891D01*
X328767440Y-112604700D02*
X328767440Y-111604700D01*
X329243630Y-111604700D01*
X329767440Y-111604700D02*
X329767440Y-111842796D01*
X329529344Y-111747558D02*
X329767440Y-111842796D01*
X330005535Y-111747558D01*
X329624582Y-112033272D02*
X329767440Y-111842796D01*
X329910297Y-112033272D01*
X330529344Y-111604700D02*
X330529344Y-111842796D01*
X330291249Y-111747558D02*
X330529344Y-111842796D01*
X330767440Y-111747558D01*
X330386487Y-112033272D02*
X330529344Y-111842796D01*
X330672201Y-112033272D01*
X531990466Y-152259180D02*
X531657133Y-151782990D01*
X531419038Y-152259180D02*
X531419038Y-151259180D01*
X531799990Y-151259180D01*
X531895228Y-151306800D01*
X531942847Y-151354419D01*
X531990466Y-151449657D01*
X531990466Y-151592514D01*
X531942847Y-151687752D01*
X531895228Y-151735371D01*
X531799990Y-151782990D01*
X531419038Y-151782990D01*
X532419038Y-151735371D02*
X532752371Y-151735371D01*
X532895228Y-152259180D02*
X532419038Y-152259180D01*
X532419038Y-151259180D01*
X532895228Y-151259180D01*
X533657133Y-151735371D02*
X533323800Y-151735371D01*
X533323800Y-152259180D02*
X533323800Y-151259180D01*
X533799990Y-151259180D01*
X534323800Y-151259180D02*
X534323800Y-151497276D01*
X534085704Y-151402038D02*
X534323800Y-151497276D01*
X534561895Y-151402038D01*
X534180942Y-151687752D02*
X534323800Y-151497276D01*
X534466657Y-151687752D01*
X535085704Y-151259180D02*
X535085704Y-151497276D01*
X534847609Y-151402038D02*
X535085704Y-151497276D01*
X535323800Y-151402038D01*
X534942847Y-151687752D02*
X535085704Y-151497276D01*
X535228561Y-151687752D01*
X486636226Y-96308060D02*
X486302893Y-95831870D01*
X486064798Y-96308060D02*
X486064798Y-95308060D01*
X486445750Y-95308060D01*
X486540988Y-95355680D01*
X486588607Y-95403299D01*
X486636226Y-95498537D01*
X486636226Y-95641394D01*
X486588607Y-95736632D01*
X486540988Y-95784251D01*
X486445750Y-95831870D01*
X486064798Y-95831870D01*
X487064798Y-95784251D02*
X487398131Y-95784251D01*
X487540988Y-96308060D02*
X487064798Y-96308060D01*
X487064798Y-95308060D01*
X487540988Y-95308060D01*
X488302893Y-95784251D02*
X487969560Y-95784251D01*
X487969560Y-96308060D02*
X487969560Y-95308060D01*
X488445750Y-95308060D01*
X488969560Y-95308060D02*
X488969560Y-95546156D01*
X488731464Y-95450918D02*
X488969560Y-95546156D01*
X489207655Y-95450918D01*
X488826702Y-95736632D02*
X488969560Y-95546156D01*
X489112417Y-95736632D01*
X489731464Y-95308060D02*
X489731464Y-95546156D01*
X489493369Y-95450918D02*
X489731464Y-95546156D01*
X489969560Y-95450918D01*
X489588607Y-95736632D02*
X489731464Y-95546156D01*
X489874321Y-95736632D01*
%TD*%
M02*
