M48
;DRILL file {KiCad (5.0.1)-3} date 10/20/2018 11:17:55 PM
;FORMAT={-:-/ absolute / inch / decimal}
FMAT,2
INCH,TZ
T1C0.0157
T2C0.0236
T3C0.0276
T4C0.0354
%
G90
G05
M72
T1
X2.195Y-1.995
X2.2035Y-2.3204
X2.22Y-1.67
X2.2369Y-1.9228
X2.2546Y-1.5763
X2.3318Y-2.0624
X2.3335Y-2.2309
X2.3806Y-2.2771
X2.3865Y-1.5428
X2.445Y-1.57
X2.485Y-2.3814
X2.5578Y-2.4739
X2.5873Y-1.5881
X2.5873Y-1.657
X2.5893Y-2.0035
X2.595Y-3.07
X2.5978Y-2.6228
X2.6257Y-2.6507
X2.645Y-1.995
X2.67Y-2.995
X2.6936Y-2.5822
X3.0046Y-2.6058
X3.02Y-2.22
X3.0224Y-1.97
X3.22Y-2.22
X3.2251Y-1.97
X3.2271Y-2.6117
X3.2881Y-1.4365
X3.42Y-2.22
X3.4239Y-2.5861
X3.4574Y-1.9661
T2
X2.71Y-1.59
X2.71Y-1.6491
X2.0609Y-1.62
X2.12Y-1.62
T3
X2.045Y-2.24
X2.3225Y-2.5454
X2.5225Y-2.5454
X2.47Y-1.42
X2.045Y-2.12
X2.32Y-1.92
X2.52Y-1.92
X2.045Y-2.395
X2.045Y-2.01
X2.02Y-1.42
X2.32Y-1.42
T4
X2.82Y-2.12
X2.92Y-2.12
X3.42Y-2.72
X3.52Y-2.72
X3.02Y-2.72
X3.12Y-2.72
X2.82Y-2.42
X2.92Y-2.42
X3.22Y-2.42
X3.32Y-2.42
X3.02Y-1.82
X3.12Y-1.82
X3.22Y-2.72
X3.32Y-2.72
X3.02Y-2.12
X3.12Y-2.12
X3.42Y-2.12
X3.52Y-2.12
X3.02Y-2.42
X3.12Y-2.42
X3.42Y-1.82
X3.52Y-1.82
X3.22Y-1.82
X3.32Y-1.82
X2.82Y-1.82
X2.92Y-1.82
X2.82Y-2.72
X2.92Y-2.72
X3.42Y-2.42
X3.52Y-2.42
X3.22Y-2.12
X3.32Y-2.12
T0
M30
