G04 #@! TF.GenerationSoftware,KiCad,Pcbnew,(5.0.1)-3*
G04 #@! TF.CreationDate,2018-10-20T23:17:48-07:00*
G04 #@! TF.ProjectId,ODKB_Board,4F444B425F426F6172642E6B69636164,rev?*
G04 #@! TF.SameCoordinates,Original*
G04 #@! TF.FileFunction,Soldermask,Top*
G04 #@! TF.FilePolarity,Negative*
%FSLAX46Y46*%
G04 Gerber Fmt 4.6, Leading zero omitted, Abs format (unit mm)*
G04 Created by KiCad (PCBNEW (5.0.1)-3) date 10/20/2018 11:17:48 PM*
%MOMM*%
%LPD*%
G01*
G04 APERTURE LIST*
%ADD10R,1.200000X0.400000*%
%ADD11C,1.400000*%
%ADD12C,1.200000*%
%ADD13R,1.200000X1.200000*%
%ADD14R,1.800000X1.800000*%
%ADD15C,1.800000*%
%ADD16O,1.400000X1.400000*%
%ADD17R,1.550000X0.600000*%
%ADD18R,0.400000X1.200000*%
G04 APERTURE END LIST*
D10*
G04 #@! TO.C,U2*
X65118000Y-51513000D03*
X65118000Y-52163000D03*
X65118000Y-52813000D03*
X65118000Y-53463000D03*
X65118000Y-54113000D03*
X65118000Y-54763000D03*
X65118000Y-55413000D03*
X65118000Y-56063000D03*
X65118000Y-56713000D03*
X65118000Y-57363000D03*
X65118000Y-58013000D03*
X65118000Y-58663000D03*
X65118000Y-59313000D03*
X65118000Y-59963000D03*
X65118000Y-60613000D03*
X65118000Y-61263000D03*
X57818000Y-61263000D03*
X57818000Y-60613000D03*
X57818000Y-59963000D03*
X57818000Y-59313000D03*
X57818000Y-58663000D03*
X57818000Y-58013000D03*
X57818000Y-57363000D03*
X57818000Y-56713000D03*
X57818000Y-56063000D03*
X57818000Y-55413000D03*
X57818000Y-54763000D03*
X57818000Y-54113000D03*
X57818000Y-53463000D03*
X57818000Y-52813000D03*
X57818000Y-52163000D03*
X57818000Y-51513000D03*
G04 #@! TD*
D11*
G04 #@! TO.C,J2*
X51308000Y-36068000D03*
G04 #@! TD*
G04 #@! TO.C,J7*
X51943000Y-60833000D03*
G04 #@! TD*
G04 #@! TO.C,J6*
X51943000Y-56896000D03*
G04 #@! TD*
G04 #@! TO.C,J5*
X51943000Y-53848000D03*
G04 #@! TD*
G04 #@! TO.C,J4*
X51943000Y-51054000D03*
G04 #@! TD*
G04 #@! TO.C,J3*
X58928000Y-36068000D03*
G04 #@! TD*
G04 #@! TO.C,J1*
X62738000Y-36068000D03*
G04 #@! TD*
D12*
G04 #@! TO.C,C1*
X53848000Y-41148000D03*
D13*
X52348000Y-41148000D03*
G04 #@! TD*
G04 #@! TO.C,C2*
X68834000Y-40386000D03*
D12*
X68834000Y-41886000D03*
G04 #@! TD*
D14*
G04 #@! TO.C,D1*
X71628000Y-46228000D03*
D15*
X74168000Y-46228000D03*
G04 #@! TD*
G04 #@! TO.C,D2*
X79248000Y-46228000D03*
D14*
X76708000Y-46228000D03*
G04 #@! TD*
D15*
G04 #@! TO.C,D3*
X84328000Y-46228000D03*
D14*
X81788000Y-46228000D03*
G04 #@! TD*
D15*
G04 #@! TO.C,D4*
X89408000Y-46228000D03*
D14*
X86868000Y-46228000D03*
G04 #@! TD*
D15*
G04 #@! TO.C,D5*
X74168000Y-53848000D03*
D14*
X71628000Y-53848000D03*
G04 #@! TD*
G04 #@! TO.C,D6*
X76708000Y-53848000D03*
D15*
X79248000Y-53848000D03*
G04 #@! TD*
D14*
G04 #@! TO.C,D7*
X81788000Y-53848000D03*
D15*
X84328000Y-53848000D03*
G04 #@! TD*
D14*
G04 #@! TO.C,D8*
X86868000Y-53848000D03*
D15*
X89408000Y-53848000D03*
G04 #@! TD*
D14*
G04 #@! TO.C,D9*
X71628000Y-61468000D03*
D15*
X74168000Y-61468000D03*
G04 #@! TD*
G04 #@! TO.C,D10*
X79248000Y-61468000D03*
D14*
X76708000Y-61468000D03*
G04 #@! TD*
D15*
G04 #@! TO.C,D11*
X84328000Y-61468000D03*
D14*
X81788000Y-61468000D03*
G04 #@! TD*
D15*
G04 #@! TO.C,D12*
X89408000Y-61468000D03*
D14*
X86868000Y-61468000D03*
G04 #@! TD*
D15*
G04 #@! TO.C,D13*
X74168000Y-69088000D03*
D14*
X71628000Y-69088000D03*
G04 #@! TD*
G04 #@! TO.C,D14*
X76708000Y-69088000D03*
D15*
X79248000Y-69088000D03*
G04 #@! TD*
D14*
G04 #@! TO.C,D15*
X81788000Y-69088000D03*
D15*
X84328000Y-69088000D03*
G04 #@! TD*
D14*
G04 #@! TO.C,D16*
X86868000Y-69088000D03*
D15*
X89408000Y-69088000D03*
G04 #@! TD*
D16*
G04 #@! TO.C,R1*
X58928000Y-48768000D03*
D11*
X64008000Y-48768000D03*
G04 #@! TD*
G04 #@! TO.C,R2*
X64071005Y-64653839D03*
D16*
X58991005Y-64653839D03*
G04 #@! TD*
D17*
G04 #@! TO.C,U1*
X64168000Y-39243000D03*
X64168000Y-40513000D03*
X64168000Y-41783000D03*
X64168000Y-43053000D03*
X58768000Y-43053000D03*
X58768000Y-41783000D03*
X58768000Y-40513000D03*
X58768000Y-39243000D03*
G04 #@! TD*
D18*
G04 #@! TO.C,U3*
X66406005Y-68623839D03*
X65756005Y-68623839D03*
X65106005Y-68623839D03*
X64456005Y-68623839D03*
X63806005Y-68623839D03*
X63156005Y-68623839D03*
X62506005Y-68623839D03*
X61856005Y-68623839D03*
X61206005Y-68623839D03*
X60556005Y-68623839D03*
X59906005Y-68623839D03*
X59256005Y-68623839D03*
X58606005Y-68623839D03*
X57956005Y-68623839D03*
X57306005Y-68623839D03*
X56656005Y-68623839D03*
X56656005Y-75923839D03*
X57306005Y-75923839D03*
X57956005Y-75923839D03*
X58606005Y-75923839D03*
X59256005Y-75923839D03*
X59906005Y-75923839D03*
X60556005Y-75923839D03*
X61206005Y-75923839D03*
X61856005Y-75923839D03*
X62506005Y-75923839D03*
X63156005Y-75923839D03*
X63806005Y-75923839D03*
X64456005Y-75923839D03*
X65106005Y-75923839D03*
X65756005Y-75923839D03*
X66406005Y-75923839D03*
G04 #@! TD*
M02*
