G04 #@! TF.GenerationSoftware,KiCad,Pcbnew,(5.0.1)-3*
G04 #@! TF.CreationDate,2018-10-20T23:17:48-07:00*
G04 #@! TF.ProjectId,ODKB_Board,4F444B425F426F6172642E6B69636164,rev?*
G04 #@! TF.SameCoordinates,Original*
G04 #@! TF.FileFunction,Legend,Top*
G04 #@! TF.FilePolarity,Positive*
%FSLAX46Y46*%
G04 Gerber Fmt 4.6, Leading zero omitted, Abs format (unit mm)*
G04 Created by KiCad (PCBNEW (5.0.1)-3) date 10/20/2018 11:17:48 PM*
%MOMM*%
%LPD*%
G01*
G04 APERTURE LIST*
%ADD10C,0.300000*%
%ADD11C,0.025400*%
%ADD12C,0.150000*%
%ADD13C,0.120000*%
G04 APERTURE END LIST*
D10*
X56896000Y-49978571D02*
X56896000Y-50335714D01*
X56538857Y-50192857D02*
X56896000Y-50335714D01*
X57253142Y-50192857D01*
X56681714Y-50621428D02*
X56896000Y-50335714D01*
X57110285Y-50621428D01*
X67818000Y-68012571D02*
X67818000Y-68369714D01*
X67460857Y-68226857D02*
X67818000Y-68369714D01*
X68175142Y-68226857D01*
X67603714Y-68655428D02*
X67818000Y-68369714D01*
X68032285Y-68655428D01*
X65240500Y-34426571D02*
X65428000Y-32926571D01*
X65999428Y-32926571D01*
X66133357Y-32998000D01*
X66195857Y-33069428D01*
X66249428Y-33212285D01*
X66222642Y-33426571D01*
X66133357Y-33569428D01*
X66053000Y-33640857D01*
X65901214Y-33712285D01*
X65329785Y-33712285D01*
X66838714Y-33640857D02*
X67338714Y-33640857D01*
X67454785Y-34426571D02*
X66740500Y-34426571D01*
X66928000Y-32926571D01*
X67642285Y-32926571D01*
X68070857Y-32926571D02*
X68928000Y-32926571D01*
X68311928Y-34426571D02*
X68499428Y-32926571D01*
X69338714Y-33640857D02*
X69838714Y-33640857D01*
X69954785Y-34426571D02*
X69240500Y-34426571D01*
X69428000Y-32926571D01*
X70142285Y-32926571D01*
X71454785Y-34426571D02*
X71044071Y-33712285D01*
X70597642Y-34426571D02*
X70785142Y-32926571D01*
X71356571Y-32926571D01*
X71490500Y-32998000D01*
X71553000Y-33069428D01*
X71606571Y-33212285D01*
X71579785Y-33426571D01*
X71490500Y-33569428D01*
X71410142Y-33640857D01*
X71258357Y-33712285D01*
X70686928Y-33712285D01*
X72097642Y-34426571D02*
X72285142Y-32926571D01*
X72811928Y-34426571D02*
X72999428Y-32926571D01*
X73669071Y-34426571D01*
X73856571Y-32926571D01*
X74856571Y-32926571D02*
X75142285Y-32926571D01*
X75276214Y-32998000D01*
X75401214Y-33140857D01*
X75436928Y-33426571D01*
X75374428Y-33926571D01*
X75267285Y-34212285D01*
X75106571Y-34355142D01*
X74954785Y-34426571D01*
X74669071Y-34426571D01*
X74535142Y-34355142D01*
X74410142Y-34212285D01*
X74374428Y-33926571D01*
X74436928Y-33426571D01*
X74544071Y-33140857D01*
X74704785Y-32998000D01*
X74856571Y-32926571D01*
X77079785Y-33998000D02*
X77794071Y-33998000D01*
X76883357Y-34426571D02*
X77570857Y-32926571D01*
X77883357Y-34426571D01*
X78570857Y-32926571D02*
X78419071Y-34140857D01*
X78472642Y-34283714D01*
X78535142Y-34355142D01*
X78669071Y-34426571D01*
X78954785Y-34426571D01*
X79106571Y-34355142D01*
X79186928Y-34283714D01*
X79276214Y-34140857D01*
X79428000Y-32926571D01*
X79928000Y-32926571D02*
X80785142Y-32926571D01*
X80169071Y-34426571D02*
X80356571Y-32926571D01*
X81097642Y-34426571D02*
X81285142Y-32926571D01*
X81749428Y-34355142D02*
X81954785Y-34426571D01*
X82311928Y-34426571D01*
X82463714Y-34355142D01*
X82544071Y-34283714D01*
X82633357Y-34140857D01*
X82651214Y-33998000D01*
X82597642Y-33855142D01*
X82535142Y-33783714D01*
X82401214Y-33712285D01*
X82124428Y-33640857D01*
X81990500Y-33569428D01*
X81928000Y-33498000D01*
X81874428Y-33355142D01*
X81892285Y-33212285D01*
X81981571Y-33069428D01*
X82061928Y-32998000D01*
X82213714Y-32926571D01*
X82570857Y-32926571D01*
X82776214Y-32998000D01*
X83240500Y-34426571D02*
X83428000Y-32926571D01*
X83794071Y-33998000D01*
X84428000Y-32926571D01*
X84240500Y-34426571D01*
X86097642Y-34426571D02*
X86285142Y-32926571D01*
X86811928Y-34426571D02*
X86999428Y-32926571D01*
X87669071Y-34426571D01*
X87856571Y-32926571D01*
X89258357Y-34283714D02*
X89178000Y-34355142D01*
X88954785Y-34426571D01*
X88811928Y-34426571D01*
X88606571Y-34355142D01*
X88481571Y-34212285D01*
X88428000Y-34069428D01*
X88392285Y-33783714D01*
X88419071Y-33569428D01*
X88526214Y-33283714D01*
X88615500Y-33140857D01*
X88776214Y-32998000D01*
X88999428Y-32926571D01*
X89142285Y-32926571D01*
X89347642Y-32998000D01*
X89410142Y-33069428D01*
X89901214Y-34283714D02*
X89963714Y-34355142D01*
X89883357Y-34426571D01*
X89820857Y-34355142D01*
X89901214Y-34283714D01*
X89883357Y-34426571D01*
D11*
X76908333Y-75753971D02*
X76908333Y-76007971D01*
X76908333Y-75766066D02*
X76932523Y-75753971D01*
X76980904Y-75753971D01*
X77005095Y-75766066D01*
X77017190Y-75778161D01*
X77029285Y-75802352D01*
X77029285Y-75874923D01*
X77017190Y-75899114D01*
X77005095Y-75911209D01*
X76980904Y-75923304D01*
X76932523Y-75923304D01*
X76908333Y-75911209D01*
X77138142Y-75923304D02*
X77138142Y-75753971D01*
X77138142Y-75802352D02*
X77150238Y-75778161D01*
X77162333Y-75766066D01*
X77186523Y-75753971D01*
X77210714Y-75753971D01*
X77331666Y-75923304D02*
X77307476Y-75911209D01*
X77295380Y-75899114D01*
X77283285Y-75874923D01*
X77283285Y-75802352D01*
X77295380Y-75778161D01*
X77307476Y-75766066D01*
X77331666Y-75753971D01*
X77367952Y-75753971D01*
X77392142Y-75766066D01*
X77404238Y-75778161D01*
X77416333Y-75802352D01*
X77416333Y-75874923D01*
X77404238Y-75899114D01*
X77392142Y-75911209D01*
X77367952Y-75923304D01*
X77331666Y-75923304D01*
X77525190Y-75753971D02*
X77525190Y-75971685D01*
X77513095Y-75995876D01*
X77488904Y-76007971D01*
X77476809Y-76007971D01*
X77525190Y-75669304D02*
X77513095Y-75681400D01*
X77525190Y-75693495D01*
X77537285Y-75681400D01*
X77525190Y-75669304D01*
X77525190Y-75693495D01*
X77742904Y-75911209D02*
X77718714Y-75923304D01*
X77670333Y-75923304D01*
X77646142Y-75911209D01*
X77634047Y-75887019D01*
X77634047Y-75790257D01*
X77646142Y-75766066D01*
X77670333Y-75753971D01*
X77718714Y-75753971D01*
X77742904Y-75766066D01*
X77755000Y-75790257D01*
X77755000Y-75814447D01*
X77634047Y-75838638D01*
X77972714Y-75911209D02*
X77948523Y-75923304D01*
X77900142Y-75923304D01*
X77875952Y-75911209D01*
X77863857Y-75899114D01*
X77851761Y-75874923D01*
X77851761Y-75802352D01*
X77863857Y-75778161D01*
X77875952Y-75766066D01*
X77900142Y-75753971D01*
X77948523Y-75753971D01*
X77972714Y-75766066D01*
X78045285Y-75753971D02*
X78142047Y-75753971D01*
X78081571Y-75669304D02*
X78081571Y-75887019D01*
X78093666Y-75911209D01*
X78117857Y-75923304D01*
X78142047Y-75923304D01*
X78468619Y-75669304D02*
X78517000Y-75669304D01*
X78541190Y-75681400D01*
X78565380Y-75705590D01*
X78577476Y-75753971D01*
X78577476Y-75838638D01*
X78565380Y-75887019D01*
X78541190Y-75911209D01*
X78517000Y-75923304D01*
X78468619Y-75923304D01*
X78444428Y-75911209D01*
X78420238Y-75887019D01*
X78408142Y-75838638D01*
X78408142Y-75753971D01*
X78420238Y-75705590D01*
X78444428Y-75681400D01*
X78468619Y-75669304D01*
X78686333Y-75923304D02*
X78686333Y-75669304D01*
X78746809Y-75669304D01*
X78783095Y-75681400D01*
X78807285Y-75705590D01*
X78819380Y-75729780D01*
X78831476Y-75778161D01*
X78831476Y-75814447D01*
X78819380Y-75862828D01*
X78807285Y-75887019D01*
X78783095Y-75911209D01*
X78746809Y-75923304D01*
X78686333Y-75923304D01*
X78940333Y-75923304D02*
X78940333Y-75669304D01*
X79085476Y-75923304D02*
X78976619Y-75778161D01*
X79085476Y-75669304D02*
X78940333Y-75814447D01*
X79279000Y-75790257D02*
X79315285Y-75802352D01*
X79327380Y-75814447D01*
X79339476Y-75838638D01*
X79339476Y-75874923D01*
X79327380Y-75899114D01*
X79315285Y-75911209D01*
X79291095Y-75923304D01*
X79194333Y-75923304D01*
X79194333Y-75669304D01*
X79279000Y-75669304D01*
X79303190Y-75681400D01*
X79315285Y-75693495D01*
X79327380Y-75717685D01*
X79327380Y-75741876D01*
X79315285Y-75766066D01*
X79303190Y-75778161D01*
X79279000Y-75790257D01*
X79194333Y-75790257D01*
X79678142Y-75923304D02*
X79653952Y-75911209D01*
X79641857Y-75887019D01*
X79641857Y-75669304D01*
X79871666Y-75911209D02*
X79847476Y-75923304D01*
X79799095Y-75923304D01*
X79774904Y-75911209D01*
X79762809Y-75887019D01*
X79762809Y-75790257D01*
X79774904Y-75766066D01*
X79799095Y-75753971D01*
X79847476Y-75753971D01*
X79871666Y-75766066D01*
X79883761Y-75790257D01*
X79883761Y-75814447D01*
X79762809Y-75838638D01*
X80101476Y-75923304D02*
X80101476Y-75669304D01*
X80101476Y-75911209D02*
X80077285Y-75923304D01*
X80028904Y-75923304D01*
X80004714Y-75911209D01*
X79992619Y-75899114D01*
X79980523Y-75874923D01*
X79980523Y-75802352D01*
X79992619Y-75778161D01*
X80004714Y-75766066D01*
X80028904Y-75753971D01*
X80077285Y-75753971D01*
X80101476Y-75766066D01*
X80391761Y-75753971D02*
X80452238Y-75923304D01*
X80512714Y-75753971D01*
X80718333Y-75923304D02*
X80718333Y-75790257D01*
X80706238Y-75766066D01*
X80682047Y-75753971D01*
X80633666Y-75753971D01*
X80609476Y-75766066D01*
X80718333Y-75911209D02*
X80694142Y-75923304D01*
X80633666Y-75923304D01*
X80609476Y-75911209D01*
X80597380Y-75887019D01*
X80597380Y-75862828D01*
X80609476Y-75838638D01*
X80633666Y-75826542D01*
X80694142Y-75826542D01*
X80718333Y-75814447D01*
X80875571Y-75923304D02*
X80851380Y-75911209D01*
X80839285Y-75887019D01*
X80839285Y-75669304D01*
X80972333Y-75923304D02*
X80972333Y-75753971D01*
X80972333Y-75669304D02*
X80960238Y-75681400D01*
X80972333Y-75693495D01*
X80984428Y-75681400D01*
X80972333Y-75669304D01*
X80972333Y-75693495D01*
X81202142Y-75923304D02*
X81202142Y-75669304D01*
X81202142Y-75911209D02*
X81177952Y-75923304D01*
X81129571Y-75923304D01*
X81105380Y-75911209D01*
X81093285Y-75899114D01*
X81081190Y-75874923D01*
X81081190Y-75802352D01*
X81093285Y-75778161D01*
X81105380Y-75766066D01*
X81129571Y-75753971D01*
X81177952Y-75753971D01*
X81202142Y-75766066D01*
X81431952Y-75923304D02*
X81431952Y-75790257D01*
X81419857Y-75766066D01*
X81395666Y-75753971D01*
X81347285Y-75753971D01*
X81323095Y-75766066D01*
X81431952Y-75911209D02*
X81407761Y-75923304D01*
X81347285Y-75923304D01*
X81323095Y-75911209D01*
X81311000Y-75887019D01*
X81311000Y-75862828D01*
X81323095Y-75838638D01*
X81347285Y-75826542D01*
X81407761Y-75826542D01*
X81431952Y-75814447D01*
X81516619Y-75753971D02*
X81613380Y-75753971D01*
X81552904Y-75669304D02*
X81552904Y-75887019D01*
X81565000Y-75911209D01*
X81589190Y-75923304D01*
X81613380Y-75923304D01*
X81698047Y-75923304D02*
X81698047Y-75753971D01*
X81698047Y-75669304D02*
X81685952Y-75681400D01*
X81698047Y-75693495D01*
X81710142Y-75681400D01*
X81698047Y-75669304D01*
X81698047Y-75693495D01*
X81855285Y-75923304D02*
X81831095Y-75911209D01*
X81819000Y-75899114D01*
X81806904Y-75874923D01*
X81806904Y-75802352D01*
X81819000Y-75778161D01*
X81831095Y-75766066D01*
X81855285Y-75753971D01*
X81891571Y-75753971D01*
X81915761Y-75766066D01*
X81927857Y-75778161D01*
X81939952Y-75802352D01*
X81939952Y-75874923D01*
X81927857Y-75899114D01*
X81915761Y-75911209D01*
X81891571Y-75923304D01*
X81855285Y-75923304D01*
X82048809Y-75753971D02*
X82048809Y-75923304D01*
X82048809Y-75778161D02*
X82060904Y-75766066D01*
X82085095Y-75753971D01*
X82121380Y-75753971D01*
X82145571Y-75766066D01*
X82157666Y-75790257D01*
X82157666Y-75923304D01*
X82472142Y-75923304D02*
X82472142Y-75669304D01*
X82472142Y-75766066D02*
X82496333Y-75753971D01*
X82544714Y-75753971D01*
X82568904Y-75766066D01*
X82581000Y-75778161D01*
X82593095Y-75802352D01*
X82593095Y-75874923D01*
X82581000Y-75899114D01*
X82568904Y-75911209D01*
X82544714Y-75923304D01*
X82496333Y-75923304D01*
X82472142Y-75911209D01*
X82738238Y-75923304D02*
X82714047Y-75911209D01*
X82701952Y-75899114D01*
X82689857Y-75874923D01*
X82689857Y-75802352D01*
X82701952Y-75778161D01*
X82714047Y-75766066D01*
X82738238Y-75753971D01*
X82774523Y-75753971D01*
X82798714Y-75766066D01*
X82810809Y-75778161D01*
X82822904Y-75802352D01*
X82822904Y-75874923D01*
X82810809Y-75899114D01*
X82798714Y-75911209D01*
X82774523Y-75923304D01*
X82738238Y-75923304D01*
X83040619Y-75923304D02*
X83040619Y-75790257D01*
X83028523Y-75766066D01*
X83004333Y-75753971D01*
X82955952Y-75753971D01*
X82931761Y-75766066D01*
X83040619Y-75911209D02*
X83016428Y-75923304D01*
X82955952Y-75923304D01*
X82931761Y-75911209D01*
X82919666Y-75887019D01*
X82919666Y-75862828D01*
X82931761Y-75838638D01*
X82955952Y-75826542D01*
X83016428Y-75826542D01*
X83040619Y-75814447D01*
X83161571Y-75923304D02*
X83161571Y-75753971D01*
X83161571Y-75802352D02*
X83173666Y-75778161D01*
X83185761Y-75766066D01*
X83209952Y-75753971D01*
X83234142Y-75753971D01*
X83427666Y-75923304D02*
X83427666Y-75669304D01*
X83427666Y-75911209D02*
X83403476Y-75923304D01*
X83355095Y-75923304D01*
X83330904Y-75911209D01*
X83318809Y-75899114D01*
X83306714Y-75874923D01*
X83306714Y-75802352D01*
X83318809Y-75778161D01*
X83330904Y-75766066D01*
X83355095Y-75753971D01*
X83403476Y-75753971D01*
X83427666Y-75766066D01*
X76612000Y-76736104D02*
X76527333Y-76615152D01*
X76466857Y-76736104D02*
X76466857Y-76482104D01*
X76563619Y-76482104D01*
X76587809Y-76494200D01*
X76599904Y-76506295D01*
X76612000Y-76530485D01*
X76612000Y-76566771D01*
X76599904Y-76590961D01*
X76587809Y-76603057D01*
X76563619Y-76615152D01*
X76466857Y-76615152D01*
X76817619Y-76724009D02*
X76793428Y-76736104D01*
X76745047Y-76736104D01*
X76720857Y-76724009D01*
X76708761Y-76699819D01*
X76708761Y-76603057D01*
X76720857Y-76578866D01*
X76745047Y-76566771D01*
X76793428Y-76566771D01*
X76817619Y-76578866D01*
X76829714Y-76603057D01*
X76829714Y-76627247D01*
X76708761Y-76651438D01*
X77047428Y-76566771D02*
X77047428Y-76820771D01*
X77047428Y-76724009D02*
X77023238Y-76736104D01*
X76974857Y-76736104D01*
X76950666Y-76724009D01*
X76938571Y-76711914D01*
X76926476Y-76687723D01*
X76926476Y-76615152D01*
X76938571Y-76590961D01*
X76950666Y-76578866D01*
X76974857Y-76566771D01*
X77023238Y-76566771D01*
X77047428Y-76578866D01*
X77277238Y-76566771D02*
X77277238Y-76736104D01*
X77168380Y-76566771D02*
X77168380Y-76699819D01*
X77180476Y-76724009D01*
X77204666Y-76736104D01*
X77240952Y-76736104D01*
X77265142Y-76724009D01*
X77277238Y-76711914D01*
X77398190Y-76736104D02*
X77398190Y-76566771D01*
X77398190Y-76482104D02*
X77386095Y-76494200D01*
X77398190Y-76506295D01*
X77410285Y-76494200D01*
X77398190Y-76482104D01*
X77398190Y-76506295D01*
X77519142Y-76736104D02*
X77519142Y-76566771D01*
X77519142Y-76615152D02*
X77531238Y-76590961D01*
X77543333Y-76578866D01*
X77567523Y-76566771D01*
X77591714Y-76566771D01*
X77773142Y-76724009D02*
X77748952Y-76736104D01*
X77700571Y-76736104D01*
X77676380Y-76724009D01*
X77664285Y-76699819D01*
X77664285Y-76603057D01*
X77676380Y-76578866D01*
X77700571Y-76566771D01*
X77748952Y-76566771D01*
X77773142Y-76578866D01*
X77785238Y-76603057D01*
X77785238Y-76627247D01*
X77664285Y-76651438D01*
X77882000Y-76724009D02*
X77906190Y-76736104D01*
X77954571Y-76736104D01*
X77978761Y-76724009D01*
X77990857Y-76699819D01*
X77990857Y-76687723D01*
X77978761Y-76663533D01*
X77954571Y-76651438D01*
X77918285Y-76651438D01*
X77894095Y-76639342D01*
X77882000Y-76615152D01*
X77882000Y-76603057D01*
X77894095Y-76578866D01*
X77918285Y-76566771D01*
X77954571Y-76566771D01*
X77978761Y-76578866D01*
X78414190Y-76482104D02*
X78293238Y-76482104D01*
X78281142Y-76603057D01*
X78293238Y-76590961D01*
X78317428Y-76578866D01*
X78377904Y-76578866D01*
X78402095Y-76590961D01*
X78414190Y-76603057D01*
X78426285Y-76627247D01*
X78426285Y-76687723D01*
X78414190Y-76711914D01*
X78402095Y-76724009D01*
X78377904Y-76736104D01*
X78317428Y-76736104D01*
X78293238Y-76724009D01*
X78281142Y-76711914D01*
X78510952Y-76566771D02*
X78571428Y-76736104D01*
X78631904Y-76566771D01*
X78740761Y-76724009D02*
X78740761Y-76736104D01*
X78728666Y-76760295D01*
X78716571Y-76772390D01*
X79043142Y-76566771D02*
X79043142Y-76820771D01*
X79043142Y-76578866D02*
X79067333Y-76566771D01*
X79115714Y-76566771D01*
X79139904Y-76578866D01*
X79152000Y-76590961D01*
X79164095Y-76615152D01*
X79164095Y-76687723D01*
X79152000Y-76711914D01*
X79139904Y-76724009D01*
X79115714Y-76736104D01*
X79067333Y-76736104D01*
X79043142Y-76724009D01*
X79272952Y-76736104D02*
X79272952Y-76566771D01*
X79272952Y-76615152D02*
X79285047Y-76590961D01*
X79297142Y-76578866D01*
X79321333Y-76566771D01*
X79345523Y-76566771D01*
X79466476Y-76736104D02*
X79442285Y-76724009D01*
X79430190Y-76711914D01*
X79418095Y-76687723D01*
X79418095Y-76615152D01*
X79430190Y-76590961D01*
X79442285Y-76578866D01*
X79466476Y-76566771D01*
X79502761Y-76566771D01*
X79526952Y-76578866D01*
X79539047Y-76590961D01*
X79551142Y-76615152D01*
X79551142Y-76687723D01*
X79539047Y-76711914D01*
X79526952Y-76724009D01*
X79502761Y-76736104D01*
X79466476Y-76736104D01*
X79635809Y-76566771D02*
X79696285Y-76736104D01*
X79756761Y-76566771D01*
X79853523Y-76736104D02*
X79853523Y-76566771D01*
X79853523Y-76482104D02*
X79841428Y-76494200D01*
X79853523Y-76506295D01*
X79865619Y-76494200D01*
X79853523Y-76482104D01*
X79853523Y-76506295D01*
X80083333Y-76736104D02*
X80083333Y-76482104D01*
X80083333Y-76724009D02*
X80059142Y-76736104D01*
X80010761Y-76736104D01*
X79986571Y-76724009D01*
X79974476Y-76711914D01*
X79962380Y-76687723D01*
X79962380Y-76615152D01*
X79974476Y-76590961D01*
X79986571Y-76578866D01*
X80010761Y-76566771D01*
X80059142Y-76566771D01*
X80083333Y-76578866D01*
X80301047Y-76724009D02*
X80276857Y-76736104D01*
X80228476Y-76736104D01*
X80204285Y-76724009D01*
X80192190Y-76699819D01*
X80192190Y-76603057D01*
X80204285Y-76578866D01*
X80228476Y-76566771D01*
X80276857Y-76566771D01*
X80301047Y-76578866D01*
X80313142Y-76603057D01*
X80313142Y-76627247D01*
X80192190Y-76651438D01*
X80409904Y-76724009D02*
X80434095Y-76736104D01*
X80482476Y-76736104D01*
X80506666Y-76724009D01*
X80518761Y-76699819D01*
X80518761Y-76687723D01*
X80506666Y-76663533D01*
X80482476Y-76651438D01*
X80446190Y-76651438D01*
X80422000Y-76639342D01*
X80409904Y-76615152D01*
X80409904Y-76603057D01*
X80422000Y-76578866D01*
X80446190Y-76566771D01*
X80482476Y-76566771D01*
X80506666Y-76578866D01*
X80796952Y-76482104D02*
X80954190Y-76482104D01*
X80869523Y-76578866D01*
X80905809Y-76578866D01*
X80930000Y-76590961D01*
X80942095Y-76603057D01*
X80954190Y-76627247D01*
X80954190Y-76687723D01*
X80942095Y-76711914D01*
X80930000Y-76724009D01*
X80905809Y-76736104D01*
X80833238Y-76736104D01*
X80809047Y-76724009D01*
X80796952Y-76711914D01*
X81038857Y-76566771D02*
X81099333Y-76736104D01*
X81159809Y-76566771D01*
X81558952Y-76736104D02*
X81558952Y-76482104D01*
X81558952Y-76724009D02*
X81534761Y-76736104D01*
X81486380Y-76736104D01*
X81462190Y-76724009D01*
X81450095Y-76711914D01*
X81438000Y-76687723D01*
X81438000Y-76615152D01*
X81450095Y-76590961D01*
X81462190Y-76578866D01*
X81486380Y-76566771D01*
X81534761Y-76566771D01*
X81558952Y-76578866D01*
X81776666Y-76724009D02*
X81752476Y-76736104D01*
X81704095Y-76736104D01*
X81679904Y-76724009D01*
X81667809Y-76699819D01*
X81667809Y-76603057D01*
X81679904Y-76578866D01*
X81704095Y-76566771D01*
X81752476Y-76566771D01*
X81776666Y-76578866D01*
X81788761Y-76603057D01*
X81788761Y-76627247D01*
X81667809Y-76651438D01*
X81897619Y-76736104D02*
X81897619Y-76482104D01*
X81897619Y-76578866D02*
X81921809Y-76566771D01*
X81970190Y-76566771D01*
X81994380Y-76578866D01*
X82006476Y-76590961D01*
X82018571Y-76615152D01*
X82018571Y-76687723D01*
X82006476Y-76711914D01*
X81994380Y-76724009D01*
X81970190Y-76736104D01*
X81921809Y-76736104D01*
X81897619Y-76724009D01*
X82236285Y-76566771D02*
X82236285Y-76736104D01*
X82127428Y-76566771D02*
X82127428Y-76699819D01*
X82139523Y-76724009D01*
X82163714Y-76736104D01*
X82200000Y-76736104D01*
X82224190Y-76724009D01*
X82236285Y-76711914D01*
X82466095Y-76566771D02*
X82466095Y-76772390D01*
X82454000Y-76796580D01*
X82441904Y-76808676D01*
X82417714Y-76820771D01*
X82381428Y-76820771D01*
X82357238Y-76808676D01*
X82466095Y-76724009D02*
X82441904Y-76736104D01*
X82393523Y-76736104D01*
X82369333Y-76724009D01*
X82357238Y-76711914D01*
X82345142Y-76687723D01*
X82345142Y-76615152D01*
X82357238Y-76590961D01*
X82369333Y-76578866D01*
X82393523Y-76566771D01*
X82441904Y-76566771D01*
X82466095Y-76578866D01*
X82816857Y-76736104D02*
X82792666Y-76724009D01*
X82780571Y-76711914D01*
X82768476Y-76687723D01*
X82768476Y-76615152D01*
X82780571Y-76590961D01*
X82792666Y-76578866D01*
X82816857Y-76566771D01*
X82853142Y-76566771D01*
X82877333Y-76578866D01*
X82889428Y-76590961D01*
X82901523Y-76615152D01*
X82901523Y-76687723D01*
X82889428Y-76711914D01*
X82877333Y-76724009D01*
X82853142Y-76736104D01*
X82816857Y-76736104D01*
X83119238Y-76566771D02*
X83119238Y-76736104D01*
X83010380Y-76566771D02*
X83010380Y-76699819D01*
X83022476Y-76724009D01*
X83046666Y-76736104D01*
X83082952Y-76736104D01*
X83107142Y-76724009D01*
X83119238Y-76711914D01*
X83203904Y-76566771D02*
X83300666Y-76566771D01*
X83240190Y-76482104D02*
X83240190Y-76699819D01*
X83252285Y-76724009D01*
X83276476Y-76736104D01*
X83300666Y-76736104D01*
X83385333Y-76566771D02*
X83385333Y-76820771D01*
X83385333Y-76578866D02*
X83409523Y-76566771D01*
X83457904Y-76566771D01*
X83482095Y-76578866D01*
X83494190Y-76590961D01*
X83506285Y-76615152D01*
X83506285Y-76687723D01*
X83494190Y-76711914D01*
X83482095Y-76724009D01*
X83457904Y-76736104D01*
X83409523Y-76736104D01*
X83385333Y-76724009D01*
X83724000Y-76566771D02*
X83724000Y-76736104D01*
X83615142Y-76566771D02*
X83615142Y-76699819D01*
X83627238Y-76724009D01*
X83651428Y-76736104D01*
X83687714Y-76736104D01*
X83711904Y-76724009D01*
X83724000Y-76711914D01*
X83808666Y-76566771D02*
X83905428Y-76566771D01*
X83844952Y-76482104D02*
X83844952Y-76699819D01*
X83857047Y-76724009D01*
X83881238Y-76736104D01*
X83905428Y-76736104D01*
X78353714Y-76973171D02*
X78353714Y-77142504D01*
X78244857Y-76973171D02*
X78244857Y-77106219D01*
X78256952Y-77130409D01*
X78281142Y-77142504D01*
X78317428Y-77142504D01*
X78341619Y-77130409D01*
X78353714Y-77118314D01*
X78438380Y-76973171D02*
X78535142Y-76973171D01*
X78474666Y-76888504D02*
X78474666Y-77106219D01*
X78486761Y-77130409D01*
X78510952Y-77142504D01*
X78535142Y-77142504D01*
X78619809Y-77142504D02*
X78619809Y-76973171D01*
X78619809Y-76888504D02*
X78607714Y-76900600D01*
X78619809Y-76912695D01*
X78631904Y-76900600D01*
X78619809Y-76888504D01*
X78619809Y-76912695D01*
X78777047Y-77142504D02*
X78752857Y-77130409D01*
X78740761Y-77106219D01*
X78740761Y-76888504D01*
X78873809Y-77142504D02*
X78873809Y-76973171D01*
X78873809Y-76888504D02*
X78861714Y-76900600D01*
X78873809Y-76912695D01*
X78885904Y-76900600D01*
X78873809Y-76888504D01*
X78873809Y-76912695D01*
X78970571Y-76973171D02*
X79103619Y-76973171D01*
X78970571Y-77142504D01*
X79103619Y-77142504D01*
X79297142Y-77130409D02*
X79272952Y-77142504D01*
X79224571Y-77142504D01*
X79200380Y-77130409D01*
X79188285Y-77106219D01*
X79188285Y-77009457D01*
X79200380Y-76985266D01*
X79224571Y-76973171D01*
X79272952Y-76973171D01*
X79297142Y-76985266D01*
X79309238Y-77009457D01*
X79309238Y-77033647D01*
X79188285Y-77057838D01*
X79406000Y-77130409D02*
X79430190Y-77142504D01*
X79478571Y-77142504D01*
X79502761Y-77130409D01*
X79514857Y-77106219D01*
X79514857Y-77094123D01*
X79502761Y-77069933D01*
X79478571Y-77057838D01*
X79442285Y-77057838D01*
X79418095Y-77045742D01*
X79406000Y-77021552D01*
X79406000Y-77009457D01*
X79418095Y-76985266D01*
X79442285Y-76973171D01*
X79478571Y-76973171D01*
X79502761Y-76985266D01*
X79780952Y-76973171D02*
X79877714Y-76973171D01*
X79817238Y-76888504D02*
X79817238Y-77106219D01*
X79829333Y-77130409D01*
X79853523Y-77142504D01*
X79877714Y-77142504D01*
X79998666Y-77142504D02*
X79974476Y-77130409D01*
X79962380Y-77106219D01*
X79962380Y-76888504D01*
X80204285Y-77130409D02*
X80180095Y-77142504D01*
X80131714Y-77142504D01*
X80107523Y-77130409D01*
X80095428Y-77118314D01*
X80083333Y-77094123D01*
X80083333Y-77021552D01*
X80095428Y-76997361D01*
X80107523Y-76985266D01*
X80131714Y-76973171D01*
X80180095Y-76973171D01*
X80204285Y-76985266D01*
X80434095Y-76888504D02*
X80313142Y-76888504D01*
X80301047Y-77009457D01*
X80313142Y-76997361D01*
X80337333Y-76985266D01*
X80397809Y-76985266D01*
X80422000Y-76997361D01*
X80434095Y-77009457D01*
X80446190Y-77033647D01*
X80446190Y-77094123D01*
X80434095Y-77118314D01*
X80422000Y-77130409D01*
X80397809Y-77142504D01*
X80337333Y-77142504D01*
X80313142Y-77130409D01*
X80301047Y-77118314D01*
X80567142Y-77142504D02*
X80615523Y-77142504D01*
X80639714Y-77130409D01*
X80651809Y-77118314D01*
X80676000Y-77082028D01*
X80688095Y-77033647D01*
X80688095Y-76936885D01*
X80676000Y-76912695D01*
X80663904Y-76900600D01*
X80639714Y-76888504D01*
X80591333Y-76888504D01*
X80567142Y-76900600D01*
X80555047Y-76912695D01*
X80542952Y-76936885D01*
X80542952Y-76997361D01*
X80555047Y-77021552D01*
X80567142Y-77033647D01*
X80591333Y-77045742D01*
X80639714Y-77045742D01*
X80663904Y-77033647D01*
X80676000Y-77021552D01*
X80688095Y-76997361D01*
X80905809Y-76973171D02*
X80905809Y-77142504D01*
X80845333Y-76876409D02*
X80784857Y-77057838D01*
X80942095Y-77057838D01*
X81014666Y-76888504D02*
X81184000Y-76888504D01*
X81075142Y-77142504D01*
X81474285Y-77142504D02*
X81474285Y-76888504D01*
X81534761Y-76888504D01*
X81571047Y-76900600D01*
X81595238Y-76924790D01*
X81607333Y-76948980D01*
X81619428Y-76997361D01*
X81619428Y-77033647D01*
X81607333Y-77082028D01*
X81595238Y-77106219D01*
X81571047Y-77130409D01*
X81534761Y-77142504D01*
X81474285Y-77142504D01*
X81837142Y-77142504D02*
X81837142Y-77009457D01*
X81825047Y-76985266D01*
X81800857Y-76973171D01*
X81752476Y-76973171D01*
X81728285Y-76985266D01*
X81837142Y-77130409D02*
X81812952Y-77142504D01*
X81752476Y-77142504D01*
X81728285Y-77130409D01*
X81716190Y-77106219D01*
X81716190Y-77082028D01*
X81728285Y-77057838D01*
X81752476Y-77045742D01*
X81812952Y-77045742D01*
X81837142Y-77033647D01*
X81958095Y-77142504D02*
X81958095Y-76888504D01*
X82054857Y-76888504D01*
X82079047Y-76900600D01*
X82091142Y-76912695D01*
X82103238Y-76936885D01*
X82103238Y-76973171D01*
X82091142Y-76997361D01*
X82079047Y-77009457D01*
X82054857Y-77021552D01*
X81958095Y-77021552D01*
D12*
G04 #@! TO.C,U2*
X58293000Y-50988000D02*
X57218000Y-50988000D01*
X58293000Y-62013000D02*
X64643000Y-62013000D01*
X58293000Y-50763000D02*
X64643000Y-50763000D01*
X58293000Y-62013000D02*
X58293000Y-61688000D01*
X64643000Y-62013000D02*
X64643000Y-61688000D01*
X64643000Y-50763000D02*
X64643000Y-51088000D01*
X58293000Y-50763000D02*
X58293000Y-50988000D01*
D13*
G04 #@! TO.C,J2*
X50358000Y-37018000D02*
X52258000Y-37018000D01*
X52258000Y-37018000D02*
X52258000Y-35168000D01*
X52258000Y-35168000D02*
X50408000Y-35168000D01*
X50408000Y-35168000D02*
X50358000Y-35168000D01*
X50358000Y-35168000D02*
X50358000Y-37018000D01*
G04 #@! TO.C,J7*
X52843000Y-59883000D02*
X50993000Y-59883000D01*
X52843000Y-59933000D02*
X52843000Y-59883000D01*
X52843000Y-61783000D02*
X52843000Y-59933000D01*
X50993000Y-61783000D02*
X52843000Y-61783000D01*
X50993000Y-59883000D02*
X50993000Y-61783000D01*
G04 #@! TO.C,J6*
X50993000Y-55946000D02*
X50993000Y-57846000D01*
X50993000Y-57846000D02*
X52843000Y-57846000D01*
X52843000Y-57846000D02*
X52843000Y-55996000D01*
X52843000Y-55996000D02*
X52843000Y-55946000D01*
X52843000Y-55946000D02*
X50993000Y-55946000D01*
G04 #@! TO.C,J5*
X52843000Y-52898000D02*
X50993000Y-52898000D01*
X52843000Y-52948000D02*
X52843000Y-52898000D01*
X52843000Y-54798000D02*
X52843000Y-52948000D01*
X50993000Y-54798000D02*
X52843000Y-54798000D01*
X50993000Y-52898000D02*
X50993000Y-54798000D01*
G04 #@! TO.C,J4*
X50993000Y-50104000D02*
X50993000Y-52004000D01*
X50993000Y-52004000D02*
X52843000Y-52004000D01*
X52843000Y-52004000D02*
X52843000Y-50154000D01*
X52843000Y-50154000D02*
X52843000Y-50104000D01*
X52843000Y-50104000D02*
X50993000Y-50104000D01*
G04 #@! TO.C,J3*
X57978000Y-35168000D02*
X57978000Y-37018000D01*
X58028000Y-35168000D02*
X57978000Y-35168000D01*
X59878000Y-35168000D02*
X58028000Y-35168000D01*
X59878000Y-37018000D02*
X59878000Y-35168000D01*
X57978000Y-37018000D02*
X59878000Y-37018000D01*
G04 #@! TO.C,J1*
X61788000Y-35168000D02*
X61788000Y-37018000D01*
X61838000Y-35168000D02*
X61788000Y-35168000D01*
X63688000Y-35168000D02*
X61838000Y-35168000D01*
X63688000Y-37018000D02*
X63688000Y-35168000D01*
X61788000Y-37018000D02*
X63688000Y-37018000D01*
G04 #@! TO.C,C1*
X51098000Y-40698000D02*
X51098000Y-41598000D01*
X50648000Y-41148000D02*
X51548000Y-41148000D01*
X55179000Y-40983000D02*
X55179000Y-41313000D01*
X55139000Y-40733000D02*
X55139000Y-41563000D01*
X55099000Y-40581000D02*
X55099000Y-41715000D01*
X55059000Y-40462000D02*
X55059000Y-41834000D01*
X55019000Y-40362000D02*
X55019000Y-41934000D01*
X54979000Y-40274000D02*
X54979000Y-42022000D01*
X54939000Y-40196000D02*
X54939000Y-42100000D01*
X54899000Y-40125000D02*
X54899000Y-42171000D01*
X54859000Y-40060000D02*
X54859000Y-42236000D01*
X54819000Y-40000000D02*
X54819000Y-42296000D01*
X54779000Y-39944000D02*
X54779000Y-42352000D01*
X54739000Y-39892000D02*
X54739000Y-42404000D01*
X54699000Y-39843000D02*
X54699000Y-42453000D01*
X54659000Y-39797000D02*
X54659000Y-42499000D01*
X54619000Y-41928000D02*
X54619000Y-42543000D01*
X54619000Y-39753000D02*
X54619000Y-40368000D01*
X54579000Y-41928000D02*
X54579000Y-42584000D01*
X54579000Y-39712000D02*
X54579000Y-40368000D01*
X54539000Y-41928000D02*
X54539000Y-42623000D01*
X54539000Y-39673000D02*
X54539000Y-40368000D01*
X54499000Y-41928000D02*
X54499000Y-42660000D01*
X54499000Y-39636000D02*
X54499000Y-40368000D01*
X54459000Y-41928000D02*
X54459000Y-42695000D01*
X54459000Y-39601000D02*
X54459000Y-40368000D01*
X54419000Y-41928000D02*
X54419000Y-42729000D01*
X54419000Y-39567000D02*
X54419000Y-40368000D01*
X54379000Y-41928000D02*
X54379000Y-42761000D01*
X54379000Y-39535000D02*
X54379000Y-40368000D01*
X54339000Y-41928000D02*
X54339000Y-42791000D01*
X54339000Y-39505000D02*
X54339000Y-40368000D01*
X54299000Y-41928000D02*
X54299000Y-42820000D01*
X54299000Y-39476000D02*
X54299000Y-40368000D01*
X54259000Y-41928000D02*
X54259000Y-42847000D01*
X54259000Y-39449000D02*
X54259000Y-40368000D01*
X54219000Y-41928000D02*
X54219000Y-42873000D01*
X54219000Y-39423000D02*
X54219000Y-40368000D01*
X54179000Y-41928000D02*
X54179000Y-42898000D01*
X54179000Y-39398000D02*
X54179000Y-40368000D01*
X54139000Y-41928000D02*
X54139000Y-42921000D01*
X54139000Y-39375000D02*
X54139000Y-40368000D01*
X54099000Y-41928000D02*
X54099000Y-42944000D01*
X54099000Y-39352000D02*
X54099000Y-40368000D01*
X54059000Y-41928000D02*
X54059000Y-42965000D01*
X54059000Y-39331000D02*
X54059000Y-40368000D01*
X54019000Y-41928000D02*
X54019000Y-42985000D01*
X54019000Y-39311000D02*
X54019000Y-40368000D01*
X53979000Y-41928000D02*
X53979000Y-43004000D01*
X53979000Y-39292000D02*
X53979000Y-40368000D01*
X53939000Y-41928000D02*
X53939000Y-43022000D01*
X53939000Y-39274000D02*
X53939000Y-40368000D01*
X53899000Y-41928000D02*
X53899000Y-43039000D01*
X53899000Y-39257000D02*
X53899000Y-40368000D01*
X53859000Y-41928000D02*
X53859000Y-43055000D01*
X53859000Y-39241000D02*
X53859000Y-40368000D01*
X53819000Y-41928000D02*
X53819000Y-43071000D01*
X53819000Y-39225000D02*
X53819000Y-40368000D01*
X53778000Y-41928000D02*
X53778000Y-43085000D01*
X53778000Y-39211000D02*
X53778000Y-40368000D01*
X53738000Y-41928000D02*
X53738000Y-43098000D01*
X53738000Y-39198000D02*
X53738000Y-40368000D01*
X53698000Y-41928000D02*
X53698000Y-43111000D01*
X53698000Y-39185000D02*
X53698000Y-40368000D01*
X53658000Y-41928000D02*
X53658000Y-43122000D01*
X53658000Y-39174000D02*
X53658000Y-40368000D01*
X53618000Y-41928000D02*
X53618000Y-43133000D01*
X53618000Y-39163000D02*
X53618000Y-40368000D01*
X53578000Y-41928000D02*
X53578000Y-43143000D01*
X53578000Y-39153000D02*
X53578000Y-40368000D01*
X53538000Y-41928000D02*
X53538000Y-43152000D01*
X53538000Y-39144000D02*
X53538000Y-40368000D01*
X53498000Y-41928000D02*
X53498000Y-43160000D01*
X53498000Y-39136000D02*
X53498000Y-40368000D01*
X53458000Y-41928000D02*
X53458000Y-43167000D01*
X53458000Y-39129000D02*
X53458000Y-40368000D01*
X53418000Y-41928000D02*
X53418000Y-43174000D01*
X53418000Y-39122000D02*
X53418000Y-40368000D01*
X53378000Y-41928000D02*
X53378000Y-43180000D01*
X53378000Y-39116000D02*
X53378000Y-40368000D01*
X53338000Y-41928000D02*
X53338000Y-43185000D01*
X53338000Y-39111000D02*
X53338000Y-40368000D01*
X53298000Y-41928000D02*
X53298000Y-43189000D01*
X53298000Y-39107000D02*
X53298000Y-40368000D01*
X53258000Y-41928000D02*
X53258000Y-43192000D01*
X53258000Y-39104000D02*
X53258000Y-40368000D01*
X53218000Y-41928000D02*
X53218000Y-43195000D01*
X53218000Y-39101000D02*
X53218000Y-40368000D01*
X53178000Y-41928000D02*
X53178000Y-43197000D01*
X53178000Y-39099000D02*
X53178000Y-40368000D01*
X53138000Y-41928000D02*
X53138000Y-43198000D01*
X53138000Y-39098000D02*
X53138000Y-40368000D01*
X53098000Y-39098000D02*
X53098000Y-40368000D01*
X53098000Y-41928000D02*
X53098000Y-43198000D01*
X54944436Y-42127170D02*
G75*
G03X54943996Y-40168000I-1846436J979170D01*
G01*
X54944436Y-42127170D02*
G75*
G02X51252004Y-42128000I-1846436J979170D01*
G01*
X54944436Y-40168830D02*
G75*
G03X51252004Y-40168000I-1846436J-979170D01*
G01*
G04 #@! TO.C,C2*
X69813170Y-42982436D02*
G75*
G03X69814000Y-39290004I-979170J1846436D01*
G01*
X67854830Y-42982436D02*
G75*
G02X67854000Y-39290004I979170J1846436D01*
G01*
X67854830Y-42982436D02*
G75*
G03X69814000Y-42981996I979170J1846436D01*
G01*
X68054000Y-41136000D02*
X66784000Y-41136000D01*
X70884000Y-41136000D02*
X69614000Y-41136000D01*
X70884000Y-41176000D02*
X69614000Y-41176000D01*
X68054000Y-41176000D02*
X66784000Y-41176000D01*
X70883000Y-41216000D02*
X69614000Y-41216000D01*
X68054000Y-41216000D02*
X66785000Y-41216000D01*
X70881000Y-41256000D02*
X69614000Y-41256000D01*
X68054000Y-41256000D02*
X66787000Y-41256000D01*
X70878000Y-41296000D02*
X69614000Y-41296000D01*
X68054000Y-41296000D02*
X66790000Y-41296000D01*
X70875000Y-41336000D02*
X69614000Y-41336000D01*
X68054000Y-41336000D02*
X66793000Y-41336000D01*
X70871000Y-41376000D02*
X69614000Y-41376000D01*
X68054000Y-41376000D02*
X66797000Y-41376000D01*
X70866000Y-41416000D02*
X69614000Y-41416000D01*
X68054000Y-41416000D02*
X66802000Y-41416000D01*
X70860000Y-41456000D02*
X69614000Y-41456000D01*
X68054000Y-41456000D02*
X66808000Y-41456000D01*
X70853000Y-41496000D02*
X69614000Y-41496000D01*
X68054000Y-41496000D02*
X66815000Y-41496000D01*
X70846000Y-41536000D02*
X69614000Y-41536000D01*
X68054000Y-41536000D02*
X66822000Y-41536000D01*
X70838000Y-41576000D02*
X69614000Y-41576000D01*
X68054000Y-41576000D02*
X66830000Y-41576000D01*
X70829000Y-41616000D02*
X69614000Y-41616000D01*
X68054000Y-41616000D02*
X66839000Y-41616000D01*
X70819000Y-41656000D02*
X69614000Y-41656000D01*
X68054000Y-41656000D02*
X66849000Y-41656000D01*
X70808000Y-41696000D02*
X69614000Y-41696000D01*
X68054000Y-41696000D02*
X66860000Y-41696000D01*
X70797000Y-41736000D02*
X69614000Y-41736000D01*
X68054000Y-41736000D02*
X66871000Y-41736000D01*
X70784000Y-41776000D02*
X69614000Y-41776000D01*
X68054000Y-41776000D02*
X66884000Y-41776000D01*
X70771000Y-41816000D02*
X69614000Y-41816000D01*
X68054000Y-41816000D02*
X66897000Y-41816000D01*
X70757000Y-41857000D02*
X69614000Y-41857000D01*
X68054000Y-41857000D02*
X66911000Y-41857000D01*
X70741000Y-41897000D02*
X69614000Y-41897000D01*
X68054000Y-41897000D02*
X66927000Y-41897000D01*
X70725000Y-41937000D02*
X69614000Y-41937000D01*
X68054000Y-41937000D02*
X66943000Y-41937000D01*
X70708000Y-41977000D02*
X69614000Y-41977000D01*
X68054000Y-41977000D02*
X66960000Y-41977000D01*
X70690000Y-42017000D02*
X69614000Y-42017000D01*
X68054000Y-42017000D02*
X66978000Y-42017000D01*
X70671000Y-42057000D02*
X69614000Y-42057000D01*
X68054000Y-42057000D02*
X66997000Y-42057000D01*
X70651000Y-42097000D02*
X69614000Y-42097000D01*
X68054000Y-42097000D02*
X67017000Y-42097000D01*
X70630000Y-42137000D02*
X69614000Y-42137000D01*
X68054000Y-42137000D02*
X67038000Y-42137000D01*
X70607000Y-42177000D02*
X69614000Y-42177000D01*
X68054000Y-42177000D02*
X67061000Y-42177000D01*
X70584000Y-42217000D02*
X69614000Y-42217000D01*
X68054000Y-42217000D02*
X67084000Y-42217000D01*
X70559000Y-42257000D02*
X69614000Y-42257000D01*
X68054000Y-42257000D02*
X67109000Y-42257000D01*
X70533000Y-42297000D02*
X69614000Y-42297000D01*
X68054000Y-42297000D02*
X67135000Y-42297000D01*
X70506000Y-42337000D02*
X69614000Y-42337000D01*
X68054000Y-42337000D02*
X67162000Y-42337000D01*
X70477000Y-42377000D02*
X69614000Y-42377000D01*
X68054000Y-42377000D02*
X67191000Y-42377000D01*
X70447000Y-42417000D02*
X69614000Y-42417000D01*
X68054000Y-42417000D02*
X67221000Y-42417000D01*
X70415000Y-42457000D02*
X69614000Y-42457000D01*
X68054000Y-42457000D02*
X67253000Y-42457000D01*
X70381000Y-42497000D02*
X69614000Y-42497000D01*
X68054000Y-42497000D02*
X67287000Y-42497000D01*
X70346000Y-42537000D02*
X69614000Y-42537000D01*
X68054000Y-42537000D02*
X67322000Y-42537000D01*
X70309000Y-42577000D02*
X69614000Y-42577000D01*
X68054000Y-42577000D02*
X67359000Y-42577000D01*
X70270000Y-42617000D02*
X69614000Y-42617000D01*
X68054000Y-42617000D02*
X67398000Y-42617000D01*
X70229000Y-42657000D02*
X69614000Y-42657000D01*
X68054000Y-42657000D02*
X67439000Y-42657000D01*
X70185000Y-42697000D02*
X67483000Y-42697000D01*
X70139000Y-42737000D02*
X67529000Y-42737000D01*
X70090000Y-42777000D02*
X67578000Y-42777000D01*
X70038000Y-42817000D02*
X67630000Y-42817000D01*
X69982000Y-42857000D02*
X67686000Y-42857000D01*
X69922000Y-42897000D02*
X67746000Y-42897000D01*
X69857000Y-42937000D02*
X67811000Y-42937000D01*
X69786000Y-42977000D02*
X67882000Y-42977000D01*
X69708000Y-43017000D02*
X67960000Y-43017000D01*
X69620000Y-43057000D02*
X68048000Y-43057000D01*
X69520000Y-43097000D02*
X68148000Y-43097000D01*
X69401000Y-43137000D02*
X68267000Y-43137000D01*
X69249000Y-43177000D02*
X68419000Y-43177000D01*
X68999000Y-43217000D02*
X68669000Y-43217000D01*
X68834000Y-38686000D02*
X68834000Y-39586000D01*
X69284000Y-39136000D02*
X68384000Y-39136000D01*
G04 #@! TO.C,D1*
X74570335Y-45149392D02*
G75*
G03X71338000Y-44992484I-1672335J-1078608D01*
G01*
X74570335Y-47306608D02*
G75*
G02X71338000Y-47463516I-1672335J1078608D01*
G01*
X73939130Y-45148163D02*
G75*
G03X71857039Y-45148000I-1041130J-1079837D01*
G01*
X73939130Y-47307837D02*
G75*
G02X71857039Y-47308000I-1041130J1079837D01*
G01*
X71338000Y-44992000D02*
X71338000Y-45148000D01*
X71338000Y-47308000D02*
X71338000Y-47464000D01*
G04 #@! TO.C,D2*
X76418000Y-47308000D02*
X76418000Y-47464000D01*
X76418000Y-44992000D02*
X76418000Y-45148000D01*
X79019130Y-47307837D02*
G75*
G02X76937039Y-47308000I-1041130J1079837D01*
G01*
X79019130Y-45148163D02*
G75*
G03X76937039Y-45148000I-1041130J-1079837D01*
G01*
X79650335Y-47306608D02*
G75*
G02X76418000Y-47463516I-1672335J1078608D01*
G01*
X79650335Y-45149392D02*
G75*
G03X76418000Y-44992484I-1672335J-1078608D01*
G01*
G04 #@! TO.C,D3*
X81498000Y-47308000D02*
X81498000Y-47464000D01*
X81498000Y-44992000D02*
X81498000Y-45148000D01*
X84099130Y-47307837D02*
G75*
G02X82017039Y-47308000I-1041130J1079837D01*
G01*
X84099130Y-45148163D02*
G75*
G03X82017039Y-45148000I-1041130J-1079837D01*
G01*
X84730335Y-47306608D02*
G75*
G02X81498000Y-47463516I-1672335J1078608D01*
G01*
X84730335Y-45149392D02*
G75*
G03X81498000Y-44992484I-1672335J-1078608D01*
G01*
G04 #@! TO.C,D4*
X86578000Y-47308000D02*
X86578000Y-47464000D01*
X86578000Y-44992000D02*
X86578000Y-45148000D01*
X89179130Y-47307837D02*
G75*
G02X87097039Y-47308000I-1041130J1079837D01*
G01*
X89179130Y-45148163D02*
G75*
G03X87097039Y-45148000I-1041130J-1079837D01*
G01*
X89810335Y-47306608D02*
G75*
G02X86578000Y-47463516I-1672335J1078608D01*
G01*
X89810335Y-45149392D02*
G75*
G03X86578000Y-44992484I-1672335J-1078608D01*
G01*
G04 #@! TO.C,D5*
X71338000Y-54928000D02*
X71338000Y-55084000D01*
X71338000Y-52612000D02*
X71338000Y-52768000D01*
X73939130Y-54927837D02*
G75*
G02X71857039Y-54928000I-1041130J1079837D01*
G01*
X73939130Y-52768163D02*
G75*
G03X71857039Y-52768000I-1041130J-1079837D01*
G01*
X74570335Y-54926608D02*
G75*
G02X71338000Y-55083516I-1672335J1078608D01*
G01*
X74570335Y-52769392D02*
G75*
G03X71338000Y-52612484I-1672335J-1078608D01*
G01*
G04 #@! TO.C,D6*
X79650335Y-52769392D02*
G75*
G03X76418000Y-52612484I-1672335J-1078608D01*
G01*
X79650335Y-54926608D02*
G75*
G02X76418000Y-55083516I-1672335J1078608D01*
G01*
X79019130Y-52768163D02*
G75*
G03X76937039Y-52768000I-1041130J-1079837D01*
G01*
X79019130Y-54927837D02*
G75*
G02X76937039Y-54928000I-1041130J1079837D01*
G01*
X76418000Y-52612000D02*
X76418000Y-52768000D01*
X76418000Y-54928000D02*
X76418000Y-55084000D01*
G04 #@! TO.C,D7*
X84730335Y-52769392D02*
G75*
G03X81498000Y-52612484I-1672335J-1078608D01*
G01*
X84730335Y-54926608D02*
G75*
G02X81498000Y-55083516I-1672335J1078608D01*
G01*
X84099130Y-52768163D02*
G75*
G03X82017039Y-52768000I-1041130J-1079837D01*
G01*
X84099130Y-54927837D02*
G75*
G02X82017039Y-54928000I-1041130J1079837D01*
G01*
X81498000Y-52612000D02*
X81498000Y-52768000D01*
X81498000Y-54928000D02*
X81498000Y-55084000D01*
G04 #@! TO.C,D8*
X89810335Y-52769392D02*
G75*
G03X86578000Y-52612484I-1672335J-1078608D01*
G01*
X89810335Y-54926608D02*
G75*
G02X86578000Y-55083516I-1672335J1078608D01*
G01*
X89179130Y-52768163D02*
G75*
G03X87097039Y-52768000I-1041130J-1079837D01*
G01*
X89179130Y-54927837D02*
G75*
G02X87097039Y-54928000I-1041130J1079837D01*
G01*
X86578000Y-52612000D02*
X86578000Y-52768000D01*
X86578000Y-54928000D02*
X86578000Y-55084000D01*
G04 #@! TO.C,D9*
X74570335Y-60389392D02*
G75*
G03X71338000Y-60232484I-1672335J-1078608D01*
G01*
X74570335Y-62546608D02*
G75*
G02X71338000Y-62703516I-1672335J1078608D01*
G01*
X73939130Y-60388163D02*
G75*
G03X71857039Y-60388000I-1041130J-1079837D01*
G01*
X73939130Y-62547837D02*
G75*
G02X71857039Y-62548000I-1041130J1079837D01*
G01*
X71338000Y-60232000D02*
X71338000Y-60388000D01*
X71338000Y-62548000D02*
X71338000Y-62704000D01*
G04 #@! TO.C,D10*
X76418000Y-62548000D02*
X76418000Y-62704000D01*
X76418000Y-60232000D02*
X76418000Y-60388000D01*
X79019130Y-62547837D02*
G75*
G02X76937039Y-62548000I-1041130J1079837D01*
G01*
X79019130Y-60388163D02*
G75*
G03X76937039Y-60388000I-1041130J-1079837D01*
G01*
X79650335Y-62546608D02*
G75*
G02X76418000Y-62703516I-1672335J1078608D01*
G01*
X79650335Y-60389392D02*
G75*
G03X76418000Y-60232484I-1672335J-1078608D01*
G01*
G04 #@! TO.C,D11*
X81498000Y-62548000D02*
X81498000Y-62704000D01*
X81498000Y-60232000D02*
X81498000Y-60388000D01*
X84099130Y-62547837D02*
G75*
G02X82017039Y-62548000I-1041130J1079837D01*
G01*
X84099130Y-60388163D02*
G75*
G03X82017039Y-60388000I-1041130J-1079837D01*
G01*
X84730335Y-62546608D02*
G75*
G02X81498000Y-62703516I-1672335J1078608D01*
G01*
X84730335Y-60389392D02*
G75*
G03X81498000Y-60232484I-1672335J-1078608D01*
G01*
G04 #@! TO.C,D12*
X86578000Y-62548000D02*
X86578000Y-62704000D01*
X86578000Y-60232000D02*
X86578000Y-60388000D01*
X89179130Y-62547837D02*
G75*
G02X87097039Y-62548000I-1041130J1079837D01*
G01*
X89179130Y-60388163D02*
G75*
G03X87097039Y-60388000I-1041130J-1079837D01*
G01*
X89810335Y-62546608D02*
G75*
G02X86578000Y-62703516I-1672335J1078608D01*
G01*
X89810335Y-60389392D02*
G75*
G03X86578000Y-60232484I-1672335J-1078608D01*
G01*
G04 #@! TO.C,D13*
X71338000Y-70168000D02*
X71338000Y-70324000D01*
X71338000Y-67852000D02*
X71338000Y-68008000D01*
X73939130Y-70167837D02*
G75*
G02X71857039Y-70168000I-1041130J1079837D01*
G01*
X73939130Y-68008163D02*
G75*
G03X71857039Y-68008000I-1041130J-1079837D01*
G01*
X74570335Y-70166608D02*
G75*
G02X71338000Y-70323516I-1672335J1078608D01*
G01*
X74570335Y-68009392D02*
G75*
G03X71338000Y-67852484I-1672335J-1078608D01*
G01*
G04 #@! TO.C,D14*
X79650335Y-68009392D02*
G75*
G03X76418000Y-67852484I-1672335J-1078608D01*
G01*
X79650335Y-70166608D02*
G75*
G02X76418000Y-70323516I-1672335J1078608D01*
G01*
X79019130Y-68008163D02*
G75*
G03X76937039Y-68008000I-1041130J-1079837D01*
G01*
X79019130Y-70167837D02*
G75*
G02X76937039Y-70168000I-1041130J1079837D01*
G01*
X76418000Y-67852000D02*
X76418000Y-68008000D01*
X76418000Y-70168000D02*
X76418000Y-70324000D01*
G04 #@! TO.C,D15*
X84730335Y-68009392D02*
G75*
G03X81498000Y-67852484I-1672335J-1078608D01*
G01*
X84730335Y-70166608D02*
G75*
G02X81498000Y-70323516I-1672335J1078608D01*
G01*
X84099130Y-68008163D02*
G75*
G03X82017039Y-68008000I-1041130J-1079837D01*
G01*
X84099130Y-70167837D02*
G75*
G02X82017039Y-70168000I-1041130J1079837D01*
G01*
X81498000Y-67852000D02*
X81498000Y-68008000D01*
X81498000Y-70168000D02*
X81498000Y-70324000D01*
G04 #@! TO.C,D16*
X89810335Y-68009392D02*
G75*
G03X86578000Y-67852484I-1672335J-1078608D01*
G01*
X89810335Y-70166608D02*
G75*
G02X86578000Y-70323516I-1672335J1078608D01*
G01*
X89179130Y-68008163D02*
G75*
G03X87097039Y-68008000I-1041130J-1079837D01*
G01*
X89179130Y-70167837D02*
G75*
G02X87097039Y-70168000I-1041130J1079837D01*
G01*
X86578000Y-67852000D02*
X86578000Y-68008000D01*
X86578000Y-70168000D02*
X86578000Y-70324000D01*
G04 #@! TO.C,R1*
X63328000Y-47908000D02*
X59608000Y-47908000D01*
X63328000Y-49628000D02*
X59608000Y-49628000D01*
G04 #@! TO.C,R2*
X63391005Y-65513839D02*
X59671005Y-65513839D01*
X63391005Y-63793839D02*
X59671005Y-63793839D01*
D12*
G04 #@! TO.C,U1*
X59393000Y-38623000D02*
X57993000Y-38623000D01*
X59393000Y-43723000D02*
X63543000Y-43723000D01*
X59393000Y-38573000D02*
X63543000Y-38573000D01*
X59393000Y-43723000D02*
X59393000Y-43578000D01*
X63543000Y-43723000D02*
X63543000Y-43578000D01*
X63543000Y-38573000D02*
X63543000Y-38718000D01*
X59393000Y-38573000D02*
X59393000Y-38623000D01*
G04 #@! TO.C,U3*
X67156005Y-69098839D02*
X66931005Y-69098839D01*
X67156005Y-75448839D02*
X66831005Y-75448839D01*
X55906005Y-75448839D02*
X56231005Y-75448839D01*
X55906005Y-69098839D02*
X56231005Y-69098839D01*
X67156005Y-69098839D02*
X67156005Y-75448839D01*
X55906005Y-69098839D02*
X55906005Y-75448839D01*
X66931005Y-69098839D02*
X66931005Y-68023839D01*
G04 #@! TO.C,U2*
X60706095Y-49290380D02*
X60706095Y-50099904D01*
X60753714Y-50195142D01*
X60801333Y-50242761D01*
X60896571Y-50290380D01*
X61087047Y-50290380D01*
X61182285Y-50242761D01*
X61229904Y-50195142D01*
X61277523Y-50099904D01*
X61277523Y-49290380D01*
X61706095Y-49385619D02*
X61753714Y-49338000D01*
X61848952Y-49290380D01*
X62087047Y-49290380D01*
X62182285Y-49338000D01*
X62229904Y-49385619D01*
X62277523Y-49480857D01*
X62277523Y-49576095D01*
X62229904Y-49718952D01*
X61658476Y-50290380D01*
X62277523Y-50290380D01*
G04 #@! TO.C,J2*
X52560380Y-36401333D02*
X53274666Y-36401333D01*
X53417523Y-36448952D01*
X53512761Y-36544190D01*
X53560380Y-36687047D01*
X53560380Y-36782285D01*
X52655619Y-35972761D02*
X52608000Y-35925142D01*
X52560380Y-35829904D01*
X52560380Y-35591809D01*
X52608000Y-35496571D01*
X52655619Y-35448952D01*
X52750857Y-35401333D01*
X52846095Y-35401333D01*
X52988952Y-35448952D01*
X53560380Y-36020380D01*
X53560380Y-35401333D01*
X48960380Y-37258476D02*
X48960380Y-36639428D01*
X49341333Y-36972761D01*
X49341333Y-36829904D01*
X49388952Y-36734666D01*
X49436571Y-36687047D01*
X49531809Y-36639428D01*
X49769904Y-36639428D01*
X49865142Y-36687047D01*
X49912761Y-36734666D01*
X49960380Y-36829904D01*
X49960380Y-37115619D01*
X49912761Y-37210857D01*
X49865142Y-37258476D01*
X49293714Y-36306095D02*
X49960380Y-36068000D01*
X49293714Y-35829904D01*
X48960380Y-35544190D02*
X48960380Y-34925142D01*
X49341333Y-35258476D01*
X49341333Y-35115619D01*
X49388952Y-35020380D01*
X49436571Y-34972761D01*
X49531809Y-34925142D01*
X49769904Y-34925142D01*
X49865142Y-34972761D01*
X49912761Y-35020380D01*
X49960380Y-35115619D01*
X49960380Y-35401333D01*
X49912761Y-35496571D01*
X49865142Y-35544190D01*
G04 #@! TO.C,J7*
X51609666Y-62085380D02*
X51609666Y-62799666D01*
X51562047Y-62942523D01*
X51466809Y-63037761D01*
X51323952Y-63085380D01*
X51228714Y-63085380D01*
X51990619Y-62085380D02*
X52657285Y-62085380D01*
X52228714Y-63085380D01*
X50970380Y-63090380D02*
X51637047Y-64090380D01*
X51637047Y-63090380D02*
X50970380Y-64090380D01*
X52494190Y-64090380D02*
X52018000Y-64090380D01*
X52018000Y-63090380D01*
X52779904Y-63804666D02*
X53256095Y-63804666D01*
X52684666Y-64090380D02*
X53018000Y-63090380D01*
X53351333Y-64090380D01*
X53541809Y-63090380D02*
X54113238Y-63090380D01*
X53827523Y-64090380D02*
X53827523Y-63090380D01*
G04 #@! TO.C,J6*
X51609666Y-58148380D02*
X51609666Y-58862666D01*
X51562047Y-59005523D01*
X51466809Y-59100761D01*
X51323952Y-59148380D01*
X51228714Y-59148380D01*
X52514428Y-58148380D02*
X52323952Y-58148380D01*
X52228714Y-58196000D01*
X52181095Y-58243619D01*
X52085857Y-58386476D01*
X52038238Y-58576952D01*
X52038238Y-58957904D01*
X52085857Y-59053142D01*
X52133476Y-59100761D01*
X52228714Y-59148380D01*
X52419190Y-59148380D01*
X52514428Y-59100761D01*
X52562047Y-59053142D01*
X52609666Y-58957904D01*
X52609666Y-58719809D01*
X52562047Y-58624571D01*
X52514428Y-58576952D01*
X52419190Y-58529333D01*
X52228714Y-58529333D01*
X52133476Y-58576952D01*
X52085857Y-58624571D01*
X52038238Y-58719809D01*
X54672761Y-58510619D02*
X54720380Y-58367761D01*
X54720380Y-58129666D01*
X54672761Y-58034428D01*
X54625142Y-57986809D01*
X54529904Y-57939190D01*
X54434666Y-57939190D01*
X54339428Y-57986809D01*
X54291809Y-58034428D01*
X54244190Y-58129666D01*
X54196571Y-58320142D01*
X54148952Y-58415380D01*
X54101333Y-58463000D01*
X54006095Y-58510619D01*
X53910857Y-58510619D01*
X53815619Y-58463000D01*
X53768000Y-58415380D01*
X53720380Y-58320142D01*
X53720380Y-58082047D01*
X53768000Y-57939190D01*
X54720380Y-57510619D02*
X53720380Y-57510619D01*
X54720380Y-57034428D02*
X53720380Y-57034428D01*
X54720380Y-56463000D01*
X53720380Y-56463000D01*
G04 #@! TO.C,J5*
X51609666Y-55100380D02*
X51609666Y-55814666D01*
X51562047Y-55957523D01*
X51466809Y-56052761D01*
X51323952Y-56100380D01*
X51228714Y-56100380D01*
X52562047Y-55100380D02*
X52085857Y-55100380D01*
X52038238Y-55576571D01*
X52085857Y-55528952D01*
X52181095Y-55481333D01*
X52419190Y-55481333D01*
X52514428Y-55528952D01*
X52562047Y-55576571D01*
X52609666Y-55671809D01*
X52609666Y-55909904D01*
X52562047Y-56005142D01*
X52514428Y-56052761D01*
X52419190Y-56100380D01*
X52181095Y-56100380D01*
X52085857Y-56052761D01*
X52038238Y-56005142D01*
X54713142Y-54697238D02*
X54760761Y-54744857D01*
X54808380Y-54887714D01*
X54808380Y-54982952D01*
X54760761Y-55125809D01*
X54665523Y-55221047D01*
X54570285Y-55268666D01*
X54379809Y-55316285D01*
X54236952Y-55316285D01*
X54046476Y-55268666D01*
X53951238Y-55221047D01*
X53856000Y-55125809D01*
X53808380Y-54982952D01*
X53808380Y-54887714D01*
X53856000Y-54744857D01*
X53903619Y-54697238D01*
X54808380Y-53792476D02*
X54808380Y-54268666D01*
X53808380Y-54268666D01*
X54808380Y-53459142D02*
X53808380Y-53459142D01*
X54808380Y-52887714D02*
X54236952Y-53316285D01*
X53808380Y-52887714D02*
X54379809Y-53459142D01*
G04 #@! TO.C,J4*
X51609666Y-52306380D02*
X51609666Y-53020666D01*
X51562047Y-53163523D01*
X51466809Y-53258761D01*
X51323952Y-53306380D01*
X51228714Y-53306380D01*
X52514428Y-52639714D02*
X52514428Y-53306380D01*
X52276333Y-52258761D02*
X52038238Y-52973047D01*
X52657285Y-52973047D01*
X51160857Y-48491571D02*
X51303714Y-48539190D01*
X51351333Y-48586809D01*
X51398952Y-48682047D01*
X51398952Y-48824904D01*
X51351333Y-48920142D01*
X51303714Y-48967761D01*
X51208476Y-49015380D01*
X50827523Y-49015380D01*
X50827523Y-48015380D01*
X51160857Y-48015380D01*
X51256095Y-48063000D01*
X51303714Y-48110619D01*
X51351333Y-48205857D01*
X51351333Y-48301095D01*
X51303714Y-48396333D01*
X51256095Y-48443952D01*
X51160857Y-48491571D01*
X50827523Y-48491571D01*
X51827523Y-49015380D02*
X51827523Y-48015380D01*
X52398952Y-49015380D02*
X51970380Y-48443952D01*
X52398952Y-48015380D02*
X51827523Y-48586809D01*
X53303714Y-49015380D02*
X52827523Y-49015380D01*
X52827523Y-48015380D01*
X53637047Y-49015380D02*
X53637047Y-48015380D01*
X54208476Y-49015380D01*
X54208476Y-48015380D01*
X54684666Y-49015380D02*
X54684666Y-48015380D01*
X55256095Y-49015380D02*
X54827523Y-48443952D01*
X55256095Y-48015380D02*
X54684666Y-48586809D01*
G04 #@! TO.C,J3*
X60180380Y-36401333D02*
X60894666Y-36401333D01*
X61037523Y-36448952D01*
X61132761Y-36544190D01*
X61180380Y-36687047D01*
X61180380Y-36782285D01*
X60180380Y-36020380D02*
X60180380Y-35401333D01*
X60561333Y-35734666D01*
X60561333Y-35591809D01*
X60608952Y-35496571D01*
X60656571Y-35448952D01*
X60751809Y-35401333D01*
X60989904Y-35401333D01*
X61085142Y-35448952D01*
X61132761Y-35496571D01*
X61180380Y-35591809D01*
X61180380Y-35877523D01*
X61132761Y-35972761D01*
X61085142Y-36020380D01*
X56628000Y-37925142D02*
X56580380Y-38020380D01*
X56580380Y-38163238D01*
X56628000Y-38306095D01*
X56723238Y-38401333D01*
X56818476Y-38448952D01*
X57008952Y-38496571D01*
X57151809Y-38496571D01*
X57342285Y-38448952D01*
X57437523Y-38401333D01*
X57532761Y-38306095D01*
X57580380Y-38163238D01*
X57580380Y-38068000D01*
X57532761Y-37925142D01*
X57485142Y-37877523D01*
X57151809Y-37877523D01*
X57151809Y-38068000D01*
X57580380Y-37448952D02*
X56913714Y-37448952D01*
X57104190Y-37448952D02*
X57008952Y-37401333D01*
X56961333Y-37353714D01*
X56913714Y-37258476D01*
X56913714Y-37163238D01*
X57580380Y-36687047D02*
X57532761Y-36782285D01*
X57485142Y-36829904D01*
X57389904Y-36877523D01*
X57104190Y-36877523D01*
X57008952Y-36829904D01*
X56961333Y-36782285D01*
X56913714Y-36687047D01*
X56913714Y-36544190D01*
X56961333Y-36448952D01*
X57008952Y-36401333D01*
X57104190Y-36353714D01*
X57389904Y-36353714D01*
X57485142Y-36401333D01*
X57532761Y-36448952D01*
X57580380Y-36544190D01*
X57580380Y-36687047D01*
X56913714Y-35496571D02*
X57580380Y-35496571D01*
X56913714Y-35925142D02*
X57437523Y-35925142D01*
X57532761Y-35877523D01*
X57580380Y-35782285D01*
X57580380Y-35639428D01*
X57532761Y-35544190D01*
X57485142Y-35496571D01*
X56913714Y-35020380D02*
X57580380Y-35020380D01*
X57008952Y-35020380D02*
X56961333Y-34972761D01*
X56913714Y-34877523D01*
X56913714Y-34734666D01*
X56961333Y-34639428D01*
X57056571Y-34591809D01*
X57580380Y-34591809D01*
X57580380Y-33687047D02*
X56580380Y-33687047D01*
X57532761Y-33687047D02*
X57580380Y-33782285D01*
X57580380Y-33972761D01*
X57532761Y-34068000D01*
X57485142Y-34115619D01*
X57389904Y-34163238D01*
X57104190Y-34163238D01*
X57008952Y-34115619D01*
X56961333Y-34068000D01*
X56913714Y-33972761D01*
X56913714Y-33782285D01*
X56961333Y-33687047D01*
G04 #@! TO.C,J1*
X63990380Y-36401333D02*
X64704666Y-36401333D01*
X64847523Y-36448952D01*
X64942761Y-36544190D01*
X64990380Y-36687047D01*
X64990380Y-36782285D01*
X64990380Y-35401333D02*
X64990380Y-35972761D01*
X64990380Y-35687047D02*
X63990380Y-35687047D01*
X64133238Y-35782285D01*
X64228476Y-35877523D01*
X64276095Y-35972761D01*
X62595142Y-32980380D02*
X62118952Y-32980380D01*
X62071333Y-33456571D01*
X62118952Y-33408952D01*
X62214190Y-33361333D01*
X62452285Y-33361333D01*
X62547523Y-33408952D01*
X62595142Y-33456571D01*
X62642761Y-33551809D01*
X62642761Y-33789904D01*
X62595142Y-33885142D01*
X62547523Y-33932761D01*
X62452285Y-33980380D01*
X62214190Y-33980380D01*
X62118952Y-33932761D01*
X62071333Y-33885142D01*
X62976095Y-33313714D02*
X63214190Y-33980380D01*
X63452285Y-33313714D01*
G04 #@! TO.C,C1*
X52931333Y-38195142D02*
X52883714Y-38242761D01*
X52740857Y-38290380D01*
X52645619Y-38290380D01*
X52502761Y-38242761D01*
X52407523Y-38147523D01*
X52359904Y-38052285D01*
X52312285Y-37861809D01*
X52312285Y-37718952D01*
X52359904Y-37528476D01*
X52407523Y-37433238D01*
X52502761Y-37338000D01*
X52645619Y-37290380D01*
X52740857Y-37290380D01*
X52883714Y-37338000D01*
X52931333Y-37385619D01*
X53883714Y-38290380D02*
X53312285Y-38290380D01*
X53598000Y-38290380D02*
X53598000Y-37290380D01*
X53502761Y-37433238D01*
X53407523Y-37528476D01*
X53312285Y-37576095D01*
G04 #@! TO.C,C2*
X72501142Y-41302666D02*
X72548761Y-41350285D01*
X72596380Y-41493142D01*
X72596380Y-41588380D01*
X72548761Y-41731238D01*
X72453523Y-41826476D01*
X72358285Y-41874095D01*
X72167809Y-41921714D01*
X72024952Y-41921714D01*
X71834476Y-41874095D01*
X71739238Y-41826476D01*
X71644000Y-41731238D01*
X71596380Y-41588380D01*
X71596380Y-41493142D01*
X71644000Y-41350285D01*
X71691619Y-41302666D01*
X71691619Y-40921714D02*
X71644000Y-40874095D01*
X71596380Y-40778857D01*
X71596380Y-40540761D01*
X71644000Y-40445523D01*
X71691619Y-40397904D01*
X71786857Y-40350285D01*
X71882095Y-40350285D01*
X72024952Y-40397904D01*
X72596380Y-40969333D01*
X72596380Y-40350285D01*
G04 #@! TO.C,D1*
X72159904Y-43720380D02*
X72159904Y-42720380D01*
X72398000Y-42720380D01*
X72540857Y-42768000D01*
X72636095Y-42863238D01*
X72683714Y-42958476D01*
X72731333Y-43148952D01*
X72731333Y-43291809D01*
X72683714Y-43482285D01*
X72636095Y-43577523D01*
X72540857Y-43672761D01*
X72398000Y-43720380D01*
X72159904Y-43720380D01*
X73683714Y-43720380D02*
X73112285Y-43720380D01*
X73398000Y-43720380D02*
X73398000Y-42720380D01*
X73302761Y-42863238D01*
X73207523Y-42958476D01*
X73112285Y-43006095D01*
G04 #@! TO.C,D2*
X77239904Y-43720380D02*
X77239904Y-42720380D01*
X77478000Y-42720380D01*
X77620857Y-42768000D01*
X77716095Y-42863238D01*
X77763714Y-42958476D01*
X77811333Y-43148952D01*
X77811333Y-43291809D01*
X77763714Y-43482285D01*
X77716095Y-43577523D01*
X77620857Y-43672761D01*
X77478000Y-43720380D01*
X77239904Y-43720380D01*
X78192285Y-42815619D02*
X78239904Y-42768000D01*
X78335142Y-42720380D01*
X78573238Y-42720380D01*
X78668476Y-42768000D01*
X78716095Y-42815619D01*
X78763714Y-42910857D01*
X78763714Y-43006095D01*
X78716095Y-43148952D01*
X78144666Y-43720380D01*
X78763714Y-43720380D01*
G04 #@! TO.C,D3*
X82319904Y-43720380D02*
X82319904Y-42720380D01*
X82558000Y-42720380D01*
X82700857Y-42768000D01*
X82796095Y-42863238D01*
X82843714Y-42958476D01*
X82891333Y-43148952D01*
X82891333Y-43291809D01*
X82843714Y-43482285D01*
X82796095Y-43577523D01*
X82700857Y-43672761D01*
X82558000Y-43720380D01*
X82319904Y-43720380D01*
X83224666Y-42720380D02*
X83843714Y-42720380D01*
X83510380Y-43101333D01*
X83653238Y-43101333D01*
X83748476Y-43148952D01*
X83796095Y-43196571D01*
X83843714Y-43291809D01*
X83843714Y-43529904D01*
X83796095Y-43625142D01*
X83748476Y-43672761D01*
X83653238Y-43720380D01*
X83367523Y-43720380D01*
X83272285Y-43672761D01*
X83224666Y-43625142D01*
G04 #@! TO.C,D4*
X87399904Y-43720380D02*
X87399904Y-42720380D01*
X87638000Y-42720380D01*
X87780857Y-42768000D01*
X87876095Y-42863238D01*
X87923714Y-42958476D01*
X87971333Y-43148952D01*
X87971333Y-43291809D01*
X87923714Y-43482285D01*
X87876095Y-43577523D01*
X87780857Y-43672761D01*
X87638000Y-43720380D01*
X87399904Y-43720380D01*
X88828476Y-43053714D02*
X88828476Y-43720380D01*
X88590380Y-42672761D02*
X88352285Y-43387047D01*
X88971333Y-43387047D01*
G04 #@! TO.C,D5*
X72159904Y-51340380D02*
X72159904Y-50340380D01*
X72398000Y-50340380D01*
X72540857Y-50388000D01*
X72636095Y-50483238D01*
X72683714Y-50578476D01*
X72731333Y-50768952D01*
X72731333Y-50911809D01*
X72683714Y-51102285D01*
X72636095Y-51197523D01*
X72540857Y-51292761D01*
X72398000Y-51340380D01*
X72159904Y-51340380D01*
X73636095Y-50340380D02*
X73159904Y-50340380D01*
X73112285Y-50816571D01*
X73159904Y-50768952D01*
X73255142Y-50721333D01*
X73493238Y-50721333D01*
X73588476Y-50768952D01*
X73636095Y-50816571D01*
X73683714Y-50911809D01*
X73683714Y-51149904D01*
X73636095Y-51245142D01*
X73588476Y-51292761D01*
X73493238Y-51340380D01*
X73255142Y-51340380D01*
X73159904Y-51292761D01*
X73112285Y-51245142D01*
G04 #@! TO.C,D6*
X77239904Y-51340380D02*
X77239904Y-50340380D01*
X77478000Y-50340380D01*
X77620857Y-50388000D01*
X77716095Y-50483238D01*
X77763714Y-50578476D01*
X77811333Y-50768952D01*
X77811333Y-50911809D01*
X77763714Y-51102285D01*
X77716095Y-51197523D01*
X77620857Y-51292761D01*
X77478000Y-51340380D01*
X77239904Y-51340380D01*
X78668476Y-50340380D02*
X78478000Y-50340380D01*
X78382761Y-50388000D01*
X78335142Y-50435619D01*
X78239904Y-50578476D01*
X78192285Y-50768952D01*
X78192285Y-51149904D01*
X78239904Y-51245142D01*
X78287523Y-51292761D01*
X78382761Y-51340380D01*
X78573238Y-51340380D01*
X78668476Y-51292761D01*
X78716095Y-51245142D01*
X78763714Y-51149904D01*
X78763714Y-50911809D01*
X78716095Y-50816571D01*
X78668476Y-50768952D01*
X78573238Y-50721333D01*
X78382761Y-50721333D01*
X78287523Y-50768952D01*
X78239904Y-50816571D01*
X78192285Y-50911809D01*
G04 #@! TO.C,D7*
X82319904Y-51340380D02*
X82319904Y-50340380D01*
X82558000Y-50340380D01*
X82700857Y-50388000D01*
X82796095Y-50483238D01*
X82843714Y-50578476D01*
X82891333Y-50768952D01*
X82891333Y-50911809D01*
X82843714Y-51102285D01*
X82796095Y-51197523D01*
X82700857Y-51292761D01*
X82558000Y-51340380D01*
X82319904Y-51340380D01*
X83224666Y-50340380D02*
X83891333Y-50340380D01*
X83462761Y-51340380D01*
G04 #@! TO.C,D8*
X87399904Y-51340380D02*
X87399904Y-50340380D01*
X87638000Y-50340380D01*
X87780857Y-50388000D01*
X87876095Y-50483238D01*
X87923714Y-50578476D01*
X87971333Y-50768952D01*
X87971333Y-50911809D01*
X87923714Y-51102285D01*
X87876095Y-51197523D01*
X87780857Y-51292761D01*
X87638000Y-51340380D01*
X87399904Y-51340380D01*
X88542761Y-50768952D02*
X88447523Y-50721333D01*
X88399904Y-50673714D01*
X88352285Y-50578476D01*
X88352285Y-50530857D01*
X88399904Y-50435619D01*
X88447523Y-50388000D01*
X88542761Y-50340380D01*
X88733238Y-50340380D01*
X88828476Y-50388000D01*
X88876095Y-50435619D01*
X88923714Y-50530857D01*
X88923714Y-50578476D01*
X88876095Y-50673714D01*
X88828476Y-50721333D01*
X88733238Y-50768952D01*
X88542761Y-50768952D01*
X88447523Y-50816571D01*
X88399904Y-50864190D01*
X88352285Y-50959428D01*
X88352285Y-51149904D01*
X88399904Y-51245142D01*
X88447523Y-51292761D01*
X88542761Y-51340380D01*
X88733238Y-51340380D01*
X88828476Y-51292761D01*
X88876095Y-51245142D01*
X88923714Y-51149904D01*
X88923714Y-50959428D01*
X88876095Y-50864190D01*
X88828476Y-50816571D01*
X88733238Y-50768952D01*
G04 #@! TO.C,D9*
X72159904Y-58960380D02*
X72159904Y-57960380D01*
X72398000Y-57960380D01*
X72540857Y-58008000D01*
X72636095Y-58103238D01*
X72683714Y-58198476D01*
X72731333Y-58388952D01*
X72731333Y-58531809D01*
X72683714Y-58722285D01*
X72636095Y-58817523D01*
X72540857Y-58912761D01*
X72398000Y-58960380D01*
X72159904Y-58960380D01*
X73207523Y-58960380D02*
X73398000Y-58960380D01*
X73493238Y-58912761D01*
X73540857Y-58865142D01*
X73636095Y-58722285D01*
X73683714Y-58531809D01*
X73683714Y-58150857D01*
X73636095Y-58055619D01*
X73588476Y-58008000D01*
X73493238Y-57960380D01*
X73302761Y-57960380D01*
X73207523Y-58008000D01*
X73159904Y-58055619D01*
X73112285Y-58150857D01*
X73112285Y-58388952D01*
X73159904Y-58484190D01*
X73207523Y-58531809D01*
X73302761Y-58579428D01*
X73493238Y-58579428D01*
X73588476Y-58531809D01*
X73636095Y-58484190D01*
X73683714Y-58388952D01*
G04 #@! TO.C,D10*
X76763714Y-58960380D02*
X76763714Y-57960380D01*
X77001809Y-57960380D01*
X77144666Y-58008000D01*
X77239904Y-58103238D01*
X77287523Y-58198476D01*
X77335142Y-58388952D01*
X77335142Y-58531809D01*
X77287523Y-58722285D01*
X77239904Y-58817523D01*
X77144666Y-58912761D01*
X77001809Y-58960380D01*
X76763714Y-58960380D01*
X78287523Y-58960380D02*
X77716095Y-58960380D01*
X78001809Y-58960380D02*
X78001809Y-57960380D01*
X77906571Y-58103238D01*
X77811333Y-58198476D01*
X77716095Y-58246095D01*
X78906571Y-57960380D02*
X79001809Y-57960380D01*
X79097047Y-58008000D01*
X79144666Y-58055619D01*
X79192285Y-58150857D01*
X79239904Y-58341333D01*
X79239904Y-58579428D01*
X79192285Y-58769904D01*
X79144666Y-58865142D01*
X79097047Y-58912761D01*
X79001809Y-58960380D01*
X78906571Y-58960380D01*
X78811333Y-58912761D01*
X78763714Y-58865142D01*
X78716095Y-58769904D01*
X78668476Y-58579428D01*
X78668476Y-58341333D01*
X78716095Y-58150857D01*
X78763714Y-58055619D01*
X78811333Y-58008000D01*
X78906571Y-57960380D01*
G04 #@! TO.C,D11*
X81843714Y-58960380D02*
X81843714Y-57960380D01*
X82081809Y-57960380D01*
X82224666Y-58008000D01*
X82319904Y-58103238D01*
X82367523Y-58198476D01*
X82415142Y-58388952D01*
X82415142Y-58531809D01*
X82367523Y-58722285D01*
X82319904Y-58817523D01*
X82224666Y-58912761D01*
X82081809Y-58960380D01*
X81843714Y-58960380D01*
X83367523Y-58960380D02*
X82796095Y-58960380D01*
X83081809Y-58960380D02*
X83081809Y-57960380D01*
X82986571Y-58103238D01*
X82891333Y-58198476D01*
X82796095Y-58246095D01*
X84319904Y-58960380D02*
X83748476Y-58960380D01*
X84034190Y-58960380D02*
X84034190Y-57960380D01*
X83938952Y-58103238D01*
X83843714Y-58198476D01*
X83748476Y-58246095D01*
G04 #@! TO.C,D12*
X86923714Y-58960380D02*
X86923714Y-57960380D01*
X87161809Y-57960380D01*
X87304666Y-58008000D01*
X87399904Y-58103238D01*
X87447523Y-58198476D01*
X87495142Y-58388952D01*
X87495142Y-58531809D01*
X87447523Y-58722285D01*
X87399904Y-58817523D01*
X87304666Y-58912761D01*
X87161809Y-58960380D01*
X86923714Y-58960380D01*
X88447523Y-58960380D02*
X87876095Y-58960380D01*
X88161809Y-58960380D02*
X88161809Y-57960380D01*
X88066571Y-58103238D01*
X87971333Y-58198476D01*
X87876095Y-58246095D01*
X88828476Y-58055619D02*
X88876095Y-58008000D01*
X88971333Y-57960380D01*
X89209428Y-57960380D01*
X89304666Y-58008000D01*
X89352285Y-58055619D01*
X89399904Y-58150857D01*
X89399904Y-58246095D01*
X89352285Y-58388952D01*
X88780857Y-58960380D01*
X89399904Y-58960380D01*
G04 #@! TO.C,D13*
X71683714Y-66580380D02*
X71683714Y-65580380D01*
X71921809Y-65580380D01*
X72064666Y-65628000D01*
X72159904Y-65723238D01*
X72207523Y-65818476D01*
X72255142Y-66008952D01*
X72255142Y-66151809D01*
X72207523Y-66342285D01*
X72159904Y-66437523D01*
X72064666Y-66532761D01*
X71921809Y-66580380D01*
X71683714Y-66580380D01*
X73207523Y-66580380D02*
X72636095Y-66580380D01*
X72921809Y-66580380D02*
X72921809Y-65580380D01*
X72826571Y-65723238D01*
X72731333Y-65818476D01*
X72636095Y-65866095D01*
X73540857Y-65580380D02*
X74159904Y-65580380D01*
X73826571Y-65961333D01*
X73969428Y-65961333D01*
X74064666Y-66008952D01*
X74112285Y-66056571D01*
X74159904Y-66151809D01*
X74159904Y-66389904D01*
X74112285Y-66485142D01*
X74064666Y-66532761D01*
X73969428Y-66580380D01*
X73683714Y-66580380D01*
X73588476Y-66532761D01*
X73540857Y-66485142D01*
G04 #@! TO.C,D14*
X76763714Y-66580380D02*
X76763714Y-65580380D01*
X77001809Y-65580380D01*
X77144666Y-65628000D01*
X77239904Y-65723238D01*
X77287523Y-65818476D01*
X77335142Y-66008952D01*
X77335142Y-66151809D01*
X77287523Y-66342285D01*
X77239904Y-66437523D01*
X77144666Y-66532761D01*
X77001809Y-66580380D01*
X76763714Y-66580380D01*
X78287523Y-66580380D02*
X77716095Y-66580380D01*
X78001809Y-66580380D02*
X78001809Y-65580380D01*
X77906571Y-65723238D01*
X77811333Y-65818476D01*
X77716095Y-65866095D01*
X79144666Y-65913714D02*
X79144666Y-66580380D01*
X78906571Y-65532761D02*
X78668476Y-66247047D01*
X79287523Y-66247047D01*
G04 #@! TO.C,D15*
X81843714Y-66580380D02*
X81843714Y-65580380D01*
X82081809Y-65580380D01*
X82224666Y-65628000D01*
X82319904Y-65723238D01*
X82367523Y-65818476D01*
X82415142Y-66008952D01*
X82415142Y-66151809D01*
X82367523Y-66342285D01*
X82319904Y-66437523D01*
X82224666Y-66532761D01*
X82081809Y-66580380D01*
X81843714Y-66580380D01*
X83367523Y-66580380D02*
X82796095Y-66580380D01*
X83081809Y-66580380D02*
X83081809Y-65580380D01*
X82986571Y-65723238D01*
X82891333Y-65818476D01*
X82796095Y-65866095D01*
X84272285Y-65580380D02*
X83796095Y-65580380D01*
X83748476Y-66056571D01*
X83796095Y-66008952D01*
X83891333Y-65961333D01*
X84129428Y-65961333D01*
X84224666Y-66008952D01*
X84272285Y-66056571D01*
X84319904Y-66151809D01*
X84319904Y-66389904D01*
X84272285Y-66485142D01*
X84224666Y-66532761D01*
X84129428Y-66580380D01*
X83891333Y-66580380D01*
X83796095Y-66532761D01*
X83748476Y-66485142D01*
G04 #@! TO.C,D16*
X86923714Y-66580380D02*
X86923714Y-65580380D01*
X87161809Y-65580380D01*
X87304666Y-65628000D01*
X87399904Y-65723238D01*
X87447523Y-65818476D01*
X87495142Y-66008952D01*
X87495142Y-66151809D01*
X87447523Y-66342285D01*
X87399904Y-66437523D01*
X87304666Y-66532761D01*
X87161809Y-66580380D01*
X86923714Y-66580380D01*
X88447523Y-66580380D02*
X87876095Y-66580380D01*
X88161809Y-66580380D02*
X88161809Y-65580380D01*
X88066571Y-65723238D01*
X87971333Y-65818476D01*
X87876095Y-65866095D01*
X89304666Y-65580380D02*
X89114190Y-65580380D01*
X89018952Y-65628000D01*
X88971333Y-65675619D01*
X88876095Y-65818476D01*
X88828476Y-66008952D01*
X88828476Y-66389904D01*
X88876095Y-66485142D01*
X88923714Y-66532761D01*
X89018952Y-66580380D01*
X89209428Y-66580380D01*
X89304666Y-66532761D01*
X89352285Y-66485142D01*
X89399904Y-66389904D01*
X89399904Y-66151809D01*
X89352285Y-66056571D01*
X89304666Y-66008952D01*
X89209428Y-65961333D01*
X89018952Y-65961333D01*
X88923714Y-66008952D01*
X88876095Y-66056571D01*
X88828476Y-66151809D01*
G04 #@! TO.C,R1*
X61301333Y-51080380D02*
X60968000Y-50604190D01*
X60729904Y-51080380D02*
X60729904Y-50080380D01*
X61110857Y-50080380D01*
X61206095Y-50128000D01*
X61253714Y-50175619D01*
X61301333Y-50270857D01*
X61301333Y-50413714D01*
X61253714Y-50508952D01*
X61206095Y-50556571D01*
X61110857Y-50604190D01*
X60729904Y-50604190D01*
X62253714Y-51080380D02*
X61682285Y-51080380D01*
X61968000Y-51080380D02*
X61968000Y-50080380D01*
X61872761Y-50223238D01*
X61777523Y-50318476D01*
X61682285Y-50366095D01*
G04 #@! TO.C,R2*
X61364338Y-66966219D02*
X61031005Y-66490029D01*
X60792909Y-66966219D02*
X60792909Y-65966219D01*
X61173862Y-65966219D01*
X61269100Y-66013839D01*
X61316719Y-66061458D01*
X61364338Y-66156696D01*
X61364338Y-66299553D01*
X61316719Y-66394791D01*
X61269100Y-66442410D01*
X61173862Y-66490029D01*
X60792909Y-66490029D01*
X61745290Y-66061458D02*
X61792909Y-66013839D01*
X61888147Y-65966219D01*
X62126243Y-65966219D01*
X62221481Y-66013839D01*
X62269100Y-66061458D01*
X62316719Y-66156696D01*
X62316719Y-66251934D01*
X62269100Y-66394791D01*
X61697671Y-66966219D01*
X62316719Y-66966219D01*
G04 #@! TO.C,U1*
X60706095Y-37100380D02*
X60706095Y-37909904D01*
X60753714Y-38005142D01*
X60801333Y-38052761D01*
X60896571Y-38100380D01*
X61087047Y-38100380D01*
X61182285Y-38052761D01*
X61229904Y-38005142D01*
X61277523Y-37909904D01*
X61277523Y-37100380D01*
X62277523Y-38100380D02*
X61706095Y-38100380D01*
X61991809Y-38100380D02*
X61991809Y-37100380D01*
X61896571Y-37243238D01*
X61801333Y-37338476D01*
X61706095Y-37386095D01*
G04 #@! TO.C,U3*
X67533385Y-73035743D02*
X68342909Y-73035743D01*
X68438147Y-72988124D01*
X68485766Y-72940505D01*
X68533385Y-72845267D01*
X68533385Y-72654791D01*
X68485766Y-72559553D01*
X68438147Y-72511934D01*
X68342909Y-72464315D01*
X67533385Y-72464315D01*
X67533385Y-72083362D02*
X67533385Y-71464315D01*
X67914338Y-71797648D01*
X67914338Y-71654791D01*
X67961957Y-71559553D01*
X68009576Y-71511934D01*
X68104814Y-71464315D01*
X68342909Y-71464315D01*
X68438147Y-71511934D01*
X68485766Y-71559553D01*
X68533385Y-71654791D01*
X68533385Y-71940505D01*
X68485766Y-72035743D01*
X68438147Y-72083362D01*
G04 #@! TD*
M02*
