G04 #@! TF.GenerationSoftware,KiCad,Pcbnew,(5.0.1)-3*
G04 #@! TF.CreationDate,2018-10-20T23:17:48-07:00*
G04 #@! TF.ProjectId,ODKB_Board,4F444B425F426F6172642E6B69636164,rev?*
G04 #@! TF.SameCoordinates,Original*
G04 #@! TF.FileFunction,Copper,L2,Bot,Signal*
G04 #@! TF.FilePolarity,Positive*
%FSLAX46Y46*%
G04 Gerber Fmt 4.6, Leading zero omitted, Abs format (unit mm)*
G04 Created by KiCad (PCBNEW (5.0.1)-3) date 10/20/2018 11:17:48 PM*
%MOMM*%
%LPD*%
G01*
G04 APERTURE LIST*
G04 #@! TA.AperFunction,ComponentPad*
%ADD10C,1.400000*%
G04 #@! TD*
G04 #@! TA.AperFunction,ComponentPad*
%ADD11C,1.200000*%
G04 #@! TD*
G04 #@! TA.AperFunction,ComponentPad*
%ADD12R,1.200000X1.200000*%
G04 #@! TD*
G04 #@! TA.AperFunction,ComponentPad*
%ADD13R,1.800000X1.800000*%
G04 #@! TD*
G04 #@! TA.AperFunction,ComponentPad*
%ADD14C,1.800000*%
G04 #@! TD*
G04 #@! TA.AperFunction,ComponentPad*
%ADD15O,1.400000X1.400000*%
G04 #@! TD*
G04 #@! TA.AperFunction,ViaPad*
%ADD16C,0.800000*%
G04 #@! TD*
G04 #@! TA.AperFunction,Conductor*
%ADD17C,0.250000*%
G04 #@! TD*
G04 #@! TA.AperFunction,Conductor*
%ADD18C,0.254000*%
G04 #@! TD*
G04 APERTURE END LIST*
D10*
G04 #@! TO.P,J2,1*
G04 #@! TO.N,+3V3*
X51308000Y-36068000D03*
G04 #@! TD*
G04 #@! TO.P,J7,1*
G04 #@! TO.N,/XLAT*
X51943000Y-60833000D03*
G04 #@! TD*
G04 #@! TO.P,J6,1*
G04 #@! TO.N,/SIN*
X51943000Y-56896000D03*
G04 #@! TD*
G04 #@! TO.P,J5,1*
G04 #@! TO.N,/CLK*
X51943000Y-53848000D03*
G04 #@! TD*
G04 #@! TO.P,J4,1*
G04 #@! TO.N,/BLANK*
X51943000Y-51054000D03*
G04 #@! TD*
G04 #@! TO.P,J3,1*
G04 #@! TO.N,GND*
X58928000Y-36068000D03*
G04 #@! TD*
G04 #@! TO.P,J1,1*
G04 #@! TO.N,+5V*
X62738000Y-36068000D03*
G04 #@! TD*
D11*
G04 #@! TO.P,C1,2*
G04 #@! TO.N,GND*
X53848000Y-41148000D03*
D12*
G04 #@! TO.P,C1,1*
G04 #@! TO.N,+5V*
X52348000Y-41148000D03*
G04 #@! TD*
G04 #@! TO.P,C2,1*
G04 #@! TO.N,+3V3*
X68834000Y-40386000D03*
D11*
G04 #@! TO.P,C2,2*
G04 #@! TO.N,GND*
X68834000Y-41886000D03*
G04 #@! TD*
D13*
G04 #@! TO.P,D1,1*
G04 #@! TO.N,/led1*
X71628000Y-46228000D03*
D14*
G04 #@! TO.P,D1,2*
G04 #@! TO.N,+5V*
X74168000Y-46228000D03*
G04 #@! TD*
G04 #@! TO.P,D2,2*
G04 #@! TO.N,+5V*
X79248000Y-46228000D03*
D13*
G04 #@! TO.P,D2,1*
G04 #@! TO.N,/led2*
X76708000Y-46228000D03*
G04 #@! TD*
D14*
G04 #@! TO.P,D3,2*
G04 #@! TO.N,+5V*
X84328000Y-46228000D03*
D13*
G04 #@! TO.P,D3,1*
G04 #@! TO.N,/led3*
X81788000Y-46228000D03*
G04 #@! TD*
D14*
G04 #@! TO.P,D4,2*
G04 #@! TO.N,+5V*
X89408000Y-46228000D03*
D13*
G04 #@! TO.P,D4,1*
G04 #@! TO.N,/led4*
X86868000Y-46228000D03*
G04 #@! TD*
D14*
G04 #@! TO.P,D5,2*
G04 #@! TO.N,+5V*
X74168000Y-53848000D03*
D13*
G04 #@! TO.P,D5,1*
G04 #@! TO.N,/led5*
X71628000Y-53848000D03*
G04 #@! TD*
G04 #@! TO.P,D6,1*
G04 #@! TO.N,/led6*
X76708000Y-53848000D03*
D14*
G04 #@! TO.P,D6,2*
G04 #@! TO.N,+5V*
X79248000Y-53848000D03*
G04 #@! TD*
D13*
G04 #@! TO.P,D7,1*
G04 #@! TO.N,/led7*
X81788000Y-53848000D03*
D14*
G04 #@! TO.P,D7,2*
G04 #@! TO.N,+5V*
X84328000Y-53848000D03*
G04 #@! TD*
D13*
G04 #@! TO.P,D8,1*
G04 #@! TO.N,/led8*
X86868000Y-53848000D03*
D14*
G04 #@! TO.P,D8,2*
G04 #@! TO.N,+5V*
X89408000Y-53848000D03*
G04 #@! TD*
D13*
G04 #@! TO.P,D9,1*
G04 #@! TO.N,/led9*
X71628000Y-61468000D03*
D14*
G04 #@! TO.P,D9,2*
G04 #@! TO.N,+5V*
X74168000Y-61468000D03*
G04 #@! TD*
G04 #@! TO.P,D10,2*
G04 #@! TO.N,+5V*
X79248000Y-61468000D03*
D13*
G04 #@! TO.P,D10,1*
G04 #@! TO.N,/led10*
X76708000Y-61468000D03*
G04 #@! TD*
D14*
G04 #@! TO.P,D11,2*
G04 #@! TO.N,+5V*
X84328000Y-61468000D03*
D13*
G04 #@! TO.P,D11,1*
G04 #@! TO.N,/led11*
X81788000Y-61468000D03*
G04 #@! TD*
D14*
G04 #@! TO.P,D12,2*
G04 #@! TO.N,+5V*
X89408000Y-61468000D03*
D13*
G04 #@! TO.P,D12,1*
G04 #@! TO.N,/led12*
X86868000Y-61468000D03*
G04 #@! TD*
D14*
G04 #@! TO.P,D13,2*
G04 #@! TO.N,+5V*
X74168000Y-69088000D03*
D13*
G04 #@! TO.P,D13,1*
G04 #@! TO.N,/led13*
X71628000Y-69088000D03*
G04 #@! TD*
G04 #@! TO.P,D14,1*
G04 #@! TO.N,/led14*
X76708000Y-69088000D03*
D14*
G04 #@! TO.P,D14,2*
G04 #@! TO.N,+5V*
X79248000Y-69088000D03*
G04 #@! TD*
D13*
G04 #@! TO.P,D15,1*
G04 #@! TO.N,/led15*
X81788000Y-69088000D03*
D14*
G04 #@! TO.P,D15,2*
G04 #@! TO.N,+5V*
X84328000Y-69088000D03*
G04 #@! TD*
D13*
G04 #@! TO.P,D16,1*
G04 #@! TO.N,/led16*
X86868000Y-69088000D03*
D14*
G04 #@! TO.P,D16,2*
G04 #@! TO.N,+5V*
X89408000Y-69088000D03*
G04 #@! TD*
D15*
G04 #@! TO.P,R1,2*
G04 #@! TO.N,GND*
X58928000Y-48768000D03*
D10*
G04 #@! TO.P,R1,1*
G04 #@! TO.N,Net-(R1-Pad1)*
X64008000Y-48768000D03*
G04 #@! TD*
G04 #@! TO.P,R2,1*
G04 #@! TO.N,Net-(R2-Pad1)*
X64071005Y-64653839D03*
D15*
G04 #@! TO.P,R2,2*
G04 #@! TO.N,GND*
X58991005Y-64653839D03*
G04 #@! TD*
D16*
G04 #@! TO.N,+5V*
X67818000Y-76073000D03*
X56388000Y-42418000D03*
X62103000Y-39878000D03*
X65768000Y-50888000D03*
G04 #@! TO.N,GND*
X76708000Y-56388000D03*
X81788000Y-56388000D03*
X86868000Y-56388000D03*
X76768000Y-50038000D03*
X81918000Y-50038000D03*
X87818000Y-49938000D03*
X76318000Y-66188000D03*
X81968000Y-66338000D03*
X86968000Y-65688000D03*
X60468000Y-57838000D03*
X83518000Y-36488000D03*
X60618000Y-39188000D03*
X65718000Y-40338000D03*
X65718000Y-42088000D03*
X57268000Y-40038000D03*
X68418000Y-65588000D03*
X56818000Y-48838000D03*
G04 #@! TO.N,/BLANK*
X55753000Y-50673000D03*
X66692183Y-67327183D03*
G04 #@! TO.N,/CLK*
X65985075Y-66620075D03*
X59228001Y-52385347D03*
G04 #@! TO.N,/XLAT*
X59270333Y-56665058D03*
X55968000Y-58938000D03*
G04 #@! TO.N,Net-(R1-Pad1)*
X67183000Y-50673000D03*
G04 #@! TO.N,Net-(U2-Pad29)*
X63118000Y-60488000D03*
X64968000Y-62838000D03*
G04 #@! TO.N,Net-(R2-Pad1)*
X65913000Y-77978000D03*
G04 #@! TD*
D17*
G04 #@! TO.N,+5V*
X74168000Y-47500792D02*
X74168000Y-53848000D01*
X74168000Y-46228000D02*
X74168000Y-47500792D01*
X74168000Y-53848000D02*
X74168000Y-61468000D01*
X74168000Y-61468000D02*
X74168000Y-69088000D01*
X79248000Y-46228000D02*
X79248000Y-53848000D01*
X79248000Y-55120792D02*
X79248000Y-61468000D01*
X79248000Y-53848000D02*
X79248000Y-55120792D01*
X79248000Y-61468000D02*
X79248000Y-69088000D01*
X84328000Y-46228000D02*
X84328000Y-53848000D01*
X84328000Y-55120792D02*
X84328000Y-61468000D01*
X84328000Y-53848000D02*
X84328000Y-55120792D01*
X84328000Y-61468000D02*
X84328000Y-69088000D01*
X89408000Y-61468000D02*
X89408000Y-69088000D01*
X89408000Y-53848000D02*
X89408000Y-61468000D01*
X89408000Y-46228000D02*
X89408000Y-53848000D01*
X78348001Y-45328001D02*
X79248000Y-46228000D01*
X78022999Y-45002999D02*
X78348001Y-45328001D01*
X75393001Y-45002999D02*
X78022999Y-45002999D01*
X74168000Y-46228000D02*
X75393001Y-45002999D01*
X83428001Y-45328001D02*
X84328000Y-46228000D01*
X83102999Y-45002999D02*
X83428001Y-45328001D01*
X80473001Y-45002999D02*
X83102999Y-45002999D01*
X79248000Y-46228000D02*
X80473001Y-45002999D01*
X88508001Y-45328001D02*
X89408000Y-46228000D01*
X88182999Y-45002999D02*
X88508001Y-45328001D01*
X85553001Y-45002999D02*
X88182999Y-45002999D01*
X84328000Y-46228000D02*
X85553001Y-45002999D01*
X83428001Y-68188001D02*
X84328000Y-69088000D01*
X83058000Y-67818000D02*
X83428001Y-68188001D01*
X80518000Y-67818000D02*
X83058000Y-67818000D01*
X79248000Y-69088000D02*
X80518000Y-67818000D01*
X88508001Y-68188001D02*
X89408000Y-69088000D01*
X88182999Y-67862999D02*
X88508001Y-68188001D01*
X85553001Y-67862999D02*
X88182999Y-67862999D01*
X84328000Y-69088000D02*
X85553001Y-67862999D01*
X74168000Y-69088000D02*
X67818000Y-75438000D01*
X67818000Y-75438000D02*
X67818000Y-76073000D01*
X56388000Y-42418000D02*
X59563000Y-42418000D01*
X59563000Y-42418000D02*
X62103000Y-39878000D01*
X73268001Y-54747999D02*
X74168000Y-53848000D01*
X72942999Y-55073001D02*
X73268001Y-54747999D01*
X69953001Y-55073001D02*
X72942999Y-55073001D01*
X65768000Y-50888000D02*
X69953001Y-55073001D01*
G04 #@! TO.N,GND*
X64168001Y-38788001D02*
X65718000Y-40338000D01*
X60618000Y-39188000D02*
X61017999Y-38788001D01*
X61017999Y-38788001D02*
X64168001Y-38788001D01*
X65718000Y-40338000D02*
X65718000Y-42088000D01*
X56158000Y-41148000D02*
X53848000Y-41148000D01*
X57268000Y-40038000D02*
X56158000Y-41148000D01*
X58991005Y-72129007D02*
X58991005Y-65643788D01*
X65564999Y-78703001D02*
X58991005Y-72129007D01*
X66261001Y-78703001D02*
X65564999Y-78703001D01*
X67040184Y-77923818D02*
X66261001Y-78703001D01*
X67040184Y-68052184D02*
X67040184Y-77923818D01*
X58991005Y-65643788D02*
X58991005Y-64653839D01*
X68418000Y-66674368D02*
X67040184Y-68052184D01*
X68418000Y-65588000D02*
X68418000Y-66674368D01*
X75918001Y-66587999D02*
X76318000Y-66188000D01*
X75393001Y-67112999D02*
X75918001Y-66587999D01*
X75393001Y-69676001D02*
X75393001Y-67112999D01*
X68271001Y-76798001D02*
X75393001Y-69676001D01*
X67469999Y-76798001D02*
X68271001Y-76798001D01*
X67092999Y-76421001D02*
X67469999Y-76798001D01*
X67092999Y-75526591D02*
X67092999Y-76421001D01*
X68418000Y-74201590D02*
X67092999Y-75526591D01*
X68418000Y-65588000D02*
X68418000Y-74201590D01*
X65810000Y-41886000D02*
X58928000Y-48768000D01*
X68834000Y-41886000D02*
X65810000Y-41886000D01*
X78120000Y-41886000D02*
X83068000Y-36938000D01*
X68834000Y-41886000D02*
X78120000Y-41886000D01*
X83068000Y-36938000D02*
X83518000Y-36488000D01*
X56818000Y-51048348D02*
X56818000Y-48838000D01*
X60468000Y-57838000D02*
X60468000Y-54698348D01*
X60468000Y-54698348D02*
X56818000Y-51048348D01*
G04 #@! TO.N,/BLANK*
X66674290Y-67345076D02*
X66692183Y-67327183D01*
X65637074Y-67345076D02*
X66674290Y-67345076D01*
X54392999Y-52033001D02*
X54392999Y-61484969D01*
X55753000Y-50673000D02*
X54392999Y-52033001D01*
X62419137Y-61484969D02*
X65096006Y-64161838D01*
X65096006Y-64161838D02*
X65096006Y-66804008D01*
X54392999Y-61484969D02*
X62419137Y-61484969D01*
X65096006Y-66804008D02*
X65637074Y-67345076D01*
G04 #@! TO.N,/CLK*
X60443349Y-52385347D02*
X59228001Y-52385347D01*
X65985075Y-66620075D02*
X65985075Y-57927073D01*
X65985075Y-57927073D02*
X60443349Y-52385347D01*
G04 #@! TO.N,/XLAT*
X59270333Y-56665058D02*
X58240942Y-56665058D01*
X58240942Y-56665058D02*
X55968000Y-58938000D01*
G04 #@! TO.N,Net-(R1-Pad1)*
X64008000Y-48768000D02*
X65278000Y-48768000D01*
X65278000Y-48768000D02*
X67183000Y-50673000D01*
G04 #@! TO.N,Net-(U2-Pad29)*
X63118000Y-60488000D02*
X64968000Y-62338000D01*
X64968000Y-62338000D02*
X64968000Y-62838000D01*
G04 #@! TO.N,Net-(R2-Pad1)*
X64071005Y-64653839D02*
X64071005Y-76136005D01*
X64071005Y-76136005D02*
X65913000Y-77978000D01*
G04 #@! TD*
D18*
G04 #@! TO.N,GND*
G36*
X91263001Y-78563000D02*
X66790961Y-78563000D01*
X66948000Y-78183874D01*
X66948000Y-77772126D01*
X66790431Y-77391720D01*
X66499280Y-77100569D01*
X66118874Y-76943000D01*
X65952802Y-76943000D01*
X64831005Y-75821204D01*
X64831005Y-67613809D01*
X65046745Y-67829548D01*
X65089145Y-67893005D01*
X65152601Y-67935405D01*
X65340536Y-68060980D01*
X65388679Y-68070556D01*
X65562222Y-68105076D01*
X65562226Y-68105076D01*
X65637074Y-68119964D01*
X65711922Y-68105076D01*
X66006365Y-68105076D01*
X66105903Y-68204614D01*
X66486309Y-68362183D01*
X66898057Y-68362183D01*
X67278463Y-68204614D01*
X67569614Y-67913463D01*
X67727183Y-67533057D01*
X67727183Y-67121309D01*
X67569614Y-66740903D01*
X67278463Y-66449752D01*
X66984337Y-66327921D01*
X66862506Y-66033795D01*
X66745075Y-65916364D01*
X66745075Y-58001919D01*
X66759963Y-57927072D01*
X66745075Y-57852225D01*
X66745075Y-57852221D01*
X66700979Y-57630536D01*
X66533004Y-57379144D01*
X66469548Y-57336744D01*
X61033680Y-51900877D01*
X60991278Y-51837418D01*
X60739886Y-51669443D01*
X60518201Y-51625347D01*
X60518196Y-51625347D01*
X60443349Y-51610459D01*
X60368502Y-51625347D01*
X59931712Y-51625347D01*
X59814281Y-51507916D01*
X59433875Y-51350347D01*
X59022127Y-51350347D01*
X58641721Y-51507916D01*
X58350570Y-51799067D01*
X58193001Y-52179473D01*
X58193001Y-52591221D01*
X58350570Y-52971627D01*
X58641721Y-53262778D01*
X59022127Y-53420347D01*
X59433875Y-53420347D01*
X59814281Y-53262778D01*
X59931712Y-53145347D01*
X60128548Y-53145347D01*
X65225076Y-58241876D01*
X65225076Y-61520274D01*
X64153000Y-60448199D01*
X64153000Y-60282126D01*
X63995431Y-59901720D01*
X63704280Y-59610569D01*
X63323874Y-59453000D01*
X62912126Y-59453000D01*
X62531720Y-59610569D01*
X62240569Y-59901720D01*
X62083000Y-60282126D01*
X62083000Y-60693874D01*
X62095880Y-60724969D01*
X55152999Y-60724969D01*
X55152999Y-59586710D01*
X55381720Y-59815431D01*
X55762126Y-59973000D01*
X56173874Y-59973000D01*
X56554280Y-59815431D01*
X56845431Y-59524280D01*
X57003000Y-59143874D01*
X57003000Y-58977801D01*
X58555745Y-57425058D01*
X58566622Y-57425058D01*
X58684053Y-57542489D01*
X59064459Y-57700058D01*
X59476207Y-57700058D01*
X59856613Y-57542489D01*
X60147764Y-57251338D01*
X60305333Y-56870932D01*
X60305333Y-56459184D01*
X60147764Y-56078778D01*
X59856613Y-55787627D01*
X59476207Y-55630058D01*
X59064459Y-55630058D01*
X58684053Y-55787627D01*
X58566622Y-55905058D01*
X58315788Y-55905058D01*
X58240941Y-55890170D01*
X58166094Y-55905058D01*
X58166090Y-55905058D01*
X57944405Y-55949154D01*
X57944403Y-55949155D01*
X57944404Y-55949155D01*
X57756468Y-56074729D01*
X57756466Y-56074731D01*
X57693013Y-56117129D01*
X57650615Y-56180582D01*
X55928199Y-57903000D01*
X55762126Y-57903000D01*
X55381720Y-58060569D01*
X55152999Y-58289290D01*
X55152999Y-52347802D01*
X55792802Y-51708000D01*
X55958874Y-51708000D01*
X56339280Y-51550431D01*
X56630431Y-51259280D01*
X56788000Y-50878874D01*
X56788000Y-50467126D01*
X56630431Y-50086720D01*
X56339280Y-49795569D01*
X55958874Y-49638000D01*
X55547126Y-49638000D01*
X55166720Y-49795569D01*
X54875569Y-50086720D01*
X54718000Y-50467126D01*
X54718000Y-50633198D01*
X53908529Y-51442670D01*
X53845070Y-51485072D01*
X53677095Y-51736465D01*
X53632999Y-51958150D01*
X53632999Y-51958154D01*
X53618111Y-52033001D01*
X53632999Y-52107848D01*
X53633000Y-61410112D01*
X53618110Y-61484969D01*
X53677095Y-61781506D01*
X53845070Y-62032898D01*
X54096462Y-62200873D01*
X54318147Y-62244969D01*
X54392999Y-62259858D01*
X54467851Y-62244969D01*
X62104336Y-62244969D01*
X63361923Y-63502557D01*
X63314788Y-63522081D01*
X62939247Y-63897622D01*
X62736005Y-64388291D01*
X62736005Y-64919387D01*
X62939247Y-65410056D01*
X63311005Y-65781814D01*
X63311006Y-76061153D01*
X63296117Y-76136005D01*
X63311006Y-76210857D01*
X63355102Y-76432542D01*
X63523077Y-76683934D01*
X63586533Y-76726334D01*
X64878000Y-78017802D01*
X64878000Y-78183874D01*
X65035039Y-78563000D01*
X49453000Y-78563000D01*
X49453000Y-64987168D01*
X57698289Y-64987168D01*
X57841208Y-65332235D01*
X58188342Y-65720603D01*
X58657674Y-65946566D01*
X58864005Y-65824045D01*
X58864005Y-64780839D01*
X59118005Y-64780839D01*
X59118005Y-65824045D01*
X59324336Y-65946566D01*
X59793668Y-65720603D01*
X60140802Y-65332235D01*
X60283721Y-64987168D01*
X60160379Y-64780839D01*
X59118005Y-64780839D01*
X58864005Y-64780839D01*
X57821631Y-64780839D01*
X57698289Y-64987168D01*
X49453000Y-64987168D01*
X49453000Y-64320510D01*
X57698289Y-64320510D01*
X57821631Y-64526839D01*
X58864005Y-64526839D01*
X58864005Y-63483633D01*
X59118005Y-63483633D01*
X59118005Y-64526839D01*
X60160379Y-64526839D01*
X60283721Y-64320510D01*
X60140802Y-63975443D01*
X59793668Y-63587075D01*
X59324336Y-63361112D01*
X59118005Y-63483633D01*
X58864005Y-63483633D01*
X58657674Y-63361112D01*
X58188342Y-63587075D01*
X57841208Y-63975443D01*
X57698289Y-64320510D01*
X49453000Y-64320510D01*
X49453000Y-60567452D01*
X50608000Y-60567452D01*
X50608000Y-61098548D01*
X50811242Y-61589217D01*
X51186783Y-61964758D01*
X51677452Y-62168000D01*
X52208548Y-62168000D01*
X52699217Y-61964758D01*
X53074758Y-61589217D01*
X53278000Y-61098548D01*
X53278000Y-60567452D01*
X53074758Y-60076783D01*
X52699217Y-59701242D01*
X52208548Y-59498000D01*
X51677452Y-59498000D01*
X51186783Y-59701242D01*
X50811242Y-60076783D01*
X50608000Y-60567452D01*
X49453000Y-60567452D01*
X49453000Y-56630452D01*
X50608000Y-56630452D01*
X50608000Y-57161548D01*
X50811242Y-57652217D01*
X51186783Y-58027758D01*
X51677452Y-58231000D01*
X52208548Y-58231000D01*
X52699217Y-58027758D01*
X53074758Y-57652217D01*
X53278000Y-57161548D01*
X53278000Y-56630452D01*
X53074758Y-56139783D01*
X52699217Y-55764242D01*
X52208548Y-55561000D01*
X51677452Y-55561000D01*
X51186783Y-55764242D01*
X50811242Y-56139783D01*
X50608000Y-56630452D01*
X49453000Y-56630452D01*
X49453000Y-53582452D01*
X50608000Y-53582452D01*
X50608000Y-54113548D01*
X50811242Y-54604217D01*
X51186783Y-54979758D01*
X51677452Y-55183000D01*
X52208548Y-55183000D01*
X52699217Y-54979758D01*
X53074758Y-54604217D01*
X53278000Y-54113548D01*
X53278000Y-53582452D01*
X53074758Y-53091783D01*
X52699217Y-52716242D01*
X52208548Y-52513000D01*
X51677452Y-52513000D01*
X51186783Y-52716242D01*
X50811242Y-53091783D01*
X50608000Y-53582452D01*
X49453000Y-53582452D01*
X49453000Y-50788452D01*
X50608000Y-50788452D01*
X50608000Y-51319548D01*
X50811242Y-51810217D01*
X51186783Y-52185758D01*
X51677452Y-52389000D01*
X52208548Y-52389000D01*
X52699217Y-52185758D01*
X53074758Y-51810217D01*
X53278000Y-51319548D01*
X53278000Y-50788452D01*
X53074758Y-50297783D01*
X52699217Y-49922242D01*
X52208548Y-49719000D01*
X51677452Y-49719000D01*
X51186783Y-49922242D01*
X50811242Y-50297783D01*
X50608000Y-50788452D01*
X49453000Y-50788452D01*
X49453000Y-49101329D01*
X57635284Y-49101329D01*
X57778203Y-49446396D01*
X58125337Y-49834764D01*
X58594669Y-50060727D01*
X58801000Y-49938206D01*
X58801000Y-48895000D01*
X59055000Y-48895000D01*
X59055000Y-49938206D01*
X59261331Y-50060727D01*
X59730663Y-49834764D01*
X60077797Y-49446396D01*
X60220716Y-49101329D01*
X60097374Y-48895000D01*
X59055000Y-48895000D01*
X58801000Y-48895000D01*
X57758626Y-48895000D01*
X57635284Y-49101329D01*
X49453000Y-49101329D01*
X49453000Y-48434671D01*
X57635284Y-48434671D01*
X57758626Y-48641000D01*
X58801000Y-48641000D01*
X58801000Y-47597794D01*
X59055000Y-47597794D01*
X59055000Y-48641000D01*
X60097374Y-48641000D01*
X60180197Y-48502452D01*
X62673000Y-48502452D01*
X62673000Y-49033548D01*
X62876242Y-49524217D01*
X63251783Y-49899758D01*
X63742452Y-50103000D01*
X64273548Y-50103000D01*
X64764217Y-49899758D01*
X65049587Y-49614388D01*
X65368430Y-49933231D01*
X65181720Y-50010569D01*
X64890569Y-50301720D01*
X64733000Y-50682126D01*
X64733000Y-51093874D01*
X64890569Y-51474280D01*
X65181720Y-51765431D01*
X65562126Y-51923000D01*
X65728199Y-51923000D01*
X69362672Y-55557474D01*
X69405072Y-55620930D01*
X69656464Y-55788905D01*
X69878149Y-55833001D01*
X69878153Y-55833001D01*
X69953000Y-55847889D01*
X70027847Y-55833001D01*
X72868152Y-55833001D01*
X72942999Y-55847889D01*
X73017846Y-55833001D01*
X73017851Y-55833001D01*
X73239536Y-55788905D01*
X73408000Y-55676341D01*
X73408001Y-60121330D01*
X73298493Y-60166690D01*
X73129275Y-60335908D01*
X73126157Y-60320235D01*
X72985809Y-60110191D01*
X72775765Y-59969843D01*
X72528000Y-59920560D01*
X70728000Y-59920560D01*
X70480235Y-59969843D01*
X70270191Y-60110191D01*
X70129843Y-60320235D01*
X70080560Y-60568000D01*
X70080560Y-62368000D01*
X70129843Y-62615765D01*
X70270191Y-62825809D01*
X70480235Y-62966157D01*
X70728000Y-63015440D01*
X72528000Y-63015440D01*
X72775765Y-62966157D01*
X72985809Y-62825809D01*
X73126157Y-62615765D01*
X73129275Y-62600092D01*
X73298493Y-62769310D01*
X73408000Y-62814669D01*
X73408001Y-67741330D01*
X73298493Y-67786690D01*
X73129275Y-67955908D01*
X73126157Y-67940235D01*
X72985809Y-67730191D01*
X72775765Y-67589843D01*
X72528000Y-67540560D01*
X70728000Y-67540560D01*
X70480235Y-67589843D01*
X70270191Y-67730191D01*
X70129843Y-67940235D01*
X70080560Y-68188000D01*
X70080560Y-69988000D01*
X70129843Y-70235765D01*
X70270191Y-70445809D01*
X70480235Y-70586157D01*
X70728000Y-70635440D01*
X71545758Y-70635440D01*
X67333530Y-74847669D01*
X67270071Y-74890071D01*
X67102096Y-75141464D01*
X67058000Y-75363149D01*
X67058000Y-75363153D01*
X67056476Y-75370813D01*
X66940569Y-75486720D01*
X66783000Y-75867126D01*
X66783000Y-76278874D01*
X66940569Y-76659280D01*
X67231720Y-76950431D01*
X67612126Y-77108000D01*
X68023874Y-77108000D01*
X68404280Y-76950431D01*
X68695431Y-76659280D01*
X68853000Y-76278874D01*
X68853000Y-75867126D01*
X68738970Y-75591832D01*
X73753162Y-70577640D01*
X73862670Y-70623000D01*
X74473330Y-70623000D01*
X75037507Y-70389310D01*
X75206725Y-70220092D01*
X75209843Y-70235765D01*
X75350191Y-70445809D01*
X75560235Y-70586157D01*
X75808000Y-70635440D01*
X77608000Y-70635440D01*
X77855765Y-70586157D01*
X78065809Y-70445809D01*
X78206157Y-70235765D01*
X78209275Y-70220092D01*
X78378493Y-70389310D01*
X78942670Y-70623000D01*
X79553330Y-70623000D01*
X80117507Y-70389310D01*
X80286725Y-70220092D01*
X80289843Y-70235765D01*
X80430191Y-70445809D01*
X80640235Y-70586157D01*
X80888000Y-70635440D01*
X82688000Y-70635440D01*
X82935765Y-70586157D01*
X83145809Y-70445809D01*
X83286157Y-70235765D01*
X83289275Y-70220092D01*
X83458493Y-70389310D01*
X84022670Y-70623000D01*
X84633330Y-70623000D01*
X85197507Y-70389310D01*
X85366725Y-70220092D01*
X85369843Y-70235765D01*
X85510191Y-70445809D01*
X85720235Y-70586157D01*
X85968000Y-70635440D01*
X87768000Y-70635440D01*
X88015765Y-70586157D01*
X88225809Y-70445809D01*
X88366157Y-70235765D01*
X88369275Y-70220092D01*
X88538493Y-70389310D01*
X89102670Y-70623000D01*
X89713330Y-70623000D01*
X90277507Y-70389310D01*
X90709310Y-69957507D01*
X90943000Y-69393330D01*
X90943000Y-68782670D01*
X90709310Y-68218493D01*
X90277507Y-67786690D01*
X90168000Y-67741331D01*
X90168000Y-62814669D01*
X90277507Y-62769310D01*
X90709310Y-62337507D01*
X90943000Y-61773330D01*
X90943000Y-61162670D01*
X90709310Y-60598493D01*
X90277507Y-60166690D01*
X90168000Y-60121331D01*
X90168000Y-55194669D01*
X90277507Y-55149310D01*
X90709310Y-54717507D01*
X90943000Y-54153330D01*
X90943000Y-53542670D01*
X90709310Y-52978493D01*
X90277507Y-52546690D01*
X90168000Y-52501331D01*
X90168000Y-47574669D01*
X90277507Y-47529310D01*
X90709310Y-47097507D01*
X90943000Y-46533330D01*
X90943000Y-45922670D01*
X90709310Y-45358493D01*
X90277507Y-44926690D01*
X89713330Y-44693000D01*
X89102670Y-44693000D01*
X88993161Y-44738360D01*
X88773330Y-44518529D01*
X88730928Y-44455070D01*
X88479536Y-44287095D01*
X88257851Y-44242999D01*
X88257846Y-44242999D01*
X88182999Y-44228111D01*
X88108152Y-44242999D01*
X85627847Y-44242999D01*
X85553000Y-44228111D01*
X85478153Y-44242999D01*
X85478149Y-44242999D01*
X85256464Y-44287095D01*
X85005072Y-44455070D01*
X84962672Y-44518526D01*
X84742838Y-44738360D01*
X84633330Y-44693000D01*
X84022670Y-44693000D01*
X83913161Y-44738360D01*
X83693330Y-44518529D01*
X83650928Y-44455070D01*
X83399536Y-44287095D01*
X83177851Y-44242999D01*
X83177846Y-44242999D01*
X83102999Y-44228111D01*
X83028152Y-44242999D01*
X80547847Y-44242999D01*
X80473000Y-44228111D01*
X80398153Y-44242999D01*
X80398149Y-44242999D01*
X80176464Y-44287095D01*
X79925072Y-44455070D01*
X79882672Y-44518526D01*
X79662838Y-44738360D01*
X79553330Y-44693000D01*
X78942670Y-44693000D01*
X78833161Y-44738360D01*
X78613330Y-44518529D01*
X78570928Y-44455070D01*
X78319536Y-44287095D01*
X78097851Y-44242999D01*
X78097846Y-44242999D01*
X78022999Y-44228111D01*
X77948152Y-44242999D01*
X75467847Y-44242999D01*
X75393000Y-44228111D01*
X75318153Y-44242999D01*
X75318149Y-44242999D01*
X75096464Y-44287095D01*
X74845072Y-44455070D01*
X74802672Y-44518526D01*
X74582838Y-44738360D01*
X74473330Y-44693000D01*
X73862670Y-44693000D01*
X73298493Y-44926690D01*
X73129275Y-45095908D01*
X73126157Y-45080235D01*
X72985809Y-44870191D01*
X72775765Y-44729843D01*
X72528000Y-44680560D01*
X70728000Y-44680560D01*
X70480235Y-44729843D01*
X70270191Y-44870191D01*
X70129843Y-45080235D01*
X70080560Y-45328000D01*
X70080560Y-47128000D01*
X70129843Y-47375765D01*
X70270191Y-47585809D01*
X70480235Y-47726157D01*
X70728000Y-47775440D01*
X72528000Y-47775440D01*
X72775765Y-47726157D01*
X72985809Y-47585809D01*
X73126157Y-47375765D01*
X73129275Y-47360092D01*
X73298493Y-47529310D01*
X73408000Y-47574669D01*
X73408001Y-52501330D01*
X73298493Y-52546690D01*
X73129275Y-52715908D01*
X73126157Y-52700235D01*
X72985809Y-52490191D01*
X72775765Y-52349843D01*
X72528000Y-52300560D01*
X70728000Y-52300560D01*
X70480235Y-52349843D01*
X70270191Y-52490191D01*
X70129843Y-52700235D01*
X70080560Y-52948000D01*
X70080560Y-54125758D01*
X67582570Y-51627769D01*
X67769280Y-51550431D01*
X68060431Y-51259280D01*
X68218000Y-50878874D01*
X68218000Y-50467126D01*
X68060431Y-50086720D01*
X67769280Y-49795569D01*
X67388874Y-49638000D01*
X67222802Y-49638000D01*
X65868331Y-48283530D01*
X65825929Y-48220071D01*
X65574537Y-48052096D01*
X65352852Y-48008000D01*
X65352847Y-48008000D01*
X65278000Y-47993112D01*
X65203153Y-48008000D01*
X65135975Y-48008000D01*
X64764217Y-47636242D01*
X64273548Y-47433000D01*
X63742452Y-47433000D01*
X63251783Y-47636242D01*
X62876242Y-48011783D01*
X62673000Y-48502452D01*
X60180197Y-48502452D01*
X60220716Y-48434671D01*
X60077797Y-48089604D01*
X59730663Y-47701236D01*
X59261331Y-47475273D01*
X59055000Y-47597794D01*
X58801000Y-47597794D01*
X58594669Y-47475273D01*
X58125337Y-47701236D01*
X57778203Y-48089604D01*
X57635284Y-48434671D01*
X49453000Y-48434671D01*
X49453000Y-40548000D01*
X51100560Y-40548000D01*
X51100560Y-41748000D01*
X51149843Y-41995765D01*
X51290191Y-42205809D01*
X51500235Y-42346157D01*
X51748000Y-42395440D01*
X52948000Y-42395440D01*
X53195765Y-42346157D01*
X53310802Y-42269291D01*
X53679036Y-42395807D01*
X54169413Y-42365482D01*
X54481617Y-42236164D01*
X54486896Y-42212126D01*
X55353000Y-42212126D01*
X55353000Y-42623874D01*
X55510569Y-43004280D01*
X55801720Y-43295431D01*
X56182126Y-43453000D01*
X56593874Y-43453000D01*
X56974280Y-43295431D01*
X57091711Y-43178000D01*
X59488153Y-43178000D01*
X59563000Y-43192888D01*
X59637847Y-43178000D01*
X59637852Y-43178000D01*
X59859537Y-43133904D01*
X60110929Y-42965929D01*
X60153331Y-42902470D01*
X60307066Y-42748735D01*
X68150870Y-42748735D01*
X68200383Y-42974164D01*
X68665036Y-43133807D01*
X69155413Y-43103482D01*
X69467617Y-42974164D01*
X69517130Y-42748735D01*
X68834000Y-42065605D01*
X68150870Y-42748735D01*
X60307066Y-42748735D01*
X61338766Y-41717036D01*
X67586193Y-41717036D01*
X67616518Y-42207413D01*
X67745836Y-42519617D01*
X67971265Y-42569130D01*
X68654395Y-41886000D01*
X68640253Y-41871858D01*
X68819858Y-41692253D01*
X68834000Y-41706395D01*
X68848143Y-41692253D01*
X69027748Y-41871858D01*
X69013605Y-41886000D01*
X69696735Y-42569130D01*
X69922164Y-42519617D01*
X70081807Y-42054964D01*
X70051482Y-41564587D01*
X69959495Y-41342510D01*
X70032157Y-41233765D01*
X70081440Y-40986000D01*
X70081440Y-39786000D01*
X70032157Y-39538235D01*
X69891809Y-39328191D01*
X69681765Y-39187843D01*
X69434000Y-39138560D01*
X68234000Y-39138560D01*
X67986235Y-39187843D01*
X67776191Y-39328191D01*
X67635843Y-39538235D01*
X67586560Y-39786000D01*
X67586560Y-40986000D01*
X67635843Y-41233765D01*
X67712709Y-41348802D01*
X67586193Y-41717036D01*
X61338766Y-41717036D01*
X62142803Y-40913000D01*
X62308874Y-40913000D01*
X62689280Y-40755431D01*
X62980431Y-40464280D01*
X63138000Y-40083874D01*
X63138000Y-39672126D01*
X62980431Y-39291720D01*
X62689280Y-39000569D01*
X62308874Y-38843000D01*
X61897126Y-38843000D01*
X61516720Y-39000569D01*
X61225569Y-39291720D01*
X61068000Y-39672126D01*
X61068000Y-39838197D01*
X59248199Y-41658000D01*
X57091711Y-41658000D01*
X56974280Y-41540569D01*
X56593874Y-41383000D01*
X56182126Y-41383000D01*
X55801720Y-41540569D01*
X55510569Y-41831720D01*
X55353000Y-42212126D01*
X54486896Y-42212126D01*
X54531130Y-42010735D01*
X53848000Y-41327605D01*
X53833858Y-41341748D01*
X53654253Y-41162143D01*
X53668395Y-41148000D01*
X54027605Y-41148000D01*
X54710735Y-41831130D01*
X54936164Y-41781617D01*
X55095807Y-41316964D01*
X55065482Y-40826587D01*
X54936164Y-40514383D01*
X54710735Y-40464870D01*
X54027605Y-41148000D01*
X53668395Y-41148000D01*
X53654253Y-41133858D01*
X53833858Y-40954253D01*
X53848000Y-40968395D01*
X54531130Y-40285265D01*
X54481617Y-40059836D01*
X54016964Y-39900193D01*
X53526587Y-39930518D01*
X53304510Y-40022505D01*
X53195765Y-39949843D01*
X52948000Y-39900560D01*
X51748000Y-39900560D01*
X51500235Y-39949843D01*
X51290191Y-40090191D01*
X51149843Y-40300235D01*
X51100560Y-40548000D01*
X49453000Y-40548000D01*
X49453000Y-35802452D01*
X49973000Y-35802452D01*
X49973000Y-36333548D01*
X50176242Y-36824217D01*
X50551783Y-37199758D01*
X51042452Y-37403000D01*
X51573548Y-37403000D01*
X52064217Y-37199758D01*
X52260700Y-37003275D01*
X58172331Y-37003275D01*
X58234169Y-37239042D01*
X58735122Y-37415419D01*
X59265440Y-37386664D01*
X59621831Y-37239042D01*
X59683669Y-37003275D01*
X58928000Y-36247605D01*
X58172331Y-37003275D01*
X52260700Y-37003275D01*
X52439758Y-36824217D01*
X52643000Y-36333548D01*
X52643000Y-35875122D01*
X57580581Y-35875122D01*
X57609336Y-36405440D01*
X57756958Y-36761831D01*
X57992725Y-36823669D01*
X58748395Y-36068000D01*
X59107605Y-36068000D01*
X59863275Y-36823669D01*
X60099042Y-36761831D01*
X60275419Y-36260878D01*
X60250563Y-35802452D01*
X61403000Y-35802452D01*
X61403000Y-36333548D01*
X61606242Y-36824217D01*
X61981783Y-37199758D01*
X62472452Y-37403000D01*
X63003548Y-37403000D01*
X63494217Y-37199758D01*
X63869758Y-36824217D01*
X64073000Y-36333548D01*
X64073000Y-35802452D01*
X63869758Y-35311783D01*
X63494217Y-34936242D01*
X63003548Y-34733000D01*
X62472452Y-34733000D01*
X61981783Y-34936242D01*
X61606242Y-35311783D01*
X61403000Y-35802452D01*
X60250563Y-35802452D01*
X60246664Y-35730560D01*
X60099042Y-35374169D01*
X59863275Y-35312331D01*
X59107605Y-36068000D01*
X58748395Y-36068000D01*
X57992725Y-35312331D01*
X57756958Y-35374169D01*
X57580581Y-35875122D01*
X52643000Y-35875122D01*
X52643000Y-35802452D01*
X52439758Y-35311783D01*
X52260700Y-35132725D01*
X58172331Y-35132725D01*
X58928000Y-35888395D01*
X59683669Y-35132725D01*
X59621831Y-34896958D01*
X59120878Y-34720581D01*
X58590560Y-34749336D01*
X58234169Y-34896958D01*
X58172331Y-35132725D01*
X52260700Y-35132725D01*
X52064217Y-34936242D01*
X51573548Y-34733000D01*
X51042452Y-34733000D01*
X50551783Y-34936242D01*
X50176242Y-35311783D01*
X49973000Y-35802452D01*
X49453000Y-35802452D01*
X49453000Y-31673000D01*
X91263000Y-31673000D01*
X91263001Y-78563000D01*
X91263001Y-78563000D01*
G37*
X91263001Y-78563000D02*
X66790961Y-78563000D01*
X66948000Y-78183874D01*
X66948000Y-77772126D01*
X66790431Y-77391720D01*
X66499280Y-77100569D01*
X66118874Y-76943000D01*
X65952802Y-76943000D01*
X64831005Y-75821204D01*
X64831005Y-67613809D01*
X65046745Y-67829548D01*
X65089145Y-67893005D01*
X65152601Y-67935405D01*
X65340536Y-68060980D01*
X65388679Y-68070556D01*
X65562222Y-68105076D01*
X65562226Y-68105076D01*
X65637074Y-68119964D01*
X65711922Y-68105076D01*
X66006365Y-68105076D01*
X66105903Y-68204614D01*
X66486309Y-68362183D01*
X66898057Y-68362183D01*
X67278463Y-68204614D01*
X67569614Y-67913463D01*
X67727183Y-67533057D01*
X67727183Y-67121309D01*
X67569614Y-66740903D01*
X67278463Y-66449752D01*
X66984337Y-66327921D01*
X66862506Y-66033795D01*
X66745075Y-65916364D01*
X66745075Y-58001919D01*
X66759963Y-57927072D01*
X66745075Y-57852225D01*
X66745075Y-57852221D01*
X66700979Y-57630536D01*
X66533004Y-57379144D01*
X66469548Y-57336744D01*
X61033680Y-51900877D01*
X60991278Y-51837418D01*
X60739886Y-51669443D01*
X60518201Y-51625347D01*
X60518196Y-51625347D01*
X60443349Y-51610459D01*
X60368502Y-51625347D01*
X59931712Y-51625347D01*
X59814281Y-51507916D01*
X59433875Y-51350347D01*
X59022127Y-51350347D01*
X58641721Y-51507916D01*
X58350570Y-51799067D01*
X58193001Y-52179473D01*
X58193001Y-52591221D01*
X58350570Y-52971627D01*
X58641721Y-53262778D01*
X59022127Y-53420347D01*
X59433875Y-53420347D01*
X59814281Y-53262778D01*
X59931712Y-53145347D01*
X60128548Y-53145347D01*
X65225076Y-58241876D01*
X65225076Y-61520274D01*
X64153000Y-60448199D01*
X64153000Y-60282126D01*
X63995431Y-59901720D01*
X63704280Y-59610569D01*
X63323874Y-59453000D01*
X62912126Y-59453000D01*
X62531720Y-59610569D01*
X62240569Y-59901720D01*
X62083000Y-60282126D01*
X62083000Y-60693874D01*
X62095880Y-60724969D01*
X55152999Y-60724969D01*
X55152999Y-59586710D01*
X55381720Y-59815431D01*
X55762126Y-59973000D01*
X56173874Y-59973000D01*
X56554280Y-59815431D01*
X56845431Y-59524280D01*
X57003000Y-59143874D01*
X57003000Y-58977801D01*
X58555745Y-57425058D01*
X58566622Y-57425058D01*
X58684053Y-57542489D01*
X59064459Y-57700058D01*
X59476207Y-57700058D01*
X59856613Y-57542489D01*
X60147764Y-57251338D01*
X60305333Y-56870932D01*
X60305333Y-56459184D01*
X60147764Y-56078778D01*
X59856613Y-55787627D01*
X59476207Y-55630058D01*
X59064459Y-55630058D01*
X58684053Y-55787627D01*
X58566622Y-55905058D01*
X58315788Y-55905058D01*
X58240941Y-55890170D01*
X58166094Y-55905058D01*
X58166090Y-55905058D01*
X57944405Y-55949154D01*
X57944403Y-55949155D01*
X57944404Y-55949155D01*
X57756468Y-56074729D01*
X57756466Y-56074731D01*
X57693013Y-56117129D01*
X57650615Y-56180582D01*
X55928199Y-57903000D01*
X55762126Y-57903000D01*
X55381720Y-58060569D01*
X55152999Y-58289290D01*
X55152999Y-52347802D01*
X55792802Y-51708000D01*
X55958874Y-51708000D01*
X56339280Y-51550431D01*
X56630431Y-51259280D01*
X56788000Y-50878874D01*
X56788000Y-50467126D01*
X56630431Y-50086720D01*
X56339280Y-49795569D01*
X55958874Y-49638000D01*
X55547126Y-49638000D01*
X55166720Y-49795569D01*
X54875569Y-50086720D01*
X54718000Y-50467126D01*
X54718000Y-50633198D01*
X53908529Y-51442670D01*
X53845070Y-51485072D01*
X53677095Y-51736465D01*
X53632999Y-51958150D01*
X53632999Y-51958154D01*
X53618111Y-52033001D01*
X53632999Y-52107848D01*
X53633000Y-61410112D01*
X53618110Y-61484969D01*
X53677095Y-61781506D01*
X53845070Y-62032898D01*
X54096462Y-62200873D01*
X54318147Y-62244969D01*
X54392999Y-62259858D01*
X54467851Y-62244969D01*
X62104336Y-62244969D01*
X63361923Y-63502557D01*
X63314788Y-63522081D01*
X62939247Y-63897622D01*
X62736005Y-64388291D01*
X62736005Y-64919387D01*
X62939247Y-65410056D01*
X63311005Y-65781814D01*
X63311006Y-76061153D01*
X63296117Y-76136005D01*
X63311006Y-76210857D01*
X63355102Y-76432542D01*
X63523077Y-76683934D01*
X63586533Y-76726334D01*
X64878000Y-78017802D01*
X64878000Y-78183874D01*
X65035039Y-78563000D01*
X49453000Y-78563000D01*
X49453000Y-64987168D01*
X57698289Y-64987168D01*
X57841208Y-65332235D01*
X58188342Y-65720603D01*
X58657674Y-65946566D01*
X58864005Y-65824045D01*
X58864005Y-64780839D01*
X59118005Y-64780839D01*
X59118005Y-65824045D01*
X59324336Y-65946566D01*
X59793668Y-65720603D01*
X60140802Y-65332235D01*
X60283721Y-64987168D01*
X60160379Y-64780839D01*
X59118005Y-64780839D01*
X58864005Y-64780839D01*
X57821631Y-64780839D01*
X57698289Y-64987168D01*
X49453000Y-64987168D01*
X49453000Y-64320510D01*
X57698289Y-64320510D01*
X57821631Y-64526839D01*
X58864005Y-64526839D01*
X58864005Y-63483633D01*
X59118005Y-63483633D01*
X59118005Y-64526839D01*
X60160379Y-64526839D01*
X60283721Y-64320510D01*
X60140802Y-63975443D01*
X59793668Y-63587075D01*
X59324336Y-63361112D01*
X59118005Y-63483633D01*
X58864005Y-63483633D01*
X58657674Y-63361112D01*
X58188342Y-63587075D01*
X57841208Y-63975443D01*
X57698289Y-64320510D01*
X49453000Y-64320510D01*
X49453000Y-60567452D01*
X50608000Y-60567452D01*
X50608000Y-61098548D01*
X50811242Y-61589217D01*
X51186783Y-61964758D01*
X51677452Y-62168000D01*
X52208548Y-62168000D01*
X52699217Y-61964758D01*
X53074758Y-61589217D01*
X53278000Y-61098548D01*
X53278000Y-60567452D01*
X53074758Y-60076783D01*
X52699217Y-59701242D01*
X52208548Y-59498000D01*
X51677452Y-59498000D01*
X51186783Y-59701242D01*
X50811242Y-60076783D01*
X50608000Y-60567452D01*
X49453000Y-60567452D01*
X49453000Y-56630452D01*
X50608000Y-56630452D01*
X50608000Y-57161548D01*
X50811242Y-57652217D01*
X51186783Y-58027758D01*
X51677452Y-58231000D01*
X52208548Y-58231000D01*
X52699217Y-58027758D01*
X53074758Y-57652217D01*
X53278000Y-57161548D01*
X53278000Y-56630452D01*
X53074758Y-56139783D01*
X52699217Y-55764242D01*
X52208548Y-55561000D01*
X51677452Y-55561000D01*
X51186783Y-55764242D01*
X50811242Y-56139783D01*
X50608000Y-56630452D01*
X49453000Y-56630452D01*
X49453000Y-53582452D01*
X50608000Y-53582452D01*
X50608000Y-54113548D01*
X50811242Y-54604217D01*
X51186783Y-54979758D01*
X51677452Y-55183000D01*
X52208548Y-55183000D01*
X52699217Y-54979758D01*
X53074758Y-54604217D01*
X53278000Y-54113548D01*
X53278000Y-53582452D01*
X53074758Y-53091783D01*
X52699217Y-52716242D01*
X52208548Y-52513000D01*
X51677452Y-52513000D01*
X51186783Y-52716242D01*
X50811242Y-53091783D01*
X50608000Y-53582452D01*
X49453000Y-53582452D01*
X49453000Y-50788452D01*
X50608000Y-50788452D01*
X50608000Y-51319548D01*
X50811242Y-51810217D01*
X51186783Y-52185758D01*
X51677452Y-52389000D01*
X52208548Y-52389000D01*
X52699217Y-52185758D01*
X53074758Y-51810217D01*
X53278000Y-51319548D01*
X53278000Y-50788452D01*
X53074758Y-50297783D01*
X52699217Y-49922242D01*
X52208548Y-49719000D01*
X51677452Y-49719000D01*
X51186783Y-49922242D01*
X50811242Y-50297783D01*
X50608000Y-50788452D01*
X49453000Y-50788452D01*
X49453000Y-49101329D01*
X57635284Y-49101329D01*
X57778203Y-49446396D01*
X58125337Y-49834764D01*
X58594669Y-50060727D01*
X58801000Y-49938206D01*
X58801000Y-48895000D01*
X59055000Y-48895000D01*
X59055000Y-49938206D01*
X59261331Y-50060727D01*
X59730663Y-49834764D01*
X60077797Y-49446396D01*
X60220716Y-49101329D01*
X60097374Y-48895000D01*
X59055000Y-48895000D01*
X58801000Y-48895000D01*
X57758626Y-48895000D01*
X57635284Y-49101329D01*
X49453000Y-49101329D01*
X49453000Y-48434671D01*
X57635284Y-48434671D01*
X57758626Y-48641000D01*
X58801000Y-48641000D01*
X58801000Y-47597794D01*
X59055000Y-47597794D01*
X59055000Y-48641000D01*
X60097374Y-48641000D01*
X60180197Y-48502452D01*
X62673000Y-48502452D01*
X62673000Y-49033548D01*
X62876242Y-49524217D01*
X63251783Y-49899758D01*
X63742452Y-50103000D01*
X64273548Y-50103000D01*
X64764217Y-49899758D01*
X65049587Y-49614388D01*
X65368430Y-49933231D01*
X65181720Y-50010569D01*
X64890569Y-50301720D01*
X64733000Y-50682126D01*
X64733000Y-51093874D01*
X64890569Y-51474280D01*
X65181720Y-51765431D01*
X65562126Y-51923000D01*
X65728199Y-51923000D01*
X69362672Y-55557474D01*
X69405072Y-55620930D01*
X69656464Y-55788905D01*
X69878149Y-55833001D01*
X69878153Y-55833001D01*
X69953000Y-55847889D01*
X70027847Y-55833001D01*
X72868152Y-55833001D01*
X72942999Y-55847889D01*
X73017846Y-55833001D01*
X73017851Y-55833001D01*
X73239536Y-55788905D01*
X73408000Y-55676341D01*
X73408001Y-60121330D01*
X73298493Y-60166690D01*
X73129275Y-60335908D01*
X73126157Y-60320235D01*
X72985809Y-60110191D01*
X72775765Y-59969843D01*
X72528000Y-59920560D01*
X70728000Y-59920560D01*
X70480235Y-59969843D01*
X70270191Y-60110191D01*
X70129843Y-60320235D01*
X70080560Y-60568000D01*
X70080560Y-62368000D01*
X70129843Y-62615765D01*
X70270191Y-62825809D01*
X70480235Y-62966157D01*
X70728000Y-63015440D01*
X72528000Y-63015440D01*
X72775765Y-62966157D01*
X72985809Y-62825809D01*
X73126157Y-62615765D01*
X73129275Y-62600092D01*
X73298493Y-62769310D01*
X73408000Y-62814669D01*
X73408001Y-67741330D01*
X73298493Y-67786690D01*
X73129275Y-67955908D01*
X73126157Y-67940235D01*
X72985809Y-67730191D01*
X72775765Y-67589843D01*
X72528000Y-67540560D01*
X70728000Y-67540560D01*
X70480235Y-67589843D01*
X70270191Y-67730191D01*
X70129843Y-67940235D01*
X70080560Y-68188000D01*
X70080560Y-69988000D01*
X70129843Y-70235765D01*
X70270191Y-70445809D01*
X70480235Y-70586157D01*
X70728000Y-70635440D01*
X71545758Y-70635440D01*
X67333530Y-74847669D01*
X67270071Y-74890071D01*
X67102096Y-75141464D01*
X67058000Y-75363149D01*
X67058000Y-75363153D01*
X67056476Y-75370813D01*
X66940569Y-75486720D01*
X66783000Y-75867126D01*
X66783000Y-76278874D01*
X66940569Y-76659280D01*
X67231720Y-76950431D01*
X67612126Y-77108000D01*
X68023874Y-77108000D01*
X68404280Y-76950431D01*
X68695431Y-76659280D01*
X68853000Y-76278874D01*
X68853000Y-75867126D01*
X68738970Y-75591832D01*
X73753162Y-70577640D01*
X73862670Y-70623000D01*
X74473330Y-70623000D01*
X75037507Y-70389310D01*
X75206725Y-70220092D01*
X75209843Y-70235765D01*
X75350191Y-70445809D01*
X75560235Y-70586157D01*
X75808000Y-70635440D01*
X77608000Y-70635440D01*
X77855765Y-70586157D01*
X78065809Y-70445809D01*
X78206157Y-70235765D01*
X78209275Y-70220092D01*
X78378493Y-70389310D01*
X78942670Y-70623000D01*
X79553330Y-70623000D01*
X80117507Y-70389310D01*
X80286725Y-70220092D01*
X80289843Y-70235765D01*
X80430191Y-70445809D01*
X80640235Y-70586157D01*
X80888000Y-70635440D01*
X82688000Y-70635440D01*
X82935765Y-70586157D01*
X83145809Y-70445809D01*
X83286157Y-70235765D01*
X83289275Y-70220092D01*
X83458493Y-70389310D01*
X84022670Y-70623000D01*
X84633330Y-70623000D01*
X85197507Y-70389310D01*
X85366725Y-70220092D01*
X85369843Y-70235765D01*
X85510191Y-70445809D01*
X85720235Y-70586157D01*
X85968000Y-70635440D01*
X87768000Y-70635440D01*
X88015765Y-70586157D01*
X88225809Y-70445809D01*
X88366157Y-70235765D01*
X88369275Y-70220092D01*
X88538493Y-70389310D01*
X89102670Y-70623000D01*
X89713330Y-70623000D01*
X90277507Y-70389310D01*
X90709310Y-69957507D01*
X90943000Y-69393330D01*
X90943000Y-68782670D01*
X90709310Y-68218493D01*
X90277507Y-67786690D01*
X90168000Y-67741331D01*
X90168000Y-62814669D01*
X90277507Y-62769310D01*
X90709310Y-62337507D01*
X90943000Y-61773330D01*
X90943000Y-61162670D01*
X90709310Y-60598493D01*
X90277507Y-60166690D01*
X90168000Y-60121331D01*
X90168000Y-55194669D01*
X90277507Y-55149310D01*
X90709310Y-54717507D01*
X90943000Y-54153330D01*
X90943000Y-53542670D01*
X90709310Y-52978493D01*
X90277507Y-52546690D01*
X90168000Y-52501331D01*
X90168000Y-47574669D01*
X90277507Y-47529310D01*
X90709310Y-47097507D01*
X90943000Y-46533330D01*
X90943000Y-45922670D01*
X90709310Y-45358493D01*
X90277507Y-44926690D01*
X89713330Y-44693000D01*
X89102670Y-44693000D01*
X88993161Y-44738360D01*
X88773330Y-44518529D01*
X88730928Y-44455070D01*
X88479536Y-44287095D01*
X88257851Y-44242999D01*
X88257846Y-44242999D01*
X88182999Y-44228111D01*
X88108152Y-44242999D01*
X85627847Y-44242999D01*
X85553000Y-44228111D01*
X85478153Y-44242999D01*
X85478149Y-44242999D01*
X85256464Y-44287095D01*
X85005072Y-44455070D01*
X84962672Y-44518526D01*
X84742838Y-44738360D01*
X84633330Y-44693000D01*
X84022670Y-44693000D01*
X83913161Y-44738360D01*
X83693330Y-44518529D01*
X83650928Y-44455070D01*
X83399536Y-44287095D01*
X83177851Y-44242999D01*
X83177846Y-44242999D01*
X83102999Y-44228111D01*
X83028152Y-44242999D01*
X80547847Y-44242999D01*
X80473000Y-44228111D01*
X80398153Y-44242999D01*
X80398149Y-44242999D01*
X80176464Y-44287095D01*
X79925072Y-44455070D01*
X79882672Y-44518526D01*
X79662838Y-44738360D01*
X79553330Y-44693000D01*
X78942670Y-44693000D01*
X78833161Y-44738360D01*
X78613330Y-44518529D01*
X78570928Y-44455070D01*
X78319536Y-44287095D01*
X78097851Y-44242999D01*
X78097846Y-44242999D01*
X78022999Y-44228111D01*
X77948152Y-44242999D01*
X75467847Y-44242999D01*
X75393000Y-44228111D01*
X75318153Y-44242999D01*
X75318149Y-44242999D01*
X75096464Y-44287095D01*
X74845072Y-44455070D01*
X74802672Y-44518526D01*
X74582838Y-44738360D01*
X74473330Y-44693000D01*
X73862670Y-44693000D01*
X73298493Y-44926690D01*
X73129275Y-45095908D01*
X73126157Y-45080235D01*
X72985809Y-44870191D01*
X72775765Y-44729843D01*
X72528000Y-44680560D01*
X70728000Y-44680560D01*
X70480235Y-44729843D01*
X70270191Y-44870191D01*
X70129843Y-45080235D01*
X70080560Y-45328000D01*
X70080560Y-47128000D01*
X70129843Y-47375765D01*
X70270191Y-47585809D01*
X70480235Y-47726157D01*
X70728000Y-47775440D01*
X72528000Y-47775440D01*
X72775765Y-47726157D01*
X72985809Y-47585809D01*
X73126157Y-47375765D01*
X73129275Y-47360092D01*
X73298493Y-47529310D01*
X73408000Y-47574669D01*
X73408001Y-52501330D01*
X73298493Y-52546690D01*
X73129275Y-52715908D01*
X73126157Y-52700235D01*
X72985809Y-52490191D01*
X72775765Y-52349843D01*
X72528000Y-52300560D01*
X70728000Y-52300560D01*
X70480235Y-52349843D01*
X70270191Y-52490191D01*
X70129843Y-52700235D01*
X70080560Y-52948000D01*
X70080560Y-54125758D01*
X67582570Y-51627769D01*
X67769280Y-51550431D01*
X68060431Y-51259280D01*
X68218000Y-50878874D01*
X68218000Y-50467126D01*
X68060431Y-50086720D01*
X67769280Y-49795569D01*
X67388874Y-49638000D01*
X67222802Y-49638000D01*
X65868331Y-48283530D01*
X65825929Y-48220071D01*
X65574537Y-48052096D01*
X65352852Y-48008000D01*
X65352847Y-48008000D01*
X65278000Y-47993112D01*
X65203153Y-48008000D01*
X65135975Y-48008000D01*
X64764217Y-47636242D01*
X64273548Y-47433000D01*
X63742452Y-47433000D01*
X63251783Y-47636242D01*
X62876242Y-48011783D01*
X62673000Y-48502452D01*
X60180197Y-48502452D01*
X60220716Y-48434671D01*
X60077797Y-48089604D01*
X59730663Y-47701236D01*
X59261331Y-47475273D01*
X59055000Y-47597794D01*
X58801000Y-47597794D01*
X58594669Y-47475273D01*
X58125337Y-47701236D01*
X57778203Y-48089604D01*
X57635284Y-48434671D01*
X49453000Y-48434671D01*
X49453000Y-40548000D01*
X51100560Y-40548000D01*
X51100560Y-41748000D01*
X51149843Y-41995765D01*
X51290191Y-42205809D01*
X51500235Y-42346157D01*
X51748000Y-42395440D01*
X52948000Y-42395440D01*
X53195765Y-42346157D01*
X53310802Y-42269291D01*
X53679036Y-42395807D01*
X54169413Y-42365482D01*
X54481617Y-42236164D01*
X54486896Y-42212126D01*
X55353000Y-42212126D01*
X55353000Y-42623874D01*
X55510569Y-43004280D01*
X55801720Y-43295431D01*
X56182126Y-43453000D01*
X56593874Y-43453000D01*
X56974280Y-43295431D01*
X57091711Y-43178000D01*
X59488153Y-43178000D01*
X59563000Y-43192888D01*
X59637847Y-43178000D01*
X59637852Y-43178000D01*
X59859537Y-43133904D01*
X60110929Y-42965929D01*
X60153331Y-42902470D01*
X60307066Y-42748735D01*
X68150870Y-42748735D01*
X68200383Y-42974164D01*
X68665036Y-43133807D01*
X69155413Y-43103482D01*
X69467617Y-42974164D01*
X69517130Y-42748735D01*
X68834000Y-42065605D01*
X68150870Y-42748735D01*
X60307066Y-42748735D01*
X61338766Y-41717036D01*
X67586193Y-41717036D01*
X67616518Y-42207413D01*
X67745836Y-42519617D01*
X67971265Y-42569130D01*
X68654395Y-41886000D01*
X68640253Y-41871858D01*
X68819858Y-41692253D01*
X68834000Y-41706395D01*
X68848143Y-41692253D01*
X69027748Y-41871858D01*
X69013605Y-41886000D01*
X69696735Y-42569130D01*
X69922164Y-42519617D01*
X70081807Y-42054964D01*
X70051482Y-41564587D01*
X69959495Y-41342510D01*
X70032157Y-41233765D01*
X70081440Y-40986000D01*
X70081440Y-39786000D01*
X70032157Y-39538235D01*
X69891809Y-39328191D01*
X69681765Y-39187843D01*
X69434000Y-39138560D01*
X68234000Y-39138560D01*
X67986235Y-39187843D01*
X67776191Y-39328191D01*
X67635843Y-39538235D01*
X67586560Y-39786000D01*
X67586560Y-40986000D01*
X67635843Y-41233765D01*
X67712709Y-41348802D01*
X67586193Y-41717036D01*
X61338766Y-41717036D01*
X62142803Y-40913000D01*
X62308874Y-40913000D01*
X62689280Y-40755431D01*
X62980431Y-40464280D01*
X63138000Y-40083874D01*
X63138000Y-39672126D01*
X62980431Y-39291720D01*
X62689280Y-39000569D01*
X62308874Y-38843000D01*
X61897126Y-38843000D01*
X61516720Y-39000569D01*
X61225569Y-39291720D01*
X61068000Y-39672126D01*
X61068000Y-39838197D01*
X59248199Y-41658000D01*
X57091711Y-41658000D01*
X56974280Y-41540569D01*
X56593874Y-41383000D01*
X56182126Y-41383000D01*
X55801720Y-41540569D01*
X55510569Y-41831720D01*
X55353000Y-42212126D01*
X54486896Y-42212126D01*
X54531130Y-42010735D01*
X53848000Y-41327605D01*
X53833858Y-41341748D01*
X53654253Y-41162143D01*
X53668395Y-41148000D01*
X54027605Y-41148000D01*
X54710735Y-41831130D01*
X54936164Y-41781617D01*
X55095807Y-41316964D01*
X55065482Y-40826587D01*
X54936164Y-40514383D01*
X54710735Y-40464870D01*
X54027605Y-41148000D01*
X53668395Y-41148000D01*
X53654253Y-41133858D01*
X53833858Y-40954253D01*
X53848000Y-40968395D01*
X54531130Y-40285265D01*
X54481617Y-40059836D01*
X54016964Y-39900193D01*
X53526587Y-39930518D01*
X53304510Y-40022505D01*
X53195765Y-39949843D01*
X52948000Y-39900560D01*
X51748000Y-39900560D01*
X51500235Y-39949843D01*
X51290191Y-40090191D01*
X51149843Y-40300235D01*
X51100560Y-40548000D01*
X49453000Y-40548000D01*
X49453000Y-35802452D01*
X49973000Y-35802452D01*
X49973000Y-36333548D01*
X50176242Y-36824217D01*
X50551783Y-37199758D01*
X51042452Y-37403000D01*
X51573548Y-37403000D01*
X52064217Y-37199758D01*
X52260700Y-37003275D01*
X58172331Y-37003275D01*
X58234169Y-37239042D01*
X58735122Y-37415419D01*
X59265440Y-37386664D01*
X59621831Y-37239042D01*
X59683669Y-37003275D01*
X58928000Y-36247605D01*
X58172331Y-37003275D01*
X52260700Y-37003275D01*
X52439758Y-36824217D01*
X52643000Y-36333548D01*
X52643000Y-35875122D01*
X57580581Y-35875122D01*
X57609336Y-36405440D01*
X57756958Y-36761831D01*
X57992725Y-36823669D01*
X58748395Y-36068000D01*
X59107605Y-36068000D01*
X59863275Y-36823669D01*
X60099042Y-36761831D01*
X60275419Y-36260878D01*
X60250563Y-35802452D01*
X61403000Y-35802452D01*
X61403000Y-36333548D01*
X61606242Y-36824217D01*
X61981783Y-37199758D01*
X62472452Y-37403000D01*
X63003548Y-37403000D01*
X63494217Y-37199758D01*
X63869758Y-36824217D01*
X64073000Y-36333548D01*
X64073000Y-35802452D01*
X63869758Y-35311783D01*
X63494217Y-34936242D01*
X63003548Y-34733000D01*
X62472452Y-34733000D01*
X61981783Y-34936242D01*
X61606242Y-35311783D01*
X61403000Y-35802452D01*
X60250563Y-35802452D01*
X60246664Y-35730560D01*
X60099042Y-35374169D01*
X59863275Y-35312331D01*
X59107605Y-36068000D01*
X58748395Y-36068000D01*
X57992725Y-35312331D01*
X57756958Y-35374169D01*
X57580581Y-35875122D01*
X52643000Y-35875122D01*
X52643000Y-35802452D01*
X52439758Y-35311783D01*
X52260700Y-35132725D01*
X58172331Y-35132725D01*
X58928000Y-35888395D01*
X59683669Y-35132725D01*
X59621831Y-34896958D01*
X59120878Y-34720581D01*
X58590560Y-34749336D01*
X58234169Y-34896958D01*
X58172331Y-35132725D01*
X52260700Y-35132725D01*
X52064217Y-34936242D01*
X51573548Y-34733000D01*
X51042452Y-34733000D01*
X50551783Y-34936242D01*
X50176242Y-35311783D01*
X49973000Y-35802452D01*
X49453000Y-35802452D01*
X49453000Y-31673000D01*
X91263000Y-31673000D01*
X91263001Y-78563000D01*
G36*
X78378493Y-62769310D02*
X78488000Y-62814669D01*
X78488001Y-67741330D01*
X78378493Y-67786690D01*
X78209275Y-67955908D01*
X78206157Y-67940235D01*
X78065809Y-67730191D01*
X77855765Y-67589843D01*
X77608000Y-67540560D01*
X75808000Y-67540560D01*
X75560235Y-67589843D01*
X75350191Y-67730191D01*
X75209843Y-67940235D01*
X75206725Y-67955908D01*
X75037507Y-67786690D01*
X74928000Y-67741331D01*
X74928000Y-62814669D01*
X75037507Y-62769310D01*
X75206725Y-62600092D01*
X75209843Y-62615765D01*
X75350191Y-62825809D01*
X75560235Y-62966157D01*
X75808000Y-63015440D01*
X77608000Y-63015440D01*
X77855765Y-62966157D01*
X78065809Y-62825809D01*
X78206157Y-62615765D01*
X78209275Y-62600092D01*
X78378493Y-62769310D01*
X78378493Y-62769310D01*
G37*
X78378493Y-62769310D02*
X78488000Y-62814669D01*
X78488001Y-67741330D01*
X78378493Y-67786690D01*
X78209275Y-67955908D01*
X78206157Y-67940235D01*
X78065809Y-67730191D01*
X77855765Y-67589843D01*
X77608000Y-67540560D01*
X75808000Y-67540560D01*
X75560235Y-67589843D01*
X75350191Y-67730191D01*
X75209843Y-67940235D01*
X75206725Y-67955908D01*
X75037507Y-67786690D01*
X74928000Y-67741331D01*
X74928000Y-62814669D01*
X75037507Y-62769310D01*
X75206725Y-62600092D01*
X75209843Y-62615765D01*
X75350191Y-62825809D01*
X75560235Y-62966157D01*
X75808000Y-63015440D01*
X77608000Y-63015440D01*
X77855765Y-62966157D01*
X78065809Y-62825809D01*
X78206157Y-62615765D01*
X78209275Y-62600092D01*
X78378493Y-62769310D01*
G36*
X88538493Y-62769310D02*
X88648000Y-62814669D01*
X88648001Y-67259660D01*
X88479536Y-67147095D01*
X88257851Y-67102999D01*
X88257846Y-67102999D01*
X88182999Y-67088111D01*
X88108152Y-67102999D01*
X85627847Y-67102999D01*
X85553000Y-67088111D01*
X85478153Y-67102999D01*
X85478149Y-67102999D01*
X85256464Y-67147095D01*
X85088000Y-67259659D01*
X85088000Y-62814669D01*
X85197507Y-62769310D01*
X85366725Y-62600092D01*
X85369843Y-62615765D01*
X85510191Y-62825809D01*
X85720235Y-62966157D01*
X85968000Y-63015440D01*
X87768000Y-63015440D01*
X88015765Y-62966157D01*
X88225809Y-62825809D01*
X88366157Y-62615765D01*
X88369275Y-62600092D01*
X88538493Y-62769310D01*
X88538493Y-62769310D01*
G37*
X88538493Y-62769310D02*
X88648000Y-62814669D01*
X88648001Y-67259660D01*
X88479536Y-67147095D01*
X88257851Y-67102999D01*
X88257846Y-67102999D01*
X88182999Y-67088111D01*
X88108152Y-67102999D01*
X85627847Y-67102999D01*
X85553000Y-67088111D01*
X85478153Y-67102999D01*
X85478149Y-67102999D01*
X85256464Y-67147095D01*
X85088000Y-67259659D01*
X85088000Y-62814669D01*
X85197507Y-62769310D01*
X85366725Y-62600092D01*
X85369843Y-62615765D01*
X85510191Y-62825809D01*
X85720235Y-62966157D01*
X85968000Y-63015440D01*
X87768000Y-63015440D01*
X88015765Y-62966157D01*
X88225809Y-62825809D01*
X88366157Y-62615765D01*
X88369275Y-62600092D01*
X88538493Y-62769310D01*
G36*
X83458493Y-62769310D02*
X83568000Y-62814669D01*
X83568001Y-67244728D01*
X83354537Y-67102096D01*
X83132852Y-67058000D01*
X83132847Y-67058000D01*
X83058000Y-67043112D01*
X82983153Y-67058000D01*
X80592846Y-67058000D01*
X80517999Y-67043112D01*
X80443152Y-67058000D01*
X80443148Y-67058000D01*
X80221463Y-67102096D01*
X80008000Y-67244728D01*
X80008000Y-62814669D01*
X80117507Y-62769310D01*
X80286725Y-62600092D01*
X80289843Y-62615765D01*
X80430191Y-62825809D01*
X80640235Y-62966157D01*
X80888000Y-63015440D01*
X82688000Y-63015440D01*
X82935765Y-62966157D01*
X83145809Y-62825809D01*
X83286157Y-62615765D01*
X83289275Y-62600092D01*
X83458493Y-62769310D01*
X83458493Y-62769310D01*
G37*
X83458493Y-62769310D02*
X83568000Y-62814669D01*
X83568001Y-67244728D01*
X83354537Y-67102096D01*
X83132852Y-67058000D01*
X83132847Y-67058000D01*
X83058000Y-67043112D01*
X82983153Y-67058000D01*
X80592846Y-67058000D01*
X80517999Y-67043112D01*
X80443152Y-67058000D01*
X80443148Y-67058000D01*
X80221463Y-67102096D01*
X80008000Y-67244728D01*
X80008000Y-62814669D01*
X80117507Y-62769310D01*
X80286725Y-62600092D01*
X80289843Y-62615765D01*
X80430191Y-62825809D01*
X80640235Y-62966157D01*
X80888000Y-63015440D01*
X82688000Y-63015440D01*
X82935765Y-62966157D01*
X83145809Y-62825809D01*
X83286157Y-62615765D01*
X83289275Y-62600092D01*
X83458493Y-62769310D01*
G36*
X88538493Y-55149310D02*
X88648000Y-55194669D01*
X88648001Y-60121330D01*
X88538493Y-60166690D01*
X88369275Y-60335908D01*
X88366157Y-60320235D01*
X88225809Y-60110191D01*
X88015765Y-59969843D01*
X87768000Y-59920560D01*
X85968000Y-59920560D01*
X85720235Y-59969843D01*
X85510191Y-60110191D01*
X85369843Y-60320235D01*
X85366725Y-60335908D01*
X85197507Y-60166690D01*
X85088000Y-60121331D01*
X85088000Y-55194669D01*
X85197507Y-55149310D01*
X85366725Y-54980092D01*
X85369843Y-54995765D01*
X85510191Y-55205809D01*
X85720235Y-55346157D01*
X85968000Y-55395440D01*
X87768000Y-55395440D01*
X88015765Y-55346157D01*
X88225809Y-55205809D01*
X88366157Y-54995765D01*
X88369275Y-54980092D01*
X88538493Y-55149310D01*
X88538493Y-55149310D01*
G37*
X88538493Y-55149310D02*
X88648000Y-55194669D01*
X88648001Y-60121330D01*
X88538493Y-60166690D01*
X88369275Y-60335908D01*
X88366157Y-60320235D01*
X88225809Y-60110191D01*
X88015765Y-59969843D01*
X87768000Y-59920560D01*
X85968000Y-59920560D01*
X85720235Y-59969843D01*
X85510191Y-60110191D01*
X85369843Y-60320235D01*
X85366725Y-60335908D01*
X85197507Y-60166690D01*
X85088000Y-60121331D01*
X85088000Y-55194669D01*
X85197507Y-55149310D01*
X85366725Y-54980092D01*
X85369843Y-54995765D01*
X85510191Y-55205809D01*
X85720235Y-55346157D01*
X85968000Y-55395440D01*
X87768000Y-55395440D01*
X88015765Y-55346157D01*
X88225809Y-55205809D01*
X88366157Y-54995765D01*
X88369275Y-54980092D01*
X88538493Y-55149310D01*
G36*
X83458493Y-55149310D02*
X83568000Y-55194669D01*
X83568001Y-60121330D01*
X83458493Y-60166690D01*
X83289275Y-60335908D01*
X83286157Y-60320235D01*
X83145809Y-60110191D01*
X82935765Y-59969843D01*
X82688000Y-59920560D01*
X80888000Y-59920560D01*
X80640235Y-59969843D01*
X80430191Y-60110191D01*
X80289843Y-60320235D01*
X80286725Y-60335908D01*
X80117507Y-60166690D01*
X80008000Y-60121331D01*
X80008000Y-55194669D01*
X80117507Y-55149310D01*
X80286725Y-54980092D01*
X80289843Y-54995765D01*
X80430191Y-55205809D01*
X80640235Y-55346157D01*
X80888000Y-55395440D01*
X82688000Y-55395440D01*
X82935765Y-55346157D01*
X83145809Y-55205809D01*
X83286157Y-54995765D01*
X83289275Y-54980092D01*
X83458493Y-55149310D01*
X83458493Y-55149310D01*
G37*
X83458493Y-55149310D02*
X83568000Y-55194669D01*
X83568001Y-60121330D01*
X83458493Y-60166690D01*
X83289275Y-60335908D01*
X83286157Y-60320235D01*
X83145809Y-60110191D01*
X82935765Y-59969843D01*
X82688000Y-59920560D01*
X80888000Y-59920560D01*
X80640235Y-59969843D01*
X80430191Y-60110191D01*
X80289843Y-60320235D01*
X80286725Y-60335908D01*
X80117507Y-60166690D01*
X80008000Y-60121331D01*
X80008000Y-55194669D01*
X80117507Y-55149310D01*
X80286725Y-54980092D01*
X80289843Y-54995765D01*
X80430191Y-55205809D01*
X80640235Y-55346157D01*
X80888000Y-55395440D01*
X82688000Y-55395440D01*
X82935765Y-55346157D01*
X83145809Y-55205809D01*
X83286157Y-54995765D01*
X83289275Y-54980092D01*
X83458493Y-55149310D01*
G36*
X78378493Y-55149310D02*
X78488000Y-55194669D01*
X78488001Y-60121330D01*
X78378493Y-60166690D01*
X78209275Y-60335908D01*
X78206157Y-60320235D01*
X78065809Y-60110191D01*
X77855765Y-59969843D01*
X77608000Y-59920560D01*
X75808000Y-59920560D01*
X75560235Y-59969843D01*
X75350191Y-60110191D01*
X75209843Y-60320235D01*
X75206725Y-60335908D01*
X75037507Y-60166690D01*
X74928000Y-60121331D01*
X74928000Y-55194669D01*
X75037507Y-55149310D01*
X75206725Y-54980092D01*
X75209843Y-54995765D01*
X75350191Y-55205809D01*
X75560235Y-55346157D01*
X75808000Y-55395440D01*
X77608000Y-55395440D01*
X77855765Y-55346157D01*
X78065809Y-55205809D01*
X78206157Y-54995765D01*
X78209275Y-54980092D01*
X78378493Y-55149310D01*
X78378493Y-55149310D01*
G37*
X78378493Y-55149310D02*
X78488000Y-55194669D01*
X78488001Y-60121330D01*
X78378493Y-60166690D01*
X78209275Y-60335908D01*
X78206157Y-60320235D01*
X78065809Y-60110191D01*
X77855765Y-59969843D01*
X77608000Y-59920560D01*
X75808000Y-59920560D01*
X75560235Y-59969843D01*
X75350191Y-60110191D01*
X75209843Y-60320235D01*
X75206725Y-60335908D01*
X75037507Y-60166690D01*
X74928000Y-60121331D01*
X74928000Y-55194669D01*
X75037507Y-55149310D01*
X75206725Y-54980092D01*
X75209843Y-54995765D01*
X75350191Y-55205809D01*
X75560235Y-55346157D01*
X75808000Y-55395440D01*
X77608000Y-55395440D01*
X77855765Y-55346157D01*
X78065809Y-55205809D01*
X78206157Y-54995765D01*
X78209275Y-54980092D01*
X78378493Y-55149310D01*
G36*
X83458493Y-47529310D02*
X83568000Y-47574669D01*
X83568001Y-52501330D01*
X83458493Y-52546690D01*
X83289275Y-52715908D01*
X83286157Y-52700235D01*
X83145809Y-52490191D01*
X82935765Y-52349843D01*
X82688000Y-52300560D01*
X80888000Y-52300560D01*
X80640235Y-52349843D01*
X80430191Y-52490191D01*
X80289843Y-52700235D01*
X80286725Y-52715908D01*
X80117507Y-52546690D01*
X80008000Y-52501331D01*
X80008000Y-47574669D01*
X80117507Y-47529310D01*
X80286725Y-47360092D01*
X80289843Y-47375765D01*
X80430191Y-47585809D01*
X80640235Y-47726157D01*
X80888000Y-47775440D01*
X82688000Y-47775440D01*
X82935765Y-47726157D01*
X83145809Y-47585809D01*
X83286157Y-47375765D01*
X83289275Y-47360092D01*
X83458493Y-47529310D01*
X83458493Y-47529310D01*
G37*
X83458493Y-47529310D02*
X83568000Y-47574669D01*
X83568001Y-52501330D01*
X83458493Y-52546690D01*
X83289275Y-52715908D01*
X83286157Y-52700235D01*
X83145809Y-52490191D01*
X82935765Y-52349843D01*
X82688000Y-52300560D01*
X80888000Y-52300560D01*
X80640235Y-52349843D01*
X80430191Y-52490191D01*
X80289843Y-52700235D01*
X80286725Y-52715908D01*
X80117507Y-52546690D01*
X80008000Y-52501331D01*
X80008000Y-47574669D01*
X80117507Y-47529310D01*
X80286725Y-47360092D01*
X80289843Y-47375765D01*
X80430191Y-47585809D01*
X80640235Y-47726157D01*
X80888000Y-47775440D01*
X82688000Y-47775440D01*
X82935765Y-47726157D01*
X83145809Y-47585809D01*
X83286157Y-47375765D01*
X83289275Y-47360092D01*
X83458493Y-47529310D01*
G36*
X88538493Y-47529310D02*
X88648000Y-47574669D01*
X88648001Y-52501330D01*
X88538493Y-52546690D01*
X88369275Y-52715908D01*
X88366157Y-52700235D01*
X88225809Y-52490191D01*
X88015765Y-52349843D01*
X87768000Y-52300560D01*
X85968000Y-52300560D01*
X85720235Y-52349843D01*
X85510191Y-52490191D01*
X85369843Y-52700235D01*
X85366725Y-52715908D01*
X85197507Y-52546690D01*
X85088000Y-52501331D01*
X85088000Y-47574669D01*
X85197507Y-47529310D01*
X85366725Y-47360092D01*
X85369843Y-47375765D01*
X85510191Y-47585809D01*
X85720235Y-47726157D01*
X85968000Y-47775440D01*
X87768000Y-47775440D01*
X88015765Y-47726157D01*
X88225809Y-47585809D01*
X88366157Y-47375765D01*
X88369275Y-47360092D01*
X88538493Y-47529310D01*
X88538493Y-47529310D01*
G37*
X88538493Y-47529310D02*
X88648000Y-47574669D01*
X88648001Y-52501330D01*
X88538493Y-52546690D01*
X88369275Y-52715908D01*
X88366157Y-52700235D01*
X88225809Y-52490191D01*
X88015765Y-52349843D01*
X87768000Y-52300560D01*
X85968000Y-52300560D01*
X85720235Y-52349843D01*
X85510191Y-52490191D01*
X85369843Y-52700235D01*
X85366725Y-52715908D01*
X85197507Y-52546690D01*
X85088000Y-52501331D01*
X85088000Y-47574669D01*
X85197507Y-47529310D01*
X85366725Y-47360092D01*
X85369843Y-47375765D01*
X85510191Y-47585809D01*
X85720235Y-47726157D01*
X85968000Y-47775440D01*
X87768000Y-47775440D01*
X88015765Y-47726157D01*
X88225809Y-47585809D01*
X88366157Y-47375765D01*
X88369275Y-47360092D01*
X88538493Y-47529310D01*
G36*
X78378493Y-47529310D02*
X78488000Y-47574669D01*
X78488001Y-52501330D01*
X78378493Y-52546690D01*
X78209275Y-52715908D01*
X78206157Y-52700235D01*
X78065809Y-52490191D01*
X77855765Y-52349843D01*
X77608000Y-52300560D01*
X75808000Y-52300560D01*
X75560235Y-52349843D01*
X75350191Y-52490191D01*
X75209843Y-52700235D01*
X75206725Y-52715908D01*
X75037507Y-52546690D01*
X74928000Y-52501331D01*
X74928000Y-47574669D01*
X75037507Y-47529310D01*
X75206725Y-47360092D01*
X75209843Y-47375765D01*
X75350191Y-47585809D01*
X75560235Y-47726157D01*
X75808000Y-47775440D01*
X77608000Y-47775440D01*
X77855765Y-47726157D01*
X78065809Y-47585809D01*
X78206157Y-47375765D01*
X78209275Y-47360092D01*
X78378493Y-47529310D01*
X78378493Y-47529310D01*
G37*
X78378493Y-47529310D02*
X78488000Y-47574669D01*
X78488001Y-52501330D01*
X78378493Y-52546690D01*
X78209275Y-52715908D01*
X78206157Y-52700235D01*
X78065809Y-52490191D01*
X77855765Y-52349843D01*
X77608000Y-52300560D01*
X75808000Y-52300560D01*
X75560235Y-52349843D01*
X75350191Y-52490191D01*
X75209843Y-52700235D01*
X75206725Y-52715908D01*
X75037507Y-52546690D01*
X74928000Y-52501331D01*
X74928000Y-47574669D01*
X75037507Y-47529310D01*
X75206725Y-47360092D01*
X75209843Y-47375765D01*
X75350191Y-47585809D01*
X75560235Y-47726157D01*
X75808000Y-47775440D01*
X77608000Y-47775440D01*
X77855765Y-47726157D01*
X78065809Y-47585809D01*
X78206157Y-47375765D01*
X78209275Y-47360092D01*
X78378493Y-47529310D01*
G04 #@! TD*
M02*
