G04 #@! TF.GenerationSoftware,KiCad,Pcbnew,(5.0.1)-3*
G04 #@! TF.CreationDate,2018-10-20T23:17:48-07:00*
G04 #@! TF.ProjectId,ODKB_Board,4F444B425F426F6172642E6B69636164,rev?*
G04 #@! TF.SameCoordinates,Original*
G04 #@! TF.FileFunction,Copper,L1,Top,Signal*
G04 #@! TF.FilePolarity,Positive*
%FSLAX46Y46*%
G04 Gerber Fmt 4.6, Leading zero omitted, Abs format (unit mm)*
G04 Created by KiCad (PCBNEW (5.0.1)-3) date 10/20/2018 11:17:48 PM*
%MOMM*%
%LPD*%
G01*
G04 APERTURE LIST*
G04 #@! TA.AperFunction,SMDPad,CuDef*
%ADD10R,1.200000X0.400000*%
G04 #@! TD*
G04 #@! TA.AperFunction,ComponentPad*
%ADD11C,1.400000*%
G04 #@! TD*
G04 #@! TA.AperFunction,ComponentPad*
%ADD12C,1.200000*%
G04 #@! TD*
G04 #@! TA.AperFunction,ComponentPad*
%ADD13R,1.200000X1.200000*%
G04 #@! TD*
G04 #@! TA.AperFunction,ComponentPad*
%ADD14R,1.800000X1.800000*%
G04 #@! TD*
G04 #@! TA.AperFunction,ComponentPad*
%ADD15C,1.800000*%
G04 #@! TD*
G04 #@! TA.AperFunction,ComponentPad*
%ADD16O,1.400000X1.400000*%
G04 #@! TD*
G04 #@! TA.AperFunction,SMDPad,CuDef*
%ADD17R,1.550000X0.600000*%
G04 #@! TD*
G04 #@! TA.AperFunction,SMDPad,CuDef*
%ADD18R,0.400000X1.200000*%
G04 #@! TD*
G04 #@! TA.AperFunction,ViaPad*
%ADD19C,0.800000*%
G04 #@! TD*
G04 #@! TA.AperFunction,Conductor*
%ADD20C,0.250000*%
G04 #@! TD*
G04 #@! TA.AperFunction,Conductor*
%ADD21C,0.254000*%
G04 #@! TD*
G04 APERTURE END LIST*
D10*
G04 #@! TO.P,U2,32*
G04 #@! TO.N,+5V*
X65118000Y-51513000D03*
G04 #@! TO.P,U2,31*
G04 #@! TO.N,Net-(R1-Pad1)*
X65118000Y-52163000D03*
G04 #@! TO.P,U2,30*
G04 #@! TO.N,/XLAT*
X65118000Y-52813000D03*
G04 #@! TO.P,U2,29*
G04 #@! TO.N,Net-(U2-Pad29)*
X65118000Y-53463000D03*
G04 #@! TO.P,U2,28*
G04 #@! TO.N,/led8*
X65118000Y-54113000D03*
G04 #@! TO.P,U2,27*
G04 #@! TO.N,/led7*
X65118000Y-54763000D03*
G04 #@! TO.P,U2,26*
G04 #@! TO.N,/led6*
X65118000Y-55413000D03*
G04 #@! TO.P,U2,25*
G04 #@! TO.N,/led5*
X65118000Y-56063000D03*
G04 #@! TO.P,U2,24*
G04 #@! TO.N,Net-(U2-Pad24)*
X65118000Y-56713000D03*
G04 #@! TO.P,U2,23*
G04 #@! TO.N,Net-(U2-Pad23)*
X65118000Y-57363000D03*
G04 #@! TO.P,U2,22*
G04 #@! TO.N,Net-(U2-Pad22)*
X65118000Y-58013000D03*
G04 #@! TO.P,U2,21*
G04 #@! TO.N,Net-(U2-Pad21)*
X65118000Y-58663000D03*
G04 #@! TO.P,U2,20*
G04 #@! TO.N,Net-(U2-Pad20)*
X65118000Y-59313000D03*
G04 #@! TO.P,U2,19*
G04 #@! TO.N,Net-(U2-Pad19)*
X65118000Y-59963000D03*
G04 #@! TO.P,U2,18*
G04 #@! TO.N,Net-(U2-Pad18)*
X65118000Y-60613000D03*
G04 #@! TO.P,U2,17*
G04 #@! TO.N,Net-(U2-Pad17)*
X65118000Y-61263000D03*
G04 #@! TO.P,U2,16*
G04 #@! TO.N,Net-(U2-Pad16)*
X57818000Y-61263000D03*
G04 #@! TO.P,U2,15*
G04 #@! TO.N,Net-(U2-Pad15)*
X57818000Y-60613000D03*
G04 #@! TO.P,U2,14*
G04 #@! TO.N,Net-(U2-Pad14)*
X57818000Y-59963000D03*
G04 #@! TO.P,U2,13*
G04 #@! TO.N,Net-(U2-Pad13)*
X57818000Y-59313000D03*
G04 #@! TO.P,U2,12*
G04 #@! TO.N,Net-(U2-Pad12)*
X57818000Y-58663000D03*
G04 #@! TO.P,U2,11*
G04 #@! TO.N,Net-(U2-Pad11)*
X57818000Y-58013000D03*
G04 #@! TO.P,U2,10*
G04 #@! TO.N,Net-(U2-Pad10)*
X57818000Y-57363000D03*
G04 #@! TO.P,U2,9*
G04 #@! TO.N,Net-(U2-Pad9)*
X57818000Y-56713000D03*
G04 #@! TO.P,U2,8*
G04 #@! TO.N,/led4*
X57818000Y-56063000D03*
G04 #@! TO.P,U2,7*
G04 #@! TO.N,/led3*
X57818000Y-55413000D03*
G04 #@! TO.P,U2,6*
G04 #@! TO.N,/led2*
X57818000Y-54763000D03*
G04 #@! TO.P,U2,5*
G04 #@! TO.N,/led1*
X57818000Y-54113000D03*
G04 #@! TO.P,U2,4*
G04 #@! TO.N,/SIN*
X57818000Y-53463000D03*
G04 #@! TO.P,U2,3*
G04 #@! TO.N,/CLK*
X57818000Y-52813000D03*
G04 #@! TO.P,U2,2*
G04 #@! TO.N,/BLANK*
X57818000Y-52163000D03*
G04 #@! TO.P,U2,1*
G04 #@! TO.N,GND*
X57818000Y-51513000D03*
G04 #@! TD*
D11*
G04 #@! TO.P,J2,1*
G04 #@! TO.N,+3V3*
X51308000Y-36068000D03*
G04 #@! TD*
G04 #@! TO.P,J7,1*
G04 #@! TO.N,/XLAT*
X51943000Y-60833000D03*
G04 #@! TD*
G04 #@! TO.P,J6,1*
G04 #@! TO.N,/SIN*
X51943000Y-56896000D03*
G04 #@! TD*
G04 #@! TO.P,J5,1*
G04 #@! TO.N,/CLK*
X51943000Y-53848000D03*
G04 #@! TD*
G04 #@! TO.P,J4,1*
G04 #@! TO.N,/BLANK*
X51943000Y-51054000D03*
G04 #@! TD*
G04 #@! TO.P,J3,1*
G04 #@! TO.N,GND*
X58928000Y-36068000D03*
G04 #@! TD*
G04 #@! TO.P,J1,1*
G04 #@! TO.N,+5V*
X62738000Y-36068000D03*
G04 #@! TD*
D12*
G04 #@! TO.P,C1,2*
G04 #@! TO.N,GND*
X53848000Y-41148000D03*
D13*
G04 #@! TO.P,C1,1*
G04 #@! TO.N,+5V*
X52348000Y-41148000D03*
G04 #@! TD*
G04 #@! TO.P,C2,1*
G04 #@! TO.N,+3V3*
X68834000Y-40386000D03*
D12*
G04 #@! TO.P,C2,2*
G04 #@! TO.N,GND*
X68834000Y-41886000D03*
G04 #@! TD*
D14*
G04 #@! TO.P,D1,1*
G04 #@! TO.N,/led1*
X71628000Y-46228000D03*
D15*
G04 #@! TO.P,D1,2*
G04 #@! TO.N,+5V*
X74168000Y-46228000D03*
G04 #@! TD*
G04 #@! TO.P,D2,2*
G04 #@! TO.N,+5V*
X79248000Y-46228000D03*
D14*
G04 #@! TO.P,D2,1*
G04 #@! TO.N,/led2*
X76708000Y-46228000D03*
G04 #@! TD*
D15*
G04 #@! TO.P,D3,2*
G04 #@! TO.N,+5V*
X84328000Y-46228000D03*
D14*
G04 #@! TO.P,D3,1*
G04 #@! TO.N,/led3*
X81788000Y-46228000D03*
G04 #@! TD*
D15*
G04 #@! TO.P,D4,2*
G04 #@! TO.N,+5V*
X89408000Y-46228000D03*
D14*
G04 #@! TO.P,D4,1*
G04 #@! TO.N,/led4*
X86868000Y-46228000D03*
G04 #@! TD*
D15*
G04 #@! TO.P,D5,2*
G04 #@! TO.N,+5V*
X74168000Y-53848000D03*
D14*
G04 #@! TO.P,D5,1*
G04 #@! TO.N,/led5*
X71628000Y-53848000D03*
G04 #@! TD*
G04 #@! TO.P,D6,1*
G04 #@! TO.N,/led6*
X76708000Y-53848000D03*
D15*
G04 #@! TO.P,D6,2*
G04 #@! TO.N,+5V*
X79248000Y-53848000D03*
G04 #@! TD*
D14*
G04 #@! TO.P,D7,1*
G04 #@! TO.N,/led7*
X81788000Y-53848000D03*
D15*
G04 #@! TO.P,D7,2*
G04 #@! TO.N,+5V*
X84328000Y-53848000D03*
G04 #@! TD*
D14*
G04 #@! TO.P,D8,1*
G04 #@! TO.N,/led8*
X86868000Y-53848000D03*
D15*
G04 #@! TO.P,D8,2*
G04 #@! TO.N,+5V*
X89408000Y-53848000D03*
G04 #@! TD*
D14*
G04 #@! TO.P,D9,1*
G04 #@! TO.N,/led9*
X71628000Y-61468000D03*
D15*
G04 #@! TO.P,D9,2*
G04 #@! TO.N,+5V*
X74168000Y-61468000D03*
G04 #@! TD*
G04 #@! TO.P,D10,2*
G04 #@! TO.N,+5V*
X79248000Y-61468000D03*
D14*
G04 #@! TO.P,D10,1*
G04 #@! TO.N,/led10*
X76708000Y-61468000D03*
G04 #@! TD*
D15*
G04 #@! TO.P,D11,2*
G04 #@! TO.N,+5V*
X84328000Y-61468000D03*
D14*
G04 #@! TO.P,D11,1*
G04 #@! TO.N,/led11*
X81788000Y-61468000D03*
G04 #@! TD*
D15*
G04 #@! TO.P,D12,2*
G04 #@! TO.N,+5V*
X89408000Y-61468000D03*
D14*
G04 #@! TO.P,D12,1*
G04 #@! TO.N,/led12*
X86868000Y-61468000D03*
G04 #@! TD*
D15*
G04 #@! TO.P,D13,2*
G04 #@! TO.N,+5V*
X74168000Y-69088000D03*
D14*
G04 #@! TO.P,D13,1*
G04 #@! TO.N,/led13*
X71628000Y-69088000D03*
G04 #@! TD*
G04 #@! TO.P,D14,1*
G04 #@! TO.N,/led14*
X76708000Y-69088000D03*
D15*
G04 #@! TO.P,D14,2*
G04 #@! TO.N,+5V*
X79248000Y-69088000D03*
G04 #@! TD*
D14*
G04 #@! TO.P,D15,1*
G04 #@! TO.N,/led15*
X81788000Y-69088000D03*
D15*
G04 #@! TO.P,D15,2*
G04 #@! TO.N,+5V*
X84328000Y-69088000D03*
G04 #@! TD*
D14*
G04 #@! TO.P,D16,1*
G04 #@! TO.N,/led16*
X86868000Y-69088000D03*
D15*
G04 #@! TO.P,D16,2*
G04 #@! TO.N,+5V*
X89408000Y-69088000D03*
G04 #@! TD*
D16*
G04 #@! TO.P,R1,2*
G04 #@! TO.N,GND*
X58928000Y-48768000D03*
D11*
G04 #@! TO.P,R1,1*
G04 #@! TO.N,Net-(R1-Pad1)*
X64008000Y-48768000D03*
G04 #@! TD*
G04 #@! TO.P,R2,1*
G04 #@! TO.N,Net-(R2-Pad1)*
X64071005Y-64653839D03*
D16*
G04 #@! TO.P,R2,2*
G04 #@! TO.N,GND*
X58991005Y-64653839D03*
G04 #@! TD*
D17*
G04 #@! TO.P,U1,8*
G04 #@! TO.N,+5V*
X64168000Y-39243000D03*
G04 #@! TO.P,U1,7*
G04 #@! TO.N,GND*
X64168000Y-40513000D03*
G04 #@! TO.P,U1,6*
X64168000Y-41783000D03*
G04 #@! TO.P,U1,5*
G04 #@! TO.N,Net-(U1-Pad5)*
X64168000Y-43053000D03*
G04 #@! TO.P,U1,4*
G04 #@! TO.N,Net-(U1-Pad4)*
X58768000Y-43053000D03*
G04 #@! TO.P,U1,3*
G04 #@! TO.N,GND*
X58768000Y-41783000D03*
G04 #@! TO.P,U1,2*
X58768000Y-40513000D03*
G04 #@! TO.P,U1,1*
G04 #@! TO.N,+3V3*
X58768000Y-39243000D03*
G04 #@! TD*
D18*
G04 #@! TO.P,U3,1*
G04 #@! TO.N,GND*
X66406005Y-68623839D03*
G04 #@! TO.P,U3,2*
G04 #@! TO.N,/BLANK*
X65756005Y-68623839D03*
G04 #@! TO.P,U3,3*
G04 #@! TO.N,/CLK*
X65106005Y-68623839D03*
G04 #@! TO.P,U3,4*
G04 #@! TO.N,Net-(U2-Pad29)*
X64456005Y-68623839D03*
G04 #@! TO.P,U3,5*
G04 #@! TO.N,/led9*
X63806005Y-68623839D03*
G04 #@! TO.P,U3,6*
G04 #@! TO.N,/led10*
X63156005Y-68623839D03*
G04 #@! TO.P,U3,7*
G04 #@! TO.N,/led11*
X62506005Y-68623839D03*
G04 #@! TO.P,U3,8*
G04 #@! TO.N,/led12*
X61856005Y-68623839D03*
G04 #@! TO.P,U3,9*
G04 #@! TO.N,Net-(U3-Pad9)*
X61206005Y-68623839D03*
G04 #@! TO.P,U3,10*
G04 #@! TO.N,Net-(U3-Pad10)*
X60556005Y-68623839D03*
G04 #@! TO.P,U3,11*
G04 #@! TO.N,Net-(U3-Pad11)*
X59906005Y-68623839D03*
G04 #@! TO.P,U3,12*
G04 #@! TO.N,Net-(U3-Pad12)*
X59256005Y-68623839D03*
G04 #@! TO.P,U3,13*
G04 #@! TO.N,Net-(U3-Pad13)*
X58606005Y-68623839D03*
G04 #@! TO.P,U3,14*
G04 #@! TO.N,Net-(U3-Pad14)*
X57956005Y-68623839D03*
G04 #@! TO.P,U3,15*
G04 #@! TO.N,Net-(U3-Pad15)*
X57306005Y-68623839D03*
G04 #@! TO.P,U3,16*
G04 #@! TO.N,Net-(U3-Pad16)*
X56656005Y-68623839D03*
G04 #@! TO.P,U3,17*
G04 #@! TO.N,Net-(U3-Pad17)*
X56656005Y-75923839D03*
G04 #@! TO.P,U3,18*
G04 #@! TO.N,Net-(U3-Pad18)*
X57306005Y-75923839D03*
G04 #@! TO.P,U3,19*
G04 #@! TO.N,Net-(U3-Pad19)*
X57956005Y-75923839D03*
G04 #@! TO.P,U3,20*
G04 #@! TO.N,Net-(U3-Pad20)*
X58606005Y-75923839D03*
G04 #@! TO.P,U3,21*
G04 #@! TO.N,Net-(U3-Pad21)*
X59256005Y-75923839D03*
G04 #@! TO.P,U3,22*
G04 #@! TO.N,Net-(U3-Pad22)*
X59906005Y-75923839D03*
G04 #@! TO.P,U3,23*
G04 #@! TO.N,Net-(U3-Pad23)*
X60556005Y-75923839D03*
G04 #@! TO.P,U3,24*
G04 #@! TO.N,Net-(U3-Pad24)*
X61206005Y-75923839D03*
G04 #@! TO.P,U3,25*
G04 #@! TO.N,/led13*
X61856005Y-75923839D03*
G04 #@! TO.P,U3,26*
G04 #@! TO.N,/led14*
X62506005Y-75923839D03*
G04 #@! TO.P,U3,27*
G04 #@! TO.N,/led15*
X63156005Y-75923839D03*
G04 #@! TO.P,U3,28*
G04 #@! TO.N,/led16*
X63806005Y-75923839D03*
G04 #@! TO.P,U3,29*
G04 #@! TO.N,Net-(U3-Pad29)*
X64456005Y-75923839D03*
G04 #@! TO.P,U3,30*
G04 #@! TO.N,/XLAT*
X65106005Y-75923839D03*
G04 #@! TO.P,U3,31*
G04 #@! TO.N,Net-(R2-Pad1)*
X65756005Y-75923839D03*
G04 #@! TO.P,U3,32*
G04 #@! TO.N,+5V*
X66406005Y-75923839D03*
G04 #@! TD*
D19*
G04 #@! TO.N,+5V*
X67818000Y-76073000D03*
X56388000Y-42418000D03*
X62103000Y-39878000D03*
X65768000Y-50888000D03*
G04 #@! TO.N,GND*
X76708000Y-56388000D03*
X81788000Y-56388000D03*
X86868000Y-56388000D03*
X76768000Y-50038000D03*
X81918000Y-50038000D03*
X87818000Y-49938000D03*
X76318000Y-66188000D03*
X81968000Y-66338000D03*
X86968000Y-65688000D03*
X60468000Y-57838000D03*
X83518000Y-36488000D03*
X60618000Y-39188000D03*
X65718000Y-40338000D03*
X65718000Y-42088000D03*
X57268000Y-40038000D03*
X68418000Y-65588000D03*
X56818000Y-48838000D03*
G04 #@! TO.N,/BLANK*
X55753000Y-50673000D03*
X66692183Y-67327183D03*
G04 #@! TO.N,/CLK*
X65985075Y-66620075D03*
X59228001Y-52385347D03*
G04 #@! TO.N,/XLAT*
X59270333Y-56665058D03*
X55968000Y-58938000D03*
G04 #@! TO.N,Net-(R1-Pad1)*
X67183000Y-50673000D03*
G04 #@! TO.N,Net-(U2-Pad29)*
X63118000Y-60488000D03*
X64968000Y-62838000D03*
G04 #@! TO.N,Net-(R2-Pad1)*
X65913000Y-77978000D03*
G04 #@! TD*
D20*
G04 #@! TO.N,/led1*
X71628000Y-46228000D02*
X62493001Y-46228000D01*
X58668000Y-54113000D02*
X57818000Y-54113000D01*
X59953001Y-52827999D02*
X58668000Y-54113000D01*
X59953001Y-48768000D02*
X59953001Y-52827999D01*
X62493001Y-46228000D02*
X59953001Y-48768000D01*
G04 #@! TO.N,+5V*
X66555166Y-76073000D02*
X66406005Y-75923839D01*
X67818000Y-76073000D02*
X66555166Y-76073000D01*
X63693000Y-39243000D02*
X64168000Y-39243000D01*
X62738000Y-38288000D02*
X63693000Y-39243000D01*
X62738000Y-36068000D02*
X62738000Y-38288000D01*
X52768000Y-42418000D02*
X56388000Y-42418000D01*
X52348000Y-41148000D02*
X52348000Y-41998000D01*
X52348000Y-41998000D02*
X52768000Y-42418000D01*
X64168000Y-39793000D02*
X64168000Y-39243000D01*
X64083000Y-39878000D02*
X64168000Y-39793000D01*
X62103000Y-39878000D02*
X64083000Y-39878000D01*
X65193000Y-39243000D02*
X64168000Y-39243000D01*
X69476002Y-39243000D02*
X65193000Y-39243000D01*
X73268001Y-43034999D02*
X69476002Y-39243000D01*
X73268001Y-45328001D02*
X73268001Y-43034999D01*
X74168000Y-46228000D02*
X73268001Y-45328001D01*
X65118000Y-51513000D02*
X65143000Y-51513000D01*
X65143000Y-51513000D02*
X65768000Y-50888000D01*
G04 #@! TO.N,/led5*
X65968000Y-56063000D02*
X65118000Y-56063000D01*
X68263000Y-56063000D02*
X65968000Y-56063000D01*
X70478000Y-53848000D02*
X68263000Y-56063000D01*
X71628000Y-53848000D02*
X70478000Y-53848000D01*
G04 #@! TO.N,/led9*
X63806005Y-67773839D02*
X63806005Y-68623839D01*
X71628000Y-61468000D02*
X70111844Y-61468000D01*
X63046004Y-67013838D02*
X63046004Y-63709996D01*
X63806005Y-67773839D02*
X63046004Y-67013838D01*
X69791843Y-61788001D02*
X70111844Y-61468000D01*
X64967999Y-61788001D02*
X69791843Y-61788001D01*
X63046004Y-63709996D02*
X64967999Y-61788001D01*
G04 #@! TO.N,/led13*
X69236076Y-69088000D02*
X66696076Y-71628000D01*
X71628000Y-69088000D02*
X69236076Y-69088000D01*
X66696076Y-71628000D02*
X62738000Y-71628000D01*
X61856005Y-72509995D02*
X61856005Y-75923839D01*
X62738000Y-71628000D02*
X61856005Y-72509995D01*
G04 #@! TO.N,/led2*
X76632999Y-47453001D02*
X63328001Y-47453001D01*
X76708000Y-46228000D02*
X76708000Y-47378000D01*
X76708000Y-47378000D02*
X76632999Y-47453001D01*
X63328001Y-47453001D02*
X63283002Y-47498000D01*
X58668000Y-54763000D02*
X57818000Y-54763000D01*
X60403010Y-53027990D02*
X58668000Y-54763000D01*
X60403010Y-49197990D02*
X60403010Y-53027990D01*
X62103000Y-47498000D02*
X60403010Y-49197990D01*
X63283002Y-47498000D02*
X62103000Y-47498000D01*
G04 #@! TO.N,/led6*
X65968000Y-55413000D02*
X65118000Y-55413000D01*
X68758001Y-52622999D02*
X65968000Y-55413000D01*
X76632999Y-52622999D02*
X68758001Y-52622999D01*
X76708000Y-52698000D02*
X76632999Y-52622999D01*
X76708000Y-53848000D02*
X76708000Y-52698000D01*
G04 #@! TO.N,/led10*
X76708000Y-62618000D02*
X76588000Y-62738000D01*
X76708000Y-61468000D02*
X76708000Y-62618000D01*
X76588000Y-62738000D02*
X70993000Y-62738000D01*
X70993000Y-65421846D02*
X66691846Y-69723000D01*
X70993000Y-62738000D02*
X70993000Y-65421846D01*
X63156005Y-69473839D02*
X63156005Y-68623839D01*
X63405166Y-69723000D02*
X63156005Y-69473839D01*
X66691846Y-69723000D02*
X63405166Y-69723000D01*
G04 #@! TO.N,/led14*
X74683000Y-72263000D02*
X62739410Y-72263000D01*
X76708000Y-69088000D02*
X76708000Y-70238000D01*
X76708000Y-70238000D02*
X74683000Y-72263000D01*
X62506005Y-72496405D02*
X62506005Y-75923839D01*
X62739410Y-72263000D02*
X62506005Y-72496405D01*
G04 #@! TO.N,/led3*
X58880002Y-55413000D02*
X57818000Y-55413000D01*
X66160002Y-48133000D02*
X58880002Y-55413000D01*
X81033000Y-48133000D02*
X66160002Y-48133000D01*
X81788000Y-46228000D02*
X81788000Y-47378000D01*
X81788000Y-47378000D02*
X81033000Y-48133000D01*
G04 #@! TO.N,/led7*
X81788000Y-52698000D02*
X81033000Y-51943000D01*
X81788000Y-53848000D02*
X81788000Y-52698000D01*
X65968000Y-54763000D02*
X65118000Y-54763000D01*
X65981590Y-54763000D02*
X65968000Y-54763000D01*
X68801590Y-51943000D02*
X65981590Y-54763000D01*
X81033000Y-51943000D02*
X68801590Y-51943000D01*
G04 #@! TO.N,/led11*
X62506005Y-69473839D02*
X62506005Y-68623839D01*
X81788000Y-61468000D02*
X81788000Y-62618000D01*
X81788000Y-62618000D02*
X81033000Y-63373000D01*
X81033000Y-63373000D02*
X73678256Y-63373000D01*
X73678256Y-63373000D02*
X66693256Y-70358000D01*
X66693256Y-70358000D02*
X63390166Y-70358000D01*
X63390166Y-70358000D02*
X62506005Y-69473839D01*
G04 #@! TO.N,/led15*
X81788000Y-70238000D02*
X79128000Y-72898000D01*
X81788000Y-69088000D02*
X81788000Y-70238000D01*
X64209010Y-72898000D02*
X64643000Y-72898000D01*
X63156005Y-73951005D02*
X64209010Y-72898000D01*
X63156005Y-75923839D02*
X63156005Y-73951005D01*
X79128000Y-72898000D02*
X64643000Y-72898000D01*
G04 #@! TO.N,/led4*
X58866412Y-56063000D02*
X57818000Y-56063000D01*
X66161412Y-48768000D02*
X58866412Y-56063000D01*
X85478000Y-48768000D02*
X66161412Y-48768000D01*
X86868000Y-46228000D02*
X86868000Y-47378000D01*
X86868000Y-47378000D02*
X85478000Y-48768000D01*
G04 #@! TO.N,/led8*
X86868000Y-52698000D02*
X85478000Y-51308000D01*
X86868000Y-53848000D02*
X86868000Y-52698000D01*
X65968000Y-54113000D02*
X65118000Y-54113000D01*
X65995180Y-54113000D02*
X65968000Y-54113000D01*
X68800180Y-51308000D02*
X65995180Y-54113000D01*
X85478000Y-51308000D02*
X68800180Y-51308000D01*
G04 #@! TO.N,/led12*
X61856005Y-69473839D02*
X61856005Y-68623839D01*
X86868000Y-62618000D02*
X85478000Y-64008000D01*
X85478000Y-64008000D02*
X73679666Y-64008000D01*
X86868000Y-61468000D02*
X86868000Y-62618000D01*
X73679666Y-64008000D02*
X66694666Y-70993000D01*
X66694666Y-70993000D02*
X63375166Y-70993000D01*
X63375166Y-70993000D02*
X61856005Y-69473839D01*
G04 #@! TO.N,/led16*
X63806005Y-75073839D02*
X65346844Y-73533000D01*
X63806005Y-75923839D02*
X63806005Y-75073839D01*
X86868000Y-70238000D02*
X86868000Y-69088000D01*
X83573000Y-73533000D02*
X86868000Y-70238000D01*
X65346844Y-73533000D02*
X83573000Y-73533000D01*
G04 #@! TO.N,GND*
X57818000Y-49878000D02*
X57818000Y-51513000D01*
X58928000Y-48768000D02*
X57818000Y-49878000D01*
X66406005Y-68623839D02*
X66406005Y-68223839D01*
X59243000Y-40513000D02*
X58768000Y-40513000D01*
X59868001Y-39887999D02*
X59243000Y-40513000D01*
X59868001Y-37997950D02*
X59868001Y-39887999D01*
X58928000Y-37057949D02*
X59868001Y-37997950D01*
X58928000Y-36068000D02*
X58928000Y-37057949D01*
X58768000Y-40513000D02*
X59293000Y-40513000D01*
X59293000Y-40513000D02*
X60618000Y-39188000D01*
X64343000Y-40338000D02*
X64168000Y-40513000D01*
X65718000Y-40338000D02*
X64343000Y-40338000D01*
X64473000Y-42088000D02*
X64168000Y-41783000D01*
X65718000Y-42088000D02*
X64473000Y-42088000D01*
X57743000Y-40513000D02*
X57268000Y-40038000D01*
X58768000Y-40513000D02*
X57743000Y-40513000D01*
X60468000Y-63176844D02*
X58991005Y-64653839D01*
X60468000Y-57838000D02*
X60468000Y-63176844D01*
X68418000Y-67061844D02*
X68418000Y-65588000D01*
X66406005Y-68623839D02*
X66856005Y-68623839D01*
X66856005Y-68623839D02*
X68418000Y-67061844D01*
X58858000Y-48838000D02*
X58928000Y-48768000D01*
X56818000Y-48838000D02*
X58858000Y-48838000D01*
X59793000Y-41783000D02*
X61223000Y-43213000D01*
X58768000Y-41783000D02*
X59793000Y-41783000D01*
X62653000Y-41783000D02*
X64168000Y-41783000D01*
X61223000Y-43213000D02*
X62653000Y-41783000D01*
G04 #@! TO.N,/BLANK*
X51943000Y-51054000D02*
X53052000Y-52163000D01*
X55753000Y-52163000D02*
X55753000Y-50673000D01*
X55753000Y-52163000D02*
X57818000Y-52163000D01*
X53052000Y-52163000D02*
X55753000Y-52163000D01*
X65756005Y-67773839D02*
X65756005Y-68623839D01*
X66202661Y-67327183D02*
X65756005Y-67773839D01*
X66692183Y-67327183D02*
X66202661Y-67327183D01*
G04 #@! TO.N,/CLK*
X52978000Y-52813000D02*
X57818000Y-52813000D01*
X51943000Y-53848000D02*
X52978000Y-52813000D01*
X65106005Y-68623839D02*
X65106005Y-67499145D01*
X65106005Y-67499145D02*
X65985075Y-66620075D01*
X58800348Y-52813000D02*
X57818000Y-52813000D01*
X59228001Y-52385347D02*
X58800348Y-52813000D01*
G04 #@! TO.N,/SIN*
X55376000Y-53463000D02*
X57818000Y-53463000D01*
X51943000Y-56896000D02*
X55376000Y-53463000D01*
G04 #@! TO.N,/XLAT*
X65106005Y-76773839D02*
X65106005Y-75923839D01*
X63901844Y-77978000D02*
X65106005Y-76773839D01*
X57325164Y-77978000D02*
X63901844Y-77978000D01*
X51943000Y-72595836D02*
X57325164Y-77978000D01*
X51943000Y-60833000D02*
X51943000Y-72595836D01*
X64243000Y-52838000D02*
X62968000Y-52838000D01*
X65118000Y-52813000D02*
X64268000Y-52813000D01*
X64268000Y-52813000D02*
X64243000Y-52838000D01*
X62968000Y-52838000D02*
X59270333Y-56535667D01*
X59270333Y-56535667D02*
X59270333Y-56665058D01*
X54073000Y-60833000D02*
X51943000Y-60833000D01*
X55968000Y-58938000D02*
X54073000Y-60833000D01*
G04 #@! TO.N,+3V3*
X54483000Y-39243000D02*
X51308000Y-36068000D01*
X58768000Y-39243000D02*
X54483000Y-39243000D01*
X56378001Y-41138001D02*
X54483000Y-39243000D01*
X67743001Y-41138001D02*
X56378001Y-41138001D01*
X68495002Y-40386000D02*
X67743001Y-41138001D01*
X68834000Y-40386000D02*
X68495002Y-40386000D01*
G04 #@! TO.N,Net-(R1-Pad1)*
X65968000Y-52163000D02*
X65118000Y-52163000D01*
X66783001Y-51347999D02*
X65968000Y-52163000D01*
X66783001Y-51072999D02*
X66783001Y-51347999D01*
X67183000Y-50673000D02*
X66783001Y-51072999D01*
G04 #@! TO.N,Net-(U2-Pad29)*
X63118000Y-54613000D02*
X63118000Y-60488000D01*
X65118000Y-53463000D02*
X64268000Y-53463000D01*
X64268000Y-53463000D02*
X63118000Y-54613000D01*
X64456005Y-67773839D02*
X64456005Y-68623839D01*
X64456005Y-67512735D02*
X64456005Y-67773839D01*
X65096006Y-66872734D02*
X64456005Y-67512735D01*
X65096006Y-63531691D02*
X65096006Y-66872734D01*
X64968000Y-63403685D02*
X65096006Y-63531691D01*
X64968000Y-62838000D02*
X64968000Y-63403685D01*
G04 #@! TO.N,Net-(R2-Pad1)*
X65756005Y-77821005D02*
X65756005Y-75923839D01*
X65913000Y-77978000D02*
X65756005Y-77821005D01*
G04 #@! TD*
D21*
G04 #@! TO.N,GND*
G36*
X91263001Y-78563000D02*
X66790961Y-78563000D01*
X66948000Y-78183874D01*
X66948000Y-77772126D01*
X66790431Y-77391720D01*
X66569990Y-77171279D01*
X66606005Y-77171279D01*
X66853770Y-77121996D01*
X67063814Y-76981648D01*
X67143572Y-76862283D01*
X67231720Y-76950431D01*
X67612126Y-77108000D01*
X68023874Y-77108000D01*
X68404280Y-76950431D01*
X68695431Y-76659280D01*
X68853000Y-76278874D01*
X68853000Y-75867126D01*
X68695431Y-75486720D01*
X68404280Y-75195569D01*
X68023874Y-75038000D01*
X67612126Y-75038000D01*
X67231720Y-75195569D01*
X67228559Y-75198730D01*
X67204162Y-75076074D01*
X67063814Y-74866030D01*
X66853770Y-74725682D01*
X66606005Y-74676399D01*
X66206005Y-74676399D01*
X66081005Y-74701263D01*
X65956005Y-74676399D01*
X65556005Y-74676399D01*
X65431005Y-74701263D01*
X65306005Y-74676399D01*
X65278247Y-74676399D01*
X65661647Y-74293000D01*
X83498153Y-74293000D01*
X83573000Y-74307888D01*
X83647847Y-74293000D01*
X83647852Y-74293000D01*
X83869537Y-74248904D01*
X84120929Y-74080929D01*
X84163331Y-74017470D01*
X87352473Y-70828329D01*
X87415929Y-70785929D01*
X87475709Y-70696462D01*
X87516483Y-70635440D01*
X87768000Y-70635440D01*
X88015765Y-70586157D01*
X88225809Y-70445809D01*
X88366157Y-70235765D01*
X88369275Y-70220092D01*
X88538493Y-70389310D01*
X89102670Y-70623000D01*
X89713330Y-70623000D01*
X90277507Y-70389310D01*
X90709310Y-69957507D01*
X90943000Y-69393330D01*
X90943000Y-68782670D01*
X90709310Y-68218493D01*
X90277507Y-67786690D01*
X89713330Y-67553000D01*
X89102670Y-67553000D01*
X88538493Y-67786690D01*
X88369275Y-67955908D01*
X88366157Y-67940235D01*
X88225809Y-67730191D01*
X88015765Y-67589843D01*
X87768000Y-67540560D01*
X85968000Y-67540560D01*
X85720235Y-67589843D01*
X85510191Y-67730191D01*
X85369843Y-67940235D01*
X85366725Y-67955908D01*
X85197507Y-67786690D01*
X84633330Y-67553000D01*
X84022670Y-67553000D01*
X83458493Y-67786690D01*
X83289275Y-67955908D01*
X83286157Y-67940235D01*
X83145809Y-67730191D01*
X82935765Y-67589843D01*
X82688000Y-67540560D01*
X80888000Y-67540560D01*
X80640235Y-67589843D01*
X80430191Y-67730191D01*
X80289843Y-67940235D01*
X80286725Y-67955908D01*
X80117507Y-67786690D01*
X79553330Y-67553000D01*
X78942670Y-67553000D01*
X78378493Y-67786690D01*
X78209275Y-67955908D01*
X78206157Y-67940235D01*
X78065809Y-67730191D01*
X77855765Y-67589843D01*
X77608000Y-67540560D01*
X75808000Y-67540560D01*
X75560235Y-67589843D01*
X75350191Y-67730191D01*
X75209843Y-67940235D01*
X75206725Y-67955908D01*
X75037507Y-67786690D01*
X74473330Y-67553000D01*
X73862670Y-67553000D01*
X73298493Y-67786690D01*
X73129275Y-67955908D01*
X73126157Y-67940235D01*
X72985809Y-67730191D01*
X72775765Y-67589843D01*
X72528000Y-67540560D01*
X71221908Y-67540560D01*
X73994468Y-64768000D01*
X85403153Y-64768000D01*
X85478000Y-64782888D01*
X85552847Y-64768000D01*
X85552852Y-64768000D01*
X85774537Y-64723904D01*
X86025929Y-64555929D01*
X86068331Y-64492470D01*
X87352473Y-63208329D01*
X87415929Y-63165929D01*
X87497484Y-63043874D01*
X87516483Y-63015440D01*
X87768000Y-63015440D01*
X88015765Y-62966157D01*
X88225809Y-62825809D01*
X88366157Y-62615765D01*
X88369275Y-62600092D01*
X88538493Y-62769310D01*
X89102670Y-63003000D01*
X89713330Y-63003000D01*
X90277507Y-62769310D01*
X90709310Y-62337507D01*
X90943000Y-61773330D01*
X90943000Y-61162670D01*
X90709310Y-60598493D01*
X90277507Y-60166690D01*
X89713330Y-59933000D01*
X89102670Y-59933000D01*
X88538493Y-60166690D01*
X88369275Y-60335908D01*
X88366157Y-60320235D01*
X88225809Y-60110191D01*
X88015765Y-59969843D01*
X87768000Y-59920560D01*
X85968000Y-59920560D01*
X85720235Y-59969843D01*
X85510191Y-60110191D01*
X85369843Y-60320235D01*
X85366725Y-60335908D01*
X85197507Y-60166690D01*
X84633330Y-59933000D01*
X84022670Y-59933000D01*
X83458493Y-60166690D01*
X83289275Y-60335908D01*
X83286157Y-60320235D01*
X83145809Y-60110191D01*
X82935765Y-59969843D01*
X82688000Y-59920560D01*
X80888000Y-59920560D01*
X80640235Y-59969843D01*
X80430191Y-60110191D01*
X80289843Y-60320235D01*
X80286725Y-60335908D01*
X80117507Y-60166690D01*
X79553330Y-59933000D01*
X78942670Y-59933000D01*
X78378493Y-60166690D01*
X78209275Y-60335908D01*
X78206157Y-60320235D01*
X78065809Y-60110191D01*
X77855765Y-59969843D01*
X77608000Y-59920560D01*
X75808000Y-59920560D01*
X75560235Y-59969843D01*
X75350191Y-60110191D01*
X75209843Y-60320235D01*
X75206725Y-60335908D01*
X75037507Y-60166690D01*
X74473330Y-59933000D01*
X73862670Y-59933000D01*
X73298493Y-60166690D01*
X73129275Y-60335908D01*
X73126157Y-60320235D01*
X72985809Y-60110191D01*
X72775765Y-59969843D01*
X72528000Y-59920560D01*
X70728000Y-59920560D01*
X70480235Y-59969843D01*
X70270191Y-60110191D01*
X70129843Y-60320235D01*
X70080560Y-60568000D01*
X70080560Y-60699335D01*
X70036996Y-60708000D01*
X70036992Y-60708000D01*
X69863449Y-60742520D01*
X69815306Y-60752096D01*
X69727989Y-60810440D01*
X69563915Y-60920071D01*
X69521513Y-60983530D01*
X69477042Y-61028001D01*
X66358478Y-61028001D01*
X66340576Y-60938000D01*
X66365440Y-60813000D01*
X66365440Y-60413000D01*
X66340576Y-60288000D01*
X66365440Y-60163000D01*
X66365440Y-59763000D01*
X66340576Y-59638000D01*
X66365440Y-59513000D01*
X66365440Y-59113000D01*
X66340576Y-58988000D01*
X66365440Y-58863000D01*
X66365440Y-58463000D01*
X66340576Y-58338000D01*
X66365440Y-58213000D01*
X66365440Y-57813000D01*
X66340576Y-57688000D01*
X66365440Y-57563000D01*
X66365440Y-57163000D01*
X66340576Y-57038000D01*
X66365440Y-56913000D01*
X66365440Y-56823000D01*
X68188153Y-56823000D01*
X68263000Y-56837888D01*
X68337847Y-56823000D01*
X68337852Y-56823000D01*
X68559537Y-56778904D01*
X68810929Y-56610929D01*
X68853331Y-56547470D01*
X70240071Y-55160731D01*
X70270191Y-55205809D01*
X70480235Y-55346157D01*
X70728000Y-55395440D01*
X72528000Y-55395440D01*
X72775765Y-55346157D01*
X72985809Y-55205809D01*
X73126157Y-54995765D01*
X73129275Y-54980092D01*
X73298493Y-55149310D01*
X73862670Y-55383000D01*
X74473330Y-55383000D01*
X75037507Y-55149310D01*
X75206725Y-54980092D01*
X75209843Y-54995765D01*
X75350191Y-55205809D01*
X75560235Y-55346157D01*
X75808000Y-55395440D01*
X77608000Y-55395440D01*
X77855765Y-55346157D01*
X78065809Y-55205809D01*
X78206157Y-54995765D01*
X78209275Y-54980092D01*
X78378493Y-55149310D01*
X78942670Y-55383000D01*
X79553330Y-55383000D01*
X80117507Y-55149310D01*
X80286725Y-54980092D01*
X80289843Y-54995765D01*
X80430191Y-55205809D01*
X80640235Y-55346157D01*
X80888000Y-55395440D01*
X82688000Y-55395440D01*
X82935765Y-55346157D01*
X83145809Y-55205809D01*
X83286157Y-54995765D01*
X83289275Y-54980092D01*
X83458493Y-55149310D01*
X84022670Y-55383000D01*
X84633330Y-55383000D01*
X85197507Y-55149310D01*
X85366725Y-54980092D01*
X85369843Y-54995765D01*
X85510191Y-55205809D01*
X85720235Y-55346157D01*
X85968000Y-55395440D01*
X87768000Y-55395440D01*
X88015765Y-55346157D01*
X88225809Y-55205809D01*
X88366157Y-54995765D01*
X88369275Y-54980092D01*
X88538493Y-55149310D01*
X89102670Y-55383000D01*
X89713330Y-55383000D01*
X90277507Y-55149310D01*
X90709310Y-54717507D01*
X90943000Y-54153330D01*
X90943000Y-53542670D01*
X90709310Y-52978493D01*
X90277507Y-52546690D01*
X89713330Y-52313000D01*
X89102670Y-52313000D01*
X88538493Y-52546690D01*
X88369275Y-52715908D01*
X88366157Y-52700235D01*
X88225809Y-52490191D01*
X88015765Y-52349843D01*
X87768000Y-52300560D01*
X87516483Y-52300560D01*
X87458329Y-52213527D01*
X87415929Y-52150071D01*
X87352473Y-52107671D01*
X86068331Y-50823530D01*
X86025929Y-50760071D01*
X85774537Y-50592096D01*
X85552852Y-50548000D01*
X85552847Y-50548000D01*
X85478000Y-50533112D01*
X85403153Y-50548000D01*
X68875026Y-50548000D01*
X68800179Y-50533112D01*
X68725332Y-50548000D01*
X68725328Y-50548000D01*
X68503643Y-50592096D01*
X68252251Y-50760071D01*
X68218000Y-50811331D01*
X68218000Y-50467126D01*
X68060431Y-50086720D01*
X67769280Y-49795569D01*
X67388874Y-49638000D01*
X66977126Y-49638000D01*
X66596720Y-49795569D01*
X66368000Y-50024289D01*
X66354280Y-50010569D01*
X66099272Y-49904942D01*
X66476214Y-49528000D01*
X85403153Y-49528000D01*
X85478000Y-49542888D01*
X85552847Y-49528000D01*
X85552852Y-49528000D01*
X85774537Y-49483904D01*
X86025929Y-49315929D01*
X86068331Y-49252470D01*
X87352473Y-47968329D01*
X87415929Y-47925929D01*
X87503722Y-47794538D01*
X87516483Y-47775440D01*
X87768000Y-47775440D01*
X88015765Y-47726157D01*
X88225809Y-47585809D01*
X88366157Y-47375765D01*
X88369275Y-47360092D01*
X88538493Y-47529310D01*
X89102670Y-47763000D01*
X89713330Y-47763000D01*
X90277507Y-47529310D01*
X90709310Y-47097507D01*
X90943000Y-46533330D01*
X90943000Y-45922670D01*
X90709310Y-45358493D01*
X90277507Y-44926690D01*
X89713330Y-44693000D01*
X89102670Y-44693000D01*
X88538493Y-44926690D01*
X88369275Y-45095908D01*
X88366157Y-45080235D01*
X88225809Y-44870191D01*
X88015765Y-44729843D01*
X87768000Y-44680560D01*
X85968000Y-44680560D01*
X85720235Y-44729843D01*
X85510191Y-44870191D01*
X85369843Y-45080235D01*
X85366725Y-45095908D01*
X85197507Y-44926690D01*
X84633330Y-44693000D01*
X84022670Y-44693000D01*
X83458493Y-44926690D01*
X83289275Y-45095908D01*
X83286157Y-45080235D01*
X83145809Y-44870191D01*
X82935765Y-44729843D01*
X82688000Y-44680560D01*
X80888000Y-44680560D01*
X80640235Y-44729843D01*
X80430191Y-44870191D01*
X80289843Y-45080235D01*
X80286725Y-45095908D01*
X80117507Y-44926690D01*
X79553330Y-44693000D01*
X78942670Y-44693000D01*
X78378493Y-44926690D01*
X78209275Y-45095908D01*
X78206157Y-45080235D01*
X78065809Y-44870191D01*
X77855765Y-44729843D01*
X77608000Y-44680560D01*
X75808000Y-44680560D01*
X75560235Y-44729843D01*
X75350191Y-44870191D01*
X75209843Y-45080235D01*
X75206725Y-45095908D01*
X75037507Y-44926690D01*
X74473330Y-44693000D01*
X74028001Y-44693000D01*
X74028001Y-43109845D01*
X74042889Y-43034998D01*
X74028001Y-42960151D01*
X74028001Y-42960147D01*
X73983905Y-42738462D01*
X73870761Y-42569130D01*
X73858330Y-42550525D01*
X73858328Y-42550523D01*
X73815930Y-42487070D01*
X73752477Y-42444672D01*
X70066333Y-38758530D01*
X70023931Y-38695071D01*
X69772539Y-38527096D01*
X69550854Y-38483000D01*
X69550849Y-38483000D01*
X69476002Y-38468112D01*
X69401155Y-38483000D01*
X65397530Y-38483000D01*
X65190765Y-38344843D01*
X64943000Y-38295560D01*
X63820362Y-38295560D01*
X63498000Y-37973199D01*
X63498000Y-37195975D01*
X63869758Y-36824217D01*
X64073000Y-36333548D01*
X64073000Y-35802452D01*
X63869758Y-35311783D01*
X63494217Y-34936242D01*
X63003548Y-34733000D01*
X62472452Y-34733000D01*
X61981783Y-34936242D01*
X61606242Y-35311783D01*
X61403000Y-35802452D01*
X61403000Y-36333548D01*
X61606242Y-36824217D01*
X61978001Y-37195976D01*
X61978001Y-38213148D01*
X61963112Y-38288000D01*
X62022097Y-38584537D01*
X62138354Y-38758527D01*
X62190072Y-38835929D01*
X62200654Y-38843000D01*
X61897126Y-38843000D01*
X61516720Y-39000569D01*
X61225569Y-39291720D01*
X61068000Y-39672126D01*
X61068000Y-40083874D01*
X61189831Y-40378001D01*
X60027249Y-40378001D01*
X60178000Y-40227250D01*
X60178000Y-40086690D01*
X60088232Y-39869972D01*
X60141157Y-39790765D01*
X60190440Y-39543000D01*
X60190440Y-38943000D01*
X60141157Y-38695235D01*
X60000809Y-38485191D01*
X59790765Y-38344843D01*
X59543000Y-38295560D01*
X57993000Y-38295560D01*
X57745235Y-38344843D01*
X57538470Y-38483000D01*
X54797802Y-38483000D01*
X53318077Y-37003275D01*
X58172331Y-37003275D01*
X58234169Y-37239042D01*
X58735122Y-37415419D01*
X59265440Y-37386664D01*
X59621831Y-37239042D01*
X59683669Y-37003275D01*
X58928000Y-36247605D01*
X58172331Y-37003275D01*
X53318077Y-37003275D01*
X52643000Y-36328199D01*
X52643000Y-35875122D01*
X57580581Y-35875122D01*
X57609336Y-36405440D01*
X57756958Y-36761831D01*
X57992725Y-36823669D01*
X58748395Y-36068000D01*
X59107605Y-36068000D01*
X59863275Y-36823669D01*
X60099042Y-36761831D01*
X60275419Y-36260878D01*
X60246664Y-35730560D01*
X60099042Y-35374169D01*
X59863275Y-35312331D01*
X59107605Y-36068000D01*
X58748395Y-36068000D01*
X57992725Y-35312331D01*
X57756958Y-35374169D01*
X57580581Y-35875122D01*
X52643000Y-35875122D01*
X52643000Y-35802452D01*
X52439758Y-35311783D01*
X52260700Y-35132725D01*
X58172331Y-35132725D01*
X58928000Y-35888395D01*
X59683669Y-35132725D01*
X59621831Y-34896958D01*
X59120878Y-34720581D01*
X58590560Y-34749336D01*
X58234169Y-34896958D01*
X58172331Y-35132725D01*
X52260700Y-35132725D01*
X52064217Y-34936242D01*
X51573548Y-34733000D01*
X51042452Y-34733000D01*
X50551783Y-34936242D01*
X50176242Y-35311783D01*
X49973000Y-35802452D01*
X49973000Y-36333548D01*
X50176242Y-36824217D01*
X50551783Y-37199758D01*
X51042452Y-37403000D01*
X51568199Y-37403000D01*
X53892670Y-39727472D01*
X53935071Y-39790929D01*
X53998530Y-39833331D01*
X54090739Y-39925540D01*
X54016964Y-39900193D01*
X53526587Y-39930518D01*
X53304510Y-40022505D01*
X53195765Y-39949843D01*
X52948000Y-39900560D01*
X51748000Y-39900560D01*
X51500235Y-39949843D01*
X51290191Y-40090191D01*
X51149843Y-40300235D01*
X51100560Y-40548000D01*
X51100560Y-41748000D01*
X51149843Y-41995765D01*
X51290191Y-42205809D01*
X51500235Y-42346157D01*
X51692087Y-42384318D01*
X51699764Y-42395807D01*
X51800072Y-42545929D01*
X51863528Y-42588329D01*
X52177669Y-42902470D01*
X52220071Y-42965929D01*
X52323440Y-43034998D01*
X52471462Y-43133904D01*
X52519605Y-43143480D01*
X52693148Y-43178000D01*
X52693152Y-43178000D01*
X52768000Y-43192888D01*
X52842848Y-43178000D01*
X55684289Y-43178000D01*
X55801720Y-43295431D01*
X56182126Y-43453000D01*
X56593874Y-43453000D01*
X56974280Y-43295431D01*
X57265431Y-43004280D01*
X57345560Y-42810831D01*
X57345560Y-43353000D01*
X57394843Y-43600765D01*
X57535191Y-43810809D01*
X57745235Y-43951157D01*
X57993000Y-44000440D01*
X59543000Y-44000440D01*
X59790765Y-43951157D01*
X60000809Y-43810809D01*
X60141157Y-43600765D01*
X60190440Y-43353000D01*
X60190440Y-42753000D01*
X60141157Y-42505235D01*
X60088232Y-42426028D01*
X60178000Y-42209310D01*
X60178000Y-42068750D01*
X60019252Y-41910002D01*
X60178000Y-41910002D01*
X60178000Y-41898001D01*
X62758000Y-41898001D01*
X62758000Y-41910002D01*
X62916748Y-41910002D01*
X62758000Y-42068750D01*
X62758000Y-42209310D01*
X62847768Y-42426028D01*
X62794843Y-42505235D01*
X62745560Y-42753000D01*
X62745560Y-43353000D01*
X62794843Y-43600765D01*
X62935191Y-43810809D01*
X63145235Y-43951157D01*
X63393000Y-44000440D01*
X64943000Y-44000440D01*
X65190765Y-43951157D01*
X65400809Y-43810809D01*
X65541157Y-43600765D01*
X65590440Y-43353000D01*
X65590440Y-42753000D01*
X65589592Y-42748735D01*
X68150870Y-42748735D01*
X68200383Y-42974164D01*
X68665036Y-43133807D01*
X69155413Y-43103482D01*
X69467617Y-42974164D01*
X69517130Y-42748735D01*
X68834000Y-42065605D01*
X68150870Y-42748735D01*
X65589592Y-42748735D01*
X65541157Y-42505235D01*
X65488232Y-42426028D01*
X65578000Y-42209310D01*
X65578000Y-42068750D01*
X65419252Y-41910002D01*
X65578000Y-41910002D01*
X65578000Y-41898001D01*
X67597384Y-41898001D01*
X67616518Y-42207413D01*
X67745836Y-42519617D01*
X67971265Y-42569130D01*
X68654395Y-41886000D01*
X68640253Y-41871858D01*
X68819858Y-41692253D01*
X68834000Y-41706395D01*
X68848143Y-41692253D01*
X69027748Y-41871858D01*
X69013605Y-41886000D01*
X69696735Y-42569130D01*
X69922164Y-42519617D01*
X70081807Y-42054964D01*
X70051482Y-41564587D01*
X69959495Y-41342510D01*
X70032157Y-41233765D01*
X70081440Y-40986000D01*
X70081440Y-40923240D01*
X72508002Y-43349803D01*
X72508001Y-44680560D01*
X70728000Y-44680560D01*
X70480235Y-44729843D01*
X70270191Y-44870191D01*
X70129843Y-45080235D01*
X70080560Y-45328000D01*
X70080560Y-45468000D01*
X62567847Y-45468000D01*
X62493000Y-45453112D01*
X62418153Y-45468000D01*
X62418149Y-45468000D01*
X62196464Y-45512096D01*
X62196462Y-45512097D01*
X62196463Y-45512097D01*
X62008527Y-45637671D01*
X62008525Y-45637673D01*
X61945072Y-45680071D01*
X61902674Y-45743524D01*
X59831806Y-47814393D01*
X59730663Y-47701236D01*
X59261331Y-47475273D01*
X59055000Y-47597794D01*
X59055000Y-48641000D01*
X59075000Y-48641000D01*
X59075000Y-48895000D01*
X59055000Y-48895000D01*
X59055000Y-49938206D01*
X59193001Y-50020152D01*
X59193002Y-51350347D01*
X59022127Y-51350347D01*
X58936058Y-51385998D01*
X58921252Y-51385998D01*
X59053000Y-51254250D01*
X59053000Y-51186690D01*
X58956327Y-50953301D01*
X58777698Y-50774673D01*
X58544309Y-50678000D01*
X58103750Y-50678000D01*
X57945000Y-50836750D01*
X57945000Y-51315560D01*
X57691000Y-51315560D01*
X57691000Y-50836750D01*
X57532250Y-50678000D01*
X57091691Y-50678000D01*
X56858302Y-50774673D01*
X56788000Y-50844975D01*
X56788000Y-50467126D01*
X56630431Y-50086720D01*
X56339280Y-49795569D01*
X55958874Y-49638000D01*
X55547126Y-49638000D01*
X55166720Y-49795569D01*
X54875569Y-50086720D01*
X54718000Y-50467126D01*
X54718000Y-50878874D01*
X54875569Y-51259280D01*
X54993001Y-51376712D01*
X54993001Y-51403000D01*
X53366802Y-51403000D01*
X53278000Y-51314198D01*
X53278000Y-50788452D01*
X53074758Y-50297783D01*
X52699217Y-49922242D01*
X52208548Y-49719000D01*
X51677452Y-49719000D01*
X51186783Y-49922242D01*
X50811242Y-50297783D01*
X50608000Y-50788452D01*
X50608000Y-51319548D01*
X50811242Y-51810217D01*
X51186783Y-52185758D01*
X51677452Y-52389000D01*
X52203198Y-52389000D01*
X52265198Y-52451000D01*
X52203198Y-52513000D01*
X51677452Y-52513000D01*
X51186783Y-52716242D01*
X50811242Y-53091783D01*
X50608000Y-53582452D01*
X50608000Y-54113548D01*
X50811242Y-54604217D01*
X51186783Y-54979758D01*
X51677452Y-55183000D01*
X52208548Y-55183000D01*
X52699217Y-54979758D01*
X53074758Y-54604217D01*
X53278000Y-54113548D01*
X53278000Y-53587802D01*
X53292802Y-53573000D01*
X54191198Y-53573000D01*
X52203199Y-55561000D01*
X51677452Y-55561000D01*
X51186783Y-55764242D01*
X50811242Y-56139783D01*
X50608000Y-56630452D01*
X50608000Y-57161548D01*
X50811242Y-57652217D01*
X51186783Y-58027758D01*
X51677452Y-58231000D01*
X52208548Y-58231000D01*
X52699217Y-58027758D01*
X53074758Y-57652217D01*
X53278000Y-57161548D01*
X53278000Y-56635801D01*
X55690802Y-54223000D01*
X56570560Y-54223000D01*
X56570560Y-54313000D01*
X56595424Y-54438000D01*
X56570560Y-54563000D01*
X56570560Y-54963000D01*
X56595424Y-55088000D01*
X56570560Y-55213000D01*
X56570560Y-55613000D01*
X56595424Y-55738000D01*
X56570560Y-55863000D01*
X56570560Y-56263000D01*
X56595424Y-56388000D01*
X56570560Y-56513000D01*
X56570560Y-56913000D01*
X56595424Y-57038000D01*
X56570560Y-57163000D01*
X56570560Y-57563000D01*
X56595424Y-57688000D01*
X56570560Y-57813000D01*
X56570560Y-58076849D01*
X56554280Y-58060569D01*
X56173874Y-57903000D01*
X55762126Y-57903000D01*
X55381720Y-58060569D01*
X55090569Y-58351720D01*
X54933000Y-58732126D01*
X54933000Y-58898198D01*
X53758199Y-60073000D01*
X53070975Y-60073000D01*
X52699217Y-59701242D01*
X52208548Y-59498000D01*
X51677452Y-59498000D01*
X51186783Y-59701242D01*
X50811242Y-60076783D01*
X50608000Y-60567452D01*
X50608000Y-61098548D01*
X50811242Y-61589217D01*
X51183000Y-61960975D01*
X51183001Y-72520984D01*
X51168112Y-72595836D01*
X51227097Y-72892373D01*
X51331437Y-73048528D01*
X51395072Y-73143765D01*
X51458528Y-73186165D01*
X56734837Y-78462476D01*
X56777235Y-78525929D01*
X56832716Y-78563000D01*
X49453000Y-78563000D01*
X49453000Y-49101329D01*
X57635284Y-49101329D01*
X57778203Y-49446396D01*
X58125337Y-49834764D01*
X58594669Y-50060727D01*
X58801000Y-49938206D01*
X58801000Y-48895000D01*
X57758626Y-48895000D01*
X57635284Y-49101329D01*
X49453000Y-49101329D01*
X49453000Y-48434671D01*
X57635284Y-48434671D01*
X57758626Y-48641000D01*
X58801000Y-48641000D01*
X58801000Y-47597794D01*
X58594669Y-47475273D01*
X58125337Y-47701236D01*
X57778203Y-48089604D01*
X57635284Y-48434671D01*
X49453000Y-48434671D01*
X49453000Y-31673000D01*
X91263000Y-31673000D01*
X91263001Y-78563000D01*
X91263001Y-78563000D01*
G37*
X91263001Y-78563000D02*
X66790961Y-78563000D01*
X66948000Y-78183874D01*
X66948000Y-77772126D01*
X66790431Y-77391720D01*
X66569990Y-77171279D01*
X66606005Y-77171279D01*
X66853770Y-77121996D01*
X67063814Y-76981648D01*
X67143572Y-76862283D01*
X67231720Y-76950431D01*
X67612126Y-77108000D01*
X68023874Y-77108000D01*
X68404280Y-76950431D01*
X68695431Y-76659280D01*
X68853000Y-76278874D01*
X68853000Y-75867126D01*
X68695431Y-75486720D01*
X68404280Y-75195569D01*
X68023874Y-75038000D01*
X67612126Y-75038000D01*
X67231720Y-75195569D01*
X67228559Y-75198730D01*
X67204162Y-75076074D01*
X67063814Y-74866030D01*
X66853770Y-74725682D01*
X66606005Y-74676399D01*
X66206005Y-74676399D01*
X66081005Y-74701263D01*
X65956005Y-74676399D01*
X65556005Y-74676399D01*
X65431005Y-74701263D01*
X65306005Y-74676399D01*
X65278247Y-74676399D01*
X65661647Y-74293000D01*
X83498153Y-74293000D01*
X83573000Y-74307888D01*
X83647847Y-74293000D01*
X83647852Y-74293000D01*
X83869537Y-74248904D01*
X84120929Y-74080929D01*
X84163331Y-74017470D01*
X87352473Y-70828329D01*
X87415929Y-70785929D01*
X87475709Y-70696462D01*
X87516483Y-70635440D01*
X87768000Y-70635440D01*
X88015765Y-70586157D01*
X88225809Y-70445809D01*
X88366157Y-70235765D01*
X88369275Y-70220092D01*
X88538493Y-70389310D01*
X89102670Y-70623000D01*
X89713330Y-70623000D01*
X90277507Y-70389310D01*
X90709310Y-69957507D01*
X90943000Y-69393330D01*
X90943000Y-68782670D01*
X90709310Y-68218493D01*
X90277507Y-67786690D01*
X89713330Y-67553000D01*
X89102670Y-67553000D01*
X88538493Y-67786690D01*
X88369275Y-67955908D01*
X88366157Y-67940235D01*
X88225809Y-67730191D01*
X88015765Y-67589843D01*
X87768000Y-67540560D01*
X85968000Y-67540560D01*
X85720235Y-67589843D01*
X85510191Y-67730191D01*
X85369843Y-67940235D01*
X85366725Y-67955908D01*
X85197507Y-67786690D01*
X84633330Y-67553000D01*
X84022670Y-67553000D01*
X83458493Y-67786690D01*
X83289275Y-67955908D01*
X83286157Y-67940235D01*
X83145809Y-67730191D01*
X82935765Y-67589843D01*
X82688000Y-67540560D01*
X80888000Y-67540560D01*
X80640235Y-67589843D01*
X80430191Y-67730191D01*
X80289843Y-67940235D01*
X80286725Y-67955908D01*
X80117507Y-67786690D01*
X79553330Y-67553000D01*
X78942670Y-67553000D01*
X78378493Y-67786690D01*
X78209275Y-67955908D01*
X78206157Y-67940235D01*
X78065809Y-67730191D01*
X77855765Y-67589843D01*
X77608000Y-67540560D01*
X75808000Y-67540560D01*
X75560235Y-67589843D01*
X75350191Y-67730191D01*
X75209843Y-67940235D01*
X75206725Y-67955908D01*
X75037507Y-67786690D01*
X74473330Y-67553000D01*
X73862670Y-67553000D01*
X73298493Y-67786690D01*
X73129275Y-67955908D01*
X73126157Y-67940235D01*
X72985809Y-67730191D01*
X72775765Y-67589843D01*
X72528000Y-67540560D01*
X71221908Y-67540560D01*
X73994468Y-64768000D01*
X85403153Y-64768000D01*
X85478000Y-64782888D01*
X85552847Y-64768000D01*
X85552852Y-64768000D01*
X85774537Y-64723904D01*
X86025929Y-64555929D01*
X86068331Y-64492470D01*
X87352473Y-63208329D01*
X87415929Y-63165929D01*
X87497484Y-63043874D01*
X87516483Y-63015440D01*
X87768000Y-63015440D01*
X88015765Y-62966157D01*
X88225809Y-62825809D01*
X88366157Y-62615765D01*
X88369275Y-62600092D01*
X88538493Y-62769310D01*
X89102670Y-63003000D01*
X89713330Y-63003000D01*
X90277507Y-62769310D01*
X90709310Y-62337507D01*
X90943000Y-61773330D01*
X90943000Y-61162670D01*
X90709310Y-60598493D01*
X90277507Y-60166690D01*
X89713330Y-59933000D01*
X89102670Y-59933000D01*
X88538493Y-60166690D01*
X88369275Y-60335908D01*
X88366157Y-60320235D01*
X88225809Y-60110191D01*
X88015765Y-59969843D01*
X87768000Y-59920560D01*
X85968000Y-59920560D01*
X85720235Y-59969843D01*
X85510191Y-60110191D01*
X85369843Y-60320235D01*
X85366725Y-60335908D01*
X85197507Y-60166690D01*
X84633330Y-59933000D01*
X84022670Y-59933000D01*
X83458493Y-60166690D01*
X83289275Y-60335908D01*
X83286157Y-60320235D01*
X83145809Y-60110191D01*
X82935765Y-59969843D01*
X82688000Y-59920560D01*
X80888000Y-59920560D01*
X80640235Y-59969843D01*
X80430191Y-60110191D01*
X80289843Y-60320235D01*
X80286725Y-60335908D01*
X80117507Y-60166690D01*
X79553330Y-59933000D01*
X78942670Y-59933000D01*
X78378493Y-60166690D01*
X78209275Y-60335908D01*
X78206157Y-60320235D01*
X78065809Y-60110191D01*
X77855765Y-59969843D01*
X77608000Y-59920560D01*
X75808000Y-59920560D01*
X75560235Y-59969843D01*
X75350191Y-60110191D01*
X75209843Y-60320235D01*
X75206725Y-60335908D01*
X75037507Y-60166690D01*
X74473330Y-59933000D01*
X73862670Y-59933000D01*
X73298493Y-60166690D01*
X73129275Y-60335908D01*
X73126157Y-60320235D01*
X72985809Y-60110191D01*
X72775765Y-59969843D01*
X72528000Y-59920560D01*
X70728000Y-59920560D01*
X70480235Y-59969843D01*
X70270191Y-60110191D01*
X70129843Y-60320235D01*
X70080560Y-60568000D01*
X70080560Y-60699335D01*
X70036996Y-60708000D01*
X70036992Y-60708000D01*
X69863449Y-60742520D01*
X69815306Y-60752096D01*
X69727989Y-60810440D01*
X69563915Y-60920071D01*
X69521513Y-60983530D01*
X69477042Y-61028001D01*
X66358478Y-61028001D01*
X66340576Y-60938000D01*
X66365440Y-60813000D01*
X66365440Y-60413000D01*
X66340576Y-60288000D01*
X66365440Y-60163000D01*
X66365440Y-59763000D01*
X66340576Y-59638000D01*
X66365440Y-59513000D01*
X66365440Y-59113000D01*
X66340576Y-58988000D01*
X66365440Y-58863000D01*
X66365440Y-58463000D01*
X66340576Y-58338000D01*
X66365440Y-58213000D01*
X66365440Y-57813000D01*
X66340576Y-57688000D01*
X66365440Y-57563000D01*
X66365440Y-57163000D01*
X66340576Y-57038000D01*
X66365440Y-56913000D01*
X66365440Y-56823000D01*
X68188153Y-56823000D01*
X68263000Y-56837888D01*
X68337847Y-56823000D01*
X68337852Y-56823000D01*
X68559537Y-56778904D01*
X68810929Y-56610929D01*
X68853331Y-56547470D01*
X70240071Y-55160731D01*
X70270191Y-55205809D01*
X70480235Y-55346157D01*
X70728000Y-55395440D01*
X72528000Y-55395440D01*
X72775765Y-55346157D01*
X72985809Y-55205809D01*
X73126157Y-54995765D01*
X73129275Y-54980092D01*
X73298493Y-55149310D01*
X73862670Y-55383000D01*
X74473330Y-55383000D01*
X75037507Y-55149310D01*
X75206725Y-54980092D01*
X75209843Y-54995765D01*
X75350191Y-55205809D01*
X75560235Y-55346157D01*
X75808000Y-55395440D01*
X77608000Y-55395440D01*
X77855765Y-55346157D01*
X78065809Y-55205809D01*
X78206157Y-54995765D01*
X78209275Y-54980092D01*
X78378493Y-55149310D01*
X78942670Y-55383000D01*
X79553330Y-55383000D01*
X80117507Y-55149310D01*
X80286725Y-54980092D01*
X80289843Y-54995765D01*
X80430191Y-55205809D01*
X80640235Y-55346157D01*
X80888000Y-55395440D01*
X82688000Y-55395440D01*
X82935765Y-55346157D01*
X83145809Y-55205809D01*
X83286157Y-54995765D01*
X83289275Y-54980092D01*
X83458493Y-55149310D01*
X84022670Y-55383000D01*
X84633330Y-55383000D01*
X85197507Y-55149310D01*
X85366725Y-54980092D01*
X85369843Y-54995765D01*
X85510191Y-55205809D01*
X85720235Y-55346157D01*
X85968000Y-55395440D01*
X87768000Y-55395440D01*
X88015765Y-55346157D01*
X88225809Y-55205809D01*
X88366157Y-54995765D01*
X88369275Y-54980092D01*
X88538493Y-55149310D01*
X89102670Y-55383000D01*
X89713330Y-55383000D01*
X90277507Y-55149310D01*
X90709310Y-54717507D01*
X90943000Y-54153330D01*
X90943000Y-53542670D01*
X90709310Y-52978493D01*
X90277507Y-52546690D01*
X89713330Y-52313000D01*
X89102670Y-52313000D01*
X88538493Y-52546690D01*
X88369275Y-52715908D01*
X88366157Y-52700235D01*
X88225809Y-52490191D01*
X88015765Y-52349843D01*
X87768000Y-52300560D01*
X87516483Y-52300560D01*
X87458329Y-52213527D01*
X87415929Y-52150071D01*
X87352473Y-52107671D01*
X86068331Y-50823530D01*
X86025929Y-50760071D01*
X85774537Y-50592096D01*
X85552852Y-50548000D01*
X85552847Y-50548000D01*
X85478000Y-50533112D01*
X85403153Y-50548000D01*
X68875026Y-50548000D01*
X68800179Y-50533112D01*
X68725332Y-50548000D01*
X68725328Y-50548000D01*
X68503643Y-50592096D01*
X68252251Y-50760071D01*
X68218000Y-50811331D01*
X68218000Y-50467126D01*
X68060431Y-50086720D01*
X67769280Y-49795569D01*
X67388874Y-49638000D01*
X66977126Y-49638000D01*
X66596720Y-49795569D01*
X66368000Y-50024289D01*
X66354280Y-50010569D01*
X66099272Y-49904942D01*
X66476214Y-49528000D01*
X85403153Y-49528000D01*
X85478000Y-49542888D01*
X85552847Y-49528000D01*
X85552852Y-49528000D01*
X85774537Y-49483904D01*
X86025929Y-49315929D01*
X86068331Y-49252470D01*
X87352473Y-47968329D01*
X87415929Y-47925929D01*
X87503722Y-47794538D01*
X87516483Y-47775440D01*
X87768000Y-47775440D01*
X88015765Y-47726157D01*
X88225809Y-47585809D01*
X88366157Y-47375765D01*
X88369275Y-47360092D01*
X88538493Y-47529310D01*
X89102670Y-47763000D01*
X89713330Y-47763000D01*
X90277507Y-47529310D01*
X90709310Y-47097507D01*
X90943000Y-46533330D01*
X90943000Y-45922670D01*
X90709310Y-45358493D01*
X90277507Y-44926690D01*
X89713330Y-44693000D01*
X89102670Y-44693000D01*
X88538493Y-44926690D01*
X88369275Y-45095908D01*
X88366157Y-45080235D01*
X88225809Y-44870191D01*
X88015765Y-44729843D01*
X87768000Y-44680560D01*
X85968000Y-44680560D01*
X85720235Y-44729843D01*
X85510191Y-44870191D01*
X85369843Y-45080235D01*
X85366725Y-45095908D01*
X85197507Y-44926690D01*
X84633330Y-44693000D01*
X84022670Y-44693000D01*
X83458493Y-44926690D01*
X83289275Y-45095908D01*
X83286157Y-45080235D01*
X83145809Y-44870191D01*
X82935765Y-44729843D01*
X82688000Y-44680560D01*
X80888000Y-44680560D01*
X80640235Y-44729843D01*
X80430191Y-44870191D01*
X80289843Y-45080235D01*
X80286725Y-45095908D01*
X80117507Y-44926690D01*
X79553330Y-44693000D01*
X78942670Y-44693000D01*
X78378493Y-44926690D01*
X78209275Y-45095908D01*
X78206157Y-45080235D01*
X78065809Y-44870191D01*
X77855765Y-44729843D01*
X77608000Y-44680560D01*
X75808000Y-44680560D01*
X75560235Y-44729843D01*
X75350191Y-44870191D01*
X75209843Y-45080235D01*
X75206725Y-45095908D01*
X75037507Y-44926690D01*
X74473330Y-44693000D01*
X74028001Y-44693000D01*
X74028001Y-43109845D01*
X74042889Y-43034998D01*
X74028001Y-42960151D01*
X74028001Y-42960147D01*
X73983905Y-42738462D01*
X73870761Y-42569130D01*
X73858330Y-42550525D01*
X73858328Y-42550523D01*
X73815930Y-42487070D01*
X73752477Y-42444672D01*
X70066333Y-38758530D01*
X70023931Y-38695071D01*
X69772539Y-38527096D01*
X69550854Y-38483000D01*
X69550849Y-38483000D01*
X69476002Y-38468112D01*
X69401155Y-38483000D01*
X65397530Y-38483000D01*
X65190765Y-38344843D01*
X64943000Y-38295560D01*
X63820362Y-38295560D01*
X63498000Y-37973199D01*
X63498000Y-37195975D01*
X63869758Y-36824217D01*
X64073000Y-36333548D01*
X64073000Y-35802452D01*
X63869758Y-35311783D01*
X63494217Y-34936242D01*
X63003548Y-34733000D01*
X62472452Y-34733000D01*
X61981783Y-34936242D01*
X61606242Y-35311783D01*
X61403000Y-35802452D01*
X61403000Y-36333548D01*
X61606242Y-36824217D01*
X61978001Y-37195976D01*
X61978001Y-38213148D01*
X61963112Y-38288000D01*
X62022097Y-38584537D01*
X62138354Y-38758527D01*
X62190072Y-38835929D01*
X62200654Y-38843000D01*
X61897126Y-38843000D01*
X61516720Y-39000569D01*
X61225569Y-39291720D01*
X61068000Y-39672126D01*
X61068000Y-40083874D01*
X61189831Y-40378001D01*
X60027249Y-40378001D01*
X60178000Y-40227250D01*
X60178000Y-40086690D01*
X60088232Y-39869972D01*
X60141157Y-39790765D01*
X60190440Y-39543000D01*
X60190440Y-38943000D01*
X60141157Y-38695235D01*
X60000809Y-38485191D01*
X59790765Y-38344843D01*
X59543000Y-38295560D01*
X57993000Y-38295560D01*
X57745235Y-38344843D01*
X57538470Y-38483000D01*
X54797802Y-38483000D01*
X53318077Y-37003275D01*
X58172331Y-37003275D01*
X58234169Y-37239042D01*
X58735122Y-37415419D01*
X59265440Y-37386664D01*
X59621831Y-37239042D01*
X59683669Y-37003275D01*
X58928000Y-36247605D01*
X58172331Y-37003275D01*
X53318077Y-37003275D01*
X52643000Y-36328199D01*
X52643000Y-35875122D01*
X57580581Y-35875122D01*
X57609336Y-36405440D01*
X57756958Y-36761831D01*
X57992725Y-36823669D01*
X58748395Y-36068000D01*
X59107605Y-36068000D01*
X59863275Y-36823669D01*
X60099042Y-36761831D01*
X60275419Y-36260878D01*
X60246664Y-35730560D01*
X60099042Y-35374169D01*
X59863275Y-35312331D01*
X59107605Y-36068000D01*
X58748395Y-36068000D01*
X57992725Y-35312331D01*
X57756958Y-35374169D01*
X57580581Y-35875122D01*
X52643000Y-35875122D01*
X52643000Y-35802452D01*
X52439758Y-35311783D01*
X52260700Y-35132725D01*
X58172331Y-35132725D01*
X58928000Y-35888395D01*
X59683669Y-35132725D01*
X59621831Y-34896958D01*
X59120878Y-34720581D01*
X58590560Y-34749336D01*
X58234169Y-34896958D01*
X58172331Y-35132725D01*
X52260700Y-35132725D01*
X52064217Y-34936242D01*
X51573548Y-34733000D01*
X51042452Y-34733000D01*
X50551783Y-34936242D01*
X50176242Y-35311783D01*
X49973000Y-35802452D01*
X49973000Y-36333548D01*
X50176242Y-36824217D01*
X50551783Y-37199758D01*
X51042452Y-37403000D01*
X51568199Y-37403000D01*
X53892670Y-39727472D01*
X53935071Y-39790929D01*
X53998530Y-39833331D01*
X54090739Y-39925540D01*
X54016964Y-39900193D01*
X53526587Y-39930518D01*
X53304510Y-40022505D01*
X53195765Y-39949843D01*
X52948000Y-39900560D01*
X51748000Y-39900560D01*
X51500235Y-39949843D01*
X51290191Y-40090191D01*
X51149843Y-40300235D01*
X51100560Y-40548000D01*
X51100560Y-41748000D01*
X51149843Y-41995765D01*
X51290191Y-42205809D01*
X51500235Y-42346157D01*
X51692087Y-42384318D01*
X51699764Y-42395807D01*
X51800072Y-42545929D01*
X51863528Y-42588329D01*
X52177669Y-42902470D01*
X52220071Y-42965929D01*
X52323440Y-43034998D01*
X52471462Y-43133904D01*
X52519605Y-43143480D01*
X52693148Y-43178000D01*
X52693152Y-43178000D01*
X52768000Y-43192888D01*
X52842848Y-43178000D01*
X55684289Y-43178000D01*
X55801720Y-43295431D01*
X56182126Y-43453000D01*
X56593874Y-43453000D01*
X56974280Y-43295431D01*
X57265431Y-43004280D01*
X57345560Y-42810831D01*
X57345560Y-43353000D01*
X57394843Y-43600765D01*
X57535191Y-43810809D01*
X57745235Y-43951157D01*
X57993000Y-44000440D01*
X59543000Y-44000440D01*
X59790765Y-43951157D01*
X60000809Y-43810809D01*
X60141157Y-43600765D01*
X60190440Y-43353000D01*
X60190440Y-42753000D01*
X60141157Y-42505235D01*
X60088232Y-42426028D01*
X60178000Y-42209310D01*
X60178000Y-42068750D01*
X60019252Y-41910002D01*
X60178000Y-41910002D01*
X60178000Y-41898001D01*
X62758000Y-41898001D01*
X62758000Y-41910002D01*
X62916748Y-41910002D01*
X62758000Y-42068750D01*
X62758000Y-42209310D01*
X62847768Y-42426028D01*
X62794843Y-42505235D01*
X62745560Y-42753000D01*
X62745560Y-43353000D01*
X62794843Y-43600765D01*
X62935191Y-43810809D01*
X63145235Y-43951157D01*
X63393000Y-44000440D01*
X64943000Y-44000440D01*
X65190765Y-43951157D01*
X65400809Y-43810809D01*
X65541157Y-43600765D01*
X65590440Y-43353000D01*
X65590440Y-42753000D01*
X65589592Y-42748735D01*
X68150870Y-42748735D01*
X68200383Y-42974164D01*
X68665036Y-43133807D01*
X69155413Y-43103482D01*
X69467617Y-42974164D01*
X69517130Y-42748735D01*
X68834000Y-42065605D01*
X68150870Y-42748735D01*
X65589592Y-42748735D01*
X65541157Y-42505235D01*
X65488232Y-42426028D01*
X65578000Y-42209310D01*
X65578000Y-42068750D01*
X65419252Y-41910002D01*
X65578000Y-41910002D01*
X65578000Y-41898001D01*
X67597384Y-41898001D01*
X67616518Y-42207413D01*
X67745836Y-42519617D01*
X67971265Y-42569130D01*
X68654395Y-41886000D01*
X68640253Y-41871858D01*
X68819858Y-41692253D01*
X68834000Y-41706395D01*
X68848143Y-41692253D01*
X69027748Y-41871858D01*
X69013605Y-41886000D01*
X69696735Y-42569130D01*
X69922164Y-42519617D01*
X70081807Y-42054964D01*
X70051482Y-41564587D01*
X69959495Y-41342510D01*
X70032157Y-41233765D01*
X70081440Y-40986000D01*
X70081440Y-40923240D01*
X72508002Y-43349803D01*
X72508001Y-44680560D01*
X70728000Y-44680560D01*
X70480235Y-44729843D01*
X70270191Y-44870191D01*
X70129843Y-45080235D01*
X70080560Y-45328000D01*
X70080560Y-45468000D01*
X62567847Y-45468000D01*
X62493000Y-45453112D01*
X62418153Y-45468000D01*
X62418149Y-45468000D01*
X62196464Y-45512096D01*
X62196462Y-45512097D01*
X62196463Y-45512097D01*
X62008527Y-45637671D01*
X62008525Y-45637673D01*
X61945072Y-45680071D01*
X61902674Y-45743524D01*
X59831806Y-47814393D01*
X59730663Y-47701236D01*
X59261331Y-47475273D01*
X59055000Y-47597794D01*
X59055000Y-48641000D01*
X59075000Y-48641000D01*
X59075000Y-48895000D01*
X59055000Y-48895000D01*
X59055000Y-49938206D01*
X59193001Y-50020152D01*
X59193002Y-51350347D01*
X59022127Y-51350347D01*
X58936058Y-51385998D01*
X58921252Y-51385998D01*
X59053000Y-51254250D01*
X59053000Y-51186690D01*
X58956327Y-50953301D01*
X58777698Y-50774673D01*
X58544309Y-50678000D01*
X58103750Y-50678000D01*
X57945000Y-50836750D01*
X57945000Y-51315560D01*
X57691000Y-51315560D01*
X57691000Y-50836750D01*
X57532250Y-50678000D01*
X57091691Y-50678000D01*
X56858302Y-50774673D01*
X56788000Y-50844975D01*
X56788000Y-50467126D01*
X56630431Y-50086720D01*
X56339280Y-49795569D01*
X55958874Y-49638000D01*
X55547126Y-49638000D01*
X55166720Y-49795569D01*
X54875569Y-50086720D01*
X54718000Y-50467126D01*
X54718000Y-50878874D01*
X54875569Y-51259280D01*
X54993001Y-51376712D01*
X54993001Y-51403000D01*
X53366802Y-51403000D01*
X53278000Y-51314198D01*
X53278000Y-50788452D01*
X53074758Y-50297783D01*
X52699217Y-49922242D01*
X52208548Y-49719000D01*
X51677452Y-49719000D01*
X51186783Y-49922242D01*
X50811242Y-50297783D01*
X50608000Y-50788452D01*
X50608000Y-51319548D01*
X50811242Y-51810217D01*
X51186783Y-52185758D01*
X51677452Y-52389000D01*
X52203198Y-52389000D01*
X52265198Y-52451000D01*
X52203198Y-52513000D01*
X51677452Y-52513000D01*
X51186783Y-52716242D01*
X50811242Y-53091783D01*
X50608000Y-53582452D01*
X50608000Y-54113548D01*
X50811242Y-54604217D01*
X51186783Y-54979758D01*
X51677452Y-55183000D01*
X52208548Y-55183000D01*
X52699217Y-54979758D01*
X53074758Y-54604217D01*
X53278000Y-54113548D01*
X53278000Y-53587802D01*
X53292802Y-53573000D01*
X54191198Y-53573000D01*
X52203199Y-55561000D01*
X51677452Y-55561000D01*
X51186783Y-55764242D01*
X50811242Y-56139783D01*
X50608000Y-56630452D01*
X50608000Y-57161548D01*
X50811242Y-57652217D01*
X51186783Y-58027758D01*
X51677452Y-58231000D01*
X52208548Y-58231000D01*
X52699217Y-58027758D01*
X53074758Y-57652217D01*
X53278000Y-57161548D01*
X53278000Y-56635801D01*
X55690802Y-54223000D01*
X56570560Y-54223000D01*
X56570560Y-54313000D01*
X56595424Y-54438000D01*
X56570560Y-54563000D01*
X56570560Y-54963000D01*
X56595424Y-55088000D01*
X56570560Y-55213000D01*
X56570560Y-55613000D01*
X56595424Y-55738000D01*
X56570560Y-55863000D01*
X56570560Y-56263000D01*
X56595424Y-56388000D01*
X56570560Y-56513000D01*
X56570560Y-56913000D01*
X56595424Y-57038000D01*
X56570560Y-57163000D01*
X56570560Y-57563000D01*
X56595424Y-57688000D01*
X56570560Y-57813000D01*
X56570560Y-58076849D01*
X56554280Y-58060569D01*
X56173874Y-57903000D01*
X55762126Y-57903000D01*
X55381720Y-58060569D01*
X55090569Y-58351720D01*
X54933000Y-58732126D01*
X54933000Y-58898198D01*
X53758199Y-60073000D01*
X53070975Y-60073000D01*
X52699217Y-59701242D01*
X52208548Y-59498000D01*
X51677452Y-59498000D01*
X51186783Y-59701242D01*
X50811242Y-60076783D01*
X50608000Y-60567452D01*
X50608000Y-61098548D01*
X50811242Y-61589217D01*
X51183000Y-61960975D01*
X51183001Y-72520984D01*
X51168112Y-72595836D01*
X51227097Y-72892373D01*
X51331437Y-73048528D01*
X51395072Y-73143765D01*
X51458528Y-73186165D01*
X56734837Y-78462476D01*
X56777235Y-78525929D01*
X56832716Y-78563000D01*
X49453000Y-78563000D01*
X49453000Y-49101329D01*
X57635284Y-49101329D01*
X57778203Y-49446396D01*
X58125337Y-49834764D01*
X58594669Y-50060727D01*
X58801000Y-49938206D01*
X58801000Y-48895000D01*
X57758626Y-48895000D01*
X57635284Y-49101329D01*
X49453000Y-49101329D01*
X49453000Y-48434671D01*
X57635284Y-48434671D01*
X57758626Y-48641000D01*
X58801000Y-48641000D01*
X58801000Y-47597794D01*
X58594669Y-47475273D01*
X58125337Y-47701236D01*
X57778203Y-48089604D01*
X57635284Y-48434671D01*
X49453000Y-48434671D01*
X49453000Y-31673000D01*
X91263000Y-31673000D01*
X91263001Y-78563000D01*
G36*
X62358000Y-54538149D02*
X62358000Y-54538153D01*
X62343112Y-54613000D01*
X62358000Y-54687847D01*
X62358001Y-59784288D01*
X62240569Y-59901720D01*
X62083000Y-60282126D01*
X62083000Y-60693874D01*
X62240569Y-61074280D01*
X62531720Y-61365431D01*
X62912126Y-61523000D01*
X63323874Y-61523000D01*
X63704280Y-61365431D01*
X63870560Y-61199151D01*
X63870560Y-61463000D01*
X63919843Y-61710765D01*
X63940106Y-61741091D01*
X62561532Y-63119667D01*
X62498076Y-63162067D01*
X62455676Y-63225523D01*
X62455675Y-63225524D01*
X62330101Y-63413459D01*
X62271116Y-63709996D01*
X62286005Y-63784848D01*
X62286004Y-66938991D01*
X62271116Y-67013838D01*
X62286004Y-67088685D01*
X62286004Y-67088689D01*
X62330100Y-67310374D01*
X62374216Y-67376399D01*
X62306005Y-67376399D01*
X62181005Y-67401263D01*
X62056005Y-67376399D01*
X61656005Y-67376399D01*
X61531005Y-67401263D01*
X61406005Y-67376399D01*
X61006005Y-67376399D01*
X60881005Y-67401263D01*
X60756005Y-67376399D01*
X60356005Y-67376399D01*
X60231005Y-67401263D01*
X60106005Y-67376399D01*
X59706005Y-67376399D01*
X59581005Y-67401263D01*
X59456005Y-67376399D01*
X59056005Y-67376399D01*
X58931005Y-67401263D01*
X58806005Y-67376399D01*
X58406005Y-67376399D01*
X58281005Y-67401263D01*
X58156005Y-67376399D01*
X57756005Y-67376399D01*
X57631005Y-67401263D01*
X57506005Y-67376399D01*
X57106005Y-67376399D01*
X56981005Y-67401263D01*
X56856005Y-67376399D01*
X56456005Y-67376399D01*
X56208240Y-67425682D01*
X55998196Y-67566030D01*
X55857848Y-67776074D01*
X55808565Y-68023839D01*
X55808565Y-69223839D01*
X55857848Y-69471604D01*
X55998196Y-69681648D01*
X56208240Y-69821996D01*
X56456005Y-69871279D01*
X56856005Y-69871279D01*
X56981005Y-69846415D01*
X57106005Y-69871279D01*
X57506005Y-69871279D01*
X57631005Y-69846415D01*
X57756005Y-69871279D01*
X58156005Y-69871279D01*
X58281005Y-69846415D01*
X58406005Y-69871279D01*
X58806005Y-69871279D01*
X58931005Y-69846415D01*
X59056005Y-69871279D01*
X59456005Y-69871279D01*
X59581005Y-69846415D01*
X59706005Y-69871279D01*
X60106005Y-69871279D01*
X60231005Y-69846415D01*
X60356005Y-69871279D01*
X60756005Y-69871279D01*
X60881005Y-69846415D01*
X61006005Y-69871279D01*
X61207523Y-69871279D01*
X61308076Y-70021768D01*
X61371535Y-70064170D01*
X62308382Y-71001018D01*
X62253526Y-71037671D01*
X62253524Y-71037673D01*
X62190071Y-71080071D01*
X62147673Y-71143525D01*
X61371534Y-71919664D01*
X61308076Y-71962066D01*
X61140101Y-72213459D01*
X61096005Y-72435144D01*
X61096005Y-72435148D01*
X61081117Y-72509995D01*
X61096005Y-72584842D01*
X61096006Y-74676399D01*
X61006005Y-74676399D01*
X60881005Y-74701263D01*
X60756005Y-74676399D01*
X60356005Y-74676399D01*
X60231005Y-74701263D01*
X60106005Y-74676399D01*
X59706005Y-74676399D01*
X59581005Y-74701263D01*
X59456005Y-74676399D01*
X59056005Y-74676399D01*
X58931005Y-74701263D01*
X58806005Y-74676399D01*
X58406005Y-74676399D01*
X58281005Y-74701263D01*
X58156005Y-74676399D01*
X57756005Y-74676399D01*
X57631005Y-74701263D01*
X57506005Y-74676399D01*
X57106005Y-74676399D01*
X56981005Y-74701263D01*
X56856005Y-74676399D01*
X56456005Y-74676399D01*
X56208240Y-74725682D01*
X55998196Y-74866030D01*
X55857848Y-75076074D01*
X55808565Y-75323839D01*
X55808565Y-75386599D01*
X52703000Y-72281035D01*
X52703000Y-64987168D01*
X57698289Y-64987168D01*
X57841208Y-65332235D01*
X58188342Y-65720603D01*
X58657674Y-65946566D01*
X58864005Y-65824045D01*
X58864005Y-64780839D01*
X59118005Y-64780839D01*
X59118005Y-65824045D01*
X59324336Y-65946566D01*
X59793668Y-65720603D01*
X60140802Y-65332235D01*
X60283721Y-64987168D01*
X60160379Y-64780839D01*
X59118005Y-64780839D01*
X58864005Y-64780839D01*
X57821631Y-64780839D01*
X57698289Y-64987168D01*
X52703000Y-64987168D01*
X52703000Y-64320510D01*
X57698289Y-64320510D01*
X57821631Y-64526839D01*
X58864005Y-64526839D01*
X58864005Y-63483633D01*
X59118005Y-63483633D01*
X59118005Y-64526839D01*
X60160379Y-64526839D01*
X60283721Y-64320510D01*
X60140802Y-63975443D01*
X59793668Y-63587075D01*
X59324336Y-63361112D01*
X59118005Y-63483633D01*
X58864005Y-63483633D01*
X58657674Y-63361112D01*
X58188342Y-63587075D01*
X57841208Y-63975443D01*
X57698289Y-64320510D01*
X52703000Y-64320510D01*
X52703000Y-61960975D01*
X53070975Y-61593000D01*
X53998153Y-61593000D01*
X54073000Y-61607888D01*
X54147847Y-61593000D01*
X54147852Y-61593000D01*
X54369537Y-61548904D01*
X54620929Y-61380929D01*
X54663331Y-61317470D01*
X56007802Y-59973000D01*
X56173874Y-59973000D01*
X56554280Y-59815431D01*
X56570560Y-59799151D01*
X56570560Y-60163000D01*
X56595424Y-60288000D01*
X56570560Y-60413000D01*
X56570560Y-60813000D01*
X56595424Y-60938000D01*
X56570560Y-61063000D01*
X56570560Y-61463000D01*
X56619843Y-61710765D01*
X56760191Y-61920809D01*
X56970235Y-62061157D01*
X57218000Y-62110440D01*
X58418000Y-62110440D01*
X58665765Y-62061157D01*
X58875809Y-61920809D01*
X59016157Y-61710765D01*
X59065440Y-61463000D01*
X59065440Y-61063000D01*
X59040576Y-60938000D01*
X59065440Y-60813000D01*
X59065440Y-60413000D01*
X59040576Y-60288000D01*
X59065440Y-60163000D01*
X59065440Y-59763000D01*
X59040576Y-59638000D01*
X59065440Y-59513000D01*
X59065440Y-59113000D01*
X59040576Y-58988000D01*
X59065440Y-58863000D01*
X59065440Y-58463000D01*
X59040576Y-58338000D01*
X59065440Y-58213000D01*
X59065440Y-57813000D01*
X59041046Y-57690360D01*
X59064459Y-57700058D01*
X59476207Y-57700058D01*
X59856613Y-57542489D01*
X60147764Y-57251338D01*
X60305333Y-56870932D01*
X60305333Y-56575468D01*
X62361811Y-54518991D01*
X62358000Y-54538149D01*
X62358000Y-54538149D01*
G37*
X62358000Y-54538149D02*
X62358000Y-54538153D01*
X62343112Y-54613000D01*
X62358000Y-54687847D01*
X62358001Y-59784288D01*
X62240569Y-59901720D01*
X62083000Y-60282126D01*
X62083000Y-60693874D01*
X62240569Y-61074280D01*
X62531720Y-61365431D01*
X62912126Y-61523000D01*
X63323874Y-61523000D01*
X63704280Y-61365431D01*
X63870560Y-61199151D01*
X63870560Y-61463000D01*
X63919843Y-61710765D01*
X63940106Y-61741091D01*
X62561532Y-63119667D01*
X62498076Y-63162067D01*
X62455676Y-63225523D01*
X62455675Y-63225524D01*
X62330101Y-63413459D01*
X62271116Y-63709996D01*
X62286005Y-63784848D01*
X62286004Y-66938991D01*
X62271116Y-67013838D01*
X62286004Y-67088685D01*
X62286004Y-67088689D01*
X62330100Y-67310374D01*
X62374216Y-67376399D01*
X62306005Y-67376399D01*
X62181005Y-67401263D01*
X62056005Y-67376399D01*
X61656005Y-67376399D01*
X61531005Y-67401263D01*
X61406005Y-67376399D01*
X61006005Y-67376399D01*
X60881005Y-67401263D01*
X60756005Y-67376399D01*
X60356005Y-67376399D01*
X60231005Y-67401263D01*
X60106005Y-67376399D01*
X59706005Y-67376399D01*
X59581005Y-67401263D01*
X59456005Y-67376399D01*
X59056005Y-67376399D01*
X58931005Y-67401263D01*
X58806005Y-67376399D01*
X58406005Y-67376399D01*
X58281005Y-67401263D01*
X58156005Y-67376399D01*
X57756005Y-67376399D01*
X57631005Y-67401263D01*
X57506005Y-67376399D01*
X57106005Y-67376399D01*
X56981005Y-67401263D01*
X56856005Y-67376399D01*
X56456005Y-67376399D01*
X56208240Y-67425682D01*
X55998196Y-67566030D01*
X55857848Y-67776074D01*
X55808565Y-68023839D01*
X55808565Y-69223839D01*
X55857848Y-69471604D01*
X55998196Y-69681648D01*
X56208240Y-69821996D01*
X56456005Y-69871279D01*
X56856005Y-69871279D01*
X56981005Y-69846415D01*
X57106005Y-69871279D01*
X57506005Y-69871279D01*
X57631005Y-69846415D01*
X57756005Y-69871279D01*
X58156005Y-69871279D01*
X58281005Y-69846415D01*
X58406005Y-69871279D01*
X58806005Y-69871279D01*
X58931005Y-69846415D01*
X59056005Y-69871279D01*
X59456005Y-69871279D01*
X59581005Y-69846415D01*
X59706005Y-69871279D01*
X60106005Y-69871279D01*
X60231005Y-69846415D01*
X60356005Y-69871279D01*
X60756005Y-69871279D01*
X60881005Y-69846415D01*
X61006005Y-69871279D01*
X61207523Y-69871279D01*
X61308076Y-70021768D01*
X61371535Y-70064170D01*
X62308382Y-71001018D01*
X62253526Y-71037671D01*
X62253524Y-71037673D01*
X62190071Y-71080071D01*
X62147673Y-71143525D01*
X61371534Y-71919664D01*
X61308076Y-71962066D01*
X61140101Y-72213459D01*
X61096005Y-72435144D01*
X61096005Y-72435148D01*
X61081117Y-72509995D01*
X61096005Y-72584842D01*
X61096006Y-74676399D01*
X61006005Y-74676399D01*
X60881005Y-74701263D01*
X60756005Y-74676399D01*
X60356005Y-74676399D01*
X60231005Y-74701263D01*
X60106005Y-74676399D01*
X59706005Y-74676399D01*
X59581005Y-74701263D01*
X59456005Y-74676399D01*
X59056005Y-74676399D01*
X58931005Y-74701263D01*
X58806005Y-74676399D01*
X58406005Y-74676399D01*
X58281005Y-74701263D01*
X58156005Y-74676399D01*
X57756005Y-74676399D01*
X57631005Y-74701263D01*
X57506005Y-74676399D01*
X57106005Y-74676399D01*
X56981005Y-74701263D01*
X56856005Y-74676399D01*
X56456005Y-74676399D01*
X56208240Y-74725682D01*
X55998196Y-74866030D01*
X55857848Y-75076074D01*
X55808565Y-75323839D01*
X55808565Y-75386599D01*
X52703000Y-72281035D01*
X52703000Y-64987168D01*
X57698289Y-64987168D01*
X57841208Y-65332235D01*
X58188342Y-65720603D01*
X58657674Y-65946566D01*
X58864005Y-65824045D01*
X58864005Y-64780839D01*
X59118005Y-64780839D01*
X59118005Y-65824045D01*
X59324336Y-65946566D01*
X59793668Y-65720603D01*
X60140802Y-65332235D01*
X60283721Y-64987168D01*
X60160379Y-64780839D01*
X59118005Y-64780839D01*
X58864005Y-64780839D01*
X57821631Y-64780839D01*
X57698289Y-64987168D01*
X52703000Y-64987168D01*
X52703000Y-64320510D01*
X57698289Y-64320510D01*
X57821631Y-64526839D01*
X58864005Y-64526839D01*
X58864005Y-63483633D01*
X59118005Y-63483633D01*
X59118005Y-64526839D01*
X60160379Y-64526839D01*
X60283721Y-64320510D01*
X60140802Y-63975443D01*
X59793668Y-63587075D01*
X59324336Y-63361112D01*
X59118005Y-63483633D01*
X58864005Y-63483633D01*
X58657674Y-63361112D01*
X58188342Y-63587075D01*
X57841208Y-63975443D01*
X57698289Y-64320510D01*
X52703000Y-64320510D01*
X52703000Y-61960975D01*
X53070975Y-61593000D01*
X53998153Y-61593000D01*
X54073000Y-61607888D01*
X54147847Y-61593000D01*
X54147852Y-61593000D01*
X54369537Y-61548904D01*
X54620929Y-61380929D01*
X54663331Y-61317470D01*
X56007802Y-59973000D01*
X56173874Y-59973000D01*
X56554280Y-59815431D01*
X56570560Y-59799151D01*
X56570560Y-60163000D01*
X56595424Y-60288000D01*
X56570560Y-60413000D01*
X56570560Y-60813000D01*
X56595424Y-60938000D01*
X56570560Y-61063000D01*
X56570560Y-61463000D01*
X56619843Y-61710765D01*
X56760191Y-61920809D01*
X56970235Y-62061157D01*
X57218000Y-62110440D01*
X58418000Y-62110440D01*
X58665765Y-62061157D01*
X58875809Y-61920809D01*
X59016157Y-61710765D01*
X59065440Y-61463000D01*
X59065440Y-61063000D01*
X59040576Y-60938000D01*
X59065440Y-60813000D01*
X59065440Y-60413000D01*
X59040576Y-60288000D01*
X59065440Y-60163000D01*
X59065440Y-59763000D01*
X59040576Y-59638000D01*
X59065440Y-59513000D01*
X59065440Y-59113000D01*
X59040576Y-58988000D01*
X59065440Y-58863000D01*
X59065440Y-58463000D01*
X59040576Y-58338000D01*
X59065440Y-58213000D01*
X59065440Y-57813000D01*
X59041046Y-57690360D01*
X59064459Y-57700058D01*
X59476207Y-57700058D01*
X59856613Y-57542489D01*
X60147764Y-57251338D01*
X60305333Y-56870932D01*
X60305333Y-56575468D01*
X62361811Y-54518991D01*
X62358000Y-54538149D01*
G36*
X70129843Y-62615765D02*
X70220905Y-62752048D01*
X70233000Y-62812852D01*
X70233001Y-65107042D01*
X67670753Y-67669291D01*
X67727183Y-67533057D01*
X67727183Y-67121309D01*
X67569614Y-66740903D01*
X67278463Y-66449752D01*
X66984337Y-66327921D01*
X66862506Y-66033795D01*
X66571355Y-65742644D01*
X66190949Y-65585075D01*
X65856006Y-65585075D01*
X65856006Y-63606539D01*
X65870894Y-63531691D01*
X65856006Y-63456843D01*
X65856006Y-63456839D01*
X65848200Y-63417595D01*
X66003000Y-63043874D01*
X66003000Y-62632126D01*
X65968154Y-62548001D01*
X69716996Y-62548001D01*
X69791843Y-62562889D01*
X69866690Y-62548001D01*
X69866695Y-62548001D01*
X70088380Y-62503905D01*
X70105339Y-62492573D01*
X70129843Y-62615765D01*
X70129843Y-62615765D01*
G37*
X70129843Y-62615765D02*
X70220905Y-62752048D01*
X70233000Y-62812852D01*
X70233001Y-65107042D01*
X67670753Y-67669291D01*
X67727183Y-67533057D01*
X67727183Y-67121309D01*
X67569614Y-66740903D01*
X67278463Y-66449752D01*
X66984337Y-66327921D01*
X66862506Y-66033795D01*
X66571355Y-65742644D01*
X66190949Y-65585075D01*
X65856006Y-65585075D01*
X65856006Y-63606539D01*
X65870894Y-63531691D01*
X65856006Y-63456843D01*
X65856006Y-63456839D01*
X65848200Y-63417595D01*
X66003000Y-63043874D01*
X66003000Y-62632126D01*
X65968154Y-62548001D01*
X69716996Y-62548001D01*
X69791843Y-62562889D01*
X69866690Y-62548001D01*
X69866695Y-62548001D01*
X70088380Y-62503905D01*
X70105339Y-62492573D01*
X70129843Y-62615765D01*
G36*
X64315000Y-41910000D02*
X64295000Y-41910000D01*
X64295000Y-41930000D01*
X64041000Y-41930000D01*
X64041000Y-41910000D01*
X64021000Y-41910000D01*
X64021000Y-41898001D01*
X64315000Y-41898001D01*
X64315000Y-41910000D01*
X64315000Y-41910000D01*
G37*
X64315000Y-41910000D02*
X64295000Y-41910000D01*
X64295000Y-41930000D01*
X64041000Y-41930000D01*
X64041000Y-41910000D01*
X64021000Y-41910000D01*
X64021000Y-41898001D01*
X64315000Y-41898001D01*
X64315000Y-41910000D01*
G36*
X58915000Y-41910000D02*
X58895000Y-41910000D01*
X58895000Y-41930000D01*
X58641000Y-41930000D01*
X58641000Y-41910000D01*
X58621000Y-41910000D01*
X58621000Y-41898001D01*
X58915000Y-41898001D01*
X58915000Y-41910000D01*
X58915000Y-41910000D01*
G37*
X58915000Y-41910000D02*
X58895000Y-41910000D01*
X58895000Y-41930000D01*
X58641000Y-41930000D01*
X58641000Y-41910000D01*
X58621000Y-41910000D01*
X58621000Y-41898001D01*
X58915000Y-41898001D01*
X58915000Y-41910000D01*
G36*
X54041748Y-41133858D02*
X54027605Y-41148000D01*
X54041748Y-41162143D01*
X53862143Y-41341748D01*
X53848000Y-41327605D01*
X53833858Y-41341748D01*
X53654253Y-41162143D01*
X53668395Y-41148000D01*
X53654253Y-41133858D01*
X53833858Y-40954253D01*
X53848000Y-40968395D01*
X53862143Y-40954253D01*
X54041748Y-41133858D01*
X54041748Y-41133858D01*
G37*
X54041748Y-41133858D02*
X54027605Y-41148000D01*
X54041748Y-41162143D01*
X53862143Y-41341748D01*
X53848000Y-41327605D01*
X53833858Y-41341748D01*
X53654253Y-41162143D01*
X53668395Y-41148000D01*
X53654253Y-41133858D01*
X53833858Y-40954253D01*
X53848000Y-40968395D01*
X53862143Y-40954253D01*
X54041748Y-41133858D01*
G36*
X58895000Y-40378001D02*
X58641000Y-40378001D01*
X58641000Y-40366000D01*
X58895000Y-40366000D01*
X58895000Y-40378001D01*
X58895000Y-40378001D01*
G37*
X58895000Y-40378001D02*
X58641000Y-40378001D01*
X58641000Y-40366000D01*
X58895000Y-40366000D01*
X58895000Y-40378001D01*
G36*
X57358000Y-40086690D02*
X57358000Y-40227250D01*
X57508751Y-40378001D01*
X56692803Y-40378001D01*
X56317802Y-40003000D01*
X57392666Y-40003000D01*
X57358000Y-40086690D01*
X57358000Y-40086690D01*
G37*
X57358000Y-40086690D02*
X57358000Y-40227250D01*
X57508751Y-40378001D01*
X56692803Y-40378001D01*
X56317802Y-40003000D01*
X57392666Y-40003000D01*
X57358000Y-40086690D01*
G36*
X67586560Y-40219640D02*
X67428200Y-40378001D01*
X65427249Y-40378001D01*
X65578000Y-40227250D01*
X65578000Y-40086690D01*
X65543334Y-40003000D01*
X67586560Y-40003000D01*
X67586560Y-40219640D01*
X67586560Y-40219640D01*
G37*
X67586560Y-40219640D02*
X67428200Y-40378001D01*
X65427249Y-40378001D01*
X65578000Y-40227250D01*
X65578000Y-40086690D01*
X65543334Y-40003000D01*
X67586560Y-40003000D01*
X67586560Y-40219640D01*
G04 #@! TD*
M02*
