M48
;DRILL file {KiCad (5.0.2)-1} date 7/28/2019 5:57:31 PM
;FORMAT={-:-/ absolute / inch / decimal}
FMAT,2
INCH,TZ
T1C0.0669
T2C0.1201
T3C0.1575
%
G90
G05
T1
X16.2659Y-13.4953
X16.6659Y-13.4953
X14.3024Y-13.4953
X14.7024Y-13.4953
X13.0976Y-12.1736
X13.0976Y-12.5736
X12.1508Y-11.9992
X12.5508Y-11.9992
X11.4028Y-11.2512
X11.8028Y-11.2512
X20.1921Y-10.1291
X20.5921Y-10.1291
X18.697Y-12.0002
X19.097Y-12.0002
X20.9402Y-10.1291
X21.3402Y-10.1291
X17.574Y-10.1291
X17.974Y-10.1291
X22.248Y-13.497
X22.648Y-13.497
X18.8831Y-12.7482
X19.2831Y-12.7482
X25.2413Y-14.2433
X25.6413Y-14.2433
X20.3787Y-12.7488
X20.7787Y-12.7488
X20.1906Y-12.0008
X20.5906Y-12.0008
X15.5179Y-13.4953
X15.9179Y-13.4953
X16.639Y-12.7472
X17.039Y-12.7472
X25.2413Y-11.9992
X25.6413Y-11.9992
X10.6547Y-13.4953
X11.0547Y-13.4953
X11.4028Y-12.7472
X11.8028Y-12.7472
X23.6524Y-13.4957
X24.0524Y-13.4957
X22.3429Y-14.2441
X22.7429Y-14.2441
X25.9894Y-14.2433
X26.3894Y-14.2433
X18.322Y-11.2512
X18.722Y-11.2512
X22.0626Y-11.2524
X22.4626Y-11.2524
X17.574Y-11.2512
X17.974Y-11.2512
X25.9894Y-10.1287
X26.3894Y-10.1287
X23.1846Y-11.9996
X23.5846Y-11.9996
X20.0055Y-13.4957
X20.4055Y-13.4957
X16.452Y-11.9992
X16.852Y-11.9992
X25.9894Y-11.9992
X26.3894Y-11.9992
X12.1508Y-11.2512
X12.5508Y-11.2512
X26.7374Y-11.9992
X27.1374Y-11.9992
X15.7974Y-14.2453
X16.1974Y-14.2453
X21.4077Y-14.2443
X21.8077Y-14.2443
X26.7374Y-11.2512
X27.1374Y-11.2512
X18.6961Y-10.1291
X19.0961Y-10.1291
X20.5646Y-11.2528
X20.9646Y-11.2528
X17.387Y-12.7472
X17.787Y-12.7472
X22.8102Y-10.1291
X23.2102Y-10.1291
X23.5583Y-10.1291
X23.9583Y-10.1291
X26.7374Y-14.2433
X27.1374Y-14.2433
X13.8339Y-10.1291
X14.2339Y-10.1291
X15.3289Y-11.2512
X15.7289Y-11.2512
X13.9264Y-14.2433
X14.3264Y-14.2433
X14.9555Y-12.001
X15.3555Y-12.001
X22.8094Y-11.252
X23.2094Y-11.252
X13.0976Y-13.6697
X13.0976Y-14.0697
X12.8988Y-11.2512
X13.2988Y-11.2512
X12.1508Y-13.4953
X12.5508Y-13.4953
X14.1144Y-12.7482
X14.5144Y-12.7482
X11.0287Y-14.2433
X11.4287Y-14.2433
X18.6026Y-14.2433
X19.0026Y-14.2433
X19.6319Y-12.7469
X20.0319Y-12.7469
X17.948Y-11.9992
X18.348Y-11.9992
X21.6866Y-12.0008
X22.0866Y-12.0008
X18.135Y-12.7482
X18.535Y-12.7482
X20.752Y-13.4961
X21.152Y-13.4961
X22.6224Y-12.7492
X23.0224Y-12.7492
X20.9386Y-12.0008
X21.3386Y-12.0008
X13.8339Y-11.2512
X14.2339Y-11.2512
X14.5819Y-11.2512
X14.9819Y-11.2512
X16.078Y-10.1291
X16.478Y-10.1291
X12.1508Y-12.7472
X12.5508Y-12.7472
X11.4028Y-13.4953
X11.8028Y-13.4953
X23.8386Y-12.7476
X24.2386Y-12.7476
X16.826Y-10.1291
X17.226Y-10.1291
X25.9894Y-13.4953
X26.3894Y-13.4953
X17.2Y-11.9992
X17.6Y-11.9992
X21.3142Y-11.2524
X21.7142Y-11.2524
X16.826Y-11.2512
X17.226Y-11.2512
X26.7378Y-10.1295
X27.1378Y-10.1295
X22.0612Y-10.1301
X22.4612Y-10.1301
X25.9894Y-11.2512
X26.3894Y-11.2512
X15.8909Y-12.7472
X16.2909Y-12.7472
X14.0209Y-12.0002
X14.4209Y-12.0002
X15.7049Y-11.9992
X16.1049Y-11.9992
X10.6547Y-11.9992
X11.0547Y-11.9992
X10.6547Y-12.7472
X11.0547Y-12.7472
X10.6547Y-11.2512
X11.0547Y-11.2512
X23.9327Y-11.2508
X24.3327Y-11.2508
X19.0705Y-11.2516
X19.4705Y-11.2516
X22.4354Y-12.0012
X22.8354Y-12.0012
X17.761Y-13.4953
X18.161Y-13.4953
X25.2413Y-11.2512
X25.6413Y-11.2512
X17.013Y-13.4953
X17.413Y-13.4953
X24.3067Y-10.1291
X24.7067Y-10.1291
X21.5Y-13.4961
X21.9Y-13.4961
X25.2417Y-10.1291
X25.6417Y-10.1291
X16.078Y-11.2512
X16.478Y-11.2512
X15.1429Y-12.7482
X15.5429Y-12.7482
X12.1508Y-14.2443
X12.5508Y-14.2443
X15.3299Y-10.1291
X15.7299Y-10.1291
X14.8624Y-14.2443
X15.2624Y-14.2443
X11.4028Y-11.9992
X11.8028Y-11.9992
X24.2138Y-14.2433
X24.6138Y-14.2433
X23.2791Y-14.2433
X23.6791Y-14.2433
X19.2581Y-13.4953
X19.6581Y-13.4953
X19.4453Y-11.9992
X19.8453Y-11.9992
X18.5091Y-13.4963
X18.9091Y-13.4963
X24.1201Y-11.9988
X24.5201Y-11.9988
X19.4441Y-10.1291
X19.8441Y-10.1291
X19.8175Y-11.2528
X20.2175Y-11.2528
X21.126Y-12.7484
X21.526Y-12.7484
X21.874Y-12.7484
X22.274Y-12.7484
T2
X23.6642Y-10.9752
X24.6012Y-10.9752
X14.0339Y-13.2197
X14.9709Y-13.2197
X12.822Y-11.9051
X12.822Y-12.8421
X23.3839Y-13.2201
X24.3209Y-13.2201
X12.822Y-13.4012
X12.822Y-14.3382
X10.7602Y-13.9677
X11.6972Y-13.9677
X16.8341Y-13.9677
X20.7711Y-13.9677
X23.5701Y-12.472
X24.5071Y-12.472
T3
X16.278Y-11.2512
X15.3429Y-12.7482
X12.3508Y-14.2443
X15.5299Y-10.1291
X15.0624Y-14.2443
X11.6028Y-11.9992
X24.4138Y-14.2433
X23.4791Y-14.2433
X19.4581Y-13.4953
X19.6453Y-11.9992
X18.7091Y-13.4963
X24.3201Y-11.9988
X19.6441Y-10.1291
X20.0175Y-11.2528
X21.326Y-12.7484
X22.074Y-12.7484
X16.4659Y-13.4953
X14.0339Y-13.8197
X14.5024Y-13.4953
X14.9709Y-13.8197
X13.0976Y-12.3736
X13.422Y-11.9051
X13.422Y-12.8421
X12.3508Y-11.9992
X11.6028Y-11.2512
X20.3921Y-10.1291
X18.897Y-12.0002
X21.1402Y-10.1291
X17.774Y-10.1291
X22.448Y-13.497
X19.0831Y-12.7482
X25.4413Y-14.2433
X20.5787Y-12.7488
X20.3906Y-12.0008
X15.7179Y-13.4953
X16.839Y-12.7472
X25.4413Y-11.9992
X10.8547Y-13.4953
X11.6028Y-12.7472
X23.3839Y-13.8201
X23.8524Y-13.4957
X24.3209Y-13.8201
X22.5429Y-14.2441
X26.1894Y-14.2433
X18.522Y-11.2512
X22.2626Y-11.2524
X17.774Y-11.2512
X26.1894Y-10.1287
X23.3846Y-11.9996
X20.2055Y-13.4957
X16.652Y-11.9992
X26.1894Y-11.9992
X12.3508Y-11.2512
X26.9374Y-11.9992
X15.9974Y-14.2453
X21.6077Y-14.2443
X26.9374Y-11.2512
X18.8961Y-10.1291
X20.7646Y-11.2528
X17.587Y-12.7472
X23.0102Y-10.1291
X23.7583Y-10.1291
X26.9374Y-14.2433
X14.0339Y-10.1291
X15.5289Y-11.2512
X14.1264Y-14.2433
X15.1555Y-12.001
X23.0094Y-11.252
X13.0976Y-13.8697
X13.422Y-13.4012
X13.422Y-14.3382
X13.0988Y-11.2512
X12.3508Y-13.4953
X14.3144Y-12.7482
X10.7602Y-14.5677
X11.2287Y-14.2433
X11.6972Y-14.5677
X16.8341Y-14.5677
X18.8026Y-14.2433
X20.7711Y-14.5677
X19.8319Y-12.7469
X18.148Y-11.9992
X21.8866Y-12.0008
X18.335Y-12.7482
X20.952Y-13.4961
X22.8224Y-12.7492
X21.1386Y-12.0008
X14.0339Y-11.2512
X14.7819Y-11.2512
X16.278Y-10.1291
X12.3508Y-12.7472
X11.6028Y-13.4953
X23.5701Y-13.072
X24.0386Y-12.7476
X24.5071Y-13.072
X17.026Y-10.1291
X26.1894Y-13.4953
X17.4Y-11.9992
X21.5142Y-11.2524
X17.026Y-11.2512
X26.9378Y-10.1295
X22.2612Y-10.1301
X26.1894Y-11.2512
X16.0909Y-12.7472
X14.2209Y-12.0002
X15.9049Y-11.9992
X10.8547Y-11.9992
X10.8547Y-12.7472
X10.8547Y-11.2512
X23.6642Y-11.5752
X24.1327Y-11.2508
X24.6012Y-11.5752
X19.2705Y-11.2516
X22.6354Y-12.0012
X17.961Y-13.4953
X25.4413Y-11.2512
X17.213Y-13.4953
X24.5067Y-10.1291
X21.7Y-13.4961
X25.4417Y-10.1291
T0
M30
